<svg width="885" height="268" viewBox="0 0 885 268" fill="none" xmlns="http://www.w3.org/2000/svg">
<rect width="885" height="72" rx="8" fill="#EFEFEF"/>
<path d="M289.169 47H284.879L283.229 42.17H275.639L273.989 47H269.759L276.989 27.2H281.939L289.169 47ZM276.569 39.11H282.299L279.419 30.47L276.569 39.11ZM297.598 47.3C296.078 47.3 294.688 47.03 293.428 46.49C292.188 45.95 291.178 45.19 290.398 44.21L292.768 41.81C293.248 42.53 293.888 43.12 294.688 43.58C295.488 44.04 296.438 44.27 297.538 44.27C298.318 44.27 298.938 44.16 299.398 43.94C299.878 43.7 300.118 43.33 300.118 42.83C300.118 42.51 300.008 42.24 299.788 42.02C299.568 41.78 299.128 41.59 298.468 41.45L295.828 40.91C294.088 40.55 292.848 40.01 292.108 39.29C291.388 38.55 291.028 37.6 291.028 36.44C291.028 35.62 291.268 34.85 291.748 34.13C292.248 33.41 292.988 32.83 293.968 32.39C294.948 31.93 296.168 31.7 297.628 31.7C299.128 31.7 300.428 31.94 301.528 32.42C302.648 32.88 303.528 33.57 304.168 34.49L301.708 36.89C301.268 36.19 300.688 35.66 299.968 35.3C299.268 34.92 298.528 34.73 297.748 34.73C297.188 34.73 296.708 34.79 296.308 34.91C295.908 35.03 295.608 35.2 295.408 35.42C295.208 35.62 295.108 35.88 295.108 36.2C295.108 36.52 295.248 36.8 295.528 37.04C295.808 37.26 296.318 37.45 297.058 37.61L300.118 38.24C301.598 38.54 302.658 39.05 303.298 39.77C303.938 40.47 304.258 41.32 304.258 42.32C304.258 43.28 303.998 44.14 303.478 44.9C302.978 45.64 302.228 46.23 301.228 46.67C300.248 47.09 299.038 47.3 297.598 47.3ZM313.536 47.3C312.016 47.3 310.626 47.03 309.366 46.49C308.126 45.95 307.116 45.19 306.336 44.21L308.706 41.81C309.186 42.53 309.826 43.12 310.626 43.58C311.426 44.04 312.376 44.27 313.476 44.27C314.256 44.27 314.876 44.16 315.336 43.94C315.816 43.7 316.056 43.33 316.056 42.83C316.056 42.51 315.946 42.24 315.726 42.02C315.506 41.78 315.066 41.59 314.406 41.45L311.766 40.91C310.026 40.55 308.786 40.01 308.046 39.29C307.326 38.55 306.966 37.6 306.966 36.44C306.966 35.62 307.206 34.85 307.686 34.13C308.186 33.41 308.926 32.83 309.906 32.39C310.886 31.93 312.106 31.7 313.566 31.7C315.066 31.7 316.366 31.94 317.466 32.42C318.586 32.88 319.466 33.57 320.106 34.49L317.646 36.89C317.206 36.19 316.626 35.66 315.906 35.3C315.206 34.92 314.466 34.73 313.686 34.73C313.126 34.73 312.646 34.79 312.246 34.91C311.846 35.03 311.546 35.2 311.346 35.42C311.146 35.62 311.046 35.88 311.046 36.2C311.046 36.52 311.186 36.8 311.466 37.04C311.746 37.26 312.256 37.45 312.996 37.61L316.056 38.24C317.536 38.54 318.596 39.05 319.236 39.77C319.876 40.47 320.196 41.32 320.196 42.32C320.196 43.28 319.936 44.14 319.416 44.9C318.916 45.64 318.166 46.23 317.166 46.67C316.186 47.09 314.976 47.3 313.536 47.3ZM325.543 29.84C324.683 29.84 324.043 29.66 323.623 29.3C323.203 28.92 322.993 28.37 322.993 27.65C322.993 26.91 323.203 26.36 323.623 26C324.043 25.62 324.683 25.43 325.543 25.43C326.403 25.43 327.043 25.62 327.463 26C327.883 26.36 328.093 26.91 328.093 27.65C328.093 28.37 327.883 28.92 327.463 29.3C327.043 29.66 326.403 29.84 325.543 29.84ZM327.583 32V47H323.473V32H327.583ZM337.94 47.3C336.42 47.3 335.03 47.03 333.77 46.49C332.53 45.95 331.52 45.19 330.74 44.21L333.11 41.81C333.59 42.53 334.23 43.12 335.03 43.58C335.83 44.04 336.78 44.27 337.88 44.27C338.66 44.27 339.28 44.16 339.74 43.94C340.22 43.7 340.46 43.33 340.46 42.83C340.46 42.51 340.35 42.24 340.13 42.02C339.91 41.78 339.47 41.59 338.81 41.45L336.17 40.91C334.43 40.55 333.19 40.01 332.45 39.29C331.73 38.55 331.37 37.6 331.37 36.44C331.37 35.62 331.61 34.85 332.09 34.13C332.59 33.41 333.33 32.83 334.31 32.39C335.29 31.93 336.51 31.7 337.97 31.7C339.47 31.7 340.77 31.94 341.87 32.42C342.99 32.88 343.87 33.57 344.51 34.49L342.05 36.89C341.61 36.19 341.03 35.66 340.31 35.3C339.61 34.92 338.87 34.73 338.09 34.73C337.53 34.73 337.05 34.79 336.65 34.91C336.25 35.03 335.95 35.2 335.75 35.42C335.55 35.62 335.45 35.88 335.45 36.2C335.45 36.52 335.59 36.8 335.87 37.04C336.15 37.26 336.66 37.45 337.4 37.61L340.46 38.24C341.94 38.54 343 39.05 343.64 39.77C344.28 40.47 344.6 41.32 344.6 42.32C344.6 43.28 344.34 44.14 343.82 44.9C343.32 45.64 342.57 46.23 341.57 46.67C340.59 47.09 339.38 47.3 337.94 47.3ZM353.188 27.41V42.11C353.188 42.83 353.368 43.36 353.728 43.7C354.108 44.02 354.618 44.18 355.258 44.18C355.778 44.18 356.218 44.11 356.578 43.97C356.958 43.81 357.298 43.6 357.598 43.34L358.258 46.07C357.778 46.45 357.178 46.75 356.458 46.97C355.738 47.19 354.978 47.3 354.178 47.3C353.178 47.3 352.288 47.15 351.508 46.85C350.748 46.55 350.148 46.07 349.708 45.41C349.288 44.75 349.078 43.87 349.078 42.77V28.55L353.188 27.41ZM357.988 32V35.06H346.318V32H357.988ZM362.838 29.84C361.978 29.84 361.338 29.66 360.918 29.3C360.498 28.92 360.288 28.37 360.288 27.65C360.288 26.91 360.498 26.36 360.918 26C361.338 25.62 361.978 25.43 362.838 25.43C363.698 25.43 364.338 25.62 364.758 26C365.178 26.36 365.388 26.91 365.388 27.65C365.388 28.37 365.178 28.92 364.758 29.3C364.338 29.66 363.698 29.84 362.838 29.84ZM364.878 32V47H360.768V32H364.878ZM369.235 47V32H372.925L373.165 36.5L372.655 36.02C372.895 35.04 373.275 34.24 373.795 33.62C374.315 32.98 374.945 32.5 375.685 32.18C376.445 31.86 377.275 31.7 378.175 31.7C379.215 31.7 380.135 31.9 380.935 32.3C381.755 32.7 382.395 33.31 382.855 34.13C383.335 34.93 383.575 35.94 383.575 37.16V47H379.465V38.33C379.465 37.05 379.215 36.17 378.715 35.69C378.215 35.19 377.565 34.94 376.765 34.94C376.205 34.94 375.655 35.08 375.115 35.36C374.595 35.62 374.165 36.05 373.825 36.65C373.505 37.25 373.345 38.05 373.345 39.05V47H369.235ZM401.639 28.43L402.119 31.37C402.039 31.37 401.949 31.37 401.849 31.37C401.769 31.35 401.679 31.34 401.579 31.34C400.679 31.34 399.989 31.55 399.509 31.97C399.049 32.37 398.819 32.93 398.819 33.65L397.139 32.96C397.139 32.16 397.299 31.42 397.619 30.74C397.939 30.04 398.409 29.48 399.029 29.06C399.669 28.64 400.429 28.43 401.309 28.43C401.349 28.43 401.399 28.43 401.459 28.43C401.519 28.43 401.579 28.43 401.639 28.43ZM396.719 44.18C398.339 44.18 399.589 44.53 400.469 45.23C401.349 45.93 401.789 46.91 401.789 48.17C401.789 49.31 401.459 50.27 400.799 51.05C400.139 51.85 399.209 52.45 398.009 52.85C396.829 53.25 395.459 53.45 393.899 53.45C391.319 53.45 389.429 53.09 388.229 52.37C387.049 51.65 386.459 50.71 386.459 49.55C386.459 48.73 386.769 48.04 387.389 47.48C388.029 46.92 389.079 46.61 390.539 46.55L390.389 47.03C389.349 46.85 388.549 46.51 387.989 46.01C387.449 45.49 387.179 44.78 387.179 43.88C387.179 42.96 387.529 42.21 388.229 41.63C388.949 41.03 389.919 40.68 391.139 40.58L392.939 41.42H392.519C391.659 41.48 391.049 41.66 390.689 41.96C390.349 42.24 390.179 42.56 390.179 42.92C390.179 43.34 390.339 43.66 390.659 43.88C390.999 44.08 391.479 44.18 392.099 44.18H396.719ZM393.929 50.63C394.969 50.63 395.819 50.54 396.479 50.36C397.159 50.18 397.659 49.95 397.979 49.67C398.319 49.39 398.489 49.08 398.489 48.74C398.489 48.36 398.339 48.05 398.039 47.81C397.739 47.59 397.199 47.48 396.419 47.48H391.349C390.869 47.48 390.469 47.6 390.149 47.84C389.849 48.08 389.699 48.41 389.699 48.83C389.699 49.39 390.069 49.83 390.809 50.15C391.569 50.47 392.609 50.63 393.929 50.63ZM393.959 31.7C395.359 31.7 396.569 31.91 397.589 32.33C398.629 32.73 399.419 33.31 399.959 34.07C400.519 34.83 400.799 35.74 400.799 36.8C400.799 37.84 400.519 38.74 399.959 39.5C399.419 40.26 398.629 40.85 397.589 41.27C396.569 41.67 395.359 41.87 393.959 41.87C391.739 41.87 390.039 41.42 388.859 40.52C387.679 39.6 387.089 38.36 387.089 36.8C387.089 35.74 387.369 34.83 387.929 34.07C388.489 33.31 389.279 32.73 390.299 32.33C391.319 31.91 392.539 31.7 393.959 31.7ZM393.959 34.28C393.159 34.28 392.499 34.5 391.979 34.94C391.459 35.38 391.199 35.99 391.199 36.77C391.199 37.55 391.459 38.17 391.979 38.63C392.499 39.07 393.159 39.29 393.959 39.29C394.759 39.29 395.409 39.07 395.909 38.63C396.429 38.17 396.689 37.55 396.689 36.77C396.689 35.99 396.429 35.38 395.909 34.94C395.409 34.5 394.759 34.28 393.959 34.28ZM413.864 47V27.2H422.534C424.934 27.2 426.704 27.67 427.844 28.61C428.984 29.55 429.554 30.88 429.554 32.6C429.554 33.66 429.234 34.6 428.594 35.42C427.954 36.24 427.014 36.76 425.774 36.98V37.01C427.154 37.21 428.214 37.73 428.954 38.57C429.694 39.41 430.064 40.41 430.064 41.57C430.064 43.27 429.444 44.6 428.204 45.56C426.984 46.52 425.194 47 422.834 47H413.864ZM417.884 43.88H422.474C423.594 43.88 424.424 43.65 424.964 43.19C425.504 42.73 425.774 42.09 425.774 41.27C425.774 40.43 425.504 39.79 424.964 39.35C424.424 38.91 423.594 38.69 422.474 38.69H417.884V43.88ZM417.884 35.51H421.994C424.174 35.51 425.264 34.66 425.264 32.96C425.264 31.26 424.174 30.41 421.994 30.41H417.884V35.51ZM440.44 31.7C441.96 31.7 443.29 32.01 444.43 32.63C445.59 33.25 446.49 34.14 447.13 35.3C447.79 36.46 448.12 37.86 448.12 39.5C448.12 41.12 447.79 42.52 447.13 43.7C446.49 44.86 445.59 45.75 444.43 46.37C443.29 46.99 441.96 47.3 440.44 47.3C438.94 47.3 437.61 46.99 436.45 46.37C435.29 45.75 434.38 44.86 433.72 43.7C433.08 42.52 432.76 41.12 432.76 39.5C432.76 37.86 433.08 36.46 433.72 35.3C434.38 34.14 435.29 33.25 436.45 32.63C437.61 32.01 438.94 31.7 440.44 31.7ZM440.44 34.76C439.68 34.76 439.03 34.94 438.49 35.3C437.97 35.64 437.57 36.16 437.29 36.86C437.01 37.56 436.87 38.44 436.87 39.5C436.87 40.56 437.01 41.44 437.29 42.14C437.57 42.84 437.97 43.37 438.49 43.73C439.03 44.07 439.68 44.24 440.44 44.24C441.18 44.24 441.81 44.07 442.33 43.73C442.87 43.37 443.28 42.84 443.56 42.14C443.84 41.44 443.98 40.56 443.98 39.5C443.98 38.44 443.84 37.56 443.56 36.86C443.28 36.16 442.87 35.64 442.33 35.3C441.81 34.94 441.18 34.76 440.44 34.76ZM457.229 47.3C455.989 47.3 454.879 46.99 453.899 46.37C452.939 45.75 452.179 44.86 451.619 43.7C451.079 42.54 450.809 41.15 450.809 39.53C450.809 37.87 451.099 36.46 451.679 35.3C452.259 34.12 453.039 33.23 454.019 32.63C455.019 32.01 456.139 31.7 457.379 31.7C458.699 31.7 459.789 32.08 460.649 32.84C461.509 33.6 462.069 34.58 462.329 35.78L461.939 36.26V25.43H466.049V47H462.359L462.089 42.44L462.569 42.68C462.449 43.62 462.139 44.44 461.639 45.14C461.139 45.82 460.509 46.35 459.749 46.73C458.989 47.11 458.149 47.3 457.229 47.3ZM458.429 44.15C459.149 44.15 459.769 43.97 460.289 43.61C460.809 43.23 461.209 42.68 461.489 41.96C461.789 41.24 461.939 40.38 461.939 39.38C461.939 38.42 461.799 37.61 461.519 36.95C461.239 36.27 460.839 35.75 460.319 35.39C459.799 35.03 459.189 34.85 458.489 34.85C457.369 34.85 456.489 35.25 455.849 36.05C455.229 36.83 454.919 37.98 454.919 39.5C454.919 41.02 455.229 42.18 455.849 42.98C456.469 43.76 457.329 44.15 458.429 44.15ZM484.468 32L478.408 47.93C477.928 49.29 477.388 50.37 476.788 51.17C476.208 51.97 475.528 52.55 474.748 52.91C473.988 53.27 473.078 53.45 472.018 53.45C471.238 53.45 470.518 53.35 469.858 53.15C469.218 52.97 468.658 52.73 468.178 52.43L469.048 49.46C469.428 49.76 469.828 49.97 470.248 50.09C470.668 50.23 471.148 50.3 471.688 50.3C472.248 50.3 472.728 50.18 473.128 49.94C473.548 49.7 473.898 49.22 474.178 48.5L474.688 47.21L473.038 43.31L468.448 32H473.008L475.858 41L476.638 44L477.568 40.82L480.298 32H484.468ZM502.052 31.7C503.572 31.7 504.902 32.01 506.042 32.63C507.202 33.25 508.102 34.14 508.742 35.3C509.402 36.46 509.732 37.86 509.732 39.5C509.732 41.12 509.402 42.52 508.742 43.7C508.102 44.86 507.202 45.75 506.042 46.37C504.902 46.99 503.572 47.3 502.052 47.3C500.552 47.3 499.222 46.99 498.062 46.37C496.902 45.75 495.992 44.86 495.332 43.7C494.692 42.52 494.372 41.12 494.372 39.5C494.372 37.86 494.692 36.46 495.332 35.3C495.992 34.14 496.902 33.25 498.062 32.63C499.222 32.01 500.552 31.7 502.052 31.7ZM502.052 34.76C501.292 34.76 500.642 34.94 500.102 35.3C499.582 35.64 499.182 36.16 498.902 36.86C498.622 37.56 498.482 38.44 498.482 39.5C498.482 40.56 498.622 41.44 498.902 42.14C499.182 42.84 499.582 43.37 500.102 43.73C500.642 44.07 501.292 44.24 502.052 44.24C502.792 44.24 503.422 44.07 503.942 43.73C504.482 43.37 504.892 42.84 505.172 42.14C505.452 41.44 505.592 40.56 505.592 39.5C505.592 38.44 505.452 37.56 505.172 36.86C504.892 36.16 504.482 35.64 503.942 35.3C503.422 34.94 502.792 34.76 502.052 34.76ZM519.685 25.13C520.385 25.13 521.015 25.21 521.575 25.37C522.155 25.51 522.585 25.69 522.865 25.91L522.295 28.64C522.075 28.5 521.825 28.39 521.545 28.31C521.265 28.23 520.935 28.19 520.555 28.19C519.775 28.19 519.155 28.37 518.695 28.73C518.235 29.07 518.005 29.66 518.005 30.5V32.57L518.185 33.38V47H514.075V30.2C514.075 29.36 514.215 28.62 514.495 27.98C514.775 27.34 515.165 26.81 515.665 26.39C516.165 25.97 516.755 25.66 517.435 25.46C518.135 25.24 518.885 25.13 519.685 25.13ZM522.745 32V35.06H511.465V32H522.745ZM541.27 26.9C543.07 26.9 544.65 27.21 546.01 27.83C547.37 28.45 548.53 29.37 549.49 30.59L547.18 33.26C546.36 32.22 545.46 31.46 544.48 30.98C543.52 30.48 542.4 30.23 541.12 30.23C540.28 30.23 539.58 30.34 539.02 30.56C538.48 30.78 538.08 31.07 537.82 31.43C537.58 31.79 537.46 32.19 537.46 32.63C537.46 33.17 537.67 33.63 538.09 34.01C538.51 34.37 539.23 34.67 540.25 34.91L543.94 35.75C545.9 36.19 547.3 36.85 548.14 37.73C549 38.59 549.43 39.71 549.43 41.09C549.43 42.39 549.09 43.51 548.41 44.45C547.73 45.37 546.78 46.08 545.56 46.58C544.34 47.06 542.94 47.3 541.36 47.3C539.98 47.3 538.71 47.14 537.55 46.82C536.41 46.48 535.39 46.02 534.49 45.44C533.59 44.86 532.84 44.19 532.24 43.43L534.58 40.64C535.04 41.28 535.61 41.85 536.29 42.35C536.97 42.85 537.74 43.25 538.6 43.55C539.48 43.83 540.4 43.97 541.36 43.97C542.18 43.97 542.87 43.88 543.43 43.7C544.01 43.5 544.44 43.23 544.72 42.89C545.02 42.53 545.17 42.1 545.17 41.6C545.17 41.08 544.99 40.64 544.63 40.28C544.29 39.9 543.65 39.61 542.71 39.41L538.69 38.51C537.53 38.23 536.53 37.87 535.69 37.43C534.87 36.97 534.24 36.39 533.8 35.69C533.38 34.97 533.17 34.12 533.17 33.14C533.17 31.96 533.49 30.9 534.13 29.96C534.77 29.02 535.69 28.28 536.89 27.74C538.11 27.18 539.57 26.9 541.27 26.9ZM557.487 43.67H567.927V47H553.347V27.2H557.487V43.67ZM592.904 27.2V47H589.184V36.68L589.364 30.89H589.304L583.814 47H580.424L574.964 30.89H574.904L575.114 36.68V47H571.364V27.2H577.364L580.934 38L582.194 42.47H582.254L583.544 38.03L587.084 27.2H592.904ZM615.244 47H610.954L609.304 42.17H601.714L600.064 47H595.834L603.064 27.2H608.014L615.244 47ZM602.644 39.11H608.374L605.494 30.47L602.644 39.11Z" fill="#1B82D4"/>
<path d="M422.151 108.231C421.202 107.307 419.662 107.307 418.712 108.231C417.763 109.155 417.763 110.653 418.712 111.577L430.058 122.614C431.957 124.462 435.036 124.462 436.936 122.614L448.288 111.57C449.237 110.646 449.237 109.148 448.288 108.224C447.338 107.301 445.798 107.301 444.849 108.224L435.934 116.897V74.3657C435.934 73.0591 434.846 72 433.502 72C432.159 72 431.071 73.0591 431.071 74.3657V116.908L422.151 108.231Z" fill="#333333"/>
<rect x="79" y="154" width="728" height="114" rx="10" fill="#F8CFA0" fill-opacity="0.42"/>
<path d="M114.76 191.94C115.804 191.94 116.704 192.156 117.46 192.588C118.216 193.008 118.846 193.632 119.35 194.46L118.144 195.396C117.7 194.628 117.196 194.088 116.632 193.776C116.08 193.452 115.408 193.29 114.616 193.29C113.98 193.29 113.452 193.38 113.032 193.56C112.624 193.74 112.324 193.98 112.132 194.28C111.94 194.568 111.844 194.898 111.844 195.27C111.844 195.69 111.976 196.062 112.24 196.386C112.504 196.698 113.032 196.944 113.824 197.124L116.398 197.7C117.538 197.952 118.33 198.336 118.774 198.852C119.23 199.356 119.458 199.986 119.458 200.742C119.458 201.414 119.266 202.014 118.882 202.542C118.51 203.058 117.982 203.46 117.298 203.748C116.614 204.036 115.81 204.18 114.886 204.18C114.022 204.18 113.26 204.066 112.6 203.838C111.952 203.598 111.394 203.28 110.926 202.884C110.458 202.488 110.074 202.044 109.774 201.552L111.034 200.526C111.262 200.982 111.556 201.384 111.916 201.732C112.276 202.08 112.708 202.35 113.212 202.542C113.728 202.734 114.316 202.83 114.976 202.83C115.588 202.83 116.116 202.758 116.56 202.614C117.016 202.458 117.364 202.236 117.604 201.948C117.844 201.648 117.964 201.288 117.964 200.868C117.964 200.484 117.838 200.142 117.586 199.842C117.334 199.53 116.86 199.296 116.164 199.14L113.374 198.51C112.642 198.342 112.048 198.114 111.592 197.826C111.148 197.526 110.824 197.178 110.62 196.782C110.428 196.374 110.332 195.936 110.332 195.468C110.332 194.832 110.506 194.25 110.854 193.722C111.214 193.182 111.724 192.75 112.384 192.426C113.056 192.102 113.848 191.94 114.76 191.94ZM124.329 192.444V201.516C124.329 201.96 124.455 202.29 124.707 202.506C124.959 202.722 125.283 202.83 125.679 202.83C126.027 202.83 126.327 202.77 126.579 202.65C126.831 202.53 127.059 202.368 127.263 202.164L127.767 203.37C127.491 203.622 127.161 203.82 126.777 203.964C126.405 204.108 125.973 204.18 125.481 204.18C125.025 204.18 124.599 204.102 124.203 203.946C123.807 203.778 123.489 203.52 123.249 203.172C123.021 202.812 122.901 202.344 122.889 201.768V192.84L124.329 192.444ZM127.605 195V196.242H121.089V195H127.605ZM135.002 198.186C135.002 197.514 134.822 196.998 134.462 196.638C134.102 196.266 133.592 196.08 132.932 196.08C132.308 196.08 131.78 196.218 131.348 196.494C130.916 196.758 130.598 197.19 130.394 197.79L129.224 197.07C129.464 196.398 129.908 195.858 130.556 195.45C131.204 195.03 132.008 194.82 132.968 194.82C133.616 194.82 134.204 194.934 134.732 195.162C135.26 195.378 135.674 195.714 135.974 196.17C136.286 196.614 136.442 197.19 136.442 197.898V202.254C136.442 202.686 136.67 202.902 137.126 202.902C137.354 202.902 137.576 202.872 137.792 202.812L137.72 203.946C137.48 204.066 137.168 204.126 136.784 204.126C136.436 204.126 136.124 204.06 135.848 203.928C135.572 203.796 135.356 203.598 135.2 203.334C135.044 203.058 134.966 202.716 134.966 202.308V202.128L135.326 202.182C135.182 202.65 134.936 203.034 134.588 203.334C134.24 203.622 133.85 203.838 133.418 203.982C132.986 204.114 132.56 204.18 132.14 204.18C131.612 204.18 131.12 204.09 130.664 203.91C130.208 203.73 129.842 203.46 129.566 203.1C129.302 202.728 129.17 202.272 129.17 201.732C129.17 201.06 129.392 200.508 129.836 200.076C130.292 199.632 130.922 199.332 131.726 199.176L135.29 198.474V199.662L132.392 200.256C131.804 200.376 131.366 200.544 131.078 200.76C130.79 200.976 130.646 201.276 130.646 201.66C130.646 202.032 130.79 202.338 131.078 202.578C131.378 202.806 131.798 202.92 132.338 202.92C132.686 202.92 133.016 202.878 133.328 202.794C133.652 202.698 133.94 202.56 134.192 202.38C134.444 202.188 134.642 201.954 134.786 201.678C134.93 201.39 135.002 201.054 135.002 200.67V198.186ZM141.714 192.444V201.516C141.714 201.96 141.84 202.29 142.092 202.506C142.344 202.722 142.668 202.83 143.064 202.83C143.412 202.83 143.712 202.77 143.964 202.65C144.216 202.53 144.444 202.368 144.648 202.164L145.152 203.37C144.876 203.622 144.546 203.82 144.162 203.964C143.79 204.108 143.358 204.18 142.866 204.18C142.41 204.18 141.984 204.102 141.588 203.946C141.192 203.778 140.874 203.52 140.634 203.172C140.406 202.812 140.286 202.344 140.274 201.768V192.84L141.714 192.444ZM144.99 195V196.242H138.474V195H144.99ZM150.893 204.18C150.041 204.18 149.279 203.994 148.607 203.622C147.947 203.25 147.431 202.716 147.059 202.02C146.687 201.312 146.501 200.472 146.501 199.5C146.501 198.528 146.687 197.694 147.059 196.998C147.431 196.29 147.941 195.75 148.589 195.378C149.237 195.006 149.975 194.82 150.803 194.82C151.643 194.82 152.357 195 152.945 195.36C153.545 195.72 154.001 196.212 154.313 196.836C154.625 197.448 154.781 198.138 154.781 198.906C154.781 199.11 154.775 199.296 154.763 199.464C154.751 199.632 154.733 199.782 154.709 199.914H147.437V198.636H154.079L153.341 198.78C153.341 197.916 153.101 197.25 152.621 196.782C152.153 196.314 151.535 196.08 150.767 196.08C150.179 196.08 149.669 196.218 149.237 196.494C148.817 196.758 148.487 197.148 148.247 197.664C148.019 198.168 147.905 198.78 147.905 199.5C147.905 200.208 148.025 200.82 148.265 201.336C148.505 201.852 148.841 202.248 149.273 202.524C149.717 202.788 150.245 202.92 150.857 202.92C151.517 202.92 152.051 202.794 152.459 202.542C152.879 202.29 153.215 201.948 153.467 201.516L154.601 202.182C154.373 202.59 154.079 202.944 153.719 203.244C153.371 203.544 152.957 203.778 152.477 203.946C152.009 204.102 151.481 204.18 150.893 204.18ZM173.5 200.958C173.248 201.63 172.888 202.212 172.42 202.704C171.952 203.184 171.4 203.55 170.764 203.802C170.14 204.054 169.456 204.18 168.712 204.18C167.584 204.18 166.606 203.934 165.778 203.442C164.962 202.938 164.326 202.23 163.87 201.318C163.426 200.406 163.204 199.32 163.204 198.06C163.204 196.8 163.426 195.714 163.87 194.802C164.326 193.89 164.962 193.188 165.778 192.696C166.606 192.192 167.572 191.94 168.676 191.94C169.444 191.94 170.128 192.048 170.728 192.264C171.328 192.468 171.838 192.78 172.258 193.2C172.69 193.608 173.032 194.112 173.284 194.712L171.862 195.378C171.598 194.694 171.214 194.178 170.71 193.83C170.218 193.47 169.576 193.29 168.784 193.29C167.98 193.29 167.272 193.482 166.66 193.866C166.048 194.238 165.568 194.778 165.22 195.486C164.884 196.194 164.716 197.052 164.716 198.06C164.716 199.056 164.878 199.914 165.202 200.634C165.526 201.342 165.988 201.888 166.588 202.272C167.188 202.644 167.896 202.83 168.712 202.83C169.504 202.83 170.194 202.632 170.782 202.236C171.37 201.828 171.796 201.222 172.06 200.418L173.5 200.958ZM179.756 204.18C178.904 204.18 178.142 203.994 177.47 203.622C176.81 203.25 176.294 202.716 175.922 202.02C175.55 201.312 175.364 200.472 175.364 199.5C175.364 198.528 175.55 197.694 175.922 196.998C176.294 196.29 176.804 195.75 177.452 195.378C178.1 195.006 178.838 194.82 179.666 194.82C180.506 194.82 181.22 195 181.808 195.36C182.408 195.72 182.864 196.212 183.176 196.836C183.488 197.448 183.644 198.138 183.644 198.906C183.644 199.11 183.638 199.296 183.626 199.464C183.614 199.632 183.596 199.782 183.572 199.914H176.3V198.636H182.942L182.204 198.78C182.204 197.916 181.964 197.25 181.484 196.782C181.016 196.314 180.398 196.08 179.63 196.08C179.042 196.08 178.532 196.218 178.1 196.494C177.68 196.758 177.35 197.148 177.11 197.664C176.882 198.168 176.768 198.78 176.768 199.5C176.768 200.208 176.888 200.82 177.128 201.336C177.368 201.852 177.704 202.248 178.136 202.524C178.58 202.788 179.108 202.92 179.72 202.92C180.38 202.92 180.914 202.794 181.322 202.542C181.742 202.29 182.078 201.948 182.33 201.516L183.464 202.182C183.236 202.59 182.942 202.944 182.582 203.244C182.234 203.544 181.82 203.778 181.34 203.946C180.872 204.102 180.344 204.18 179.756 204.18ZM186.383 204V195H187.643L187.769 197.016L187.535 196.818C187.727 196.338 187.985 195.954 188.309 195.666C188.633 195.366 189.005 195.15 189.425 195.018C189.857 194.886 190.301 194.82 190.757 194.82C191.405 194.82 191.993 194.946 192.521 195.198C193.049 195.438 193.469 195.81 193.781 196.314C194.105 196.818 194.267 197.46 194.267 198.24V204H192.827V198.744C192.827 197.748 192.611 197.058 192.179 196.674C191.759 196.278 191.237 196.08 190.613 196.08C190.181 196.08 189.749 196.182 189.317 196.386C188.885 196.59 188.525 196.92 188.237 197.376C187.961 197.832 187.823 198.444 187.823 199.212V204H186.383ZM199.528 192.444V201.516C199.528 201.96 199.654 202.29 199.906 202.506C200.158 202.722 200.482 202.83 200.878 202.83C201.226 202.83 201.526 202.77 201.778 202.65C202.03 202.53 202.258 202.368 202.462 202.164L202.966 203.37C202.69 203.622 202.36 203.82 201.976 203.964C201.604 204.108 201.172 204.18 200.68 204.18C200.224 204.18 199.798 204.102 199.402 203.946C199.006 203.778 198.688 203.52 198.448 203.172C198.22 202.812 198.1 202.344 198.088 201.768V192.84L199.528 192.444ZM202.804 195V196.242H196.288V195H202.804ZM204.945 204V195H206.115L206.313 196.476C206.565 195.924 206.931 195.51 207.411 195.234C207.903 194.958 208.497 194.82 209.193 194.82C209.349 194.82 209.517 194.832 209.697 194.856C209.889 194.88 210.051 194.928 210.183 195L209.931 196.314C209.799 196.266 209.655 196.23 209.499 196.206C209.343 196.182 209.121 196.17 208.833 196.17C208.461 196.17 208.083 196.278 207.699 196.494C207.327 196.71 207.015 197.04 206.763 197.484C206.511 197.916 206.385 198.468 206.385 199.14V204H204.945ZM215.774 204.18C214.922 204.18 214.16 203.994 213.488 203.622C212.828 203.25 212.312 202.716 211.94 202.02C211.568 201.312 211.382 200.472 211.382 199.5C211.382 198.528 211.568 197.694 211.94 196.998C212.312 196.29 212.822 195.75 213.47 195.378C214.118 195.006 214.856 194.82 215.684 194.82C216.524 194.82 217.238 195 217.826 195.36C218.426 195.72 218.882 196.212 219.194 196.836C219.506 197.448 219.662 198.138 219.662 198.906C219.662 199.11 219.656 199.296 219.644 199.464C219.632 199.632 219.614 199.782 219.59 199.914H212.318V198.636H218.96L218.222 198.78C218.222 197.916 217.982 197.25 217.502 196.782C217.034 196.314 216.416 196.08 215.648 196.08C215.06 196.08 214.55 196.218 214.118 196.494C213.698 196.758 213.368 197.148 213.128 197.664C212.9 198.168 212.786 198.78 212.786 199.5C212.786 200.208 212.906 200.82 213.146 201.336C213.386 201.852 213.722 202.248 214.154 202.524C214.598 202.788 215.126 202.92 215.738 202.92C216.398 202.92 216.932 202.794 217.34 202.542C217.76 202.29 218.096 201.948 218.348 201.516L219.482 202.182C219.254 202.59 218.96 202.944 218.6 203.244C218.252 203.544 217.838 203.778 217.358 203.946C216.89 204.102 216.362 204.18 215.774 204.18ZM231.855 190.77C232.167 190.77 232.461 190.806 232.737 190.878C233.013 190.95 233.229 191.052 233.385 191.184L233.007 192.354C232.863 192.258 232.707 192.192 232.539 192.156C232.371 192.108 232.185 192.084 231.981 192.084C231.465 192.084 231.063 192.21 230.775 192.462C230.487 192.702 230.343 193.092 230.343 193.632V195V195.468V204H228.903V193.488C228.903 193.092 228.963 192.726 229.083 192.39C229.203 192.054 229.383 191.766 229.623 191.526C229.875 191.286 230.187 191.1 230.559 190.968C230.931 190.836 231.363 190.77 231.855 190.77ZM233.349 195V196.242H227.103V195H233.349ZM238.748 194.82C239.6 194.82 240.35 195.006 240.998 195.378C241.658 195.75 242.174 196.29 242.546 196.998C242.918 197.694 243.104 198.528 243.104 199.5C243.104 200.472 242.918 201.312 242.546 202.02C242.174 202.716 241.658 203.25 240.998 203.622C240.35 203.994 239.6 204.18 238.748 204.18C237.908 204.18 237.158 203.994 236.498 203.622C235.838 203.25 235.322 202.716 234.95 202.02C234.578 201.312 234.392 200.472 234.392 199.5C234.392 198.528 234.578 197.694 234.95 196.998C235.322 196.29 235.838 195.75 236.498 195.378C237.158 195.006 237.908 194.82 238.748 194.82ZM238.748 196.062C238.136 196.062 237.614 196.2 237.182 196.476C236.75 196.752 236.414 197.148 236.174 197.664C235.946 198.168 235.832 198.78 235.832 199.5C235.832 200.208 235.946 200.82 236.174 201.336C236.414 201.852 236.75 202.248 237.182 202.524C237.614 202.8 238.136 202.938 238.748 202.938C239.36 202.938 239.882 202.8 240.314 202.524C240.746 202.248 241.076 201.852 241.304 201.336C241.544 200.82 241.664 200.208 241.664 199.5C241.664 198.78 241.544 198.168 241.304 197.664C241.076 197.148 240.746 196.752 240.314 196.476C239.882 196.2 239.36 196.062 238.748 196.062ZM245.815 204V195H246.985L247.183 196.476C247.435 195.924 247.801 195.51 248.281 195.234C248.773 194.958 249.367 194.82 250.063 194.82C250.219 194.82 250.387 194.832 250.567 194.856C250.759 194.88 250.921 194.928 251.053 195L250.801 196.314C250.669 196.266 250.525 196.23 250.369 196.206C250.213 196.182 249.991 196.17 249.703 196.17C249.331 196.17 248.953 196.278 248.569 196.494C248.197 196.71 247.885 197.04 247.633 197.484C247.381 197.916 247.255 198.468 247.255 199.14V204H245.815ZM260.585 202.65H267.389V204H259.145V192.12H260.585V202.65ZM270.353 193.272C270.029 193.272 269.765 193.176 269.561 192.984C269.369 192.78 269.273 192.516 269.273 192.192C269.273 191.868 269.369 191.61 269.561 191.418C269.765 191.214 270.029 191.112 270.353 191.112C270.677 191.112 270.935 191.214 271.127 191.418C271.331 191.61 271.433 191.868 271.433 192.192C271.433 192.516 271.331 192.78 271.127 192.984C270.935 193.176 270.677 193.272 270.353 193.272ZM271.073 195V204H269.633V195H271.073ZM276.538 192.444V201.516C276.538 201.96 276.664 202.29 276.916 202.506C277.168 202.722 277.492 202.83 277.888 202.83C278.236 202.83 278.536 202.77 278.788 202.65C279.04 202.53 279.268 202.368 279.472 202.164L279.976 203.37C279.7 203.622 279.37 203.82 278.986 203.964C278.614 204.108 278.182 204.18 277.69 204.18C277.234 204.18 276.808 204.102 276.412 203.946C276.016 203.778 275.698 203.52 275.458 203.172C275.23 202.812 275.11 202.344 275.098 201.768V192.84L276.538 192.444ZM279.814 195V196.242H273.298V195H279.814ZM285.717 204.18C284.865 204.18 284.103 203.994 283.431 203.622C282.771 203.25 282.255 202.716 281.883 202.02C281.511 201.312 281.325 200.472 281.325 199.5C281.325 198.528 281.511 197.694 281.883 196.998C282.255 196.29 282.765 195.75 283.413 195.378C284.061 195.006 284.799 194.82 285.627 194.82C286.467 194.82 287.181 195 287.769 195.36C288.369 195.72 288.825 196.212 289.137 196.836C289.449 197.448 289.605 198.138 289.605 198.906C289.605 199.11 289.599 199.296 289.587 199.464C289.575 199.632 289.557 199.782 289.533 199.914H282.261V198.636H288.903L288.165 198.78C288.165 197.916 287.925 197.25 287.445 196.782C286.977 196.314 286.359 196.08 285.591 196.08C285.003 196.08 284.493 196.218 284.061 196.494C283.641 196.758 283.311 197.148 283.071 197.664C282.843 198.168 282.729 198.78 282.729 199.5C282.729 200.208 282.849 200.82 283.089 201.336C283.329 201.852 283.665 202.248 284.097 202.524C284.541 202.788 285.069 202.92 285.681 202.92C286.341 202.92 286.875 202.794 287.283 202.542C287.703 202.29 288.039 201.948 288.291 201.516L289.425 202.182C289.197 202.59 288.903 202.944 288.543 203.244C288.195 203.544 287.781 203.778 287.301 203.946C286.833 204.102 286.305 204.18 285.717 204.18ZM292.344 204V195H293.514L293.712 196.476C293.964 195.924 294.33 195.51 294.81 195.234C295.302 194.958 295.896 194.82 296.592 194.82C296.748 194.82 296.916 194.832 297.096 194.856C297.288 194.88 297.45 194.928 297.582 195L297.33 196.314C297.198 196.266 297.054 196.23 296.898 196.206C296.742 196.182 296.52 196.17 296.232 196.17C295.86 196.17 295.482 196.278 295.098 196.494C294.726 196.71 294.414 197.04 294.162 197.484C293.91 197.916 293.784 198.468 293.784 199.14V204H292.344ZM304.701 198.186C304.701 197.514 304.521 196.998 304.161 196.638C303.801 196.266 303.291 196.08 302.631 196.08C302.007 196.08 301.479 196.218 301.047 196.494C300.615 196.758 300.297 197.19 300.093 197.79L298.923 197.07C299.163 196.398 299.607 195.858 300.255 195.45C300.903 195.03 301.707 194.82 302.667 194.82C303.315 194.82 303.903 194.934 304.431 195.162C304.959 195.378 305.373 195.714 305.673 196.17C305.985 196.614 306.141 197.19 306.141 197.898V202.254C306.141 202.686 306.369 202.902 306.825 202.902C307.053 202.902 307.275 202.872 307.491 202.812L307.419 203.946C307.179 204.066 306.867 204.126 306.483 204.126C306.135 204.126 305.823 204.06 305.547 203.928C305.271 203.796 305.055 203.598 304.899 203.334C304.743 203.058 304.665 202.716 304.665 202.308V202.128L305.025 202.182C304.881 202.65 304.635 203.034 304.287 203.334C303.939 203.622 303.549 203.838 303.117 203.982C302.685 204.114 302.259 204.18 301.839 204.18C301.311 204.18 300.819 204.09 300.363 203.91C299.907 203.73 299.541 203.46 299.265 203.1C299.001 202.728 298.869 202.272 298.869 201.732C298.869 201.06 299.091 200.508 299.535 200.076C299.991 199.632 300.621 199.332 301.425 199.176L304.989 198.474V199.662L302.091 200.256C301.503 200.376 301.065 200.544 300.777 200.76C300.489 200.976 300.345 201.276 300.345 201.66C300.345 202.032 300.489 202.338 300.777 202.578C301.077 202.806 301.497 202.92 302.037 202.92C302.385 202.92 302.715 202.878 303.027 202.794C303.351 202.698 303.639 202.56 303.891 202.38C304.143 202.188 304.341 201.954 304.485 201.678C304.629 201.39 304.701 201.054 304.701 200.67V198.186ZM313.367 194.82C313.991 194.82 314.537 194.916 315.005 195.108C315.485 195.3 315.899 195.576 316.247 195.936C316.595 196.296 316.877 196.722 317.093 197.214L315.725 197.862C315.533 197.286 315.239 196.848 314.843 196.548C314.459 196.236 313.955 196.08 313.331 196.08C312.731 196.08 312.215 196.218 311.783 196.494C311.351 196.758 311.021 197.148 310.793 197.664C310.565 198.168 310.451 198.78 310.451 199.5C310.451 200.208 310.565 200.82 310.793 201.336C311.021 201.852 311.351 202.248 311.783 202.524C312.215 202.788 312.731 202.92 313.331 202.92C313.799 202.92 314.201 202.848 314.537 202.704C314.885 202.56 315.167 202.35 315.383 202.074C315.611 201.798 315.767 201.462 315.851 201.066L317.183 201.534C316.979 202.086 316.697 202.56 316.337 202.956C315.989 203.352 315.563 203.658 315.059 203.874C314.567 204.078 314.003 204.18 313.367 204.18C312.527 204.18 311.777 203.994 311.117 203.622C310.457 203.25 309.941 202.716 309.569 202.02C309.197 201.312 309.011 200.472 309.011 199.5C309.011 198.528 309.197 197.694 309.569 196.998C309.941 196.29 310.457 195.75 311.117 195.378C311.777 195.006 312.527 194.82 313.367 194.82ZM326.777 195L322.547 205.512C322.319 206.1 322.067 206.562 321.791 206.898C321.527 207.246 321.227 207.492 320.891 207.636C320.567 207.792 320.189 207.87 319.757 207.87C319.349 207.87 318.971 207.81 318.623 207.69C318.287 207.582 317.987 207.432 317.723 207.24L318.119 205.98C318.359 206.196 318.611 206.352 318.875 206.448C319.151 206.556 319.421 206.61 319.685 206.61C319.997 206.61 320.291 206.514 320.567 206.322C320.843 206.13 321.095 205.74 321.323 205.152L321.791 203.982L320.891 201.84L318.029 195H319.667L321.917 200.868L322.475 202.47L323.123 200.688L325.229 195H326.777ZM337.614 190.482L338.442 191.31C337.65 192.03 337.02 192.792 336.552 193.596C336.084 194.388 335.748 195.228 335.544 196.116C335.34 196.992 335.238 197.934 335.238 198.942C335.238 199.938 335.34 200.88 335.544 201.768C335.748 202.656 336.084 203.496 336.552 204.288C337.02 205.08 337.65 205.842 338.442 206.574L337.614 207.402C336.342 206.298 335.382 205.038 334.734 203.622C334.086 202.194 333.762 200.634 333.762 198.942C333.762 197.25 334.086 195.69 334.734 194.262C335.382 192.834 336.342 191.574 337.614 190.482ZM344.207 191.94C345.251 191.94 346.151 192.156 346.907 192.588C347.663 193.008 348.293 193.632 348.797 194.46L347.591 195.396C347.147 194.628 346.643 194.088 346.079 193.776C345.527 193.452 344.855 193.29 344.063 193.29C343.427 193.29 342.899 193.38 342.479 193.56C342.071 193.74 341.771 193.98 341.579 194.28C341.387 194.568 341.291 194.898 341.291 195.27C341.291 195.69 341.423 196.062 341.687 196.386C341.951 196.698 342.479 196.944 343.271 197.124L345.845 197.7C346.985 197.952 347.777 198.336 348.221 198.852C348.677 199.356 348.905 199.986 348.905 200.742C348.905 201.414 348.713 202.014 348.329 202.542C347.957 203.058 347.429 203.46 346.745 203.748C346.061 204.036 345.257 204.18 344.333 204.18C343.469 204.18 342.707 204.066 342.047 203.838C341.399 203.598 340.841 203.28 340.373 202.884C339.905 202.488 339.521 202.044 339.221 201.552L340.481 200.526C340.709 200.982 341.003 201.384 341.363 201.732C341.723 202.08 342.155 202.35 342.659 202.542C343.175 202.734 343.763 202.83 344.423 202.83C345.035 202.83 345.563 202.758 346.007 202.614C346.463 202.458 346.811 202.236 347.051 201.948C347.291 201.648 347.411 201.288 347.411 200.868C347.411 200.484 347.285 200.142 347.033 199.842C346.781 199.53 346.307 199.296 345.611 199.14L342.821 198.51C342.089 198.342 341.495 198.114 341.039 197.826C340.595 197.526 340.271 197.178 340.067 196.782C339.875 196.374 339.779 195.936 339.779 195.468C339.779 194.832 339.953 194.25 340.301 193.722C340.661 193.182 341.171 192.75 341.831 192.426C342.503 192.102 343.295 191.94 344.207 191.94ZM361.499 200.958C361.247 201.63 360.887 202.212 360.419 202.704C359.951 203.184 359.399 203.55 358.763 203.802C358.139 204.054 357.455 204.18 356.711 204.18C355.583 204.18 354.605 203.934 353.777 203.442C352.961 202.938 352.325 202.23 351.869 201.318C351.425 200.406 351.203 199.32 351.203 198.06C351.203 196.8 351.425 195.714 351.869 194.802C352.325 193.89 352.961 193.188 353.777 192.696C354.605 192.192 355.571 191.94 356.675 191.94C357.443 191.94 358.127 192.048 358.727 192.264C359.327 192.468 359.837 192.78 360.257 193.2C360.689 193.608 361.031 194.112 361.283 194.712L359.861 195.378C359.597 194.694 359.213 194.178 358.709 193.83C358.217 193.47 357.575 193.29 356.783 193.29C355.979 193.29 355.271 193.482 354.659 193.866C354.047 194.238 353.567 194.778 353.219 195.486C352.883 196.194 352.715 197.052 352.715 198.06C352.715 199.056 352.877 199.914 353.201 200.634C353.525 201.342 353.987 201.888 354.587 202.272C355.187 202.644 355.895 202.83 356.711 202.83C357.503 202.83 358.193 202.632 358.781 202.236C359.369 201.828 359.795 201.222 360.059 200.418L361.499 200.958ZM365.702 202.65H372.506V204H364.262V192.12H365.702V202.65ZM374.11 207.402L373.282 206.574C374.074 205.842 374.704 205.08 375.172 204.288C375.64 203.496 375.976 202.656 376.18 201.768C376.384 200.88 376.486 199.938 376.486 198.942C376.486 197.934 376.384 196.992 376.18 196.116C375.976 195.228 375.64 194.388 375.172 193.596C374.704 192.792 374.074 192.03 373.282 191.31L374.11 190.482C375.382 191.574 376.342 192.834 376.99 194.262C377.638 195.69 377.962 197.25 377.962 198.942C377.962 200.634 377.638 202.194 376.99 203.622C376.342 205.038 375.382 206.298 374.11 207.402ZM388.634 192.444V201.516C388.634 201.96 388.76 202.29 389.012 202.506C389.264 202.722 389.588 202.83 389.984 202.83C390.332 202.83 390.632 202.77 390.884 202.65C391.136 202.53 391.364 202.368 391.568 202.164L392.072 203.37C391.796 203.622 391.466 203.82 391.082 203.964C390.71 204.108 390.278 204.18 389.786 204.18C389.33 204.18 388.904 204.102 388.508 203.946C388.112 203.778 387.794 203.52 387.554 203.172C387.326 202.812 387.206 202.344 387.194 201.768V192.84L388.634 192.444ZM391.91 195V196.242H385.394V195H391.91ZM397.777 194.82C398.629 194.82 399.379 195.006 400.027 195.378C400.687 195.75 401.203 196.29 401.575 196.998C401.947 197.694 402.133 198.528 402.133 199.5C402.133 200.472 401.947 201.312 401.575 202.02C401.203 202.716 400.687 203.25 400.027 203.622C399.379 203.994 398.629 204.18 397.777 204.18C396.937 204.18 396.187 203.994 395.527 203.622C394.867 203.25 394.351 202.716 393.979 202.02C393.607 201.312 393.421 200.472 393.421 199.5C393.421 198.528 393.607 197.694 393.979 196.998C394.351 196.29 394.867 195.75 395.527 195.378C396.187 195.006 396.937 194.82 397.777 194.82ZM397.777 196.062C397.165 196.062 396.643 196.2 396.211 196.476C395.779 196.752 395.443 197.148 395.203 197.664C394.975 198.168 394.861 198.78 394.861 199.5C394.861 200.208 394.975 200.82 395.203 201.336C395.443 201.852 395.779 202.248 396.211 202.524C396.643 202.8 397.165 202.938 397.777 202.938C398.389 202.938 398.911 202.8 399.343 202.524C399.775 202.248 400.105 201.852 400.333 201.336C400.573 200.82 400.693 200.208 400.693 199.5C400.693 198.78 400.573 198.168 400.333 197.664C400.105 197.148 399.775 196.752 399.343 196.476C398.911 196.2 398.389 196.062 397.777 196.062ZM415.389 204.18C414.885 204.18 414.417 204.09 413.985 203.91C413.553 203.73 413.181 203.478 412.869 203.154C412.557 202.83 412.323 202.464 412.167 202.056L412.365 201.804L412.239 204H410.979V190.86H412.419V197.034L412.239 196.764C412.479 196.2 412.881 195.738 413.445 195.378C414.021 195.006 414.675 194.82 415.407 194.82C416.151 194.82 416.835 195.006 417.459 195.378C418.083 195.75 418.581 196.284 418.953 196.98C419.325 197.676 419.511 198.516 419.511 199.5C419.511 200.472 419.319 201.312 418.935 202.02C418.563 202.716 418.065 203.25 417.441 203.622C416.817 203.994 416.133 204.18 415.389 204.18ZM415.245 202.92C416.133 202.92 416.823 202.608 417.315 201.984C417.819 201.36 418.071 200.532 418.071 199.5C418.071 198.468 417.825 197.64 417.333 197.016C416.841 196.392 416.151 196.08 415.263 196.08C414.699 196.08 414.201 196.224 413.769 196.512C413.349 196.8 413.019 197.202 412.779 197.718C412.539 198.234 412.419 198.84 412.419 199.536C412.419 200.22 412.533 200.82 412.761 201.336C413.001 201.84 413.331 202.23 413.751 202.506C414.183 202.782 414.681 202.92 415.245 202.92ZM426.026 204.18C425.174 204.18 424.412 203.994 423.74 203.622C423.08 203.25 422.564 202.716 422.192 202.02C421.82 201.312 421.634 200.472 421.634 199.5C421.634 198.528 421.82 197.694 422.192 196.998C422.564 196.29 423.074 195.75 423.722 195.378C424.37 195.006 425.108 194.82 425.936 194.82C426.776 194.82 427.49 195 428.078 195.36C428.678 195.72 429.134 196.212 429.446 196.836C429.758 197.448 429.914 198.138 429.914 198.906C429.914 199.11 429.908 199.296 429.896 199.464C429.884 199.632 429.866 199.782 429.842 199.914H422.57V198.636H429.212L428.474 198.78C428.474 197.916 428.234 197.25 427.754 196.782C427.286 196.314 426.668 196.08 425.9 196.08C425.312 196.08 424.802 196.218 424.37 196.494C423.95 196.758 423.62 197.148 423.38 197.664C423.152 198.168 423.038 198.78 423.038 199.5C423.038 200.208 423.158 200.82 423.398 201.336C423.638 201.852 423.974 202.248 424.406 202.524C424.85 202.788 425.378 202.92 425.99 202.92C426.65 202.92 427.184 202.794 427.592 202.542C428.012 202.29 428.348 201.948 428.6 201.516L429.734 202.182C429.506 202.59 429.212 202.944 428.852 203.244C428.504 203.544 428.09 203.778 427.61 203.946C427.142 204.102 426.614 204.18 426.026 204.18ZM438.787 204V190.86H440.227V196.35C440.539 195.81 440.953 195.42 441.469 195.18C441.985 194.94 442.549 194.82 443.161 194.82C443.809 194.82 444.397 194.946 444.925 195.198C445.453 195.438 445.873 195.81 446.185 196.314C446.509 196.818 446.671 197.46 446.671 198.24V204H445.231V198.744C445.231 197.748 445.015 197.058 444.583 196.674C444.163 196.278 443.641 196.08 443.017 196.08C442.585 196.08 442.153 196.182 441.721 196.386C441.289 196.59 440.929 196.926 440.641 197.394C440.365 197.85 440.227 198.462 440.227 199.23V204H438.787ZM453.658 194.82C454.51 194.82 455.26 195.006 455.908 195.378C456.568 195.75 457.084 196.29 457.456 196.998C457.828 197.694 458.014 198.528 458.014 199.5C458.014 200.472 457.828 201.312 457.456 202.02C457.084 202.716 456.568 203.25 455.908 203.622C455.26 203.994 454.51 204.18 453.658 204.18C452.818 204.18 452.068 203.994 451.408 203.622C450.748 203.25 450.232 202.716 449.86 202.02C449.488 201.312 449.302 200.472 449.302 199.5C449.302 198.528 449.488 197.694 449.86 196.998C450.232 196.29 450.748 195.75 451.408 195.378C452.068 195.006 452.818 194.82 453.658 194.82ZM453.658 196.062C453.046 196.062 452.524 196.2 452.092 196.476C451.66 196.752 451.324 197.148 451.084 197.664C450.856 198.168 450.742 198.78 450.742 199.5C450.742 200.208 450.856 200.82 451.084 201.336C451.324 201.852 451.66 202.248 452.092 202.524C452.524 202.8 453.046 202.938 453.658 202.938C454.27 202.938 454.792 202.8 455.224 202.524C455.656 202.248 455.986 201.852 456.214 201.336C456.454 200.82 456.574 200.208 456.574 199.5C456.574 198.78 456.454 198.168 456.214 197.664C455.986 197.148 455.656 196.752 455.224 196.476C454.792 196.2 454.27 196.062 453.658 196.062ZM463.983 204.18C463.407 204.18 462.861 204.072 462.345 203.856C461.841 203.64 461.427 203.292 461.103 202.812C460.791 202.32 460.635 201.684 460.635 200.904V195H462.075V200.526C462.075 201.438 462.273 202.068 462.669 202.416C463.065 202.752 463.623 202.92 464.343 202.92C464.679 202.92 465.009 202.866 465.333 202.758C465.657 202.638 465.945 202.458 466.197 202.218C466.461 201.966 466.665 201.648 466.809 201.264C466.965 200.88 467.043 200.424 467.043 199.896V195H468.483V204H467.223L467.133 202.632C466.821 203.172 466.395 203.568 465.855 203.82C465.327 204.06 464.703 204.18 463.983 204.18ZM475.074 204.18C474.198 204.18 473.388 203.994 472.644 203.622C471.912 203.25 471.348 202.722 470.952 202.038L472.176 201.156C472.44 201.708 472.824 202.14 473.328 202.452C473.844 202.764 474.462 202.92 475.182 202.92C475.818 202.92 476.316 202.8 476.676 202.56C477.036 202.308 477.216 201.984 477.216 201.588C477.216 201.336 477.132 201.108 476.964 200.904C476.808 200.688 476.502 200.532 476.046 200.436L473.886 199.986C473.01 199.806 472.38 199.506 471.996 199.086C471.624 198.666 471.438 198.144 471.438 197.52C471.438 197.028 471.576 196.578 471.852 196.17C472.14 195.762 472.542 195.438 473.058 195.198C473.586 194.946 474.204 194.82 474.912 194.82C475.8 194.82 476.55 194.994 477.162 195.342C477.774 195.69 478.23 196.182 478.53 196.818L477.324 197.61C477.12 197.082 476.79 196.698 476.334 196.458C475.878 196.206 475.404 196.08 474.912 196.08C474.48 196.08 474.108 196.14 473.796 196.26C473.496 196.38 473.262 196.548 473.094 196.764C472.938 196.968 472.86 197.202 472.86 197.466C472.86 197.73 472.95 197.976 473.13 198.204C473.31 198.42 473.646 198.576 474.138 198.672L476.388 199.14C477.228 199.308 477.816 199.584 478.152 199.968C478.488 200.352 478.656 200.82 478.656 201.372C478.656 201.936 478.506 202.434 478.206 202.866C477.906 203.286 477.486 203.61 476.946 203.838C476.406 204.066 475.782 204.18 475.074 204.18ZM485.088 204.18C484.236 204.18 483.474 203.994 482.802 203.622C482.142 203.25 481.626 202.716 481.254 202.02C480.882 201.312 480.696 200.472 480.696 199.5C480.696 198.528 480.882 197.694 481.254 196.998C481.626 196.29 482.136 195.75 482.784 195.378C483.432 195.006 484.17 194.82 484.998 194.82C485.838 194.82 486.552 195 487.14 195.36C487.74 195.72 488.196 196.212 488.508 196.836C488.82 197.448 488.976 198.138 488.976 198.906C488.976 199.11 488.97 199.296 488.958 199.464C488.946 199.632 488.928 199.782 488.904 199.914H481.632V198.636H488.274L487.536 198.78C487.536 197.916 487.296 197.25 486.816 196.782C486.348 196.314 485.73 196.08 484.962 196.08C484.374 196.08 483.864 196.218 483.432 196.494C483.012 196.758 482.682 197.148 482.442 197.664C482.214 198.168 482.1 198.78 482.1 199.5C482.1 200.208 482.22 200.82 482.46 201.336C482.7 201.852 483.036 202.248 483.468 202.524C483.912 202.788 484.44 202.92 485.052 202.92C485.712 202.92 486.246 202.794 486.654 202.542C487.074 202.29 487.41 201.948 487.662 201.516L488.796 202.182C488.568 202.59 488.274 202.944 487.914 203.244C487.566 203.544 487.152 203.778 486.672 203.946C486.204 204.102 485.676 204.18 485.088 204.18ZM495.225 204.18C494.481 204.18 493.797 203.994 493.173 203.622C492.549 203.25 492.051 202.716 491.679 202.02C491.307 201.312 491.121 200.472 491.121 199.5C491.121 198.504 491.319 197.658 491.715 196.962C492.111 196.266 492.633 195.738 493.281 195.378C493.929 195.006 494.625 194.82 495.369 194.82C496.113 194.82 496.755 195.012 497.295 195.396C497.847 195.78 498.213 196.29 498.393 196.926L498.213 197.052V190.86H499.653V204H498.393L498.267 201.822L498.465 201.714C498.381 202.242 498.177 202.692 497.853 203.064C497.541 203.424 497.151 203.7 496.683 203.892C496.227 204.084 495.741 204.18 495.225 204.18ZM495.369 202.92C495.945 202.92 496.443 202.776 496.863 202.488C497.295 202.2 497.625 201.792 497.853 201.264C498.093 200.724 498.213 200.094 498.213 199.374C498.213 198.69 498.093 198.102 497.853 197.61C497.625 197.118 497.301 196.74 496.881 196.476C496.473 196.212 495.993 196.08 495.441 196.08C494.529 196.08 493.821 196.392 493.317 197.016C492.813 197.64 492.561 198.468 492.561 199.5C492.561 200.532 492.807 201.36 493.299 201.984C493.791 202.608 494.481 202.92 495.369 202.92ZM509.855 193.272C509.531 193.272 509.267 193.176 509.063 192.984C508.871 192.78 508.775 192.516 508.775 192.192C508.775 191.868 508.871 191.61 509.063 191.418C509.267 191.214 509.531 191.112 509.855 191.112C510.179 191.112 510.437 191.214 510.629 191.418C510.833 191.61 510.935 191.868 510.935 192.192C510.935 192.516 510.833 192.78 510.629 192.984C510.437 193.176 510.179 193.272 509.855 193.272ZM510.575 195V204H509.135V195H510.575ZM513.916 204V195H515.176L515.302 197.016L515.068 196.818C515.26 196.338 515.518 195.954 515.842 195.666C516.166 195.366 516.538 195.15 516.958 195.018C517.39 194.886 517.834 194.82 518.29 194.82C518.938 194.82 519.526 194.946 520.054 195.198C520.582 195.438 521.002 195.81 521.314 196.314C521.638 196.818 521.8 197.46 521.8 198.24V204H520.36V198.744C520.36 197.748 520.144 197.058 519.712 196.674C519.292 196.278 518.77 196.08 518.146 196.08C517.714 196.08 517.282 196.182 516.85 196.386C516.418 196.59 516.058 196.92 515.77 197.376C515.494 197.832 515.356 198.444 515.356 199.212V204H513.916ZM535.281 191.94C536.325 191.94 537.225 192.156 537.981 192.588C538.737 193.008 539.367 193.632 539.871 194.46L538.665 195.396C538.221 194.628 537.717 194.088 537.153 193.776C536.601 193.452 535.929 193.29 535.137 193.29C534.501 193.29 533.973 193.38 533.553 193.56C533.145 193.74 532.845 193.98 532.653 194.28C532.461 194.568 532.365 194.898 532.365 195.27C532.365 195.69 532.497 196.062 532.761 196.386C533.025 196.698 533.553 196.944 534.345 197.124L536.919 197.7C538.059 197.952 538.851 198.336 539.295 198.852C539.751 199.356 539.979 199.986 539.979 200.742C539.979 201.414 539.787 202.014 539.403 202.542C539.031 203.058 538.503 203.46 537.819 203.748C537.135 204.036 536.331 204.18 535.407 204.18C534.543 204.18 533.781 204.066 533.121 203.838C532.473 203.598 531.915 203.28 531.447 202.884C530.979 202.488 530.595 202.044 530.295 201.552L531.555 200.526C531.783 200.982 532.077 201.384 532.437 201.732C532.797 202.08 533.229 202.35 533.733 202.542C534.249 202.734 534.837 202.83 535.497 202.83C536.109 202.83 536.637 202.758 537.081 202.614C537.537 202.458 537.885 202.236 538.125 201.948C538.365 201.648 538.485 201.288 538.485 200.868C538.485 200.484 538.359 200.142 538.107 199.842C537.855 199.53 537.381 199.296 536.685 199.14L533.895 198.51C533.163 198.342 532.569 198.114 532.113 197.826C531.669 197.526 531.345 197.178 531.141 196.782C530.949 196.374 530.853 195.936 530.853 195.468C530.853 194.832 531.027 194.25 531.375 193.722C531.735 193.182 532.245 192.75 532.905 192.426C533.577 192.102 534.369 191.94 535.281 191.94ZM552.573 200.958C552.321 201.63 551.961 202.212 551.493 202.704C551.025 203.184 550.473 203.55 549.837 203.802C549.213 204.054 548.529 204.18 547.785 204.18C546.657 204.18 545.679 203.934 544.851 203.442C544.035 202.938 543.399 202.23 542.943 201.318C542.499 200.406 542.277 199.32 542.277 198.06C542.277 196.8 542.499 195.714 542.943 194.802C543.399 193.89 544.035 193.188 544.851 192.696C545.679 192.192 546.645 191.94 547.749 191.94C548.517 191.94 549.201 192.048 549.801 192.264C550.401 192.468 550.911 192.78 551.331 193.2C551.763 193.608 552.105 194.112 552.357 194.712L550.935 195.378C550.671 194.694 550.287 194.178 549.783 193.83C549.291 193.47 548.649 193.29 547.857 193.29C547.053 193.29 546.345 193.482 545.733 193.866C545.121 194.238 544.641 194.778 544.293 195.486C543.957 196.194 543.789 197.052 543.789 198.06C543.789 199.056 543.951 199.914 544.275 200.634C544.599 201.342 545.061 201.888 545.661 202.272C546.261 202.644 546.969 202.83 547.785 202.83C548.577 202.83 549.267 202.632 549.855 202.236C550.443 201.828 550.869 201.222 551.133 200.418L552.573 200.958ZM555.337 204V192.12H563.671V193.47H556.777V197.304H562.141V198.654H556.777V202.65H563.941V204H555.337ZM571.315 192.12C572.527 192.12 573.499 192.432 574.231 193.056C574.963 193.68 575.329 194.526 575.329 195.594C575.329 196.662 574.957 197.496 574.213 198.096C573.481 198.684 572.509 198.978 571.297 198.978L571.171 199.068H568.255V204H566.815V192.12H571.315ZM571.297 197.718C572.149 197.718 572.779 197.544 573.187 197.196C573.607 196.836 573.817 196.302 573.817 195.594C573.817 194.886 573.607 194.358 573.187 194.01C572.779 193.65 572.149 193.47 571.297 193.47H568.255V197.718H571.297ZM572.125 198.006L576.049 204H574.339L570.919 198.798L572.125 198.006ZM586.786 192.12V193.47H582.646V204H581.206V193.47H577.066V192.12H586.786ZM597.99 190.77C598.302 190.77 598.596 190.806 598.872 190.878C599.148 190.95 599.364 191.052 599.52 191.184L599.142 192.354C598.998 192.258 598.842 192.192 598.674 192.156C598.506 192.108 598.32 192.084 598.116 192.084C597.6 192.084 597.198 192.21 596.91 192.462C596.622 192.702 596.478 193.092 596.478 193.632V195V195.468V204H595.038V193.488C595.038 193.092 595.098 192.726 595.218 192.39C595.338 192.054 595.518 191.766 595.758 191.526C596.01 191.286 596.322 191.1 596.694 190.968C597.066 190.836 597.498 190.77 597.99 190.77ZM599.484 195V196.242H593.238V195H599.484ZM604.882 194.82C605.734 194.82 606.484 195.006 607.132 195.378C607.792 195.75 608.308 196.29 608.68 196.998C609.052 197.694 609.238 198.528 609.238 199.5C609.238 200.472 609.052 201.312 608.68 202.02C608.308 202.716 607.792 203.25 607.132 203.622C606.484 203.994 605.734 204.18 604.882 204.18C604.042 204.18 603.292 203.994 602.632 203.622C601.972 203.25 601.456 202.716 601.084 202.02C600.712 201.312 600.526 200.472 600.526 199.5C600.526 198.528 600.712 197.694 601.084 196.998C601.456 196.29 601.972 195.75 602.632 195.378C603.292 195.006 604.042 194.82 604.882 194.82ZM604.882 196.062C604.27 196.062 603.748 196.2 603.316 196.476C602.884 196.752 602.548 197.148 602.308 197.664C602.08 198.168 601.966 198.78 601.966 199.5C601.966 200.208 602.08 200.82 602.308 201.336C602.548 201.852 602.884 202.248 603.316 202.524C603.748 202.8 604.27 202.938 604.882 202.938C605.494 202.938 606.016 202.8 606.448 202.524C606.88 202.248 607.21 201.852 607.438 201.336C607.678 200.82 607.798 200.208 607.798 199.5C607.798 198.78 607.678 198.168 607.438 197.664C607.21 197.148 606.88 196.752 606.448 196.476C606.016 196.2 605.494 196.062 604.882 196.062ZM611.949 204V195H613.119L613.317 196.476C613.569 195.924 613.935 195.51 614.415 195.234C614.907 194.958 615.501 194.82 616.197 194.82C616.353 194.82 616.521 194.832 616.701 194.856C616.893 194.88 617.055 194.928 617.187 195L616.935 196.314C616.803 196.266 616.659 196.23 616.503 196.206C616.347 196.182 616.125 196.17 615.837 196.17C615.465 196.17 615.087 196.278 614.703 196.494C614.331 196.71 614.019 197.04 613.767 197.484C613.515 197.916 613.389 198.468 613.389 199.14V204H611.949ZM625.01 207.78V195H626.27L626.396 197.196L626.198 196.944C626.354 196.524 626.588 196.158 626.9 195.846C627.212 195.522 627.59 195.27 628.034 195.09C628.478 194.91 628.958 194.82 629.474 194.82C630.206 194.82 630.878 195.006 631.49 195.378C632.114 195.75 632.612 196.284 632.984 196.98C633.356 197.676 633.542 198.516 633.542 199.5C633.542 200.472 633.35 201.312 632.966 202.02C632.594 202.716 632.096 203.25 631.472 203.622C630.848 203.994 630.164 204.18 629.42 204.18C628.676 204.18 628.022 204 627.458 203.64C626.906 203.268 626.51 202.8 626.27 202.236L626.45 201.966V207.78H625.01ZM629.276 202.92C630.164 202.92 630.854 202.608 631.346 201.984C631.85 201.36 632.102 200.532 632.102 199.5C632.102 198.468 631.856 197.64 631.364 197.016C630.884 196.392 630.206 196.08 629.33 196.08C628.754 196.08 628.25 196.224 627.818 196.512C627.386 196.788 627.05 197.184 626.81 197.7C626.57 198.204 626.45 198.804 626.45 199.5C626.45 200.184 626.564 200.784 626.792 201.3C627.032 201.816 627.362 202.218 627.782 202.506C628.214 202.782 628.712 202.92 629.276 202.92ZM636.295 204V195H637.465L637.663 196.476C637.915 195.924 638.281 195.51 638.761 195.234C639.253 194.958 639.847 194.82 640.543 194.82C640.699 194.82 640.867 194.832 641.047 194.856C641.239 194.88 641.401 194.928 641.533 195L641.281 196.314C641.149 196.266 641.005 196.23 640.849 196.206C640.693 196.182 640.471 196.17 640.183 196.17C639.811 196.17 639.433 196.278 639.049 196.494C638.677 196.71 638.365 197.04 638.113 197.484C637.861 197.916 637.735 198.468 637.735 199.14V204H636.295ZM647.088 194.82C647.94 194.82 648.69 195.006 649.338 195.378C649.998 195.75 650.514 196.29 650.886 196.998C651.258 197.694 651.444 198.528 651.444 199.5C651.444 200.472 651.258 201.312 650.886 202.02C650.514 202.716 649.998 203.25 649.338 203.622C648.69 203.994 647.94 204.18 647.088 204.18C646.248 204.18 645.498 203.994 644.838 203.622C644.178 203.25 643.662 202.716 643.29 202.02C642.918 201.312 642.732 200.472 642.732 199.5C642.732 198.528 642.918 197.694 643.29 196.998C643.662 196.29 644.178 195.75 644.838 195.378C645.498 195.006 646.248 194.82 647.088 194.82ZM647.088 196.062C646.476 196.062 645.954 196.2 645.522 196.476C645.09 196.752 644.754 197.148 644.514 197.664C644.286 198.168 644.172 198.78 644.172 199.5C644.172 200.208 644.286 200.82 644.514 201.336C644.754 201.852 645.09 202.248 645.522 202.524C645.954 202.8 646.476 202.938 647.088 202.938C647.7 202.938 648.222 202.8 648.654 202.524C649.086 202.248 649.416 201.852 649.644 201.336C649.884 200.82 650.004 200.208 650.004 199.5C650.004 198.78 649.884 198.168 649.644 197.664C649.416 197.148 649.086 196.752 648.654 196.476C648.222 196.2 647.7 196.062 647.088 196.062ZM660.112 195H661.624L657.88 204H656.44L652.696 195H654.334L657.178 202.542L660.112 195ZM664.226 193.272C663.902 193.272 663.638 193.176 663.434 192.984C663.242 192.78 663.146 192.516 663.146 192.192C663.146 191.868 663.242 191.61 663.434 191.418C663.638 191.214 663.902 191.112 664.226 191.112C664.55 191.112 664.808 191.214 665 191.418C665.204 191.61 665.306 191.868 665.306 192.192C665.306 192.516 665.204 192.78 665 192.984C664.808 193.176 664.55 193.272 664.226 193.272ZM664.946 195V204H663.506V195H664.946ZM671.797 204.18C671.053 204.18 670.369 203.994 669.745 203.622C669.121 203.25 668.623 202.716 668.251 202.02C667.879 201.312 667.693 200.472 667.693 199.5C667.693 198.504 667.891 197.658 668.287 196.962C668.683 196.266 669.205 195.738 669.853 195.378C670.501 195.006 671.197 194.82 671.941 194.82C672.685 194.82 673.327 195.012 673.867 195.396C674.419 195.78 674.785 196.29 674.965 196.926L674.785 197.052V190.86H676.225V204H674.965L674.839 201.822L675.037 201.714C674.953 202.242 674.749 202.692 674.425 203.064C674.113 203.424 673.723 203.7 673.255 203.892C672.799 204.084 672.313 204.18 671.797 204.18ZM671.941 202.92C672.517 202.92 673.015 202.776 673.435 202.488C673.867 202.2 674.197 201.792 674.425 201.264C674.665 200.724 674.785 200.094 674.785 199.374C674.785 198.69 674.665 198.102 674.425 197.61C674.197 197.118 673.873 196.74 673.453 196.476C673.045 196.212 672.565 196.08 672.013 196.08C671.101 196.08 670.393 196.392 669.889 197.016C669.385 197.64 669.133 198.468 669.133 199.5C669.133 200.532 669.379 201.36 669.871 201.984C670.363 202.608 671.053 202.92 671.941 202.92ZM680.292 193.272C679.968 193.272 679.704 193.176 679.5 192.984C679.308 192.78 679.212 192.516 679.212 192.192C679.212 191.868 679.308 191.61 679.5 191.418C679.704 191.214 679.968 191.112 680.292 191.112C680.616 191.112 680.874 191.214 681.066 191.418C681.27 191.61 681.372 191.868 681.372 192.192C681.372 192.516 681.27 192.78 681.066 192.984C680.874 193.176 680.616 193.272 680.292 193.272ZM681.012 195V204H679.572V195H681.012ZM684.354 204V195H685.614L685.74 197.016L685.506 196.818C685.698 196.338 685.956 195.954 686.28 195.666C686.604 195.366 686.976 195.15 687.396 195.018C687.828 194.886 688.272 194.82 688.728 194.82C689.376 194.82 689.964 194.946 690.492 195.198C691.02 195.438 691.44 195.81 691.752 196.314C692.076 196.818 692.238 197.46 692.238 198.24V204H690.798V198.744C690.798 197.748 690.582 197.058 690.15 196.674C689.73 196.278 689.208 196.08 688.584 196.08C688.152 196.08 687.72 196.182 687.288 196.386C686.856 196.59 686.496 196.92 686.208 197.376C685.932 197.832 685.794 198.444 685.794 199.212V204H684.354ZM703.076 193.344L703.4 194.622C703.388 194.622 703.37 194.622 703.346 194.622C703.322 194.622 703.298 194.622 703.274 194.622C702.686 194.622 702.23 194.742 701.906 194.982C701.594 195.21 701.438 195.582 701.438 196.098L700.556 195.648C700.556 195.18 700.664 194.772 700.88 194.424C701.096 194.076 701.39 193.812 701.762 193.632C702.134 193.44 702.542 193.344 702.986 193.344C702.998 193.344 703.01 193.344 703.022 193.344C703.046 193.344 703.064 193.344 703.076 193.344ZM700.34 202.848C701.192 202.848 701.858 203.046 702.338 203.442C702.818 203.826 703.058 204.342 703.058 204.99C703.058 205.578 702.86 206.088 702.464 206.52C702.08 206.952 701.558 207.282 700.898 207.51C700.25 207.75 699.518 207.87 698.702 207.87C697.286 207.87 696.224 207.63 695.516 207.15C694.82 206.67 694.472 206.094 694.472 205.422C694.472 204.942 694.628 204.51 694.94 204.126C695.264 203.754 695.804 203.544 696.56 203.496L696.434 203.766C696.026 203.658 695.678 203.478 695.39 203.226C695.114 202.962 694.976 202.584 694.976 202.092C694.976 201.6 695.156 201.18 695.516 200.832C695.888 200.472 696.434 200.25 697.154 200.166L698.108 200.652H697.928C697.34 200.712 696.92 200.862 696.668 201.102C696.428 201.33 696.308 201.582 696.308 201.858C696.308 202.194 696.428 202.446 696.668 202.614C696.92 202.77 697.268 202.848 697.712 202.848H700.34ZM698.684 206.664C699.38 206.664 699.95 206.592 700.394 206.448C700.85 206.304 701.186 206.118 701.402 205.89C701.618 205.662 701.726 205.416 701.726 205.152C701.726 204.828 701.594 204.57 701.33 204.378C701.078 204.186 700.616 204.09 699.944 204.09H697.172C696.788 204.09 696.464 204.186 696.2 204.378C695.936 204.582 695.804 204.858 695.804 205.206C695.804 205.65 696.056 206.004 696.56 206.268C697.076 206.532 697.784 206.664 698.684 206.664ZM698.558 194.82C699.278 194.82 699.914 194.952 700.466 195.216C701.03 195.468 701.468 195.822 701.78 196.278C702.092 196.734 702.248 197.262 702.248 197.862C702.248 198.45 702.092 198.978 701.78 199.446C701.468 199.902 701.03 200.262 700.466 200.526C699.914 200.778 699.278 200.904 698.558 200.904C697.37 200.904 696.458 200.622 695.822 200.058C695.186 199.482 694.868 198.75 694.868 197.862C694.868 197.262 695.024 196.734 695.336 196.278C695.66 195.822 696.098 195.468 696.65 195.216C697.202 194.952 697.838 194.82 698.558 194.82ZM698.558 195.99C697.934 195.99 697.412 196.164 696.992 196.512C696.572 196.848 696.362 197.298 696.362 197.862C696.362 198.414 696.572 198.864 696.992 199.212C697.412 199.56 697.934 199.734 698.558 199.734C699.182 199.734 699.704 199.56 700.124 199.212C700.544 198.864 700.754 198.414 700.754 197.862C700.754 197.298 700.544 196.848 700.124 196.512C699.704 196.164 699.182 195.99 698.558 195.99ZM112.798 219.444V228.516C112.798 228.96 112.924 229.29 113.176 229.506C113.428 229.722 113.752 229.83 114.148 229.83C114.496 229.83 114.796 229.77 115.048 229.65C115.3 229.53 115.528 229.368 115.732 229.164L116.236 230.37C115.96 230.622 115.63 230.82 115.246 230.964C114.874 231.108 114.442 231.18 113.95 231.18C113.494 231.18 113.068 231.102 112.672 230.946C112.276 230.778 111.958 230.52 111.718 230.172C111.49 229.812 111.37 229.344 111.358 228.768V219.84L112.798 219.444ZM116.074 222V223.242H109.558V222H116.074ZM121.977 231.18C121.125 231.18 120.363 230.994 119.691 230.622C119.031 230.25 118.515 229.716 118.143 229.02C117.771 228.312 117.585 227.472 117.585 226.5C117.585 225.528 117.771 224.694 118.143 223.998C118.515 223.29 119.025 222.75 119.673 222.378C120.321 222.006 121.059 221.82 121.887 221.82C122.727 221.82 123.441 222 124.029 222.36C124.629 222.72 125.085 223.212 125.397 223.836C125.709 224.448 125.865 225.138 125.865 225.906C125.865 226.11 125.859 226.296 125.847 226.464C125.835 226.632 125.817 226.782 125.793 226.914H118.521V225.636H125.163L124.425 225.78C124.425 224.916 124.185 224.25 123.705 223.782C123.237 223.314 122.619 223.08 121.851 223.08C121.263 223.08 120.753 223.218 120.321 223.494C119.901 223.758 119.571 224.148 119.331 224.664C119.103 225.168 118.989 225.78 118.989 226.5C118.989 227.208 119.109 227.82 119.349 228.336C119.589 228.852 119.925 229.248 120.357 229.524C120.801 229.788 121.329 229.92 121.941 229.92C122.601 229.92 123.135 229.794 123.543 229.542C123.963 229.29 124.299 228.948 124.551 228.516L125.685 229.182C125.457 229.59 125.163 229.944 124.803 230.244C124.455 230.544 124.041 230.778 123.561 230.946C123.093 231.102 122.565 231.18 121.977 231.18ZM132.33 221.82C132.954 221.82 133.5 221.916 133.968 222.108C134.448 222.3 134.862 222.576 135.21 222.936C135.558 223.296 135.84 223.722 136.056 224.214L134.688 224.862C134.496 224.286 134.202 223.848 133.806 223.548C133.422 223.236 132.918 223.08 132.294 223.08C131.694 223.08 131.178 223.218 130.746 223.494C130.314 223.758 129.984 224.148 129.756 224.664C129.528 225.168 129.414 225.78 129.414 226.5C129.414 227.208 129.528 227.82 129.756 228.336C129.984 228.852 130.314 229.248 130.746 229.524C131.178 229.788 131.694 229.92 132.294 229.92C132.762 229.92 133.164 229.848 133.5 229.704C133.848 229.56 134.13 229.35 134.346 229.074C134.574 228.798 134.73 228.462 134.814 228.066L136.146 228.534C135.942 229.086 135.66 229.56 135.3 229.956C134.952 230.352 134.526 230.658 134.022 230.874C133.53 231.078 132.966 231.18 132.33 231.18C131.49 231.18 130.74 230.994 130.08 230.622C129.42 230.25 128.904 229.716 128.532 229.02C128.16 228.312 127.974 227.472 127.974 226.5C127.974 225.528 128.16 224.694 128.532 223.998C128.904 223.29 129.42 222.75 130.08 222.378C130.74 222.006 131.49 221.82 132.33 221.82ZM138.676 231V217.86H140.116V223.35C140.428 222.81 140.842 222.42 141.358 222.18C141.874 221.94 142.438 221.82 143.05 221.82C143.698 221.82 144.286 221.946 144.814 222.198C145.342 222.438 145.762 222.81 146.074 223.314C146.398 223.818 146.56 224.46 146.56 225.24V231H145.12V225.744C145.12 224.748 144.904 224.058 144.472 223.674C144.052 223.278 143.53 223.08 142.906 223.08C142.474 223.08 142.042 223.182 141.61 223.386C141.178 223.59 140.818 223.926 140.53 224.394C140.254 224.85 140.116 225.462 140.116 226.23V231H138.676ZM149.82 231V222H151.08L151.206 224.016L150.972 223.818C151.164 223.338 151.422 222.954 151.746 222.666C152.07 222.366 152.442 222.15 152.862 222.018C153.294 221.886 153.738 221.82 154.194 221.82C154.842 221.82 155.43 221.946 155.958 222.198C156.486 222.438 156.906 222.81 157.218 223.314C157.542 223.818 157.704 224.46 157.704 225.24V231H156.264V225.744C156.264 224.748 156.048 224.058 155.616 223.674C155.196 223.278 154.674 223.08 154.05 223.08C153.618 223.08 153.186 223.182 152.754 223.386C152.322 223.59 151.962 223.92 151.674 224.376C151.398 224.832 151.26 225.444 151.26 226.212V231H149.82ZM161.685 220.272C161.361 220.272 161.097 220.176 160.893 219.984C160.701 219.78 160.605 219.516 160.605 219.192C160.605 218.868 160.701 218.61 160.893 218.418C161.097 218.214 161.361 218.112 161.685 218.112C162.009 218.112 162.267 218.214 162.459 218.418C162.663 218.61 162.765 218.868 162.765 219.192C162.765 219.516 162.663 219.78 162.459 219.984C162.267 220.176 162.009 220.272 161.685 220.272ZM162.405 222V231H160.965V222H162.405ZM169.472 221.82C170.096 221.82 170.642 221.916 171.11 222.108C171.59 222.3 172.004 222.576 172.352 222.936C172.7 223.296 172.982 223.722 173.198 224.214L171.83 224.862C171.638 224.286 171.344 223.848 170.948 223.548C170.564 223.236 170.06 223.08 169.436 223.08C168.836 223.08 168.32 223.218 167.888 223.494C167.456 223.758 167.126 224.148 166.898 224.664C166.67 225.168 166.556 225.78 166.556 226.5C166.556 227.208 166.67 227.82 166.898 228.336C167.126 228.852 167.456 229.248 167.888 229.524C168.32 229.788 168.836 229.92 169.436 229.92C169.904 229.92 170.306 229.848 170.642 229.704C170.99 229.56 171.272 229.35 171.488 229.074C171.716 228.798 171.872 228.462 171.956 228.066L173.288 228.534C173.084 229.086 172.802 229.56 172.442 229.956C172.094 230.352 171.668 230.658 171.164 230.874C170.672 231.078 170.108 231.18 169.472 231.18C168.632 231.18 167.882 230.994 167.222 230.622C166.562 230.25 166.046 229.716 165.674 229.02C165.302 228.312 165.116 227.472 165.116 226.5C165.116 225.528 165.302 224.694 165.674 223.998C166.046 223.29 166.562 222.75 167.222 222.378C167.882 222.006 168.632 221.82 169.472 221.82ZM181.075 225.186C181.075 224.514 180.895 223.998 180.535 223.638C180.175 223.266 179.665 223.08 179.005 223.08C178.381 223.08 177.853 223.218 177.421 223.494C176.989 223.758 176.671 224.19 176.467 224.79L175.297 224.07C175.537 223.398 175.981 222.858 176.629 222.45C177.277 222.03 178.081 221.82 179.041 221.82C179.689 221.82 180.277 221.934 180.805 222.162C181.333 222.378 181.747 222.714 182.047 223.17C182.359 223.614 182.515 224.19 182.515 224.898V229.254C182.515 229.686 182.743 229.902 183.199 229.902C183.427 229.902 183.649 229.872 183.865 229.812L183.793 230.946C183.553 231.066 183.241 231.126 182.857 231.126C182.509 231.126 182.197 231.06 181.921 230.928C181.645 230.796 181.429 230.598 181.273 230.334C181.117 230.058 181.039 229.716 181.039 229.308V229.128L181.399 229.182C181.255 229.65 181.009 230.034 180.661 230.334C180.313 230.622 179.923 230.838 179.491 230.982C179.059 231.114 178.633 231.18 178.213 231.18C177.685 231.18 177.193 231.09 176.737 230.91C176.281 230.73 175.915 230.46 175.639 230.1C175.375 229.728 175.243 229.272 175.243 228.732C175.243 228.06 175.465 227.508 175.909 227.076C176.365 226.632 176.995 226.332 177.799 226.176L181.363 225.474V226.662L178.465 227.256C177.877 227.376 177.439 227.544 177.151 227.76C176.863 227.976 176.719 228.276 176.719 228.66C176.719 229.032 176.863 229.338 177.151 229.578C177.451 229.806 177.871 229.92 178.411 229.92C178.759 229.92 179.089 229.878 179.401 229.794C179.725 229.698 180.013 229.56 180.265 229.38C180.517 229.188 180.715 228.954 180.859 228.678C181.003 228.39 181.075 228.054 181.075 227.67V225.186ZM187.382 217.86V228.714C187.382 229.17 187.466 229.488 187.634 229.668C187.802 229.836 188.072 229.92 188.444 229.92C188.684 229.92 188.882 229.902 189.038 229.866C189.194 229.83 189.404 229.764 189.668 229.668L189.434 230.928C189.242 231.012 189.032 231.072 188.804 231.108C188.576 231.156 188.342 231.18 188.102 231.18C187.37 231.18 186.824 230.982 186.464 230.586C186.116 230.19 185.942 229.584 185.942 228.768V217.86H187.382ZM192.236 228.84C192.524 228.84 192.764 228.918 192.956 229.074C193.16 229.218 193.316 229.422 193.424 229.686C193.532 229.938 193.586 230.238 193.586 230.586C193.586 230.982 193.514 231.372 193.37 231.756C193.238 232.14 193.028 232.494 192.74 232.818C192.452 233.142 192.08 233.412 191.624 233.628L190.868 232.926C191.192 232.818 191.474 232.668 191.714 232.476C191.966 232.284 192.17 232.068 192.326 231.828C192.482 231.588 192.584 231.342 192.632 231.09L192.56 231.054C192.512 231.09 192.452 231.12 192.38 231.144C192.308 231.168 192.2 231.18 192.056 231.18C191.912 231.18 191.762 231.138 191.606 231.054C191.462 230.97 191.336 230.85 191.228 230.694C191.12 230.526 191.066 230.31 191.066 230.046C191.066 229.83 191.12 229.632 191.228 229.452C191.336 229.26 191.474 229.11 191.642 229.002C191.822 228.894 192.02 228.84 192.236 228.84ZM207.688 225.186C207.688 224.514 207.508 223.998 207.148 223.638C206.788 223.266 206.278 223.08 205.618 223.08C204.994 223.08 204.466 223.218 204.034 223.494C203.602 223.758 203.284 224.19 203.08 224.79L201.91 224.07C202.15 223.398 202.594 222.858 203.242 222.45C203.89 222.03 204.694 221.82 205.654 221.82C206.302 221.82 206.89 221.934 207.418 222.162C207.946 222.378 208.36 222.714 208.66 223.17C208.972 223.614 209.128 224.19 209.128 224.898V229.254C209.128 229.686 209.356 229.902 209.812 229.902C210.04 229.902 210.262 229.872 210.478 229.812L210.406 230.946C210.166 231.066 209.854 231.126 209.47 231.126C209.122 231.126 208.81 231.06 208.534 230.928C208.258 230.796 208.042 230.598 207.886 230.334C207.73 230.058 207.652 229.716 207.652 229.308V229.128L208.012 229.182C207.868 229.65 207.622 230.034 207.274 230.334C206.926 230.622 206.536 230.838 206.104 230.982C205.672 231.114 205.246 231.18 204.826 231.18C204.298 231.18 203.806 231.09 203.35 230.91C202.894 230.73 202.528 230.46 202.252 230.1C201.988 229.728 201.856 229.272 201.856 228.732C201.856 228.06 202.078 227.508 202.522 227.076C202.978 226.632 203.608 226.332 204.412 226.176L207.976 225.474V226.662L205.078 227.256C204.49 227.376 204.052 227.544 203.764 227.76C203.476 227.976 203.332 228.276 203.332 228.66C203.332 229.032 203.476 229.338 203.764 229.578C204.064 229.806 204.484 229.92 205.024 229.92C205.372 229.92 205.702 229.878 206.014 229.794C206.338 229.698 206.626 229.56 206.878 229.38C207.13 229.188 207.328 228.954 207.472 228.678C207.616 228.39 207.688 228.054 207.688 227.67V225.186ZM216.353 221.82C216.977 221.82 217.523 221.916 217.991 222.108C218.471 222.3 218.885 222.576 219.233 222.936C219.581 223.296 219.863 223.722 220.079 224.214L218.711 224.862C218.519 224.286 218.225 223.848 217.829 223.548C217.445 223.236 216.941 223.08 216.317 223.08C215.717 223.08 215.201 223.218 214.769 223.494C214.337 223.758 214.007 224.148 213.779 224.664C213.551 225.168 213.437 225.78 213.437 226.5C213.437 227.208 213.551 227.82 213.779 228.336C214.007 228.852 214.337 229.248 214.769 229.524C215.201 229.788 215.717 229.92 216.317 229.92C216.785 229.92 217.187 229.848 217.523 229.704C217.871 229.56 218.153 229.35 218.369 229.074C218.597 228.798 218.753 228.462 218.837 228.066L220.169 228.534C219.965 229.086 219.683 229.56 219.323 229.956C218.975 230.352 218.549 230.658 218.045 230.874C217.553 231.078 216.989 231.18 216.353 231.18C215.513 231.18 214.763 230.994 214.103 230.622C213.443 230.25 212.927 229.716 212.555 229.02C212.183 228.312 211.997 227.472 211.997 226.5C211.997 225.528 212.183 224.694 212.555 223.998C212.927 223.29 213.443 222.75 214.103 222.378C214.763 222.006 215.513 221.82 216.353 221.82ZM227.955 225.186C227.955 224.514 227.775 223.998 227.415 223.638C227.055 223.266 226.545 223.08 225.885 223.08C225.261 223.08 224.733 223.218 224.301 223.494C223.869 223.758 223.551 224.19 223.347 224.79L222.177 224.07C222.417 223.398 222.861 222.858 223.509 222.45C224.157 222.03 224.961 221.82 225.921 221.82C226.569 221.82 227.157 221.934 227.685 222.162C228.213 222.378 228.627 222.714 228.927 223.17C229.239 223.614 229.395 224.19 229.395 224.898V229.254C229.395 229.686 229.623 229.902 230.079 229.902C230.307 229.902 230.529 229.872 230.745 229.812L230.673 230.946C230.433 231.066 230.121 231.126 229.737 231.126C229.389 231.126 229.077 231.06 228.801 230.928C228.525 230.796 228.309 230.598 228.153 230.334C227.997 230.058 227.919 229.716 227.919 229.308V229.128L228.279 229.182C228.135 229.65 227.889 230.034 227.541 230.334C227.193 230.622 226.803 230.838 226.371 230.982C225.939 231.114 225.513 231.18 225.093 231.18C224.565 231.18 224.073 231.09 223.617 230.91C223.161 230.73 222.795 230.46 222.519 230.1C222.255 229.728 222.123 229.272 222.123 228.732C222.123 228.06 222.345 227.508 222.789 227.076C223.245 226.632 223.875 226.332 224.679 226.176L228.243 225.474V226.662L225.345 227.256C224.757 227.376 224.319 227.544 224.031 227.76C223.743 227.976 223.599 228.276 223.599 228.66C223.599 229.032 223.743 229.338 224.031 229.578C224.331 229.806 224.751 229.92 225.291 229.92C225.639 229.92 225.969 229.878 226.281 229.794C226.605 229.698 226.893 229.56 227.145 229.38C227.397 229.188 227.595 228.954 227.739 228.678C227.883 228.39 227.955 228.054 227.955 227.67V225.186ZM236.405 231.18C235.661 231.18 234.977 230.994 234.353 230.622C233.729 230.25 233.231 229.716 232.859 229.02C232.487 228.312 232.301 227.472 232.301 226.5C232.301 225.504 232.499 224.658 232.895 223.962C233.291 223.266 233.813 222.738 234.461 222.378C235.109 222.006 235.805 221.82 236.549 221.82C237.293 221.82 237.935 222.012 238.475 222.396C239.027 222.78 239.393 223.29 239.573 223.926L239.393 224.052V217.86H240.833V231H239.573L239.447 228.822L239.645 228.714C239.561 229.242 239.357 229.692 239.033 230.064C238.721 230.424 238.331 230.7 237.863 230.892C237.407 231.084 236.921 231.18 236.405 231.18ZM236.549 229.92C237.125 229.92 237.623 229.776 238.043 229.488C238.475 229.2 238.805 228.792 239.033 228.264C239.273 227.724 239.393 227.094 239.393 226.374C239.393 225.69 239.273 225.102 239.033 224.61C238.805 224.118 238.481 223.74 238.061 223.476C237.653 223.212 237.173 223.08 236.621 223.08C235.709 223.08 235.001 223.392 234.497 224.016C233.993 224.64 233.741 225.468 233.741 226.5C233.741 227.532 233.987 228.36 234.479 228.984C234.971 229.608 235.661 229.92 236.549 229.92ZM247.942 231.18C247.09 231.18 246.328 230.994 245.656 230.622C244.996 230.25 244.48 229.716 244.108 229.02C243.736 228.312 243.55 227.472 243.55 226.5C243.55 225.528 243.736 224.694 244.108 223.998C244.48 223.29 244.99 222.75 245.638 222.378C246.286 222.006 247.024 221.82 247.852 221.82C248.692 221.82 249.406 222 249.994 222.36C250.594 222.72 251.05 223.212 251.362 223.836C251.674 224.448 251.83 225.138 251.83 225.906C251.83 226.11 251.824 226.296 251.812 226.464C251.8 226.632 251.782 226.782 251.758 226.914H244.486V225.636H251.128L250.39 225.78C250.39 224.916 250.15 224.25 249.67 223.782C249.202 223.314 248.584 223.08 247.816 223.08C247.228 223.08 246.718 223.218 246.286 223.494C245.866 223.758 245.536 224.148 245.296 224.664C245.068 225.168 244.954 225.78 244.954 226.5C244.954 227.208 245.074 227.82 245.314 228.336C245.554 228.852 245.89 229.248 246.322 229.524C246.766 229.788 247.294 229.92 247.906 229.92C248.566 229.92 249.1 229.794 249.508 229.542C249.928 229.29 250.264 228.948 250.516 228.516L251.65 229.182C251.422 229.59 251.128 229.944 250.768 230.244C250.42 230.544 250.006 230.778 249.526 230.946C249.058 231.102 248.53 231.18 247.942 231.18ZM254.569 231V222H255.829L255.919 223.404C256.243 222.852 256.663 222.45 257.179 222.198C257.707 221.946 258.247 221.82 258.799 221.82C259.435 221.82 260.035 221.964 260.599 222.252C261.163 222.54 261.595 222.984 261.895 223.584C262.087 223.176 262.357 222.846 262.705 222.594C263.053 222.33 263.431 222.138 263.839 222.018C264.259 221.886 264.655 221.82 265.027 221.82C265.603 221.82 266.149 221.94 266.665 222.18C267.193 222.42 267.625 222.792 267.961 223.296C268.297 223.8 268.465 224.448 268.465 225.24V231H267.025V225.384C267.025 224.568 266.821 223.98 266.413 223.62C266.005 223.26 265.501 223.08 264.901 223.08C264.433 223.08 263.995 223.194 263.587 223.422C263.179 223.65 262.849 223.986 262.597 224.43C262.357 224.874 262.237 225.42 262.237 226.068V231H260.797V225.384C260.797 224.568 260.593 223.98 260.185 223.62C259.777 223.26 259.273 223.08 258.673 223.08C258.277 223.08 257.869 223.188 257.449 223.404C257.041 223.608 256.699 223.938 256.423 224.394C256.147 224.85 256.009 225.45 256.009 226.194V231H254.569ZM272.445 220.272C272.121 220.272 271.857 220.176 271.653 219.984C271.461 219.78 271.365 219.516 271.365 219.192C271.365 218.868 271.461 218.61 271.653 218.418C271.857 218.214 272.121 218.112 272.445 218.112C272.769 218.112 273.027 218.214 273.219 218.418C273.423 218.61 273.525 218.868 273.525 219.192C273.525 219.516 273.423 219.78 273.219 219.984C273.027 220.176 272.769 220.272 272.445 220.272ZM273.165 222V231H271.725V222H273.165ZM280.232 221.82C280.856 221.82 281.402 221.916 281.87 222.108C282.35 222.3 282.764 222.576 283.112 222.936C283.46 223.296 283.742 223.722 283.958 224.214L282.59 224.862C282.398 224.286 282.104 223.848 281.708 223.548C281.324 223.236 280.82 223.08 280.196 223.08C279.596 223.08 279.08 223.218 278.648 223.494C278.216 223.758 277.886 224.148 277.658 224.664C277.43 225.168 277.316 225.78 277.316 226.5C277.316 227.208 277.43 227.82 277.658 228.336C277.886 228.852 278.216 229.248 278.648 229.524C279.08 229.788 279.596 229.92 280.196 229.92C280.664 229.92 281.066 229.848 281.402 229.704C281.75 229.56 282.032 229.35 282.248 229.074C282.476 228.798 282.632 228.462 282.716 228.066L284.048 228.534C283.844 229.086 283.562 229.56 283.202 229.956C282.854 230.352 282.428 230.658 281.924 230.874C281.432 231.078 280.868 231.18 280.232 231.18C279.392 231.18 278.642 230.994 277.982 230.622C277.322 230.25 276.806 229.716 276.434 229.02C276.062 228.312 275.876 227.472 275.876 226.5C275.876 225.528 276.062 224.694 276.434 223.998C276.806 223.29 277.322 222.75 277.982 222.378C278.642 222.006 279.392 221.82 280.232 221.82ZM297.969 225.186C297.969 224.514 297.789 223.998 297.429 223.638C297.069 223.266 296.559 223.08 295.899 223.08C295.275 223.08 294.747 223.218 294.315 223.494C293.883 223.758 293.565 224.19 293.361 224.79L292.191 224.07C292.431 223.398 292.875 222.858 293.523 222.45C294.171 222.03 294.975 221.82 295.935 221.82C296.583 221.82 297.171 221.934 297.699 222.162C298.227 222.378 298.641 222.714 298.941 223.17C299.253 223.614 299.409 224.19 299.409 224.898V229.254C299.409 229.686 299.637 229.902 300.093 229.902C300.321 229.902 300.543 229.872 300.759 229.812L300.687 230.946C300.447 231.066 300.135 231.126 299.751 231.126C299.403 231.126 299.091 231.06 298.815 230.928C298.539 230.796 298.323 230.598 298.167 230.334C298.011 230.058 297.933 229.716 297.933 229.308V229.128L298.293 229.182C298.149 229.65 297.903 230.034 297.555 230.334C297.207 230.622 296.817 230.838 296.385 230.982C295.953 231.114 295.527 231.18 295.107 231.18C294.579 231.18 294.087 231.09 293.631 230.91C293.175 230.73 292.809 230.46 292.533 230.1C292.269 229.728 292.137 229.272 292.137 228.732C292.137 228.06 292.359 227.508 292.803 227.076C293.259 226.632 293.889 226.332 294.693 226.176L298.257 225.474V226.662L295.359 227.256C294.771 227.376 294.333 227.544 294.045 227.76C293.757 227.976 293.613 228.276 293.613 228.66C293.613 229.032 293.757 229.338 294.045 229.578C294.345 229.806 294.765 229.92 295.305 229.92C295.653 229.92 295.983 229.878 296.295 229.794C296.619 229.698 296.907 229.56 297.159 229.38C297.411 229.188 297.609 228.954 297.753 228.678C297.897 228.39 297.969 228.054 297.969 227.67V225.186ZM302.908 231V222H304.168L304.294 224.016L304.06 223.818C304.252 223.338 304.51 222.954 304.834 222.666C305.158 222.366 305.53 222.15 305.95 222.018C306.382 221.886 306.826 221.82 307.282 221.82C307.93 221.82 308.518 221.946 309.046 222.198C309.574 222.438 309.994 222.81 310.306 223.314C310.63 223.818 310.792 224.46 310.792 225.24V231H309.352V225.744C309.352 224.748 309.136 224.058 308.704 223.674C308.284 223.278 307.762 223.08 307.138 223.08C306.706 223.08 306.274 223.182 305.842 223.386C305.41 223.59 305.05 223.92 304.762 224.376C304.486 224.832 304.348 225.444 304.348 226.212V231H302.908ZM317.563 231.18C316.819 231.18 316.135 230.994 315.511 230.622C314.887 230.25 314.389 229.716 314.017 229.02C313.645 228.312 313.459 227.472 313.459 226.5C313.459 225.504 313.657 224.658 314.053 223.962C314.449 223.266 314.971 222.738 315.619 222.378C316.267 222.006 316.963 221.82 317.707 221.82C318.451 221.82 319.093 222.012 319.633 222.396C320.185 222.78 320.551 223.29 320.731 223.926L320.551 224.052V217.86H321.991V231H320.731L320.605 228.822L320.803 228.714C320.719 229.242 320.515 229.692 320.191 230.064C319.879 230.424 319.489 230.7 319.021 230.892C318.565 231.084 318.079 231.18 317.563 231.18ZM317.707 229.92C318.283 229.92 318.781 229.776 319.201 229.488C319.633 229.2 319.963 228.792 320.191 228.264C320.431 227.724 320.551 227.094 320.551 226.374C320.551 225.69 320.431 225.102 320.191 224.61C319.963 224.118 319.639 223.74 319.219 223.476C318.811 223.212 318.331 223.08 317.779 223.08C316.867 223.08 316.159 223.392 315.655 224.016C315.151 224.64 314.899 225.468 314.899 226.5C314.899 227.532 315.145 228.36 315.637 228.984C316.129 229.608 316.819 229.92 317.707 229.92ZM331.473 231V222H332.643L332.841 223.476C333.093 222.924 333.459 222.51 333.939 222.234C334.431 221.958 335.025 221.82 335.721 221.82C335.877 221.82 336.045 221.832 336.225 221.856C336.417 221.88 336.579 221.928 336.711 222L336.459 223.314C336.327 223.266 336.183 223.23 336.027 223.206C335.871 223.182 335.649 223.17 335.361 223.17C334.989 223.17 334.611 223.278 334.227 223.494C333.855 223.71 333.543 224.04 333.291 224.484C333.039 224.916 332.913 225.468 332.913 226.14V231H331.473ZM342.301 231.18C341.449 231.18 340.687 230.994 340.015 230.622C339.355 230.25 338.839 229.716 338.467 229.02C338.095 228.312 337.909 227.472 337.909 226.5C337.909 225.528 338.095 224.694 338.467 223.998C338.839 223.29 339.349 222.75 339.997 222.378C340.645 222.006 341.383 221.82 342.211 221.82C343.051 221.82 343.765 222 344.353 222.36C344.953 222.72 345.409 223.212 345.721 223.836C346.033 224.448 346.189 225.138 346.189 225.906C346.189 226.11 346.183 226.296 346.171 226.464C346.159 226.632 346.141 226.782 346.117 226.914H338.845V225.636H345.487L344.749 225.78C344.749 224.916 344.509 224.25 344.029 223.782C343.561 223.314 342.943 223.08 342.175 223.08C341.587 223.08 341.077 223.218 340.645 223.494C340.225 223.758 339.895 224.148 339.655 224.664C339.427 225.168 339.313 225.78 339.313 226.5C339.313 227.208 339.433 227.82 339.673 228.336C339.913 228.852 340.249 229.248 340.681 229.524C341.125 229.788 341.653 229.92 342.265 229.92C342.925 229.92 343.459 229.794 343.867 229.542C344.287 229.29 344.623 228.948 344.875 228.516L346.009 229.182C345.781 229.59 345.487 229.944 345.127 230.244C344.779 230.544 344.365 230.778 343.885 230.946C343.417 231.102 342.889 231.18 342.301 231.18ZM352.168 231.18C351.292 231.18 350.482 230.994 349.738 230.622C349.006 230.25 348.442 229.722 348.046 229.038L349.27 228.156C349.534 228.708 349.918 229.14 350.422 229.452C350.938 229.764 351.556 229.92 352.276 229.92C352.912 229.92 353.41 229.8 353.77 229.56C354.13 229.308 354.31 228.984 354.31 228.588C354.31 228.336 354.226 228.108 354.058 227.904C353.902 227.688 353.596 227.532 353.14 227.436L350.98 226.986C350.104 226.806 349.474 226.506 349.09 226.086C348.718 225.666 348.532 225.144 348.532 224.52C348.532 224.028 348.67 223.578 348.946 223.17C349.234 222.762 349.636 222.438 350.152 222.198C350.68 221.946 351.298 221.82 352.006 221.82C352.894 221.82 353.644 221.994 354.256 222.342C354.868 222.69 355.324 223.182 355.624 223.818L354.418 224.61C354.214 224.082 353.884 223.698 353.428 223.458C352.972 223.206 352.498 223.08 352.006 223.08C351.574 223.08 351.202 223.14 350.89 223.26C350.59 223.38 350.356 223.548 350.188 223.764C350.032 223.968 349.954 224.202 349.954 224.466C349.954 224.73 350.044 224.976 350.224 225.204C350.404 225.42 350.74 225.576 351.232 225.672L353.482 226.14C354.322 226.308 354.91 226.584 355.246 226.968C355.582 227.352 355.75 227.82 355.75 228.372C355.75 228.936 355.6 229.434 355.3 229.866C355 230.286 354.58 230.61 354.04 230.838C353.5 231.066 352.876 231.18 352.168 231.18ZM362.146 221.82C362.998 221.82 363.748 222.006 364.396 222.378C365.056 222.75 365.572 223.29 365.944 223.998C366.316 224.694 366.502 225.528 366.502 226.5C366.502 227.472 366.316 228.312 365.944 229.02C365.572 229.716 365.056 230.25 364.396 230.622C363.748 230.994 362.998 231.18 362.146 231.18C361.306 231.18 360.556 230.994 359.896 230.622C359.236 230.25 358.72 229.716 358.348 229.02C357.976 228.312 357.79 227.472 357.79 226.5C357.79 225.528 357.976 224.694 358.348 223.998C358.72 223.29 359.236 222.75 359.896 222.378C360.556 222.006 361.306 221.82 362.146 221.82ZM362.146 223.062C361.534 223.062 361.012 223.2 360.58 223.476C360.148 223.752 359.812 224.148 359.572 224.664C359.344 225.168 359.23 225.78 359.23 226.5C359.23 227.208 359.344 227.82 359.572 228.336C359.812 228.852 360.148 229.248 360.58 229.524C361.012 229.8 361.534 229.938 362.146 229.938C362.758 229.938 363.28 229.8 363.712 229.524C364.144 229.248 364.474 228.852 364.702 228.336C364.942 227.82 365.062 227.208 365.062 226.5C365.062 225.78 364.942 225.168 364.702 224.664C364.474 224.148 364.144 223.752 363.712 223.476C363.28 223.2 362.758 223.062 362.146 223.062ZM372.471 231.18C371.895 231.18 371.349 231.072 370.833 230.856C370.329 230.64 369.915 230.292 369.591 229.812C369.279 229.32 369.123 228.684 369.123 227.904V222H370.563V227.526C370.563 228.438 370.761 229.068 371.157 229.416C371.553 229.752 372.111 229.92 372.831 229.92C373.167 229.92 373.497 229.866 373.821 229.758C374.145 229.638 374.433 229.458 374.685 229.218C374.949 228.966 375.153 228.648 375.297 228.264C375.453 227.88 375.531 227.424 375.531 226.896V222H376.971V231H375.711L375.621 229.632C375.309 230.172 374.883 230.568 374.343 230.82C373.815 231.06 373.191 231.18 372.471 231.18ZM380.322 231V222H381.492L381.69 223.476C381.942 222.924 382.308 222.51 382.788 222.234C383.28 221.958 383.874 221.82 384.57 221.82C384.726 221.82 384.894 221.832 385.074 221.856C385.266 221.88 385.428 221.928 385.56 222L385.308 223.314C385.176 223.266 385.032 223.23 384.876 223.206C384.72 223.182 384.498 223.17 384.21 223.17C383.838 223.17 383.46 223.278 383.076 223.494C382.704 223.71 382.392 224.04 382.14 224.484C381.888 224.916 381.762 225.468 381.762 226.14V231H380.322ZM391.115 221.82C391.739 221.82 392.285 221.916 392.753 222.108C393.233 222.3 393.647 222.576 393.995 222.936C394.343 223.296 394.625 223.722 394.841 224.214L393.473 224.862C393.281 224.286 392.987 223.848 392.591 223.548C392.207 223.236 391.703 223.08 391.079 223.08C390.479 223.08 389.963 223.218 389.531 223.494C389.099 223.758 388.769 224.148 388.541 224.664C388.313 225.168 388.199 225.78 388.199 226.5C388.199 227.208 388.313 227.82 388.541 228.336C388.769 228.852 389.099 229.248 389.531 229.524C389.963 229.788 390.479 229.92 391.079 229.92C391.547 229.92 391.949 229.848 392.285 229.704C392.633 229.56 392.915 229.35 393.131 229.074C393.359 228.798 393.515 228.462 393.599 228.066L394.931 228.534C394.727 229.086 394.445 229.56 394.085 229.956C393.737 230.352 393.311 230.658 392.807 230.874C392.315 231.078 391.751 231.18 391.115 231.18C390.275 231.18 389.525 230.994 388.865 230.622C388.205 230.25 387.689 229.716 387.317 229.02C386.945 228.312 386.759 227.472 386.759 226.5C386.759 225.528 386.945 224.694 387.317 223.998C387.689 223.29 388.205 222.75 388.865 222.378C389.525 222.006 390.275 221.82 391.115 221.82ZM401.223 231.18C400.371 231.18 399.609 230.994 398.937 230.622C398.277 230.25 397.761 229.716 397.389 229.02C397.017 228.312 396.831 227.472 396.831 226.5C396.831 225.528 397.017 224.694 397.389 223.998C397.761 223.29 398.271 222.75 398.919 222.378C399.567 222.006 400.305 221.82 401.133 221.82C401.973 221.82 402.687 222 403.275 222.36C403.875 222.72 404.331 223.212 404.643 223.836C404.955 224.448 405.111 225.138 405.111 225.906C405.111 226.11 405.105 226.296 405.093 226.464C405.081 226.632 405.063 226.782 405.039 226.914H397.767V225.636H404.409L403.671 225.78C403.671 224.916 403.431 224.25 402.951 223.782C402.483 223.314 401.865 223.08 401.097 223.08C400.509 223.08 399.999 223.218 399.567 223.494C399.147 223.758 398.817 224.148 398.577 224.664C398.349 225.168 398.235 225.78 398.235 226.5C398.235 227.208 398.355 227.82 398.595 228.336C398.835 228.852 399.171 229.248 399.603 229.524C400.047 229.788 400.575 229.92 401.187 229.92C401.847 229.92 402.381 229.794 402.789 229.542C403.209 229.29 403.545 228.948 403.797 228.516L404.931 229.182C404.703 229.59 404.409 229.944 404.049 230.244C403.701 230.544 403.287 230.778 402.807 230.946C402.339 231.102 401.811 231.18 401.223 231.18ZM417.225 231.18C416.349 231.18 415.539 230.994 414.795 230.622C414.063 230.25 413.499 229.722 413.103 229.038L414.327 228.156C414.591 228.708 414.975 229.14 415.479 229.452C415.995 229.764 416.613 229.92 417.333 229.92C417.969 229.92 418.467 229.8 418.827 229.56C419.187 229.308 419.367 228.984 419.367 228.588C419.367 228.336 419.283 228.108 419.115 227.904C418.959 227.688 418.653 227.532 418.197 227.436L416.037 226.986C415.161 226.806 414.531 226.506 414.147 226.086C413.775 225.666 413.589 225.144 413.589 224.52C413.589 224.028 413.727 223.578 414.003 223.17C414.291 222.762 414.693 222.438 415.209 222.198C415.737 221.946 416.355 221.82 417.063 221.82C417.951 221.82 418.701 221.994 419.313 222.342C419.925 222.69 420.381 223.182 420.681 223.818L419.475 224.61C419.271 224.082 418.941 223.698 418.485 223.458C418.029 223.206 417.555 223.08 417.063 223.08C416.631 223.08 416.259 223.14 415.947 223.26C415.647 223.38 415.413 223.548 415.245 223.764C415.089 223.968 415.011 224.202 415.011 224.466C415.011 224.73 415.101 224.976 415.281 225.204C415.461 225.42 415.797 225.576 416.289 225.672L418.539 226.14C419.379 226.308 419.967 226.584 420.303 226.968C420.639 227.352 420.807 227.82 420.807 228.372C420.807 228.936 420.657 229.434 420.357 229.866C420.057 230.286 419.637 230.61 419.097 230.838C418.557 231.066 417.933 231.18 417.225 231.18ZM426.735 231.18C426.159 231.18 425.613 231.072 425.097 230.856C424.593 230.64 424.179 230.292 423.855 229.812C423.543 229.32 423.387 228.684 423.387 227.904V222H424.827V227.526C424.827 228.438 425.025 229.068 425.421 229.416C425.817 229.752 426.375 229.92 427.095 229.92C427.431 229.92 427.761 229.866 428.085 229.758C428.409 229.638 428.697 229.458 428.949 229.218C429.213 228.966 429.417 228.648 429.561 228.264C429.717 227.88 429.795 227.424 429.795 226.896V222H431.235V231H429.975L429.885 229.632C429.573 230.172 429.147 230.568 428.607 230.82C428.079 231.06 427.455 231.18 426.735 231.18ZM434.586 234.78V222H435.846L435.972 224.196L435.774 223.944C435.93 223.524 436.164 223.158 436.476 222.846C436.788 222.522 437.166 222.27 437.61 222.09C438.054 221.91 438.534 221.82 439.05 221.82C439.782 221.82 440.454 222.006 441.066 222.378C441.69 222.75 442.188 223.284 442.56 223.98C442.932 224.676 443.118 225.516 443.118 226.5C443.118 227.472 442.926 228.312 442.542 229.02C442.17 229.716 441.672 230.25 441.048 230.622C440.424 230.994 439.74 231.18 438.996 231.18C438.252 231.18 437.598 231 437.034 230.64C436.482 230.268 436.086 229.8 435.846 229.236L436.026 228.966V234.78H434.586ZM438.852 229.92C439.74 229.92 440.43 229.608 440.922 228.984C441.426 228.36 441.678 227.532 441.678 226.5C441.678 225.468 441.432 224.64 440.94 224.016C440.46 223.392 439.782 223.08 438.906 223.08C438.33 223.08 437.826 223.224 437.394 223.512C436.962 223.788 436.626 224.184 436.386 224.7C436.146 225.204 436.026 225.804 436.026 226.5C436.026 227.184 436.14 227.784 436.368 228.3C436.608 228.816 436.938 229.218 437.358 229.506C437.79 229.782 438.288 229.92 438.852 229.92ZM445.871 234.78V222H447.131L447.257 224.196L447.059 223.944C447.215 223.524 447.449 223.158 447.761 222.846C448.073 222.522 448.451 222.27 448.895 222.09C449.339 221.91 449.819 221.82 450.335 221.82C451.067 221.82 451.739 222.006 452.351 222.378C452.975 222.75 453.473 223.284 453.845 223.98C454.217 224.676 454.403 225.516 454.403 226.5C454.403 227.472 454.211 228.312 453.827 229.02C453.455 229.716 452.957 230.25 452.333 230.622C451.709 230.994 451.025 231.18 450.281 231.18C449.537 231.18 448.883 231 448.319 230.64C447.767 230.268 447.371 229.8 447.131 229.236L447.311 228.966V234.78H445.871ZM450.137 229.92C451.025 229.92 451.715 229.608 452.207 228.984C452.711 228.36 452.963 227.532 452.963 226.5C452.963 225.468 452.717 224.64 452.225 224.016C451.745 223.392 451.067 223.08 450.191 223.08C449.615 223.08 449.111 223.224 448.679 223.512C448.247 223.788 447.911 224.184 447.671 224.7C447.431 225.204 447.311 225.804 447.311 226.5C447.311 227.184 447.425 227.784 447.653 228.3C447.893 228.816 448.223 229.218 448.643 229.506C449.075 229.782 449.573 229.92 450.137 229.92ZM460.882 221.82C461.734 221.82 462.484 222.006 463.132 222.378C463.792 222.75 464.308 223.29 464.68 223.998C465.052 224.694 465.238 225.528 465.238 226.5C465.238 227.472 465.052 228.312 464.68 229.02C464.308 229.716 463.792 230.25 463.132 230.622C462.484 230.994 461.734 231.18 460.882 231.18C460.042 231.18 459.292 230.994 458.632 230.622C457.972 230.25 457.456 229.716 457.084 229.02C456.712 228.312 456.526 227.472 456.526 226.5C456.526 225.528 456.712 224.694 457.084 223.998C457.456 223.29 457.972 222.75 458.632 222.378C459.292 222.006 460.042 221.82 460.882 221.82ZM460.882 223.062C460.27 223.062 459.748 223.2 459.316 223.476C458.884 223.752 458.548 224.148 458.308 224.664C458.08 225.168 457.966 225.78 457.966 226.5C457.966 227.208 458.08 227.82 458.308 228.336C458.548 228.852 458.884 229.248 459.316 229.524C459.748 229.8 460.27 229.938 460.882 229.938C461.494 229.938 462.016 229.8 462.448 229.524C462.88 229.248 463.21 228.852 463.438 228.336C463.678 227.82 463.798 227.208 463.798 226.5C463.798 225.78 463.678 225.168 463.438 224.664C463.21 224.148 462.88 223.752 462.448 223.476C462.016 223.2 461.494 223.062 460.882 223.062ZM467.949 231V222H469.119L469.317 223.476C469.569 222.924 469.935 222.51 470.415 222.234C470.907 221.958 471.501 221.82 472.197 221.82C472.353 221.82 472.521 221.832 472.701 221.856C472.893 221.88 473.055 221.928 473.187 222L472.935 223.314C472.803 223.266 472.659 223.23 472.503 223.206C472.347 223.182 472.125 223.17 471.837 223.17C471.465 223.17 471.087 223.278 470.703 223.494C470.331 223.71 470.019 224.04 469.767 224.484C469.515 224.916 469.389 225.468 469.389 226.14V231H467.949ZM476.876 219.444V228.516C476.876 228.96 477.002 229.29 477.254 229.506C477.506 229.722 477.83 229.83 478.226 229.83C478.574 229.83 478.874 229.77 479.126 229.65C479.378 229.53 479.606 229.368 479.81 229.164L480.314 230.37C480.038 230.622 479.708 230.82 479.324 230.964C478.952 231.108 478.52 231.18 478.028 231.18C477.572 231.18 477.146 231.102 476.75 230.946C476.354 230.778 476.036 230.52 475.796 230.172C475.568 229.812 475.448 229.344 475.436 228.768V219.84L476.876 219.444ZM480.152 222V223.242H473.636V222H480.152ZM490.2 219.444V228.516C490.2 228.96 490.326 229.29 490.578 229.506C490.83 229.722 491.154 229.83 491.55 229.83C491.898 229.83 492.198 229.77 492.45 229.65C492.702 229.53 492.93 229.368 493.134 229.164L493.638 230.37C493.362 230.622 493.032 230.82 492.648 230.964C492.276 231.108 491.844 231.18 491.352 231.18C490.896 231.18 490.47 231.102 490.074 230.946C489.678 230.778 489.36 230.52 489.12 230.172C488.892 229.812 488.772 229.344 488.76 228.768V219.84L490.2 219.444ZM493.476 222V223.242H486.96V222H493.476ZM499.343 221.82C500.195 221.82 500.945 222.006 501.593 222.378C502.253 222.75 502.769 223.29 503.141 223.998C503.513 224.694 503.699 225.528 503.699 226.5C503.699 227.472 503.513 228.312 503.141 229.02C502.769 229.716 502.253 230.25 501.593 230.622C500.945 230.994 500.195 231.18 499.343 231.18C498.503 231.18 497.753 230.994 497.093 230.622C496.433 230.25 495.917 229.716 495.545 229.02C495.173 228.312 494.987 227.472 494.987 226.5C494.987 225.528 495.173 224.694 495.545 223.998C495.917 223.29 496.433 222.75 497.093 222.378C497.753 222.006 498.503 221.82 499.343 221.82ZM499.343 223.062C498.731 223.062 498.209 223.2 497.777 223.476C497.345 223.752 497.009 224.148 496.769 224.664C496.541 225.168 496.427 225.78 496.427 226.5C496.427 227.208 496.541 227.82 496.769 228.336C497.009 228.852 497.345 229.248 497.777 229.524C498.209 229.8 498.731 229.938 499.343 229.938C499.955 229.938 500.477 229.8 500.909 229.524C501.341 229.248 501.671 228.852 501.899 228.336C502.139 227.82 502.259 227.208 502.259 226.5C502.259 225.78 502.139 225.168 501.899 224.664C501.671 224.148 501.341 223.752 500.909 223.476C500.477 223.2 499.955 223.062 499.343 223.062ZM516.631 218.94C517.675 218.94 518.575 219.156 519.331 219.588C520.087 220.008 520.717 220.632 521.221 221.46L520.015 222.396C519.571 221.628 519.067 221.088 518.503 220.776C517.951 220.452 517.279 220.29 516.487 220.29C515.851 220.29 515.323 220.38 514.903 220.56C514.495 220.74 514.195 220.98 514.003 221.28C513.811 221.568 513.715 221.898 513.715 222.27C513.715 222.69 513.847 223.062 514.111 223.386C514.375 223.698 514.903 223.944 515.695 224.124L518.269 224.7C519.409 224.952 520.201 225.336 520.645 225.852C521.101 226.356 521.329 226.986 521.329 227.742C521.329 228.414 521.137 229.014 520.753 229.542C520.381 230.058 519.853 230.46 519.169 230.748C518.485 231.036 517.681 231.18 516.757 231.18C515.893 231.18 515.131 231.066 514.471 230.838C513.823 230.598 513.265 230.28 512.797 229.884C512.329 229.488 511.945 229.044 511.645 228.552L512.905 227.526C513.133 227.982 513.427 228.384 513.787 228.732C514.147 229.08 514.579 229.35 515.083 229.542C515.599 229.734 516.187 229.83 516.847 229.83C517.459 229.83 517.987 229.758 518.431 229.614C518.887 229.458 519.235 229.236 519.475 228.948C519.715 228.648 519.835 228.288 519.835 227.868C519.835 227.484 519.709 227.142 519.457 226.842C519.205 226.53 518.731 226.296 518.035 226.14L515.245 225.51C514.513 225.342 513.919 225.114 513.463 224.826C513.019 224.526 512.695 224.178 512.491 223.782C512.299 223.374 512.203 222.936 512.203 222.468C512.203 221.832 512.377 221.25 512.725 220.722C513.085 220.182 513.595 219.75 514.255 219.426C514.927 219.102 515.719 218.94 516.631 218.94ZM525.786 229.65H532.59V231H524.346V219.12H525.786V229.65ZM546.588 219.12V231H545.22V223.53L545.382 220.398H545.364L541.458 231H540.234L536.328 220.398H536.31L536.472 223.53V231H535.104V219.12H537.318L539.928 226.338L540.828 229.308H540.864L541.782 226.356L544.374 219.12H546.588ZM559.935 231H558.405L557.145 227.706H551.763L550.503 231H548.991L553.617 219.12H555.327L559.935 231ZM552.285 226.356H556.623L554.445 220.506L552.285 226.356Z" fill="#333333"/>
</svg>
