<svg width="885" height="268" viewBox="0 0 885 268" fill="none" xmlns="http://www.w3.org/2000/svg">
<rect width="885" height="72" rx="8" fill="#EFEFEF"/>
<path d="M328.78 30.53H318.1V35.54H326.53V38.9H318.1V47H313.96V27.2H328.78V30.53ZM336.338 47.3C335.338 47.3 334.438 47.12 333.638 46.76C332.838 46.4 332.198 45.83 331.718 45.05C331.258 44.25 331.028 43.22 331.028 41.96V32H335.138V40.97C335.138 42.13 335.378 42.94 335.858 43.4C336.338 43.84 337.028 44.06 337.928 44.06C338.348 44.06 338.758 43.99 339.158 43.85C339.558 43.69 339.908 43.45 340.208 43.13C340.528 42.81 340.778 42.4 340.958 41.9C341.138 41.38 341.228 40.77 341.228 40.07V32H345.338V47H341.678L341.528 44.39C341.028 45.39 340.338 46.13 339.458 46.61C338.598 47.07 337.558 47.3 336.338 47.3ZM349.663 47V32H353.353L353.593 36.5L353.083 36.02C353.323 35.04 353.703 34.24 354.223 33.62C354.743 32.98 355.373 32.5 356.113 32.18C356.873 31.86 357.703 31.7 358.603 31.7C359.643 31.7 360.563 31.9 361.363 32.3C362.183 32.7 362.823 33.31 363.283 34.13C363.763 34.93 364.003 35.94 364.003 37.16V47H359.893V38.33C359.893 37.05 359.643 36.17 359.143 35.69C358.643 35.19 357.993 34.94 357.193 34.94C356.633 34.94 356.083 35.08 355.543 35.36C355.023 35.62 354.593 36.05 354.253 36.65C353.933 37.25 353.773 38.05 353.773 39.05V47H349.663ZM375.047 31.7C376.387 31.7 377.517 31.9 378.437 32.3C379.377 32.68 380.127 33.21 380.687 33.89C381.267 34.55 381.677 35.29 381.917 36.11L378.077 37.49C377.877 36.59 377.537 35.91 377.057 35.45C376.577 34.99 375.927 34.76 375.107 34.76C374.347 34.76 373.697 34.94 373.157 35.3C372.617 35.64 372.207 36.17 371.927 36.89C371.647 37.59 371.507 38.47 371.507 39.53C371.507 40.59 371.647 41.47 371.927 42.17C372.227 42.87 372.647 43.39 373.187 43.73C373.747 44.07 374.397 44.24 375.137 44.24C375.737 44.24 376.247 44.14 376.667 43.94C377.087 43.72 377.427 43.41 377.687 43.01C377.967 42.61 378.157 42.13 378.257 41.57L381.977 42.77C381.757 43.67 381.347 44.46 380.747 45.14C380.147 45.82 379.377 46.35 378.437 46.73C377.497 47.11 376.407 47.3 375.167 47.3C373.627 47.3 372.267 46.99 371.087 46.37C369.907 45.75 368.997 44.86 368.357 43.7C367.717 42.54 367.397 41.14 367.397 39.5C367.397 37.86 367.717 36.46 368.357 35.3C368.997 34.14 369.897 33.25 371.057 32.63C372.217 32.01 373.547 31.7 375.047 31.7ZM390.481 27.41V42.11C390.481 42.83 390.661 43.36 391.021 43.7C391.401 44.02 391.911 44.18 392.551 44.18C393.071 44.18 393.511 44.11 393.871 43.97C394.251 43.81 394.591 43.6 394.891 43.34L395.551 46.07C395.071 46.45 394.471 46.75 393.751 46.97C393.031 47.19 392.271 47.3 391.471 47.3C390.471 47.3 389.581 47.15 388.801 46.85C388.041 46.55 387.441 46.07 387.001 45.41C386.581 44.75 386.371 43.87 386.371 42.77V28.55L390.481 27.41ZM395.281 32V35.06H383.611V32H395.281ZM400.131 29.84C399.271 29.84 398.631 29.66 398.211 29.3C397.791 28.92 397.581 28.37 397.581 27.65C397.581 26.91 397.791 26.36 398.211 26C398.631 25.62 399.271 25.43 400.131 25.43C400.991 25.43 401.631 25.62 402.051 26C402.471 26.36 402.681 26.91 402.681 27.65C402.681 28.37 402.471 28.92 402.051 29.3C401.631 29.66 400.991 29.84 400.131 29.84ZM402.171 32V47H398.061V32H402.171ZM413.368 31.7C414.888 31.7 416.218 32.01 417.358 32.63C418.518 33.25 419.418 34.14 420.058 35.3C420.718 36.46 421.048 37.86 421.048 39.5C421.048 41.12 420.718 42.52 420.058 43.7C419.418 44.86 418.518 45.75 417.358 46.37C416.218 46.99 414.888 47.3 413.368 47.3C411.868 47.3 410.538 46.99 409.378 46.37C408.218 45.75 407.308 44.86 406.648 43.7C406.008 42.52 405.688 41.12 405.688 39.5C405.688 37.86 406.008 36.46 406.648 35.3C407.308 34.14 408.218 33.25 409.378 32.63C410.538 32.01 411.868 31.7 413.368 31.7ZM413.368 34.76C412.608 34.76 411.958 34.94 411.418 35.3C410.898 35.64 410.498 36.16 410.218 36.86C409.938 37.56 409.798 38.44 409.798 39.5C409.798 40.56 409.938 41.44 410.218 42.14C410.498 42.84 410.898 43.37 411.418 43.73C411.958 44.07 412.608 44.24 413.368 44.24C414.108 44.24 414.738 44.07 415.258 43.73C415.798 43.37 416.208 42.84 416.488 42.14C416.768 41.44 416.908 40.56 416.908 39.5C416.908 38.44 416.768 37.56 416.488 36.86C416.208 36.16 415.798 35.64 415.258 35.3C414.738 34.94 414.108 34.76 413.368 34.76ZM424.487 47V32H428.177L428.417 36.5L427.907 36.02C428.147 35.04 428.527 34.24 429.047 33.62C429.567 32.98 430.197 32.5 430.937 32.18C431.697 31.86 432.527 31.7 433.427 31.7C434.467 31.7 435.387 31.9 436.187 32.3C437.007 32.7 437.647 33.31 438.107 34.13C438.587 34.93 438.827 35.94 438.827 37.16V47H434.717V38.33C434.717 37.05 434.467 36.17 433.967 35.69C433.467 35.19 432.817 34.94 432.017 34.94C431.457 34.94 430.907 35.08 430.367 35.36C429.847 35.62 429.417 36.05 429.077 36.65C428.757 37.25 428.597 38.05 428.597 39.05V47H424.487ZM459.071 31.7C460.591 31.7 461.921 32.01 463.061 32.63C464.221 33.25 465.121 34.14 465.761 35.3C466.421 36.46 466.751 37.86 466.751 39.5C466.751 41.12 466.421 42.52 465.761 43.7C465.121 44.86 464.221 45.75 463.061 46.37C461.921 46.99 460.591 47.3 459.071 47.3C457.571 47.3 456.241 46.99 455.081 46.37C453.921 45.75 453.011 44.86 452.351 43.7C451.711 42.52 451.391 41.12 451.391 39.5C451.391 37.86 451.711 36.46 452.351 35.3C453.011 34.14 453.921 33.25 455.081 32.63C456.241 32.01 457.571 31.7 459.071 31.7ZM459.071 34.76C458.311 34.76 457.661 34.94 457.121 35.3C456.601 35.64 456.201 36.16 455.921 36.86C455.641 37.56 455.501 38.44 455.501 39.5C455.501 40.56 455.641 41.44 455.921 42.14C456.201 42.84 456.601 43.37 457.121 43.73C457.661 44.07 458.311 44.24 459.071 44.24C459.811 44.24 460.441 44.07 460.961 43.73C461.501 43.37 461.911 42.84 462.191 42.14C462.471 41.44 462.611 40.56 462.611 39.5C462.611 38.44 462.471 37.56 462.191 36.86C461.911 36.16 461.501 35.64 460.961 35.3C460.441 34.94 459.811 34.76 459.071 34.76ZM476.704 25.13C477.404 25.13 478.034 25.21 478.594 25.37C479.174 25.51 479.604 25.69 479.884 25.91L479.314 28.64C479.094 28.5 478.844 28.39 478.564 28.31C478.284 28.23 477.954 28.19 477.574 28.19C476.794 28.19 476.174 28.37 475.714 28.73C475.254 29.07 475.024 29.66 475.024 30.5V32.57L475.204 33.38V47H471.094V30.2C471.094 29.36 471.234 28.62 471.514 27.98C471.794 27.34 472.184 26.81 472.684 26.39C473.184 25.97 473.774 25.66 474.454 25.46C475.154 25.24 475.904 25.13 476.704 25.13ZM479.764 32V35.06H468.484V32H479.764ZM498.289 26.9C500.089 26.9 501.669 27.21 503.029 27.83C504.389 28.45 505.549 29.37 506.509 30.59L504.199 33.26C503.379 32.22 502.479 31.46 501.499 30.98C500.539 30.48 499.419 30.23 498.139 30.23C497.299 30.23 496.599 30.34 496.039 30.56C495.499 30.78 495.099 31.07 494.839 31.43C494.599 31.79 494.479 32.19 494.479 32.63C494.479 33.17 494.689 33.63 495.109 34.01C495.529 34.37 496.249 34.67 497.269 34.91L500.959 35.75C502.919 36.19 504.319 36.85 505.159 37.73C506.019 38.59 506.449 39.71 506.449 41.09C506.449 42.39 506.109 43.51 505.429 44.45C504.749 45.37 503.799 46.08 502.579 46.58C501.359 47.06 499.959 47.3 498.379 47.3C496.999 47.3 495.729 47.14 494.569 46.82C493.429 46.48 492.409 46.02 491.509 45.44C490.609 44.86 489.859 44.19 489.259 43.43L491.599 40.64C492.059 41.28 492.629 41.85 493.309 42.35C493.989 42.85 494.759 43.25 495.619 43.55C496.499 43.83 497.419 43.97 498.379 43.97C499.199 43.97 499.889 43.88 500.449 43.7C501.029 43.5 501.459 43.23 501.739 42.89C502.039 42.53 502.189 42.1 502.189 41.6C502.189 41.08 502.009 40.64 501.649 40.28C501.309 39.9 500.669 39.61 499.729 39.41L495.709 38.51C494.549 38.23 493.549 37.87 492.709 37.43C491.889 36.97 491.259 36.39 490.819 35.69C490.399 34.97 490.189 34.12 490.189 33.14C490.189 31.96 490.509 30.9 491.149 29.96C491.789 29.02 492.709 28.28 493.909 27.74C495.129 27.18 496.589 26.9 498.289 26.9ZM514.506 43.67H524.946V47H510.366V27.2H514.506V43.67ZM549.924 27.2V47H546.204V36.68L546.384 30.89H546.324L540.834 47H537.444L531.984 30.89H531.924L532.134 36.68V47H528.384V27.2H534.384L537.954 38L539.214 42.47H539.274L540.564 38.03L544.104 27.2H549.924ZM572.263 47H567.973L566.323 42.17H558.733L557.083 47H552.853L560.083 27.2H565.033L572.263 47ZM559.663 39.11H565.393L562.513 30.47L559.663 39.11Z" fill="#1B82D4"/>
<path d="M422.151 108.231C421.202 107.307 419.662 107.307 418.712 108.231C417.763 109.155 417.763 110.653 418.712 111.577L430.058 122.614C431.957 124.462 435.036 124.462 436.936 122.614L448.288 111.57C449.237 110.646 449.237 109.148 448.288 108.224C447.338 107.301 445.798 107.301 444.849 108.224L435.934 116.897V74.3657C435.934 73.0591 434.846 72 433.502 72C432.159 72 431.071 73.0591 431.071 74.3657V116.908L422.151 108.231Z" fill="#333333"/>
<rect x="79" y="154" width="728" height="114" rx="10" fill="#F8CFA0" fill-opacity="0.42"/>
<path d="M122.503 200.112C121.855 200.112 121.315 199.908 120.883 199.5C120.463 199.08 120.253 198.558 120.253 197.934C120.253 197.298 120.463 196.776 120.883 196.368C121.315 195.96 121.855 195.756 122.503 195.756C123.163 195.756 123.703 195.96 124.123 196.368C124.543 196.776 124.753 197.298 124.753 197.934C124.753 198.558 124.543 199.08 124.123 199.5C123.703 199.908 123.163 200.112 122.503 200.112ZM139.384 192.12V204H137.944V192.12H139.384ZM142.912 204V195H144.172L144.262 196.404C144.586 195.852 145.006 195.45 145.522 195.198C146.05 194.946 146.59 194.82 147.142 194.82C147.778 194.82 148.378 194.964 148.942 195.252C149.506 195.54 149.938 195.984 150.238 196.584C150.43 196.176 150.7 195.846 151.048 195.594C151.396 195.33 151.774 195.138 152.182 195.018C152.602 194.886 152.998 194.82 153.37 194.82C153.946 194.82 154.492 194.94 155.008 195.18C155.536 195.42 155.968 195.792 156.304 196.296C156.64 196.8 156.808 197.448 156.808 198.24V204H155.368V198.384C155.368 197.568 155.164 196.98 154.756 196.62C154.348 196.26 153.844 196.08 153.244 196.08C152.776 196.08 152.338 196.194 151.93 196.422C151.522 196.65 151.192 196.986 150.94 197.43C150.7 197.874 150.58 198.42 150.58 199.068V204H149.14V198.384C149.14 197.568 148.936 196.98 148.528 196.62C148.12 196.26 147.616 196.08 147.016 196.08C146.62 196.08 146.212 196.188 145.792 196.404C145.384 196.608 145.042 196.938 144.766 197.394C144.49 197.85 144.352 198.45 144.352 199.194V204H142.912ZM160.069 207.78V195H161.329L161.455 197.196L161.257 196.944C161.413 196.524 161.647 196.158 161.959 195.846C162.271 195.522 162.649 195.27 163.093 195.09C163.537 194.91 164.017 194.82 164.533 194.82C165.265 194.82 165.937 195.006 166.549 195.378C167.173 195.75 167.671 196.284 168.043 196.98C168.415 197.676 168.601 198.516 168.601 199.5C168.601 200.472 168.409 201.312 168.025 202.02C167.653 202.716 167.155 203.25 166.531 203.622C165.907 203.994 165.223 204.18 164.479 204.18C163.735 204.18 163.081 204 162.517 203.64C161.965 203.268 161.569 202.8 161.329 202.236L161.509 201.966V207.78H160.069ZM164.335 202.92C165.223 202.92 165.913 202.608 166.405 201.984C166.909 201.36 167.161 200.532 167.161 199.5C167.161 198.468 166.915 197.64 166.423 197.016C165.943 196.392 165.265 196.08 164.389 196.08C163.813 196.08 163.309 196.224 162.877 196.512C162.445 196.788 162.109 197.184 161.869 197.7C161.629 198.204 161.509 198.804 161.509 199.5C161.509 200.184 161.623 200.784 161.851 201.3C162.091 201.816 162.421 202.218 162.841 202.506C163.273 202.782 163.771 202.92 164.335 202.92ZM172.722 190.86V201.714C172.722 202.17 172.806 202.488 172.974 202.668C173.142 202.836 173.412 202.92 173.784 202.92C174.024 202.92 174.222 202.902 174.378 202.866C174.534 202.83 174.744 202.764 175.008 202.668L174.774 203.928C174.582 204.012 174.372 204.072 174.144 204.108C173.916 204.156 173.682 204.18 173.442 204.18C172.71 204.18 172.164 203.982 171.804 203.586C171.456 203.19 171.282 202.584 171.282 201.768V190.86H172.722ZM180.618 204.18C179.766 204.18 179.004 203.994 178.332 203.622C177.672 203.25 177.156 202.716 176.784 202.02C176.412 201.312 176.226 200.472 176.226 199.5C176.226 198.528 176.412 197.694 176.784 196.998C177.156 196.29 177.666 195.75 178.314 195.378C178.962 195.006 179.7 194.82 180.528 194.82C181.368 194.82 182.082 195 182.67 195.36C183.27 195.72 183.726 196.212 184.038 196.836C184.35 197.448 184.506 198.138 184.506 198.906C184.506 199.11 184.5 199.296 184.488 199.464C184.476 199.632 184.458 199.782 184.434 199.914H177.162V198.636H183.804L183.066 198.78C183.066 197.916 182.826 197.25 182.346 196.782C181.878 196.314 181.26 196.08 180.492 196.08C179.904 196.08 179.394 196.218 178.962 196.494C178.542 196.758 178.212 197.148 177.972 197.664C177.744 198.168 177.63 198.78 177.63 199.5C177.63 200.208 177.75 200.82 177.99 201.336C178.23 201.852 178.566 202.248 178.998 202.524C179.442 202.788 179.97 202.92 180.582 202.92C181.242 202.92 181.776 202.794 182.184 202.542C182.604 202.29 182.94 201.948 183.192 201.516L184.326 202.182C184.098 202.59 183.804 202.944 183.444 203.244C183.096 203.544 182.682 203.778 182.202 203.946C181.734 204.102 181.206 204.18 180.618 204.18ZM187.244 204V195H188.504L188.594 196.404C188.918 195.852 189.338 195.45 189.854 195.198C190.382 194.946 190.922 194.82 191.474 194.82C192.11 194.82 192.71 194.964 193.274 195.252C193.838 195.54 194.27 195.984 194.57 196.584C194.762 196.176 195.032 195.846 195.38 195.594C195.728 195.33 196.106 195.138 196.514 195.018C196.934 194.886 197.33 194.82 197.702 194.82C198.278 194.82 198.824 194.94 199.34 195.18C199.868 195.42 200.3 195.792 200.636 196.296C200.972 196.8 201.14 197.448 201.14 198.24V204H199.7V198.384C199.7 197.568 199.496 196.98 199.088 196.62C198.68 196.26 198.176 196.08 197.576 196.08C197.108 196.08 196.67 196.194 196.262 196.422C195.854 196.65 195.524 196.986 195.272 197.43C195.032 197.874 194.912 198.42 194.912 199.068V204H193.472V198.384C193.472 197.568 193.268 196.98 192.86 196.62C192.452 196.26 191.948 196.08 191.348 196.08C190.952 196.08 190.544 196.188 190.124 196.404C189.716 196.608 189.374 196.938 189.098 197.394C188.822 197.85 188.684 198.45 188.684 199.194V204H187.244ZM208.163 204.18C207.311 204.18 206.549 203.994 205.877 203.622C205.217 203.25 204.701 202.716 204.329 202.02C203.957 201.312 203.771 200.472 203.771 199.5C203.771 198.528 203.957 197.694 204.329 196.998C204.701 196.29 205.211 195.75 205.859 195.378C206.507 195.006 207.245 194.82 208.073 194.82C208.913 194.82 209.627 195 210.215 195.36C210.815 195.72 211.271 196.212 211.583 196.836C211.895 197.448 212.051 198.138 212.051 198.906C212.051 199.11 212.045 199.296 212.033 199.464C212.021 199.632 212.003 199.782 211.979 199.914H204.707V198.636H211.349L210.611 198.78C210.611 197.916 210.371 197.25 209.891 196.782C209.423 196.314 208.805 196.08 208.037 196.08C207.449 196.08 206.939 196.218 206.507 196.494C206.087 196.758 205.757 197.148 205.517 197.664C205.289 198.168 205.175 198.78 205.175 199.5C205.175 200.208 205.295 200.82 205.535 201.336C205.775 201.852 206.111 202.248 206.543 202.524C206.987 202.788 207.515 202.92 208.127 202.92C208.787 202.92 209.321 202.794 209.729 202.542C210.149 202.29 210.485 201.948 210.737 201.516L211.871 202.182C211.643 202.59 211.349 202.944 210.989 203.244C210.641 203.544 210.227 203.778 209.747 203.946C209.279 204.102 208.751 204.18 208.163 204.18ZM214.789 204V195H216.049L216.175 197.016L215.941 196.818C216.133 196.338 216.391 195.954 216.715 195.666C217.039 195.366 217.411 195.15 217.831 195.018C218.263 194.886 218.707 194.82 219.163 194.82C219.811 194.82 220.399 194.946 220.927 195.198C221.455 195.438 221.875 195.81 222.187 196.314C222.511 196.818 222.673 197.46 222.673 198.24V204H221.233V198.744C221.233 197.748 221.017 197.058 220.585 196.674C220.165 196.278 219.643 196.08 219.019 196.08C218.587 196.08 218.155 196.182 217.723 196.386C217.291 196.59 216.931 196.92 216.643 197.376C216.367 197.832 216.229 198.444 216.229 199.212V204H214.789ZM227.935 192.444V201.516C227.935 201.96 228.061 202.29 228.313 202.506C228.565 202.722 228.889 202.83 229.285 202.83C229.633 202.83 229.933 202.77 230.185 202.65C230.437 202.53 230.665 202.368 230.869 202.164L231.373 203.37C231.097 203.622 230.767 203.82 230.383 203.964C230.011 204.108 229.579 204.18 229.087 204.18C228.631 204.18 228.205 204.102 227.809 203.946C227.413 203.778 227.095 203.52 226.855 203.172C226.627 202.812 226.507 202.344 226.495 201.768V192.84L227.935 192.444ZM231.211 195V196.242H224.695V195H231.211ZM238.608 198.186C238.608 197.514 238.428 196.998 238.068 196.638C237.708 196.266 237.198 196.08 236.538 196.08C235.914 196.08 235.386 196.218 234.954 196.494C234.522 196.758 234.204 197.19 234 197.79L232.83 197.07C233.07 196.398 233.514 195.858 234.162 195.45C234.81 195.03 235.614 194.82 236.574 194.82C237.222 194.82 237.81 194.934 238.338 195.162C238.866 195.378 239.28 195.714 239.58 196.17C239.892 196.614 240.048 197.19 240.048 197.898V202.254C240.048 202.686 240.276 202.902 240.732 202.902C240.96 202.902 241.182 202.872 241.398 202.812L241.326 203.946C241.086 204.066 240.774 204.126 240.39 204.126C240.042 204.126 239.73 204.06 239.454 203.928C239.178 203.796 238.962 203.598 238.806 203.334C238.65 203.058 238.572 202.716 238.572 202.308V202.128L238.932 202.182C238.788 202.65 238.542 203.034 238.194 203.334C237.846 203.622 237.456 203.838 237.024 203.982C236.592 204.114 236.166 204.18 235.746 204.18C235.218 204.18 234.726 204.09 234.27 203.91C233.814 203.73 233.448 203.46 233.172 203.1C232.908 202.728 232.776 202.272 232.776 201.732C232.776 201.06 232.998 200.508 233.442 200.076C233.898 199.632 234.528 199.332 235.332 199.176L238.896 198.474V199.662L235.998 200.256C235.41 200.376 234.972 200.544 234.684 200.76C234.396 200.976 234.252 201.276 234.252 201.66C234.252 202.032 234.396 202.338 234.684 202.578C234.984 202.806 235.404 202.92 235.944 202.92C236.292 202.92 236.622 202.878 236.934 202.794C237.258 202.698 237.546 202.56 237.798 202.38C238.05 202.188 238.248 201.954 238.392 201.678C238.536 201.39 238.608 201.054 238.608 200.67V198.186ZM245.319 192.444V201.516C245.319 201.96 245.445 202.29 245.697 202.506C245.949 202.722 246.273 202.83 246.669 202.83C247.017 202.83 247.317 202.77 247.569 202.65C247.821 202.53 248.049 202.368 248.253 202.164L248.757 203.37C248.481 203.622 248.151 203.82 247.767 203.964C247.395 204.108 246.963 204.18 246.471 204.18C246.015 204.18 245.589 204.102 245.193 203.946C244.797 203.778 244.479 203.52 244.239 203.172C244.011 202.812 243.891 202.344 243.879 201.768V192.84L245.319 192.444ZM248.595 195V196.242H242.079V195H248.595ZM251.457 193.272C251.133 193.272 250.869 193.176 250.665 192.984C250.473 192.78 250.377 192.516 250.377 192.192C250.377 191.868 250.473 191.61 250.665 191.418C250.869 191.214 251.133 191.112 251.457 191.112C251.781 191.112 252.039 191.214 252.231 191.418C252.435 191.61 252.537 191.868 252.537 192.192C252.537 192.516 252.435 192.78 252.231 192.984C252.039 193.176 251.781 193.272 251.457 193.272ZM252.177 195V204H250.737V195H252.177ZM259.244 194.82C260.096 194.82 260.846 195.006 261.494 195.378C262.154 195.75 262.67 196.29 263.042 196.998C263.414 197.694 263.6 198.528 263.6 199.5C263.6 200.472 263.414 201.312 263.042 202.02C262.67 202.716 262.154 203.25 261.494 203.622C260.846 203.994 260.096 204.18 259.244 204.18C258.404 204.18 257.654 203.994 256.994 203.622C256.334 203.25 255.818 202.716 255.446 202.02C255.074 201.312 254.888 200.472 254.888 199.5C254.888 198.528 255.074 197.694 255.446 196.998C255.818 196.29 256.334 195.75 256.994 195.378C257.654 195.006 258.404 194.82 259.244 194.82ZM259.244 196.062C258.632 196.062 258.11 196.2 257.678 196.476C257.246 196.752 256.91 197.148 256.67 197.664C256.442 198.168 256.328 198.78 256.328 199.5C256.328 200.208 256.442 200.82 256.67 201.336C256.91 201.852 257.246 202.248 257.678 202.524C258.11 202.8 258.632 202.938 259.244 202.938C259.856 202.938 260.378 202.8 260.81 202.524C261.242 202.248 261.572 201.852 261.8 201.336C262.04 200.82 262.16 200.208 262.16 199.5C262.16 198.78 262.04 198.168 261.8 197.664C261.572 197.148 261.242 196.752 260.81 196.476C260.378 196.2 259.856 196.062 259.244 196.062ZM266.311 204V195H267.571L267.697 197.016L267.463 196.818C267.655 196.338 267.913 195.954 268.237 195.666C268.561 195.366 268.933 195.15 269.353 195.018C269.785 194.886 270.229 194.82 270.685 194.82C271.333 194.82 271.921 194.946 272.449 195.198C272.977 195.438 273.397 195.81 273.709 196.314C274.033 196.818 274.195 197.46 274.195 198.24V204H272.755V198.744C272.755 197.748 272.539 197.058 272.107 196.674C271.687 196.278 271.165 196.08 270.541 196.08C270.109 196.08 269.677 196.182 269.245 196.386C268.813 196.59 268.453 196.92 268.165 197.376C267.889 197.832 267.751 198.444 267.751 199.212V204H266.311ZM287.316 194.82C288.168 194.82 288.918 195.006 289.566 195.378C290.226 195.75 290.742 196.29 291.114 196.998C291.486 197.694 291.672 198.528 291.672 199.5C291.672 200.472 291.486 201.312 291.114 202.02C290.742 202.716 290.226 203.25 289.566 203.622C288.918 203.994 288.168 204.18 287.316 204.18C286.476 204.18 285.726 203.994 285.066 203.622C284.406 203.25 283.89 202.716 283.518 202.02C283.146 201.312 282.96 200.472 282.96 199.5C282.96 198.528 283.146 197.694 283.518 196.998C283.89 196.29 284.406 195.75 285.066 195.378C285.726 195.006 286.476 194.82 287.316 194.82ZM287.316 196.062C286.704 196.062 286.182 196.2 285.75 196.476C285.318 196.752 284.982 197.148 284.742 197.664C284.514 198.168 284.4 198.78 284.4 199.5C284.4 200.208 284.514 200.82 284.742 201.336C284.982 201.852 285.318 202.248 285.75 202.524C286.182 202.8 286.704 202.938 287.316 202.938C287.928 202.938 288.45 202.8 288.882 202.524C289.314 202.248 289.644 201.852 289.872 201.336C290.112 200.82 290.232 200.208 290.232 199.5C290.232 198.78 290.112 198.168 289.872 197.664C289.644 197.148 289.314 196.752 288.882 196.476C288.45 196.2 287.928 196.062 287.316 196.062ZM297.879 190.77C298.191 190.77 298.485 190.806 298.761 190.878C299.037 190.95 299.253 191.052 299.409 191.184L299.031 192.354C298.887 192.258 298.731 192.192 298.563 192.156C298.395 192.108 298.209 192.084 298.005 192.084C297.489 192.084 297.087 192.21 296.799 192.462C296.511 192.702 296.367 193.092 296.367 193.632V195V195.468V204H294.927V193.488C294.927 193.092 294.987 192.726 295.107 192.39C295.227 192.054 295.407 191.766 295.647 191.526C295.899 191.286 296.211 191.1 296.583 190.968C296.955 190.836 297.387 190.77 297.879 190.77ZM299.373 195V196.242H293.127V195H299.373ZM308.478 192.444V201.516C308.478 201.96 308.604 202.29 308.856 202.506C309.108 202.722 309.432 202.83 309.828 202.83C310.176 202.83 310.476 202.77 310.728 202.65C310.98 202.53 311.208 202.368 311.412 202.164L311.916 203.37C311.64 203.622 311.31 203.82 310.926 203.964C310.554 204.108 310.122 204.18 309.63 204.18C309.174 204.18 308.748 204.102 308.352 203.946C307.956 203.778 307.638 203.52 307.398 203.172C307.17 202.812 307.05 202.344 307.038 201.768V192.84L308.478 192.444ZM311.754 195V196.242H305.238V195H311.754ZM313.895 204V190.86H315.335V196.35C315.647 195.81 316.061 195.42 316.577 195.18C317.093 194.94 317.657 194.82 318.269 194.82C318.917 194.82 319.505 194.946 320.033 195.198C320.561 195.438 320.981 195.81 321.293 196.314C321.617 196.818 321.779 197.46 321.779 198.24V204H320.339V198.744C320.339 197.748 320.123 197.058 319.691 196.674C319.271 196.278 318.749 196.08 318.125 196.08C317.693 196.08 317.261 196.182 316.829 196.386C316.397 196.59 316.037 196.926 315.749 197.394C315.473 197.85 315.335 198.462 315.335 199.23V204H313.895ZM328.801 204.18C327.949 204.18 327.187 203.994 326.515 203.622C325.855 203.25 325.339 202.716 324.967 202.02C324.595 201.312 324.409 200.472 324.409 199.5C324.409 198.528 324.595 197.694 324.967 196.998C325.339 196.29 325.849 195.75 326.497 195.378C327.145 195.006 327.883 194.82 328.711 194.82C329.551 194.82 330.265 195 330.853 195.36C331.453 195.72 331.909 196.212 332.221 196.836C332.533 197.448 332.689 198.138 332.689 198.906C332.689 199.11 332.683 199.296 332.671 199.464C332.659 199.632 332.641 199.782 332.617 199.914H325.345V198.636H331.987L331.249 198.78C331.249 197.916 331.009 197.25 330.529 196.782C330.061 196.314 329.443 196.08 328.675 196.08C328.087 196.08 327.577 196.218 327.145 196.494C326.725 196.758 326.395 197.148 326.155 197.664C325.927 198.168 325.813 198.78 325.813 199.5C325.813 200.208 325.933 200.82 326.173 201.336C326.413 201.852 326.749 202.248 327.181 202.524C327.625 202.788 328.153 202.92 328.765 202.92C329.425 202.92 329.959 202.794 330.367 202.542C330.787 202.29 331.123 201.948 331.375 201.516L332.509 202.182C332.281 202.59 331.987 202.944 331.627 203.244C331.279 203.544 330.865 203.778 330.385 203.946C329.917 204.102 329.389 204.18 328.801 204.18ZM344.803 204.18C343.927 204.18 343.117 203.994 342.373 203.622C341.641 203.25 341.077 202.722 340.681 202.038L341.905 201.156C342.169 201.708 342.553 202.14 343.057 202.452C343.573 202.764 344.191 202.92 344.911 202.92C345.547 202.92 346.045 202.8 346.405 202.56C346.765 202.308 346.945 201.984 346.945 201.588C346.945 201.336 346.861 201.108 346.693 200.904C346.537 200.688 346.231 200.532 345.775 200.436L343.615 199.986C342.739 199.806 342.109 199.506 341.725 199.086C341.353 198.666 341.167 198.144 341.167 197.52C341.167 197.028 341.305 196.578 341.581 196.17C341.869 195.762 342.271 195.438 342.787 195.198C343.315 194.946 343.933 194.82 344.641 194.82C345.529 194.82 346.279 194.994 346.891 195.342C347.503 195.69 347.959 196.182 348.259 196.818L347.053 197.61C346.849 197.082 346.519 196.698 346.063 196.458C345.607 196.206 345.133 196.08 344.641 196.08C344.209 196.08 343.837 196.14 343.525 196.26C343.225 196.38 342.991 196.548 342.823 196.764C342.667 196.968 342.589 197.202 342.589 197.466C342.589 197.73 342.679 197.976 342.859 198.204C343.039 198.42 343.375 198.576 343.867 198.672L346.117 199.14C346.957 199.308 347.545 199.584 347.881 199.968C348.217 200.352 348.385 200.82 348.385 201.372C348.385 201.936 348.235 202.434 347.935 202.866C347.635 203.286 347.215 203.61 346.675 203.838C346.135 204.066 345.511 204.18 344.803 204.18ZM354.781 194.82C355.405 194.82 355.951 194.916 356.419 195.108C356.899 195.3 357.313 195.576 357.661 195.936C358.009 196.296 358.291 196.722 358.507 197.214L357.139 197.862C356.947 197.286 356.653 196.848 356.257 196.548C355.873 196.236 355.369 196.08 354.745 196.08C354.145 196.08 353.629 196.218 353.197 196.494C352.765 196.758 352.435 197.148 352.207 197.664C351.979 198.168 351.865 198.78 351.865 199.5C351.865 200.208 351.979 200.82 352.207 201.336C352.435 201.852 352.765 202.248 353.197 202.524C353.629 202.788 354.145 202.92 354.745 202.92C355.213 202.92 355.615 202.848 355.951 202.704C356.299 202.56 356.581 202.35 356.797 202.074C357.025 201.798 357.181 201.462 357.265 201.066L358.597 201.534C358.393 202.086 358.111 202.56 357.751 202.956C357.403 203.352 356.977 203.658 356.473 203.874C355.981 204.078 355.417 204.18 354.781 204.18C353.941 204.18 353.191 203.994 352.531 203.622C351.871 203.25 351.355 202.716 350.983 202.02C350.611 201.312 350.425 200.472 350.425 199.5C350.425 198.528 350.611 197.694 350.983 196.998C351.355 196.29 351.871 195.75 352.531 195.378C353.191 195.006 353.941 194.82 354.781 194.82ZM361.127 204V190.86H362.567V196.35C362.879 195.81 363.293 195.42 363.809 195.18C364.325 194.94 364.889 194.82 365.501 194.82C366.149 194.82 366.737 194.946 367.265 195.198C367.793 195.438 368.213 195.81 368.525 196.314C368.849 196.818 369.011 197.46 369.011 198.24V204H367.571V198.744C367.571 197.748 367.355 197.058 366.923 196.674C366.503 196.278 365.981 196.08 365.357 196.08C364.925 196.08 364.493 196.182 364.061 196.386C363.629 196.59 363.269 196.926 362.981 197.394C362.705 197.85 362.567 198.462 362.567 199.23V204H361.127ZM376.034 204.18C375.182 204.18 374.42 203.994 373.748 203.622C373.088 203.25 372.572 202.716 372.2 202.02C371.828 201.312 371.642 200.472 371.642 199.5C371.642 198.528 371.828 197.694 372.2 196.998C372.572 196.29 373.082 195.75 373.73 195.378C374.378 195.006 375.116 194.82 375.944 194.82C376.784 194.82 377.498 195 378.086 195.36C378.686 195.72 379.142 196.212 379.454 196.836C379.766 197.448 379.922 198.138 379.922 198.906C379.922 199.11 379.916 199.296 379.904 199.464C379.892 199.632 379.874 199.782 379.85 199.914H372.578V198.636H379.22L378.482 198.78C378.482 197.916 378.242 197.25 377.762 196.782C377.294 196.314 376.676 196.08 375.908 196.08C375.32 196.08 374.81 196.218 374.378 196.494C373.958 196.758 373.628 197.148 373.388 197.664C373.16 198.168 373.046 198.78 373.046 199.5C373.046 200.208 373.166 200.82 373.406 201.336C373.646 201.852 373.982 202.248 374.414 202.524C374.858 202.788 375.386 202.92 375.998 202.92C376.658 202.92 377.192 202.794 377.6 202.542C378.02 202.29 378.356 201.948 378.608 201.516L379.742 202.182C379.514 202.59 379.22 202.944 378.86 203.244C378.512 203.544 378.098 203.778 377.618 203.946C377.15 204.102 376.622 204.18 376.034 204.18ZM382.66 204V195H383.92L384.01 196.404C384.334 195.852 384.754 195.45 385.27 195.198C385.798 194.946 386.338 194.82 386.89 194.82C387.526 194.82 388.126 194.964 388.69 195.252C389.254 195.54 389.686 195.984 389.986 196.584C390.178 196.176 390.448 195.846 390.796 195.594C391.144 195.33 391.522 195.138 391.93 195.018C392.35 194.886 392.746 194.82 393.118 194.82C393.694 194.82 394.24 194.94 394.756 195.18C395.284 195.42 395.716 195.792 396.052 196.296C396.388 196.8 396.556 197.448 396.556 198.24V204H395.116V198.384C395.116 197.568 394.912 196.98 394.504 196.62C394.096 196.26 393.592 196.08 392.992 196.08C392.524 196.08 392.086 196.194 391.678 196.422C391.27 196.65 390.94 196.986 390.688 197.43C390.448 197.874 390.328 198.42 390.328 199.068V204H388.888V198.384C388.888 197.568 388.684 196.98 388.276 196.62C387.868 196.26 387.364 196.08 386.764 196.08C386.368 196.08 385.96 196.188 385.54 196.404C385.132 196.608 384.79 196.938 384.514 197.394C384.238 197.85 384.1 198.45 384.1 199.194V204H382.66ZM403.579 204.18C402.727 204.18 401.965 203.994 401.293 203.622C400.633 203.25 400.117 202.716 399.745 202.02C399.373 201.312 399.187 200.472 399.187 199.5C399.187 198.528 399.373 197.694 399.745 196.998C400.117 196.29 400.627 195.75 401.275 195.378C401.923 195.006 402.661 194.82 403.489 194.82C404.329 194.82 405.043 195 405.631 195.36C406.231 195.72 406.687 196.212 406.999 196.836C407.311 197.448 407.467 198.138 407.467 198.906C407.467 199.11 407.461 199.296 407.449 199.464C407.437 199.632 407.419 199.782 407.395 199.914H400.123V198.636H406.765L406.027 198.78C406.027 197.916 405.787 197.25 405.307 196.782C404.839 196.314 404.221 196.08 403.453 196.08C402.865 196.08 402.355 196.218 401.923 196.494C401.503 196.758 401.173 197.148 400.933 197.664C400.705 198.168 400.591 198.78 400.591 199.5C400.591 200.208 400.711 200.82 400.951 201.336C401.191 201.852 401.527 202.248 401.959 202.524C402.403 202.788 402.931 202.92 403.543 202.92C404.203 202.92 404.737 202.794 405.145 202.542C405.565 202.29 405.901 201.948 406.153 201.516L407.287 202.182C407.059 202.59 406.765 202.944 406.405 203.244C406.057 203.544 405.643 203.778 405.163 203.946C404.695 204.102 404.167 204.18 403.579 204.18ZM122.503 227.112C121.855 227.112 121.315 226.908 120.883 226.5C120.463 226.08 120.253 225.558 120.253 224.934C120.253 224.298 120.463 223.776 120.883 223.368C121.315 222.96 121.855 222.756 122.503 222.756C123.163 222.756 123.703 222.96 124.123 223.368C124.543 223.776 124.753 224.298 124.753 224.934C124.753 225.558 124.543 226.08 124.123 226.5C123.703 226.908 123.163 227.112 122.503 227.112ZM141.778 219.12C143.638 219.12 145.096 219.636 146.152 220.668C147.22 221.688 147.754 223.152 147.754 225.06C147.754 226.968 147.22 228.438 146.152 229.47C145.096 230.49 143.638 231 141.778 231H137.944V219.12H141.778ZM141.922 229.65C143.278 229.65 144.334 229.248 145.09 228.444C145.858 227.628 146.242 226.5 146.242 225.06C146.242 223.62 145.858 222.498 145.09 221.694C144.334 220.878 143.278 220.47 141.922 220.47H139.384V229.65H141.922ZM154.409 231.18C153.557 231.18 152.795 230.994 152.123 230.622C151.463 230.25 150.947 229.716 150.575 229.02C150.203 228.312 150.017 227.472 150.017 226.5C150.017 225.528 150.203 224.694 150.575 223.998C150.947 223.29 151.457 222.75 152.105 222.378C152.753 222.006 153.491 221.82 154.319 221.82C155.159 221.82 155.873 222 156.461 222.36C157.061 222.72 157.517 223.212 157.829 223.836C158.141 224.448 158.297 225.138 158.297 225.906C158.297 226.11 158.291 226.296 158.279 226.464C158.267 226.632 158.249 226.782 158.225 226.914H150.953V225.636H157.595L156.857 225.78C156.857 224.916 156.617 224.25 156.137 223.782C155.669 223.314 155.051 223.08 154.283 223.08C153.695 223.08 153.185 223.218 152.753 223.494C152.333 223.758 152.003 224.148 151.763 224.664C151.535 225.168 151.421 225.78 151.421 226.5C151.421 227.208 151.541 227.82 151.781 228.336C152.021 228.852 152.357 229.248 152.789 229.524C153.233 229.788 153.761 229.92 154.373 229.92C155.033 229.92 155.567 229.794 155.975 229.542C156.395 229.29 156.731 228.948 156.983 228.516L158.117 229.182C157.889 229.59 157.595 229.944 157.235 230.244C156.887 230.544 156.473 230.778 155.993 230.946C155.525 231.102 154.997 231.18 154.409 231.18ZM166.747 222H168.259L164.515 231H163.075L159.331 222H160.969L163.813 229.542L166.747 222ZM173.903 231.18C173.051 231.18 172.289 230.994 171.617 230.622C170.957 230.25 170.441 229.716 170.069 229.02C169.697 228.312 169.511 227.472 169.511 226.5C169.511 225.528 169.697 224.694 170.069 223.998C170.441 223.29 170.951 222.75 171.599 222.378C172.247 222.006 172.985 221.82 173.813 221.82C174.653 221.82 175.367 222 175.955 222.36C176.555 222.72 177.011 223.212 177.323 223.836C177.635 224.448 177.791 225.138 177.791 225.906C177.791 226.11 177.785 226.296 177.773 226.464C177.761 226.632 177.743 226.782 177.719 226.914H170.447V225.636H177.089L176.351 225.78C176.351 224.916 176.111 224.25 175.631 223.782C175.163 223.314 174.545 223.08 173.777 223.08C173.189 223.08 172.679 223.218 172.247 223.494C171.827 223.758 171.497 224.148 171.257 224.664C171.029 225.168 170.915 225.78 170.915 226.5C170.915 227.208 171.035 227.82 171.275 228.336C171.515 228.852 171.851 229.248 172.283 229.524C172.727 229.788 173.255 229.92 173.867 229.92C174.527 229.92 175.061 229.794 175.469 229.542C175.889 229.29 176.225 228.948 176.477 228.516L177.611 229.182C177.383 229.59 177.089 229.944 176.729 230.244C176.381 230.544 175.967 230.778 175.487 230.946C175.019 231.102 174.491 231.18 173.903 231.18ZM181.897 217.86V228.714C181.897 229.17 181.981 229.488 182.149 229.668C182.317 229.836 182.587 229.92 182.959 229.92C183.199 229.92 183.397 229.902 183.553 229.866C183.709 229.83 183.919 229.764 184.183 229.668L183.949 230.928C183.757 231.012 183.547 231.072 183.319 231.108C183.091 231.156 182.857 231.18 182.617 231.18C181.885 231.18 181.339 230.982 180.979 230.586C180.631 230.19 180.457 229.584 180.457 228.768V217.86H181.897ZM189.757 221.82C190.609 221.82 191.359 222.006 192.007 222.378C192.667 222.75 193.183 223.29 193.555 223.998C193.927 224.694 194.113 225.528 194.113 226.5C194.113 227.472 193.927 228.312 193.555 229.02C193.183 229.716 192.667 230.25 192.007 230.622C191.359 230.994 190.609 231.18 189.757 231.18C188.917 231.18 188.167 230.994 187.507 230.622C186.847 230.25 186.331 229.716 185.959 229.02C185.587 228.312 185.401 227.472 185.401 226.5C185.401 225.528 185.587 224.694 185.959 223.998C186.331 223.29 186.847 222.75 187.507 222.378C188.167 222.006 188.917 221.82 189.757 221.82ZM189.757 223.062C189.145 223.062 188.623 223.2 188.191 223.476C187.759 223.752 187.423 224.148 187.183 224.664C186.955 225.168 186.841 225.78 186.841 226.5C186.841 227.208 186.955 227.82 187.183 228.336C187.423 228.852 187.759 229.248 188.191 229.524C188.623 229.8 189.145 229.938 189.757 229.938C190.369 229.938 190.891 229.8 191.323 229.524C191.755 229.248 192.085 228.852 192.313 228.336C192.553 227.82 192.673 227.208 192.673 226.5C192.673 225.78 192.553 225.168 192.313 224.664C192.085 224.148 191.755 223.752 191.323 223.476C190.891 223.2 190.369 223.062 189.757 223.062ZM196.824 234.78V222H198.084L198.21 224.196L198.012 223.944C198.168 223.524 198.402 223.158 198.714 222.846C199.026 222.522 199.404 222.27 199.848 222.09C200.292 221.91 200.772 221.82 201.288 221.82C202.02 221.82 202.692 222.006 203.304 222.378C203.928 222.75 204.426 223.284 204.798 223.98C205.17 224.676 205.356 225.516 205.356 226.5C205.356 227.472 205.164 228.312 204.78 229.02C204.408 229.716 203.91 230.25 203.286 230.622C202.662 230.994 201.978 231.18 201.234 231.18C200.49 231.18 199.836 231 199.272 230.64C198.72 230.268 198.324 229.8 198.084 229.236L198.264 228.966V234.78H196.824ZM201.09 229.92C201.978 229.92 202.668 229.608 203.16 228.984C203.664 228.36 203.916 227.532 203.916 226.5C203.916 225.468 203.67 224.64 203.178 224.016C202.698 223.392 202.02 223.08 201.144 223.08C200.568 223.08 200.064 223.224 199.632 223.512C199.2 223.788 198.864 224.184 198.624 224.7C198.384 225.204 198.264 225.804 198.264 226.5C198.264 227.184 198.378 227.784 198.606 228.3C198.846 228.816 199.176 229.218 199.596 229.506C200.028 229.782 200.526 229.92 201.09 229.92ZM208.11 231V222H209.37L209.46 223.404C209.784 222.852 210.204 222.45 210.72 222.198C211.248 221.946 211.788 221.82 212.34 221.82C212.976 221.82 213.576 221.964 214.14 222.252C214.704 222.54 215.136 222.984 215.436 223.584C215.628 223.176 215.898 222.846 216.246 222.594C216.594 222.33 216.972 222.138 217.38 222.018C217.8 221.886 218.196 221.82 218.568 221.82C219.144 221.82 219.69 221.94 220.206 222.18C220.734 222.42 221.166 222.792 221.502 223.296C221.838 223.8 222.006 224.448 222.006 225.24V231H220.566V225.384C220.566 224.568 220.362 223.98 219.954 223.62C219.546 223.26 219.042 223.08 218.442 223.08C217.974 223.08 217.536 223.194 217.128 223.422C216.72 223.65 216.39 223.986 216.138 224.43C215.898 224.874 215.778 225.42 215.778 226.068V231H214.338V225.384C214.338 224.568 214.134 223.98 213.726 223.62C213.318 223.26 212.814 223.08 212.214 223.08C211.818 223.08 211.41 223.188 210.99 223.404C210.582 223.608 210.24 223.938 209.964 224.394C209.688 224.85 209.55 225.45 209.55 226.194V231H208.11ZM229.028 231.18C228.176 231.18 227.414 230.994 226.742 230.622C226.082 230.25 225.566 229.716 225.194 229.02C224.822 228.312 224.636 227.472 224.636 226.5C224.636 225.528 224.822 224.694 225.194 223.998C225.566 223.29 226.076 222.75 226.724 222.378C227.372 222.006 228.11 221.82 228.938 221.82C229.778 221.82 230.492 222 231.08 222.36C231.68 222.72 232.136 223.212 232.448 223.836C232.76 224.448 232.916 225.138 232.916 225.906C232.916 226.11 232.91 226.296 232.898 226.464C232.886 226.632 232.868 226.782 232.844 226.914H225.572V225.636H232.214L231.476 225.78C231.476 224.916 231.236 224.25 230.756 223.782C230.288 223.314 229.67 223.08 228.902 223.08C228.314 223.08 227.804 223.218 227.372 223.494C226.952 223.758 226.622 224.148 226.382 224.664C226.154 225.168 226.04 225.78 226.04 226.5C226.04 227.208 226.16 227.82 226.4 228.336C226.64 228.852 226.976 229.248 227.408 229.524C227.852 229.788 228.38 229.92 228.992 229.92C229.652 229.92 230.186 229.794 230.594 229.542C231.014 229.29 231.35 228.948 231.602 228.516L232.736 229.182C232.508 229.59 232.214 229.944 231.854 230.244C231.506 230.544 231.092 230.778 230.612 230.946C230.144 231.102 229.616 231.18 229.028 231.18ZM235.654 231V222H236.914L237.04 224.016L236.806 223.818C236.998 223.338 237.256 222.954 237.58 222.666C237.904 222.366 238.276 222.15 238.696 222.018C239.128 221.886 239.572 221.82 240.028 221.82C240.676 221.82 241.264 221.946 241.792 222.198C242.32 222.438 242.74 222.81 243.052 223.314C243.376 223.818 243.538 224.46 243.538 225.24V231H242.098V225.744C242.098 224.748 241.882 224.058 241.45 223.674C241.03 223.278 240.508 223.08 239.884 223.08C239.452 223.08 239.02 223.182 238.588 223.386C238.156 223.59 237.796 223.92 237.508 224.376C237.232 224.832 237.094 225.444 237.094 226.212V231H235.654ZM248.8 219.444V228.516C248.8 228.96 248.926 229.29 249.178 229.506C249.43 229.722 249.754 229.83 250.15 229.83C250.498 229.83 250.798 229.77 251.05 229.65C251.302 229.53 251.53 229.368 251.734 229.164L252.238 230.37C251.962 230.622 251.632 230.82 251.248 230.964C250.876 231.108 250.444 231.18 249.952 231.18C249.496 231.18 249.07 231.102 248.674 230.946C248.278 230.778 247.96 230.52 247.72 230.172C247.492 229.812 247.372 229.344 247.36 228.768V219.84L248.8 219.444ZM252.076 222V223.242H245.56V222H252.076ZM264.078 221.82C264.93 221.82 265.68 222.006 266.328 222.378C266.988 222.75 267.504 223.29 267.876 223.998C268.248 224.694 268.434 225.528 268.434 226.5C268.434 227.472 268.248 228.312 267.876 229.02C267.504 229.716 266.988 230.25 266.328 230.622C265.68 230.994 264.93 231.18 264.078 231.18C263.238 231.18 262.488 230.994 261.828 230.622C261.168 230.25 260.652 229.716 260.28 229.02C259.908 228.312 259.722 227.472 259.722 226.5C259.722 225.528 259.908 224.694 260.28 223.998C260.652 223.29 261.168 222.75 261.828 222.378C262.488 222.006 263.238 221.82 264.078 221.82ZM264.078 223.062C263.466 223.062 262.944 223.2 262.512 223.476C262.08 223.752 261.744 224.148 261.504 224.664C261.276 225.168 261.162 225.78 261.162 226.5C261.162 227.208 261.276 227.82 261.504 228.336C261.744 228.852 262.08 229.248 262.512 229.524C262.944 229.8 263.466 229.938 264.078 229.938C264.69 229.938 265.212 229.8 265.644 229.524C266.076 229.248 266.406 228.852 266.634 228.336C266.874 227.82 266.994 227.208 266.994 226.5C266.994 225.78 266.874 225.168 266.634 224.664C266.406 224.148 266.076 223.752 265.644 223.476C265.212 223.2 264.69 223.062 264.078 223.062ZM274.641 217.77C274.953 217.77 275.247 217.806 275.523 217.878C275.799 217.95 276.015 218.052 276.171 218.184L275.793 219.354C275.649 219.258 275.493 219.192 275.325 219.156C275.157 219.108 274.971 219.084 274.767 219.084C274.251 219.084 273.849 219.21 273.561 219.462C273.273 219.702 273.129 220.092 273.129 220.632V222V222.468V231H271.688V220.488C271.688 220.092 271.749 219.726 271.869 219.39C271.989 219.054 272.169 218.766 272.409 218.526C272.661 218.286 272.973 218.1 273.345 217.968C273.717 217.836 274.149 217.77 274.641 217.77ZM276.135 222V223.242H269.889V222H276.135ZM292.484 231H290.954L289.694 227.706H284.312L283.052 231H281.54L286.166 219.12H287.876L292.484 231ZM284.834 226.356H289.172L286.994 220.506L284.834 226.356ZM294.629 231V222H295.889L296.015 224.016L295.781 223.818C295.973 223.338 296.231 222.954 296.555 222.666C296.879 222.366 297.251 222.15 297.671 222.018C298.103 221.886 298.547 221.82 299.003 221.82C299.651 221.82 300.239 221.946 300.767 222.198C301.295 222.438 301.715 222.81 302.027 223.314C302.351 223.818 302.513 224.46 302.513 225.24V231H301.073V225.744C301.073 224.748 300.857 224.058 300.425 223.674C300.005 223.278 299.483 223.08 298.859 223.08C298.427 223.08 297.995 223.182 297.563 223.386C297.131 223.59 296.771 223.92 296.483 224.376C296.207 224.832 296.069 225.444 296.069 226.212V231H294.629ZM305.774 231V222H307.034L307.16 224.016L306.926 223.818C307.118 223.338 307.376 222.954 307.7 222.666C308.024 222.366 308.396 222.15 308.816 222.018C309.248 221.886 309.692 221.82 310.148 221.82C310.796 221.82 311.384 221.946 311.912 222.198C312.44 222.438 312.86 222.81 313.172 223.314C313.496 223.818 313.658 224.46 313.658 225.24V231H312.218V225.744C312.218 224.748 312.002 224.058 311.57 223.674C311.15 223.278 310.628 223.08 310.004 223.08C309.572 223.08 309.14 223.182 308.708 223.386C308.276 223.59 307.916 223.92 307.628 224.376C307.352 224.832 307.214 225.444 307.214 226.212V231H305.774ZM320.176 231.18C319.6 231.18 319.054 231.072 318.538 230.856C318.034 230.64 317.62 230.292 317.296 229.812C316.984 229.32 316.828 228.684 316.828 227.904V222H318.268V227.526C318.268 228.438 318.466 229.068 318.862 229.416C319.258 229.752 319.816 229.92 320.536 229.92C320.872 229.92 321.202 229.866 321.526 229.758C321.85 229.638 322.138 229.458 322.39 229.218C322.654 228.966 322.858 228.648 323.002 228.264C323.158 227.88 323.236 227.424 323.236 226.896V222H324.676V231H323.416L323.326 229.632C323.014 230.172 322.588 230.568 322.048 230.82C321.52 231.06 320.896 231.18 320.176 231.18ZM333.284 225.186C333.284 224.514 333.104 223.998 332.744 223.638C332.384 223.266 331.874 223.08 331.214 223.08C330.59 223.08 330.062 223.218 329.63 223.494C329.198 223.758 328.88 224.19 328.676 224.79L327.506 224.07C327.746 223.398 328.19 222.858 328.838 222.45C329.486 222.03 330.29 221.82 331.25 221.82C331.898 221.82 332.486 221.934 333.014 222.162C333.542 222.378 333.956 222.714 334.256 223.17C334.568 223.614 334.724 224.19 334.724 224.898V229.254C334.724 229.686 334.952 229.902 335.408 229.902C335.636 229.902 335.858 229.872 336.074 229.812L336.002 230.946C335.762 231.066 335.45 231.126 335.066 231.126C334.718 231.126 334.406 231.06 334.13 230.928C333.854 230.796 333.638 230.598 333.482 230.334C333.326 230.058 333.248 229.716 333.248 229.308V229.128L333.608 229.182C333.464 229.65 333.218 230.034 332.87 230.334C332.522 230.622 332.132 230.838 331.7 230.982C331.268 231.114 330.842 231.18 330.422 231.18C329.894 231.18 329.402 231.09 328.946 230.91C328.49 230.73 328.124 230.46 327.848 230.1C327.584 229.728 327.452 229.272 327.452 228.732C327.452 228.06 327.674 227.508 328.118 227.076C328.574 226.632 329.204 226.332 330.008 226.176L333.572 225.474V226.662L330.674 227.256C330.086 227.376 329.648 227.544 329.36 227.76C329.072 227.976 328.928 228.276 328.928 228.66C328.928 229.032 329.072 229.338 329.36 229.578C329.66 229.806 330.08 229.92 330.62 229.92C330.968 229.92 331.298 229.878 331.61 229.794C331.934 229.698 332.222 229.56 332.474 229.38C332.726 229.188 332.924 228.954 333.068 228.678C333.212 228.39 333.284 228.054 333.284 227.67V225.186ZM339.591 217.86V228.714C339.591 229.17 339.675 229.488 339.843 229.668C340.011 229.836 340.281 229.92 340.653 229.92C340.893 229.92 341.091 229.902 341.247 229.866C341.403 229.83 341.613 229.764 341.877 229.668L341.643 230.928C341.451 231.012 341.241 231.072 341.013 231.108C340.785 231.156 340.551 231.18 340.311 231.18C339.579 231.18 339.033 230.982 338.673 230.586C338.325 230.19 338.151 229.584 338.151 228.768V217.86H339.591ZM351.271 231L347.761 219.12H349.255L352.189 229.686L354.979 219.12H356.617L359.407 229.722L362.341 219.12H363.763L360.271 231H358.489L356.383 223.296L355.771 220.614H355.753L355.141 223.296L353.053 231H351.271ZM369.195 221.82C370.047 221.82 370.797 222.006 371.445 222.378C372.105 222.75 372.621 223.29 372.993 223.998C373.365 224.694 373.551 225.528 373.551 226.5C373.551 227.472 373.365 228.312 372.993 229.02C372.621 229.716 372.105 230.25 371.445 230.622C370.797 230.994 370.047 231.18 369.195 231.18C368.355 231.18 367.605 230.994 366.945 230.622C366.285 230.25 365.769 229.716 365.397 229.02C365.025 228.312 364.839 227.472 364.839 226.5C364.839 225.528 365.025 224.694 365.397 223.998C365.769 223.29 366.285 222.75 366.945 222.378C367.605 222.006 368.355 221.82 369.195 221.82ZM369.195 223.062C368.583 223.062 368.061 223.2 367.629 223.476C367.197 223.752 366.861 224.148 366.621 224.664C366.393 225.168 366.279 225.78 366.279 226.5C366.279 227.208 366.393 227.82 366.621 228.336C366.861 228.852 367.197 229.248 367.629 229.524C368.061 229.8 368.583 229.938 369.195 229.938C369.807 229.938 370.329 229.8 370.761 229.524C371.193 229.248 371.523 228.852 371.751 228.336C371.991 227.82 372.111 227.208 372.111 226.5C372.111 225.78 371.991 225.168 371.751 224.664C371.523 224.148 371.193 223.752 370.761 223.476C370.329 223.2 369.807 223.062 369.195 223.062ZM376.262 231V222H377.432L377.63 223.476C377.882 222.924 378.248 222.51 378.728 222.234C379.22 221.958 379.814 221.82 380.51 221.82C380.666 221.82 380.834 221.832 381.014 221.856C381.206 221.88 381.368 221.928 381.5 222L381.248 223.314C381.116 223.266 380.972 223.23 380.816 223.206C380.66 223.182 380.438 223.17 380.15 223.17C379.778 223.17 379.4 223.278 379.016 223.494C378.644 223.71 378.332 224.04 378.08 224.484C377.828 224.916 377.702 225.468 377.702 226.14V231H376.262ZM391.512 222L387.624 225.888L387.282 226.23L384.33 229.182V227.382L389.694 222H391.512ZM385.05 217.86V231H383.61V217.86H385.05ZM387.75 225.15L391.728 231H389.982L386.544 225.96L387.75 225.15ZM404.017 219.12C404.821 219.12 405.517 219.27 406.105 219.57C406.705 219.858 407.173 220.272 407.509 220.812C407.845 221.352 408.013 221.994 408.013 222.738C408.013 223.482 407.845 224.124 407.509 224.664C407.173 225.204 406.705 225.624 406.105 225.924C405.517 226.212 404.821 226.356 404.017 226.356H401.263V231H399.823V219.12H404.017ZM403.801 225.006C404.737 225.006 405.421 224.814 405.853 224.43C406.285 224.034 406.501 223.47 406.501 222.738C406.501 221.994 406.285 221.43 405.853 221.046C405.421 220.662 404.737 220.47 403.801 220.47H401.263V225.006H403.801ZM411.907 217.86V228.714C411.907 229.17 411.991 229.488 412.159 229.668C412.327 229.836 412.597 229.92 412.969 229.92C413.209 229.92 413.407 229.902 413.563 229.866C413.719 229.83 413.929 229.764 414.193 229.668L413.959 230.928C413.767 231.012 413.557 231.072 413.329 231.108C413.101 231.156 412.867 231.18 412.627 231.18C411.895 231.18 411.349 230.982 410.989 230.586C410.641 230.19 410.467 229.584 410.467 228.768V217.86H411.907ZM421.297 225.186C421.297 224.514 421.117 223.998 420.757 223.638C420.397 223.266 419.887 223.08 419.227 223.08C418.603 223.08 418.075 223.218 417.643 223.494C417.211 223.758 416.893 224.19 416.689 224.79L415.519 224.07C415.759 223.398 416.203 222.858 416.851 222.45C417.499 222.03 418.303 221.82 419.263 221.82C419.911 221.82 420.499 221.934 421.027 222.162C421.555 222.378 421.969 222.714 422.269 223.17C422.581 223.614 422.737 224.19 422.737 224.898V229.254C422.737 229.686 422.965 229.902 423.421 229.902C423.649 229.902 423.871 229.872 424.087 229.812L424.015 230.946C423.775 231.066 423.463 231.126 423.079 231.126C422.731 231.126 422.419 231.06 422.143 230.928C421.867 230.796 421.651 230.598 421.495 230.334C421.339 230.058 421.261 229.716 421.261 229.308V229.128L421.621 229.182C421.477 229.65 421.231 230.034 420.883 230.334C420.535 230.622 420.145 230.838 419.713 230.982C419.281 231.114 418.855 231.18 418.435 231.18C417.907 231.18 417.415 231.09 416.959 230.91C416.503 230.73 416.137 230.46 415.861 230.1C415.597 229.728 415.465 229.272 415.465 228.732C415.465 228.06 415.687 227.508 416.131 227.076C416.587 226.632 417.217 226.332 418.021 226.176L421.585 225.474V226.662L418.687 227.256C418.099 227.376 417.661 227.544 417.373 227.76C417.085 227.976 416.941 228.276 416.941 228.66C416.941 229.032 417.085 229.338 417.373 229.578C417.673 229.806 418.093 229.92 418.633 229.92C418.981 229.92 419.311 229.878 419.623 229.794C419.947 229.698 420.235 229.56 420.487 229.38C420.739 229.188 420.937 228.954 421.081 228.678C421.225 228.39 421.297 228.054 421.297 227.67V225.186ZM426.237 231V222H427.497L427.623 224.016L427.389 223.818C427.581 223.338 427.839 222.954 428.163 222.666C428.487 222.366 428.859 222.15 429.279 222.018C429.711 221.886 430.155 221.82 430.611 221.82C431.259 221.82 431.847 221.946 432.375 222.198C432.903 222.438 433.323 222.81 433.635 223.314C433.959 223.818 434.121 224.46 434.121 225.24V231H432.681V225.744C432.681 224.748 432.465 224.058 432.033 223.674C431.613 223.278 431.091 223.08 430.467 223.08C430.035 223.08 429.603 223.182 429.171 223.386C428.739 223.59 428.379 223.92 428.091 224.376C427.815 224.832 427.677 225.444 427.677 226.212V231H426.237ZM446.792 217.482L447.62 218.31C446.828 219.03 446.198 219.792 445.73 220.596C445.262 221.388 444.926 222.228 444.722 223.116C444.518 223.992 444.416 224.934 444.416 225.942C444.416 226.938 444.518 227.88 444.722 228.768C444.926 229.656 445.262 230.496 445.73 231.288C446.198 232.08 446.828 232.842 447.62 233.574L446.792 234.402C445.52 233.298 444.56 232.038 443.912 230.622C443.264 229.194 442.94 227.634 442.94 225.942C442.94 224.25 443.264 222.69 443.912 221.262C444.56 219.834 445.52 218.574 446.792 217.482ZM459.125 231H457.595L456.335 227.706H450.953L449.693 231H448.181L452.807 219.12H454.517L459.125 231ZM451.475 226.356H455.813L453.635 220.506L451.475 226.356ZM463.033 231L459.523 219.12H461.017L463.951 229.686L466.741 219.12H468.379L471.169 229.722L474.103 219.12H475.525L472.033 231H470.251L468.145 223.296L467.533 220.614H467.515L466.903 223.296L464.815 231H463.033ZM482.31 219.12C483.114 219.12 483.81 219.27 484.398 219.57C484.998 219.858 485.466 220.272 485.802 220.812C486.138 221.352 486.306 221.994 486.306 222.738C486.306 223.482 486.138 224.124 485.802 224.664C485.466 225.204 484.998 225.624 484.398 225.924C483.81 226.212 483.114 226.356 482.31 226.356H479.556V231H478.116V219.12H482.31ZM482.094 225.006C483.03 225.006 483.714 224.814 484.146 224.43C484.578 224.034 484.794 223.47 484.794 222.738C484.794 221.994 484.578 221.43 484.146 221.046C483.714 220.662 483.03 220.47 482.094 220.47H479.556V225.006H482.094ZM488.034 234.402L487.206 233.574C487.998 232.842 488.628 232.08 489.096 231.288C489.564 230.496 489.9 229.656 490.104 228.768C490.308 227.88 490.41 226.938 490.41 225.942C490.41 224.934 490.308 223.992 490.104 223.116C489.9 222.228 489.564 221.388 489.096 220.596C488.628 219.792 487.998 219.03 487.206 218.31L488.034 217.482C489.306 218.574 490.266 219.834 490.914 221.262C491.562 222.69 491.886 224.25 491.886 225.942C491.886 227.634 491.562 229.194 490.914 230.622C490.266 232.038 489.306 233.298 488.034 234.402ZM505.195 231.18C504.691 231.18 504.223 231.09 503.791 230.91C503.359 230.73 502.987 230.478 502.675 230.154C502.363 229.83 502.129 229.464 501.973 229.056L502.171 228.804L502.045 231H500.785V217.86H502.225V224.034L502.045 223.764C502.285 223.2 502.687 222.738 503.251 222.378C503.827 222.006 504.481 221.82 505.213 221.82C505.957 221.82 506.641 222.006 507.265 222.378C507.889 222.75 508.387 223.284 508.759 223.98C509.131 224.676 509.317 225.516 509.317 226.5C509.317 227.472 509.125 228.312 508.741 229.02C508.369 229.716 507.871 230.25 507.247 230.622C506.623 230.994 505.939 231.18 505.195 231.18ZM505.051 229.92C505.939 229.92 506.629 229.608 507.121 228.984C507.625 228.36 507.877 227.532 507.877 226.5C507.877 225.468 507.631 224.64 507.139 224.016C506.647 223.392 505.957 223.08 505.069 223.08C504.505 223.08 504.007 223.224 503.575 223.512C503.155 223.8 502.825 224.202 502.585 224.718C502.345 225.234 502.225 225.84 502.225 226.536C502.225 227.22 502.339 227.82 502.567 228.336C502.807 228.84 503.137 229.23 503.557 229.506C503.989 229.782 504.487 229.92 505.051 229.92ZM519.205 222L514.975 232.512C514.747 233.1 514.495 233.562 514.219 233.898C513.955 234.246 513.655 234.492 513.319 234.636C512.995 234.792 512.617 234.87 512.185 234.87C511.777 234.87 511.399 234.81 511.051 234.69C510.715 234.582 510.415 234.432 510.151 234.24L510.547 232.98C510.787 233.196 511.039 233.352 511.303 233.448C511.579 233.556 511.849 233.61 512.113 233.61C512.425 233.61 512.719 233.514 512.995 233.322C513.271 233.13 513.523 232.74 513.751 232.152L514.219 230.982L513.319 228.84L510.457 222H512.095L514.345 227.868L514.903 229.47L515.551 227.688L517.657 222H519.205ZM527.486 220.272C527.162 220.272 526.898 220.176 526.694 219.984C526.502 219.78 526.406 219.516 526.406 219.192C526.406 218.868 526.502 218.61 526.694 218.418C526.898 218.214 527.162 218.112 527.486 218.112C527.81 218.112 528.068 218.214 528.26 218.418C528.464 218.61 528.566 218.868 528.566 219.192C528.566 219.516 528.464 219.78 528.26 219.984C528.068 220.176 527.81 220.272 527.486 220.272ZM528.206 222V231H526.766V222H528.206ZM531.547 231V222H532.807L532.933 224.016L532.699 223.818C532.891 223.338 533.149 222.954 533.473 222.666C533.797 222.366 534.169 222.15 534.589 222.018C535.021 221.886 535.465 221.82 535.921 221.82C536.569 221.82 537.157 221.946 537.685 222.198C538.213 222.438 538.633 222.81 538.945 223.314C539.269 223.818 539.431 224.46 539.431 225.24V231H537.991V225.744C537.991 224.748 537.775 224.058 537.343 223.674C536.923 223.278 536.401 223.08 535.777 223.08C535.345 223.08 534.913 223.182 534.481 223.386C534.049 223.59 533.689 223.92 533.401 224.376C533.125 224.832 532.987 225.444 532.987 226.212V231H531.547ZM548.421 222H549.933L546.189 231H544.749L541.005 222H542.643L545.487 229.542L548.421 222ZM555.541 221.82C556.393 221.82 557.143 222.006 557.791 222.378C558.451 222.75 558.967 223.29 559.339 223.998C559.711 224.694 559.897 225.528 559.897 226.5C559.897 227.472 559.711 228.312 559.339 229.02C558.967 229.716 558.451 230.25 557.791 230.622C557.143 230.994 556.393 231.18 555.541 231.18C554.701 231.18 553.951 230.994 553.291 230.622C552.631 230.25 552.115 229.716 551.743 229.02C551.371 228.312 551.185 227.472 551.185 226.5C551.185 225.528 551.371 224.694 551.743 223.998C552.115 223.29 552.631 222.75 553.291 222.378C553.951 222.006 554.701 221.82 555.541 221.82ZM555.541 223.062C554.929 223.062 554.407 223.2 553.975 223.476C553.543 223.752 553.207 224.148 552.967 224.664C552.739 225.168 552.625 225.78 552.625 226.5C552.625 227.208 552.739 227.82 552.967 228.336C553.207 228.852 553.543 229.248 553.975 229.524C554.407 229.8 554.929 229.938 555.541 229.938C556.153 229.938 556.675 229.8 557.107 229.524C557.539 229.248 557.869 228.852 558.097 228.336C558.337 227.82 558.457 227.208 558.457 226.5C558.457 225.78 558.337 225.168 558.097 224.664C557.869 224.148 557.539 223.752 557.107 223.476C556.675 223.2 556.153 223.062 555.541 223.062ZM563.976 217.86V228.714C563.976 229.17 564.06 229.488 564.228 229.668C564.396 229.836 564.666 229.92 565.038 229.92C565.278 229.92 565.476 229.902 565.632 229.866C565.788 229.83 565.998 229.764 566.262 229.668L566.028 230.928C565.836 231.012 565.626 231.072 565.398 231.108C565.17 231.156 564.936 231.18 564.696 231.18C563.964 231.18 563.418 230.982 563.058 230.586C562.71 230.19 562.536 229.584 562.536 228.768V217.86H563.976ZM573.716 222H575.228L571.484 231H570.044L566.3 222H567.938L570.782 229.542L573.716 222ZM577.83 220.272C577.506 220.272 577.242 220.176 577.038 219.984C576.846 219.78 576.75 219.516 576.75 219.192C576.75 218.868 576.846 218.61 577.038 218.418C577.242 218.214 577.506 218.112 577.83 218.112C578.154 218.112 578.412 218.214 578.604 218.418C578.808 218.61 578.91 218.868 578.91 219.192C578.91 219.516 578.808 219.78 578.604 219.984C578.412 220.176 578.154 220.272 577.83 220.272ZM578.55 222V231H577.11V222H578.55ZM581.891 231V222H583.151L583.277 224.016L583.043 223.818C583.235 223.338 583.493 222.954 583.817 222.666C584.141 222.366 584.513 222.15 584.933 222.018C585.365 221.886 585.809 221.82 586.265 221.82C586.913 221.82 587.501 221.946 588.029 222.198C588.557 222.438 588.977 222.81 589.289 223.314C589.613 223.818 589.775 224.46 589.775 225.24V231H588.335V225.744C588.335 224.748 588.119 224.058 587.687 223.674C587.267 223.278 586.745 223.08 586.121 223.08C585.689 223.08 585.257 223.182 584.825 223.386C584.393 223.59 584.033 223.92 583.745 224.376C583.469 224.832 583.331 225.444 583.331 226.212V231H581.891ZM600.613 220.344L600.937 221.622C600.925 221.622 600.907 221.622 600.883 221.622C600.859 221.622 600.835 221.622 600.811 221.622C600.223 221.622 599.767 221.742 599.443 221.982C599.131 222.21 598.975 222.582 598.975 223.098L598.093 222.648C598.093 222.18 598.201 221.772 598.417 221.424C598.633 221.076 598.927 220.812 599.299 220.632C599.671 220.44 600.079 220.344 600.523 220.344C600.535 220.344 600.547 220.344 600.559 220.344C600.583 220.344 600.601 220.344 600.613 220.344ZM597.877 229.848C598.729 229.848 599.395 230.046 599.875 230.442C600.355 230.826 600.595 231.342 600.595 231.99C600.595 232.578 600.397 233.088 600.001 233.52C599.617 233.952 599.095 234.282 598.435 234.51C597.787 234.75 597.055 234.87 596.239 234.87C594.823 234.87 593.761 234.63 593.053 234.15C592.357 233.67 592.009 233.094 592.009 232.422C592.009 231.942 592.165 231.51 592.477 231.126C592.801 230.754 593.341 230.544 594.097 230.496L593.971 230.766C593.563 230.658 593.215 230.478 592.927 230.226C592.651 229.962 592.513 229.584 592.513 229.092C592.513 228.6 592.693 228.18 593.053 227.832C593.425 227.472 593.971 227.25 594.691 227.166L595.645 227.652H595.465C594.877 227.712 594.457 227.862 594.205 228.102C593.965 228.33 593.845 228.582 593.845 228.858C593.845 229.194 593.965 229.446 594.205 229.614C594.457 229.77 594.805 229.848 595.249 229.848H597.877ZM596.221 233.664C596.917 233.664 597.487 233.592 597.931 233.448C598.387 233.304 598.723 233.118 598.939 232.89C599.155 232.662 599.263 232.416 599.263 232.152C599.263 231.828 599.131 231.57 598.867 231.378C598.615 231.186 598.153 231.09 597.481 231.09H594.709C594.325 231.09 594.001 231.186 593.737 231.378C593.473 231.582 593.341 231.858 593.341 232.206C593.341 232.65 593.593 233.004 594.097 233.268C594.613 233.532 595.321 233.664 596.221 233.664ZM596.095 221.82C596.815 221.82 597.451 221.952 598.003 222.216C598.567 222.468 599.005 222.822 599.317 223.278C599.629 223.734 599.785 224.262 599.785 224.862C599.785 225.45 599.629 225.978 599.317 226.446C599.005 226.902 598.567 227.262 598.003 227.526C597.451 227.778 596.815 227.904 596.095 227.904C594.907 227.904 593.995 227.622 593.359 227.058C592.723 226.482 592.405 225.75 592.405 224.862C592.405 224.262 592.561 223.734 592.873 223.278C593.197 222.822 593.635 222.468 594.187 222.216C594.739 221.952 595.375 221.82 596.095 221.82ZM596.095 222.99C595.471 222.99 594.949 223.164 594.529 223.512C594.109 223.848 593.899 224.298 593.899 224.862C593.899 225.414 594.109 225.864 594.529 226.212C594.949 226.56 595.471 226.734 596.095 226.734C596.719 226.734 597.241 226.56 597.661 226.212C598.081 225.864 598.291 225.414 598.291 224.862C598.291 224.298 598.081 223.848 597.661 223.512C597.241 223.164 596.719 222.99 596.095 222.99ZM610.523 219.444V228.516C610.523 228.96 610.649 229.29 610.901 229.506C611.153 229.722 611.477 229.83 611.873 229.83C612.221 229.83 612.521 229.77 612.773 229.65C613.025 229.53 613.253 229.368 613.457 229.164L613.961 230.37C613.685 230.622 613.355 230.82 612.971 230.964C612.599 231.108 612.167 231.18 611.675 231.18C611.219 231.18 610.793 231.102 610.397 230.946C610.001 230.778 609.683 230.52 609.443 230.172C609.215 229.812 609.095 229.344 609.083 228.768V219.84L610.523 219.444ZM613.799 222V223.242H607.283V222H613.799ZM615.94 231V217.86H617.38V223.35C617.692 222.81 618.106 222.42 618.622 222.18C619.138 221.94 619.702 221.82 620.314 221.82C620.962 221.82 621.55 221.946 622.078 222.198C622.606 222.438 623.026 222.81 623.338 223.314C623.662 223.818 623.824 224.46 623.824 225.24V231H622.384V225.744C622.384 224.748 622.168 224.058 621.736 223.674C621.316 223.278 620.794 223.08 620.17 223.08C619.738 223.08 619.306 223.182 618.874 223.386C618.442 223.59 618.082 223.926 617.794 224.394C617.518 224.85 617.38 225.462 617.38 226.23V231H615.94ZM630.846 231.18C629.994 231.18 629.232 230.994 628.56 230.622C627.9 230.25 627.384 229.716 627.012 229.02C626.64 228.312 626.454 227.472 626.454 226.5C626.454 225.528 626.64 224.694 627.012 223.998C627.384 223.29 627.894 222.75 628.542 222.378C629.19 222.006 629.928 221.82 630.756 221.82C631.596 221.82 632.31 222 632.898 222.36C633.498 222.72 633.954 223.212 634.266 223.836C634.578 224.448 634.734 225.138 634.734 225.906C634.734 226.11 634.728 226.296 634.716 226.464C634.704 226.632 634.686 226.782 634.662 226.914H627.39V225.636H634.032L633.294 225.78C633.294 224.916 633.054 224.25 632.574 223.782C632.106 223.314 631.488 223.08 630.72 223.08C630.132 223.08 629.622 223.218 629.19 223.494C628.77 223.758 628.44 224.148 628.2 224.664C627.972 225.168 627.858 225.78 627.858 226.5C627.858 227.208 627.978 227.82 628.218 228.336C628.458 228.852 628.794 229.248 629.226 229.524C629.67 229.788 630.198 229.92 630.81 229.92C631.47 229.92 632.004 229.794 632.412 229.542C632.832 229.29 633.168 228.948 633.42 228.516L634.554 229.182C634.326 229.59 634.032 229.944 633.672 230.244C633.324 230.544 632.91 230.778 632.43 230.946C631.962 231.102 631.434 231.18 630.846 231.18ZM647.712 219.12C649.572 219.12 651.03 219.636 652.086 220.668C653.154 221.688 653.688 223.152 653.688 225.06C653.688 226.968 653.154 228.438 652.086 229.47C651.03 230.49 649.572 231 647.712 231H643.878V219.12H647.712ZM647.856 229.65C649.212 229.65 650.268 229.248 651.024 228.444C651.792 227.628 652.176 226.5 652.176 225.06C652.176 223.62 651.792 222.498 651.024 221.694C650.268 220.878 649.212 220.47 647.856 220.47H645.318V229.65H647.856ZM657.212 220.272C656.888 220.272 656.624 220.176 656.42 219.984C656.228 219.78 656.132 219.516 656.132 219.192C656.132 218.868 656.228 218.61 656.42 218.418C656.624 218.214 656.888 218.112 657.212 218.112C657.536 218.112 657.794 218.214 657.986 218.418C658.19 218.61 658.292 218.868 658.292 219.192C658.292 219.516 658.19 219.78 657.986 219.984C657.794 220.176 657.536 220.272 657.212 220.272ZM657.932 222V231H656.492V222H657.932ZM664.514 231.18C663.638 231.18 662.828 230.994 662.084 230.622C661.352 230.25 660.788 229.722 660.392 229.038L661.616 228.156C661.88 228.708 662.264 229.14 662.768 229.452C663.284 229.764 663.902 229.92 664.622 229.92C665.258 229.92 665.756 229.8 666.116 229.56C666.476 229.308 666.656 228.984 666.656 228.588C666.656 228.336 666.572 228.108 666.404 227.904C666.248 227.688 665.942 227.532 665.486 227.436L663.326 226.986C662.45 226.806 661.82 226.506 661.436 226.086C661.064 225.666 660.878 225.144 660.878 224.52C660.878 224.028 661.016 223.578 661.292 223.17C661.58 222.762 661.982 222.438 662.498 222.198C663.026 221.946 663.644 221.82 664.352 221.82C665.24 221.82 665.99 221.994 666.602 222.342C667.214 222.69 667.67 223.182 667.97 223.818L666.764 224.61C666.56 224.082 666.23 223.698 665.774 223.458C665.318 223.206 664.844 223.08 664.352 223.08C663.92 223.08 663.548 223.14 663.236 223.26C662.936 223.38 662.702 223.548 662.534 223.764C662.378 223.968 662.3 224.202 662.3 224.466C662.3 224.73 662.39 224.976 662.57 225.204C662.75 225.42 663.086 225.576 663.578 225.672L665.828 226.14C666.668 226.308 667.256 226.584 667.592 226.968C667.928 227.352 668.096 227.82 668.096 228.372C668.096 228.936 667.946 229.434 667.646 229.866C667.346 230.286 666.926 230.61 666.386 230.838C665.846 231.066 665.222 231.18 664.514 231.18ZM672.89 219.444V228.516C672.89 228.96 673.016 229.29 673.268 229.506C673.52 229.722 673.844 229.83 674.24 229.83C674.588 229.83 674.888 229.77 675.14 229.65C675.392 229.53 675.62 229.368 675.824 229.164L676.328 230.37C676.052 230.622 675.722 230.82 675.338 230.964C674.966 231.108 674.534 231.18 674.042 231.18C673.586 231.18 673.16 231.102 672.764 230.946C672.368 230.778 672.05 230.52 671.81 230.172C671.582 229.812 671.462 229.344 671.45 228.768V219.84L672.89 219.444ZM676.166 222V223.242H669.65V222H676.166ZM678.307 231V222H679.477L679.675 223.476C679.927 222.924 680.293 222.51 680.773 222.234C681.265 221.958 681.859 221.82 682.555 221.82C682.711 221.82 682.879 221.832 683.059 221.856C683.251 221.88 683.413 221.928 683.545 222L683.293 223.314C683.161 223.266 683.017 223.23 682.861 223.206C682.705 223.182 682.483 223.17 682.195 223.17C681.823 223.17 681.445 223.278 681.061 223.494C680.689 223.71 680.377 224.04 680.125 224.484C679.873 224.916 679.747 225.468 679.747 226.14V231H678.307ZM686.374 220.272C686.05 220.272 685.786 220.176 685.582 219.984C685.39 219.78 685.294 219.516 685.294 219.192C685.294 218.868 685.39 218.61 685.582 218.418C685.786 218.214 686.05 218.112 686.374 218.112C686.698 218.112 686.956 218.214 687.148 218.418C687.352 218.61 687.454 218.868 687.454 219.192C687.454 219.516 687.352 219.78 687.148 219.984C686.956 220.176 686.698 220.272 686.374 220.272ZM687.094 222V231H685.654V222H687.094ZM694.162 221.82C694.786 221.82 695.332 221.916 695.8 222.108C696.28 222.3 696.694 222.576 697.042 222.936C697.39 223.296 697.672 223.722 697.888 224.214L696.52 224.862C696.328 224.286 696.034 223.848 695.638 223.548C695.254 223.236 694.75 223.08 694.126 223.08C693.526 223.08 693.01 223.218 692.578 223.494C692.146 223.758 691.816 224.148 691.588 224.664C691.36 225.168 691.246 225.78 691.246 226.5C691.246 227.208 691.36 227.82 691.588 228.336C691.816 228.852 692.146 229.248 692.578 229.524C693.01 229.788 693.526 229.92 694.126 229.92C694.594 229.92 694.996 229.848 695.332 229.704C695.68 229.56 695.962 229.35 696.178 229.074C696.406 228.798 696.562 228.462 696.646 228.066L697.978 228.534C697.774 229.086 697.492 229.56 697.132 229.956C696.784 230.352 696.358 230.658 695.854 230.874C695.362 231.078 694.798 231.18 694.162 231.18C693.322 231.18 692.572 230.994 691.912 230.622C691.252 230.25 690.736 229.716 690.364 229.02C689.992 228.312 689.806 227.472 689.806 226.5C689.806 225.528 689.992 224.694 690.364 223.998C690.736 223.29 691.252 222.75 691.912 222.378C692.572 222.006 693.322 221.82 694.162 221.82ZM702.632 219.444V228.516C702.632 228.96 702.758 229.29 703.01 229.506C703.262 229.722 703.586 229.83 703.982 229.83C704.33 229.83 704.63 229.77 704.882 229.65C705.134 229.53 705.362 229.368 705.566 229.164L706.07 230.37C705.794 230.622 705.464 230.82 705.08 230.964C704.708 231.108 704.276 231.18 703.784 231.18C703.328 231.18 702.902 231.102 702.506 230.946C702.11 230.778 701.792 230.52 701.552 230.172C701.324 229.812 701.204 229.344 701.192 228.768V219.84L702.632 219.444ZM705.908 222V223.242H699.392V222H705.908ZM711.289 231.18C710.413 231.18 709.603 230.994 708.859 230.622C708.127 230.25 707.563 229.722 707.167 229.038L708.391 228.156C708.655 228.708 709.039 229.14 709.543 229.452C710.059 229.764 710.677 229.92 711.397 229.92C712.033 229.92 712.531 229.8 712.891 229.56C713.251 229.308 713.431 228.984 713.431 228.588C713.431 228.336 713.347 228.108 713.179 227.904C713.023 227.688 712.717 227.532 712.261 227.436L710.101 226.986C709.225 226.806 708.595 226.506 708.211 226.086C707.839 225.666 707.653 225.144 707.653 224.52C707.653 224.028 707.791 223.578 708.067 223.17C708.355 222.762 708.757 222.438 709.273 222.198C709.801 221.946 710.419 221.82 711.127 221.82C712.015 221.82 712.765 221.994 713.377 222.342C713.989 222.69 714.445 223.182 714.745 223.818L713.539 224.61C713.335 224.082 713.005 223.698 712.549 223.458C712.093 223.206 711.619 223.08 711.127 223.08C710.695 223.08 710.323 223.14 710.011 223.26C709.711 223.38 709.477 223.548 709.309 223.764C709.153 223.968 709.075 224.202 709.075 224.466C709.075 224.73 709.165 224.976 709.345 225.204C709.525 225.42 709.861 225.576 710.353 225.672L712.603 226.14C713.443 226.308 714.031 226.584 714.367 226.968C714.703 227.352 714.871 227.82 714.871 228.372C714.871 228.936 714.721 229.434 714.421 229.866C714.121 230.286 713.701 230.61 713.161 230.838C712.621 231.066 711.997 231.18 711.289 231.18ZM718.261 228.84C718.609 228.84 718.891 228.948 719.107 229.164C719.323 229.38 719.431 229.662 719.431 230.01C719.431 230.358 719.323 230.64 719.107 230.856C718.891 231.072 718.609 231.18 718.261 231.18C717.913 231.18 717.631 231.072 717.415 230.856C717.199 230.64 717.091 230.358 717.091 230.01C717.091 229.662 717.199 229.38 717.415 229.164C717.631 228.948 717.913 228.84 718.261 228.84Z" fill="#333333"/>
</svg>
