<svg width="598" height="446" viewBox="0 0 598 446" fill="none" xmlns="http://www.w3.org/2000/svg">
<path d="M598 391.571H0V391.87H598V391.571Z" fill="#EBEBEB"/>
<path d="M538.08 410.814H498.469V411.113H538.08V410.814Z" fill="#EBEBEB"/>
<path d="M396.139 414.066H385.746V414.365H396.139V414.066Z" fill="#EBEBEB"/>
<path d="M497.273 399.714H474.322V400.013H497.273V399.714Z" fill="#EBEBEB"/>
<path d="M114.397 401.722H62.7421V402.021H114.397V401.722Z" fill="#EBEBEB"/>
<path d="M132.625 401.722H125.054V402.021H132.625V401.722Z" fill="#EBEBEB"/>
<path d="M269.28 406.771H157.238V407.07H269.28V406.771Z" fill="#EBEBEB"/>
<path d="M283.452 338.229H52.5163C50.7072 338.226 48.9732 337.505 47.6951 336.224C46.417 334.944 45.6991 333.209 45.6991 331.4V6.76936C45.7148 4.97061 46.4397 3.2507 47.7161 1.98323C48.9925 0.715756 50.7175 0.00308136 52.5163 0H283.452C285.263 0 287 0.719499 288.281 2.00021C289.562 3.28093 290.281 5.01795 290.281 6.82916V331.4C290.281 333.211 289.562 334.948 288.281 336.229C287 337.509 285.263 338.229 283.452 338.229ZM52.5163 0.239201C50.7865 0.242369 49.1286 0.931762 47.9065 2.15606C46.6845 3.38036 45.9981 5.03952 45.9981 6.76936V331.4C45.9981 333.129 46.6845 334.789 47.9065 336.013C49.1286 337.237 50.7865 337.927 52.5163 337.93H283.452C285.183 337.927 286.842 337.238 288.066 336.014C289.29 334.79 289.979 333.131 289.982 331.4V6.76936C289.979 5.03842 289.29 3.37929 288.066 2.15533C286.842 0.931373 285.183 0.242362 283.452 0.239201H52.5163Z" fill="#EBEBEB"/>
<path d="M542.159 338.229H311.211C309.401 338.226 307.666 337.505 306.386 336.225C305.106 334.945 304.385 333.21 304.382 331.4V6.76936C304.401 4.96951 305.128 3.24962 306.407 1.98248C307.685 0.715338 309.411 0.00304775 311.211 0H542.159C543.956 0.00622458 545.677 0.72029 546.951 1.98743C548.225 3.25456 548.948 4.97267 548.964 6.76936V331.4C548.964 333.207 548.248 334.94 546.972 336.22C545.697 337.5 543.966 338.222 542.159 338.229ZM311.211 0.239201C309.48 0.242362 307.821 0.931373 306.597 2.15533C305.373 3.37929 304.684 5.03842 304.681 6.76936V331.4C304.684 333.131 305.373 334.79 306.597 336.014C307.821 337.238 309.48 337.927 311.211 337.93H542.159C543.89 337.927 545.549 337.238 546.773 336.014C547.997 334.79 548.686 333.131 548.689 331.4V6.76936C548.686 5.03842 547.997 3.37929 546.773 2.15533C545.549 0.931373 543.89 0.242362 542.159 0.239201H311.211Z" fill="#EBEBEB"/>
<path d="M470.124 25.3105H121.143V188.588H470.124V25.3105Z" fill="#E6E6E6"/>
<path d="M475.374 25.3105H123.595V188.588H475.374V25.3105Z" fill="#F0F0F0"/>
<path d="M470.124 188.584H121.143V196.908H470.124V188.584Z" fill="#E6E6E6"/>
<path d="M484.129 188.584H132.349V196.908H484.129V188.584Z" fill="#F0F0F0"/>
<path d="M468.019 181.227V32.6719L130.962 32.6719V181.227L468.019 181.227Z" fill="#FAFAFA"/>
<path d="M167.117 181.227L187.604 32.6719H219.574L199.086 181.227H167.117Z" fill="white"/>
<path d="M134.359 173.899C134.219 173.899 134.085 173.844 133.987 173.745C133.888 173.647 133.832 173.513 133.832 173.373V37.4598C133.832 37.3203 133.888 37.1864 133.987 37.0877C134.085 36.989 134.219 36.9336 134.359 36.9336C134.428 36.9336 134.496 36.9472 134.56 36.9737C134.624 37.0001 134.682 37.0389 134.731 37.0877C134.78 37.1366 134.818 37.1946 134.845 37.2585C134.871 37.3223 134.885 37.3907 134.885 37.4598V173.421C134.876 173.553 134.816 173.677 134.718 173.766C134.62 173.855 134.491 173.903 134.359 173.899Z" fill="#F0F0F0"/>
<path d="M205.951 181.227L226.439 32.6719H238.901L218.413 181.227H205.951Z" fill="white"/>
<path d="M468.019 181.227V32.6719H467.086V181.227H468.019Z" fill="#E6E6E6"/>
<path opacity="0.6" d="M477.108 43.7736H128.139L127.458 35.5332H476.439L477.108 43.7736Z" fill="#EBEBEB"/>
<path opacity="0.6" d="M477.108 57.2766H128.139L127.458 49.0361H476.439L477.108 57.2766Z" fill="#EBEBEB"/>
<path opacity="0.6" d="M477.108 70.7912H128.139L127.458 62.5508H476.439L477.108 70.7912Z" fill="#EBEBEB"/>
<path opacity="0.6" d="M477.108 84.2942H128.139L127.458 76.0537H476.439L477.108 84.2942Z" fill="#EBEBEB"/>
<path opacity="0.6" d="M477.108 97.8108H128.139L127.458 89.5703H476.439L477.108 97.8108Z" fill="#EBEBEB"/>
<path opacity="0.6" d="M477.108 111.314H128.139L127.458 103.073H476.439L477.108 111.314Z" fill="#EBEBEB"/>
<path d="M525.044 229.634H471.786V391.572H525.044V229.634Z" fill="#E6E6E6"/>
<path d="M510.824 391.571H525.044V369.218H495.91L510.824 391.571Z" fill="#FAFAFA"/>
<path d="M379.838 229.634H326.58V391.572H379.838V229.634Z" fill="#E6E6E6"/>
<path d="M525.044 229.634H367.423V383.882H525.044V229.634Z" fill="#FAFAFA"/>
<path d="M381.644 391.571H367.423V369.218H396.558L381.644 391.571Z" fill="#FAFAFA"/>
<path d="M514.005 287.109H378.45V325.704H514.005V287.109Z" fill="#F0F0F0"/>
<path d="M514.005 333.961H378.45V372.556H514.005V333.961Z" fill="#F0F0F0"/>
<path d="M399.751 283.765H492.752V285.642C492.752 287.124 492.164 288.544 491.116 289.592C490.069 290.639 488.648 291.228 487.167 291.228H405.348C403.867 291.228 402.446 290.639 401.399 289.592C400.351 288.544 399.763 287.124 399.763 285.642V283.765H399.751Z" fill="#FAFAFA"/>
<path d="M514.005 240.253H378.45V278.848H514.005V240.253Z" fill="#F0F0F0"/>
<path d="M399.751 236.917H492.752V238.795C492.752 240.276 492.164 241.697 491.116 242.744C490.069 243.792 488.648 244.38 487.167 244.38H405.348C403.867 244.38 402.446 243.792 401.399 242.744C400.351 241.697 399.763 240.276 399.763 238.795V236.917H399.751Z" fill="#FAFAFA"/>
<path d="M399.751 330.608H492.752V332.486C492.752 333.967 492.164 335.388 491.116 336.436C490.069 337.483 488.648 338.071 487.167 338.071H405.348C403.867 338.071 402.446 337.483 401.399 336.436C400.351 335.388 399.763 333.967 399.763 332.486V330.608H399.751Z" fill="#FAFAFA"/>
<path d="M212.697 314.094H170.585V391.571H212.697V314.094Z" fill="#E0E0E0"/>
<path d="M320.026 391.568H179.029L164.211 286.439H305.207L320.026 391.568Z" fill="#E6E6E6"/>
<path d="M340.597 391.568H184.627L169.82 286.439H325.778L340.597 391.568Z" fill="#F0F0F0"/>
<path d="M199.887 375.136L187.413 302.874H310.517L322.992 375.136H199.887Z" fill="white"/>
<path d="M252.787 375.136L210.951 302.874H224.071L265.919 375.136H252.787Z" fill="#FAFAFA"/>
<path d="M271.48 375.136L229.632 302.874H252.021L293.857 375.136H271.48Z" fill="#FAFAFA"/>
<path d="M299 445.582C427.071 445.582 530.893 439.521 530.893 432.044C530.893 424.566 427.071 418.505 299 418.505C170.929 418.505 67.1077 424.566 67.1077 432.044C67.1077 439.521 170.929 445.582 299 445.582Z" fill="#F5F5F5"/>
<path d="M170.111 195.66C169.982 195.66 169.858 195.613 169.763 195.526C169.668 195.44 169.609 195.321 169.597 195.193L166.942 163.26C166.935 163.131 166.978 163.004 167.063 162.906C167.148 162.808 167.267 162.746 167.396 162.734C167.531 162.724 167.664 162.767 167.767 162.854C167.87 162.942 167.934 163.066 167.946 163.2L170.601 195.133C170.611 195.268 170.568 195.401 170.481 195.504C170.393 195.607 170.269 195.671 170.135 195.684L170.111 195.66Z" fill="#006600"/>
<path d="M171.69 214.629C171.561 214.63 171.437 214.582 171.342 214.496C171.247 214.409 171.187 214.29 171.175 214.163L170.374 204.499C170.367 204.432 170.374 204.364 170.394 204.3C170.415 204.236 170.447 204.176 170.491 204.125C170.534 204.074 170.588 204.032 170.648 204.001C170.708 203.971 170.773 203.953 170.84 203.949C170.907 203.942 170.975 203.949 171.039 203.969C171.103 203.989 171.163 204.022 171.214 204.065C171.266 204.109 171.308 204.162 171.338 204.222C171.368 204.282 171.386 204.348 171.391 204.415L172.192 214.079C172.202 214.213 172.159 214.346 172.071 214.449C171.984 214.552 171.86 214.617 171.725 214.629H171.69Z" fill="#006600"/>
<path d="M440.754 305.5H193.804C190.692 305.439 187.711 304.239 185.426 302.127C183.14 300.016 181.708 297.139 181.401 294.042L167.492 126.853C167.343 125.393 167.505 123.918 167.967 122.524C168.429 121.131 169.181 119.852 170.173 118.769C171.164 117.687 172.374 116.827 173.722 116.246C175.069 115.664 176.525 115.375 177.993 115.396H424.931C428.043 115.456 431.026 116.656 433.313 118.767C435.601 120.879 437.036 123.756 437.345 126.853L451.255 294.018C451.405 295.48 451.244 296.957 450.783 298.352C450.322 299.748 449.571 301.03 448.579 302.114C447.587 303.198 446.377 304.061 445.029 304.644C443.68 305.228 442.223 305.519 440.754 305.5Z" fill="white"/>
<path d="M440.754 305.979H193.804C190.571 305.926 187.471 304.685 185.095 302.492C182.719 300.299 181.234 297.309 180.923 294.09L167.013 126.914C166.873 125.388 167.052 123.85 167.54 122.398C168.029 120.947 168.814 119.612 169.848 118.482C170.876 117.344 172.133 116.436 173.537 115.817C174.94 115.199 176.459 114.884 177.993 114.894H424.931C428.177 114.945 431.289 116.195 433.669 118.403C436.049 120.611 437.529 123.621 437.824 126.854L451.721 294.019C451.875 295.543 451.704 297.083 451.221 298.537C450.738 299.991 449.953 301.326 448.917 302.456C447.881 303.585 446.619 304.483 445.212 305.09C443.805 305.697 442.286 306 440.754 305.979ZM177.993 115.898C176.589 115.876 175.196 116.151 173.906 116.706C172.617 117.261 171.459 118.084 170.511 119.119C169.563 120.154 168.845 121.379 168.405 122.712C167.965 124.046 167.812 125.457 167.958 126.854L181.868 294.007C182.163 296.99 183.545 299.76 185.75 301.791C187.956 303.822 190.83 304.972 193.828 305.022H440.754C442.154 305.043 443.544 304.767 444.83 304.212C446.116 303.658 447.271 302.837 448.217 301.805C449.164 300.772 449.882 299.551 450.323 298.221C450.764 296.892 450.918 295.484 450.776 294.09L436.867 126.914C436.573 123.929 435.192 121.157 432.987 119.126C430.781 117.095 427.905 115.946 424.907 115.898H177.993Z" fill="#006600"/>
<path d="M424.931 115.419H177.993C176.527 115.398 175.074 115.687 173.728 116.268C172.382 116.848 171.174 117.705 170.182 118.785C169.191 119.864 168.439 121.141 167.975 122.531C167.511 123.922 167.347 125.394 167.492 126.853H437.345C437.03 123.759 435.593 120.888 433.306 118.782C431.019 116.675 428.04 115.479 424.931 115.419Z" fill="#006600"/>
<path d="M183.769 121.149C183.803 121.464 183.77 121.783 183.671 122.084C183.573 122.385 183.411 122.662 183.197 122.896C182.984 123.13 182.723 123.316 182.431 123.442C182.14 123.567 181.826 123.63 181.509 123.624C180.837 123.61 180.194 123.351 179.7 122.894C179.206 122.438 178.897 121.817 178.83 121.149C178.798 120.834 178.833 120.516 178.932 120.215C179.031 119.915 179.193 119.639 179.406 119.405C179.62 119.172 179.88 118.986 180.17 118.859C180.46 118.733 180.774 118.67 181.09 118.673C181.764 118.682 182.41 118.94 182.905 119.397C183.399 119.854 183.707 120.478 183.769 121.149Z" fill="white"/>
<path d="M193.816 121.149C193.85 121.464 193.816 121.783 193.718 122.084C193.619 122.385 193.457 122.662 193.244 122.896C193.03 123.13 192.769 123.316 192.478 123.442C192.187 123.567 191.872 123.63 191.555 123.624C190.892 123.599 190.26 123.334 189.776 122.879C189.293 122.424 188.99 121.809 188.924 121.149C188.892 120.834 188.927 120.516 189.026 120.215C189.126 119.915 189.287 119.639 189.501 119.405C189.714 119.172 189.974 118.986 190.264 118.859C190.555 118.733 190.868 118.67 191.185 118.673C191.85 118.694 192.484 118.957 192.969 119.413C193.454 119.869 193.755 120.486 193.816 121.149Z" fill="white"/>
<path d="M203.862 121.149C203.896 121.464 203.863 121.783 203.764 122.084C203.665 122.385 203.504 122.662 203.29 122.896C203.076 123.13 202.815 123.316 202.524 123.442C202.233 123.567 201.919 123.63 201.602 123.624C200.93 123.61 200.286 123.351 199.793 122.894C199.299 122.438 198.99 121.817 198.923 121.149C198.891 120.834 198.925 120.516 199.025 120.215C199.124 119.915 199.286 119.639 199.499 119.405C199.713 119.172 199.973 118.986 200.263 118.859C200.553 118.733 200.867 118.67 201.183 118.673C201.857 118.682 202.503 118.94 202.998 119.397C203.492 119.854 203.8 120.478 203.862 121.149Z" fill="white"/>
<path d="M419.322 283.588H211.648C209.175 283.542 206.804 282.59 204.985 280.912C203.167 279.235 202.027 276.949 201.781 274.487L192.022 157.948C191.905 156.786 192.036 155.612 192.405 154.504C192.775 153.396 193.375 152.379 194.166 151.519C194.956 150.659 195.92 149.977 196.994 149.516C198.067 149.056 199.226 148.827 200.394 148.847H408.103C410.577 148.893 412.948 149.845 414.766 151.523C416.585 153.2 417.725 155.487 417.97 157.948L427.67 274.546C427.777 275.702 427.64 276.867 427.268 277.966C426.896 279.066 426.297 280.074 425.51 280.927C424.723 281.78 423.765 282.457 422.699 282.916C421.633 283.374 420.482 283.603 419.322 283.588Z" fill="#F0F0F0"/>
<path opacity="0.1" d="M355.072 169.206L290.728 246.683C288.705 249.116 287.344 252.029 286.775 255.141C286.207 258.253 286.45 261.459 287.481 264.45C288.513 267.441 290.298 270.116 292.664 272.216C295.03 274.316 297.897 275.77 300.989 276.44L405.4 299.008C408.666 299.716 412.063 299.522 415.226 298.447C418.39 297.371 421.201 295.455 423.359 292.903C425.516 290.351 426.938 287.26 427.472 283.962C428.006 280.663 427.632 277.281 426.39 274.179L386.36 174.122C385.177 171.153 383.242 168.543 380.745 166.549C378.247 164.555 375.274 163.245 372.117 162.749C368.96 162.253 365.728 162.588 362.739 163.72C359.751 164.852 357.108 166.743 355.072 169.206Z" fill="#263238"/>
<path opacity="0.1" d="M211.839 180.066L189.426 240.476C188.755 242.32 188.562 244.305 188.864 246.244C189.167 248.183 189.956 250.014 191.157 251.566C192.358 253.119 193.933 254.341 195.734 255.121C197.535 255.9 199.504 256.211 201.458 256.024L266.915 249.602C268.998 249.398 270.988 248.636 272.674 247.396C274.359 246.156 275.679 244.484 276.494 242.556C277.308 240.628 277.587 238.516 277.301 236.443C277.015 234.369 276.175 232.412 274.869 230.777L231.813 176.837C230.526 175.231 228.837 173.996 226.917 173.257C224.997 172.518 222.916 172.301 220.885 172.629C218.854 172.958 216.947 173.819 215.357 175.126C213.768 176.432 212.554 178.137 211.839 180.066Z" fill="#263238"/>
<path d="M377.27 149.695L317.111 237.003C315.232 239.73 314.085 242.894 313.778 246.191C313.472 249.488 314.017 252.809 315.361 255.836C316.705 258.863 318.803 261.494 321.455 263.478C324.107 265.461 327.223 266.731 330.506 267.166L441.089 281.889C444.566 282.352 448.105 281.861 451.325 280.468C454.545 279.075 457.326 276.833 459.371 273.982C461.415 271.131 462.645 267.777 462.931 264.28C463.216 260.783 462.545 257.275 460.99 254.13L410.567 152.063C409.07 149.039 406.809 146.459 404.007 144.579C401.206 142.699 397.962 141.584 394.596 141.345C391.231 141.105 387.862 141.75 384.822 143.215C381.783 144.679 379.18 146.913 377.27 149.695Z" fill="#006600"/>
<path d="M333.126 259.373C331.129 259.101 329.23 258.34 327.598 257.157C325.966 255.974 324.652 254.406 323.773 252.592C322.867 250.877 322.441 248.95 322.54 247.013C322.639 245.076 323.259 243.202 324.335 241.588L384.65 154.017C385.74 152.455 387.248 151.232 389.002 150.487C390.755 149.743 392.683 149.507 394.564 149.807C396.562 150.077 398.462 150.837 400.094 152.021C401.727 153.204 403.04 154.774 403.917 156.589L454.436 258.907C455.342 260.621 455.769 262.549 455.67 264.486C455.571 266.422 454.95 268.296 453.874 269.91C452.786 271.475 451.279 272.702 449.525 273.448C447.771 274.195 445.842 274.432 443.959 274.132L333.126 259.373Z" fill="white"/>
<path d="M389.433 180.757L396.478 181.689C398.68 182 400.691 183.111 402.127 184.809C403.563 186.508 404.324 188.675 404.264 190.899L403.785 200.084C403.774 200.417 403.738 200.749 403.678 201.077L398.667 228.764C398.308 230.672 397.218 232.365 395.63 233.482C394.042 234.599 392.08 235.052 390.163 234.744C388.128 234.455 386.251 233.485 384.837 231.993C383.424 230.501 382.556 228.575 382.377 226.527L380.356 197.919C380.332 197.589 380.332 197.257 380.356 196.926L380.822 187.729C380.873 186.684 381.143 185.662 381.616 184.729C382.089 183.796 382.754 182.973 383.567 182.315C384.38 181.657 385.323 181.178 386.334 180.909C387.345 180.641 388.401 180.589 389.433 180.757ZM388.871 242.422L390.785 242.673C392.756 242.952 394.556 243.945 395.842 245.465C397.127 246.984 397.809 248.924 397.758 250.914C397.716 251.852 397.476 252.771 397.053 253.61C396.631 254.449 396.036 255.19 395.308 255.782C394.579 256.375 393.734 256.808 392.826 257.051C391.919 257.294 390.971 257.342 390.043 257.193L388.13 256.93C386.16 256.654 384.36 255.663 383.074 254.145C381.788 252.628 381.106 250.69 381.157 248.701C381.197 247.762 381.436 246.842 381.858 246.002C382.279 245.162 382.874 244.421 383.603 243.828C384.332 243.235 385.178 242.803 386.086 242.56C386.995 242.318 387.944 242.271 388.871 242.422Z" fill="#006600"/>
<path d="M234.97 163.048L218.453 225.682C217.955 227.585 217.948 229.584 218.433 231.491C218.918 233.397 219.879 235.15 221.226 236.584C222.573 238.018 224.261 239.087 226.134 239.69C228.006 240.294 230.002 240.412 231.932 240.034L296.002 227.536C298.035 227.13 299.922 226.189 301.469 224.809C303.015 223.428 304.165 221.66 304.798 219.686C305.431 217.712 305.525 215.605 305.07 213.583C304.614 211.561 303.627 209.697 302.209 208.185L254.704 158.012C253.279 156.498 251.475 155.394 249.479 154.813C247.482 154.233 245.367 154.198 243.353 154.712C241.338 155.226 239.498 156.27 238.024 157.736C236.55 159.202 235.495 161.036 234.97 163.048Z" fill="#006600"/>
<path d="M231.801 234.986C230.624 235.199 229.413 235.111 228.28 234.731C227.146 234.35 226.128 233.689 225.318 232.81C224.483 231.962 223.88 230.914 223.566 229.767C223.251 228.619 223.237 227.41 223.524 226.256L240.077 163.454C240.364 162.356 240.957 161.363 241.787 160.59C242.617 159.817 243.65 159.296 244.765 159.088C245.943 158.878 247.154 158.968 248.287 159.351C249.42 159.733 250.439 160.396 251.248 161.277L298.92 211.509C299.756 212.356 300.361 213.403 300.678 214.551C300.994 215.698 301.011 216.907 300.726 218.063C300.437 219.158 299.843 220.149 299.013 220.919C298.183 221.69 297.151 222.209 296.038 222.416L231.801 234.986Z" fill="white"/>
<path d="M247.875 178.196L251.953 177.394C253.27 177.182 254.619 177.464 255.741 178.186C256.862 178.907 257.677 180.019 258.029 181.305L259.488 186.771C259.543 186.972 259.587 187.175 259.62 187.381L262.215 204.591C262.417 205.75 262.154 206.942 261.482 207.907C260.81 208.872 259.784 209.533 258.627 209.746C257.414 209.947 256.168 209.727 255.098 209.122C254.027 208.518 253.196 207.564 252.743 206.421L246.117 190.06C246.036 189.869 245.968 189.673 245.913 189.474L244.407 183.996C244.211 183.387 244.147 182.744 244.219 182.108C244.292 181.472 244.499 180.86 244.828 180.311C245.156 179.762 245.598 179.289 246.123 178.924C246.649 178.56 247.246 178.311 247.875 178.196ZM259.416 214.41L260.529 214.195C261.708 213.991 262.921 214.236 263.929 214.883C264.936 215.529 265.665 216.53 265.97 217.687C266.139 218.226 266.192 218.795 266.126 219.356C266.06 219.917 265.877 220.457 265.588 220.943C265.299 221.428 264.911 221.847 264.449 222.172C263.988 222.497 263.463 222.722 262.909 222.83L261.796 223.046C260.618 223.25 259.407 223.007 258.399 222.363C257.392 221.718 256.663 220.72 256.355 219.565C256.186 219.025 256.133 218.456 256.199 217.895C256.264 217.333 256.448 216.792 256.736 216.305C257.025 215.819 257.413 215.399 257.875 215.073C258.336 214.746 258.862 214.521 259.416 214.41Z" fill="#006600"/>
</svg>
