<svg width="938" height="560" viewBox="0 0 938 560" fill="none" xmlns="http://www.w3.org/2000/svg">
<rect width="790" height="62" rx="6" fill="#006600"/>
<path d="M182.135 21.2V33.2C182.135 35.9 181.415 37.93 179.975 39.29C178.535 40.63 176.435 41.3 173.675 41.3C170.915 41.3 168.815 40.63 167.375 39.29C165.935 37.93 165.215 35.9 165.215 33.2V21.2H169.355V33.02C169.355 34.68 169.705 35.91 170.405 36.71C171.125 37.51 172.215 37.91 173.675 37.91C175.135 37.91 176.215 37.51 176.915 36.71C177.615 35.91 177.965 34.68 177.965 33.02V21.2H182.135ZM191.794 21.41V36.11C191.794 36.83 191.974 37.36 192.334 37.7C192.714 38.02 193.224 38.18 193.864 38.18C194.384 38.18 194.824 38.11 195.184 37.97C195.564 37.81 195.904 37.6 196.204 37.34L196.864 40.07C196.384 40.45 195.784 40.75 195.064 40.97C194.344 41.19 193.584 41.3 192.784 41.3C191.784 41.3 190.894 41.15 190.114 40.85C189.354 40.55 188.754 40.07 188.314 39.41C187.894 38.75 187.684 37.87 187.684 36.77V22.55L191.794 21.41ZM196.594 26V29.06H184.924V26H196.594ZM203.279 21.41V36.11C203.279 36.83 203.459 37.36 203.819 37.7C204.199 38.02 204.709 38.18 205.349 38.18C205.869 38.18 206.309 38.11 206.669 37.97C207.049 37.81 207.389 37.6 207.689 37.34L208.349 40.07C207.869 40.45 207.269 40.75 206.549 40.97C205.829 41.19 205.069 41.3 204.269 41.3C203.269 41.3 202.379 41.15 201.599 40.85C200.839 40.55 200.239 40.07 199.799 39.41C199.379 38.75 199.169 37.87 199.169 36.77V22.55L203.279 21.41ZM208.079 26V29.06H196.409V26H208.079ZM219.556 31.43C219.556 30.57 219.306 29.9 218.806 29.42C218.326 28.94 217.686 28.7 216.886 28.7C216.146 28.7 215.496 28.89 214.936 29.27C214.376 29.65 213.966 30.28 213.706 31.16L210.196 30.08C210.536 28.76 211.276 27.7 212.416 26.9C213.576 26.1 215.126 25.7 217.066 25.7C218.386 25.7 219.536 25.91 220.516 26.33C221.496 26.73 222.256 27.34 222.796 28.16C223.356 28.98 223.636 30.01 223.636 31.25V37.34C223.636 38.1 223.996 38.48 224.716 38.48C225.056 38.48 225.376 38.43 225.676 38.33L225.436 40.88C224.916 41.14 224.266 41.27 223.486 41.27C222.786 41.27 222.156 41.15 221.596 40.91C221.036 40.67 220.596 40.31 220.276 39.83C219.956 39.33 219.796 38.71 219.796 37.97V37.85L220.516 37.73C220.396 38.49 220.066 39.14 219.526 39.68C218.986 40.2 218.326 40.6 217.546 40.88C216.786 41.16 215.996 41.3 215.176 41.3C214.156 41.3 213.276 41.15 212.536 40.85C211.796 40.53 211.226 40.07 210.826 39.47C210.426 38.87 210.226 38.13 210.226 37.25C210.226 36.13 210.586 35.22 211.306 34.52C212.026 33.8 213.056 33.31 214.396 33.05L220.036 31.91L220.006 34.46L216.406 35.18C215.726 35.32 215.206 35.51 214.846 35.75C214.506 35.97 214.336 36.34 214.336 36.86C214.336 37.36 214.516 37.74 214.876 38C215.256 38.26 215.706 38.39 216.226 38.39C216.646 38.39 217.056 38.34 217.456 38.24C217.856 38.14 218.216 37.98 218.536 37.76C218.856 37.54 219.106 37.24 219.286 36.86C219.466 36.48 219.556 36.02 219.556 35.48V31.43ZM228.232 41V26H231.802L232.072 28.94C232.472 27.9 233.052 27.1 233.812 26.54C234.592 25.98 235.562 25.7 236.722 25.7C237.062 25.7 237.372 25.73 237.652 25.79C237.932 25.85 238.162 25.93 238.342 26.03L237.862 29.48C237.662 29.4 237.412 29.34 237.112 29.3C236.832 29.26 236.462 29.24 236.002 29.24C235.402 29.24 234.822 29.39 234.262 29.69C233.702 29.97 233.242 30.41 232.882 31.01C232.522 31.59 232.342 32.33 232.342 33.23V41H228.232ZM258.261 21.2C259.781 21.2 261.081 21.46 262.161 21.98C263.241 22.48 264.071 23.21 264.651 24.17C265.251 25.11 265.551 26.25 265.551 27.59C265.551 28.93 265.251 30.08 264.651 31.04C264.071 31.98 263.241 32.71 262.161 33.23C261.081 33.73 259.781 33.98 258.261 33.98H254.091V41H249.951V21.2H258.261ZM257.631 30.71C258.871 30.71 259.801 30.45 260.421 29.93C261.041 29.39 261.351 28.61 261.351 27.59C261.351 26.55 261.041 25.77 260.421 25.25C259.801 24.73 258.871 24.47 257.631 24.47H254.091V30.71H257.631ZM268.926 41V26H272.496L272.766 28.94C273.166 27.9 273.746 27.1 274.506 26.54C275.286 25.98 276.256 25.7 277.416 25.7C277.756 25.7 278.066 25.73 278.346 25.79C278.626 25.85 278.856 25.93 279.036 26.03L278.556 29.48C278.356 29.4 278.106 29.34 277.806 29.3C277.526 29.26 277.156 29.24 276.696 29.24C276.096 29.24 275.516 29.39 274.956 29.69C274.396 29.97 273.936 30.41 273.576 31.01C273.216 31.59 273.036 32.33 273.036 33.23V41H268.926ZM289.868 31.43C289.868 30.57 289.618 29.9 289.118 29.42C288.638 28.94 287.998 28.7 287.198 28.7C286.458 28.7 285.808 28.89 285.248 29.27C284.688 29.65 284.278 30.28 284.018 31.16L280.508 30.08C280.848 28.76 281.588 27.7 282.728 26.9C283.888 26.1 285.438 25.7 287.378 25.7C288.698 25.7 289.848 25.91 290.828 26.33C291.808 26.73 292.568 27.34 293.108 28.16C293.668 28.98 293.948 30.01 293.948 31.25V37.34C293.948 38.1 294.308 38.48 295.028 38.48C295.368 38.48 295.688 38.43 295.988 38.33L295.748 40.88C295.228 41.14 294.578 41.27 293.798 41.27C293.098 41.27 292.468 41.15 291.908 40.91C291.348 40.67 290.908 40.31 290.588 39.83C290.268 39.33 290.108 38.71 290.108 37.97V37.85L290.828 37.73C290.708 38.49 290.378 39.14 289.838 39.68C289.298 40.2 288.638 40.6 287.858 40.88C287.098 41.16 286.308 41.3 285.488 41.3C284.468 41.3 283.588 41.15 282.848 40.85C282.108 40.53 281.538 40.07 281.138 39.47C280.738 38.87 280.538 38.13 280.538 37.25C280.538 36.13 280.898 35.22 281.618 34.52C282.338 33.8 283.368 33.31 284.708 33.05L290.348 31.91L290.318 34.46L286.718 35.18C286.038 35.32 285.518 35.51 285.158 35.75C284.818 35.97 284.648 36.34 284.648 36.86C284.648 37.36 284.828 37.74 285.188 38C285.568 38.26 286.018 38.39 286.538 38.39C286.958 38.39 287.368 38.34 287.768 38.24C288.168 38.14 288.528 37.98 288.848 37.76C289.168 37.54 289.418 37.24 289.598 36.86C289.778 36.48 289.868 36.02 289.868 35.48V31.43ZM304.156 41.3C302.916 41.3 301.806 40.99 300.826 40.37C299.866 39.75 299.106 38.86 298.546 37.7C298.006 36.54 297.736 35.15 297.736 33.53C297.736 31.87 298.026 30.46 298.606 29.3C299.186 28.12 299.966 27.23 300.946 26.63C301.946 26.01 303.066 25.7 304.306 25.7C305.626 25.7 306.716 26.08 307.576 26.84C308.436 27.6 308.996 28.58 309.256 29.78L308.866 30.26V19.43H312.976V41H309.286L309.016 36.44L309.496 36.68C309.376 37.62 309.066 38.44 308.566 39.14C308.066 39.82 307.436 40.35 306.676 40.73C305.916 41.11 305.076 41.3 304.156 41.3ZM305.356 38.15C306.076 38.15 306.696 37.97 307.216 37.61C307.736 37.23 308.136 36.68 308.416 35.96C308.716 35.24 308.866 34.38 308.866 33.38C308.866 32.42 308.726 31.61 308.446 30.95C308.166 30.27 307.766 29.75 307.246 29.39C306.726 29.03 306.116 28.85 305.416 28.85C304.296 28.85 303.416 29.25 302.776 30.05C302.156 30.83 301.846 31.98 301.846 33.5C301.846 35.02 302.156 36.18 302.776 36.98C303.396 37.76 304.256 38.15 305.356 38.15ZM324.255 41.3C322.675 41.3 321.295 40.99 320.115 40.37C318.955 39.75 318.055 38.86 317.415 37.7C316.775 36.54 316.455 35.14 316.455 33.5C316.455 31.86 316.775 30.46 317.415 29.3C318.055 28.14 318.945 27.25 320.085 26.63C321.245 26.01 322.565 25.7 324.045 25.7C325.565 25.7 326.855 26.01 327.915 26.63C328.975 27.23 329.785 28.06 330.345 29.12C330.905 30.16 331.185 31.35 331.185 32.69C331.185 33.09 331.175 33.47 331.155 33.83C331.135 34.19 331.105 34.51 331.065 34.79H319.095V31.94H329.265L327.285 32.66C327.285 31.4 326.995 30.43 326.415 29.75C325.855 29.07 325.055 28.73 324.015 28.73C323.255 28.73 322.595 28.91 322.035 29.27C321.495 29.63 321.085 30.17 320.805 30.89C320.525 31.59 320.385 32.48 320.385 33.56C320.385 34.62 320.535 35.5 320.835 36.2C321.155 36.88 321.595 37.39 322.155 37.73C322.735 38.07 323.425 38.24 324.225 38.24C325.105 38.24 325.815 38.07 326.355 37.73C326.895 37.39 327.315 36.92 327.615 36.32L330.885 37.58C330.565 38.36 330.075 39.03 329.415 39.59C328.775 40.15 328.005 40.58 327.105 40.88C326.225 41.16 325.275 41.3 324.255 41.3ZM340.668 41.3C339.148 41.3 337.758 41.03 336.498 40.49C335.258 39.95 334.248 39.19 333.468 38.21L335.838 35.81C336.318 36.53 336.958 37.12 337.758 37.58C338.558 38.04 339.508 38.27 340.608 38.27C341.388 38.27 342.008 38.16 342.468 37.94C342.948 37.7 343.188 37.33 343.188 36.83C343.188 36.51 343.078 36.24 342.858 36.02C342.638 35.78 342.198 35.59 341.538 35.45L338.898 34.91C337.158 34.55 335.918 34.01 335.178 33.29C334.458 32.55 334.098 31.6 334.098 30.44C334.098 29.62 334.338 28.85 334.818 28.13C335.318 27.41 336.058 26.83 337.038 26.39C338.018 25.93 339.238 25.7 340.698 25.7C342.198 25.7 343.498 25.94 344.598 26.42C345.718 26.88 346.598 27.57 347.238 28.49L344.778 30.89C344.338 30.19 343.758 29.66 343.038 29.3C342.338 28.92 341.598 28.73 340.818 28.73C340.258 28.73 339.778 28.79 339.378 28.91C338.978 29.03 338.678 29.2 338.478 29.42C338.278 29.62 338.178 29.88 338.178 30.2C338.178 30.52 338.318 30.8 338.598 31.04C338.878 31.26 339.388 31.45 340.128 31.61L343.188 32.24C344.668 32.54 345.728 33.05 346.368 33.77C347.008 34.47 347.328 35.32 347.328 36.32C347.328 37.28 347.068 38.14 346.548 38.9C346.048 39.64 345.298 40.23 344.298 40.67C343.318 41.09 342.108 41.3 340.668 41.3ZM350.605 41V19.43H354.715V28.55C355.195 27.59 355.855 26.88 356.695 26.42C357.535 25.94 358.485 25.7 359.545 25.7C360.585 25.7 361.505 25.9 362.305 26.3C363.125 26.7 363.765 27.31 364.225 28.13C364.705 28.93 364.945 29.94 364.945 31.16V41H360.835V32.36C360.835 31.06 360.585 30.17 360.085 29.69C359.585 29.19 358.945 28.94 358.165 28.94C357.585 28.94 357.025 29.08 356.485 29.36C355.965 29.62 355.535 30.06 355.195 30.68C354.875 31.28 354.715 32.08 354.715 33.08V41H350.605ZM384.919 18.77L386.959 20.75C385.759 21.83 384.789 22.98 384.049 24.2C383.309 25.4 382.769 26.7 382.429 28.1C382.109 29.5 381.949 31.04 381.949 32.72C381.949 34.4 382.109 35.95 382.429 37.37C382.769 38.77 383.309 40.07 384.049 41.27C384.789 42.47 385.759 43.62 386.959 44.72L384.919 46.73C382.699 45.07 381.009 43.07 379.849 40.73C378.709 38.39 378.139 35.72 378.139 32.72C378.139 29.74 378.709 27.08 379.849 24.74C381.009 22.38 382.699 20.39 384.919 18.77ZM396.781 20.9C398.581 20.9 400.161 21.21 401.521 21.83C402.881 22.45 404.041 23.37 405.001 24.59L402.691 27.26C401.871 26.22 400.971 25.46 399.991 24.98C399.031 24.48 397.911 24.23 396.631 24.23C395.791 24.23 395.091 24.34 394.531 24.56C393.991 24.78 393.591 25.07 393.331 25.43C393.091 25.79 392.971 26.19 392.971 26.63C392.971 27.17 393.181 27.63 393.601 28.01C394.021 28.37 394.741 28.67 395.761 28.91L399.451 29.75C401.411 30.19 402.811 30.85 403.651 31.73C404.511 32.59 404.941 33.71 404.941 35.09C404.941 36.39 404.601 37.51 403.921 38.45C403.241 39.37 402.291 40.08 401.071 40.58C399.851 41.06 398.451 41.3 396.871 41.3C395.491 41.3 394.221 41.14 393.061 40.82C391.921 40.48 390.901 40.02 390.001 39.44C389.101 38.86 388.351 38.19 387.751 37.43L390.091 34.64C390.551 35.28 391.121 35.85 391.801 36.35C392.481 36.85 393.251 37.25 394.111 37.55C394.991 37.83 395.911 37.97 396.871 37.97C397.691 37.97 398.381 37.88 398.941 37.7C399.521 37.5 399.951 37.23 400.231 36.89C400.531 36.53 400.681 36.1 400.681 35.6C400.681 35.08 400.501 34.64 400.141 34.28C399.801 33.9 399.161 33.61 398.221 33.41L394.201 32.51C393.041 32.23 392.041 31.87 391.201 31.43C390.381 30.97 389.751 30.39 389.311 29.69C388.891 28.97 388.681 28.12 388.681 27.14C388.681 25.96 389.001 24.9 389.641 23.96C390.281 23.02 391.201 22.28 392.401 21.74C393.621 21.18 395.081 20.9 396.781 20.9ZM413.747 21.41V36.11C413.747 36.83 413.927 37.36 414.287 37.7C414.667 38.02 415.177 38.18 415.817 38.18C416.337 38.18 416.777 38.11 417.137 37.97C417.517 37.81 417.857 37.6 418.157 37.34L418.817 40.07C418.337 40.45 417.737 40.75 417.017 40.97C416.297 41.19 415.537 41.3 414.737 41.3C413.737 41.3 412.847 41.15 412.067 40.85C411.307 40.55 410.707 40.07 410.267 39.41C409.847 38.75 409.637 37.87 409.637 36.77V22.55L413.747 21.41ZM418.547 26V29.06H406.877V26H418.547ZM430.024 31.43C430.024 30.57 429.774 29.9 429.274 29.42C428.794 28.94 428.154 28.7 427.354 28.7C426.614 28.7 425.964 28.89 425.404 29.27C424.844 29.65 424.434 30.28 424.174 31.16L420.664 30.08C421.004 28.76 421.744 27.7 422.884 26.9C424.044 26.1 425.594 25.7 427.534 25.7C428.854 25.7 430.004 25.91 430.984 26.33C431.964 26.73 432.724 27.34 433.264 28.16C433.824 28.98 434.104 30.01 434.104 31.25V37.34C434.104 38.1 434.464 38.48 435.184 38.48C435.524 38.48 435.844 38.43 436.144 38.33L435.904 40.88C435.384 41.14 434.734 41.27 433.954 41.27C433.254 41.27 432.624 41.15 432.064 40.91C431.504 40.67 431.064 40.31 430.744 39.83C430.424 39.33 430.264 38.71 430.264 37.97V37.85L430.984 37.73C430.864 38.49 430.534 39.14 429.994 39.68C429.454 40.2 428.794 40.6 428.014 40.88C427.254 41.16 426.464 41.3 425.644 41.3C424.624 41.3 423.744 41.15 423.004 40.85C422.264 40.53 421.694 40.07 421.294 39.47C420.894 38.87 420.694 38.13 420.694 37.25C420.694 36.13 421.054 35.22 421.774 34.52C422.494 33.8 423.524 33.31 424.864 33.05L430.504 31.91L430.474 34.46L426.874 35.18C426.194 35.32 425.674 35.51 425.314 35.75C424.974 35.97 424.804 36.34 424.804 36.86C424.804 37.36 424.984 37.74 425.344 38C425.724 38.26 426.174 38.39 426.694 38.39C427.114 38.39 427.524 38.34 427.924 38.24C428.324 38.14 428.684 37.98 429.004 37.76C429.324 37.54 429.574 37.24 429.754 36.86C429.934 36.48 430.024 36.02 430.024 35.48V31.43ZM443.425 21.41V36.11C443.425 36.83 443.605 37.36 443.965 37.7C444.345 38.02 444.855 38.18 445.495 38.18C446.015 38.18 446.455 38.11 446.815 37.97C447.195 37.81 447.535 37.6 447.835 37.34L448.495 40.07C448.015 40.45 447.415 40.75 446.695 40.97C445.975 41.19 445.215 41.3 444.415 41.3C443.415 41.3 442.525 41.15 441.745 40.85C440.985 40.55 440.385 40.07 439.945 39.41C439.525 38.75 439.315 37.87 439.315 36.77V22.55L443.425 21.41ZM448.225 26V29.06H436.555V26H448.225ZM453.076 23.84C452.216 23.84 451.576 23.66 451.156 23.3C450.736 22.92 450.526 22.37 450.526 21.65C450.526 20.91 450.736 20.36 451.156 20C451.576 19.62 452.216 19.43 453.076 19.43C453.936 19.43 454.576 19.62 454.996 20C455.416 20.36 455.626 20.91 455.626 21.65C455.626 22.37 455.416 22.92 454.996 23.3C454.576 23.66 453.936 23.84 453.076 23.84ZM455.116 26V41H451.006V26H455.116ZM465.473 41.3C463.953 41.3 462.563 41.03 461.303 40.49C460.063 39.95 459.053 39.19 458.273 38.21L460.643 35.81C461.123 36.53 461.763 37.12 462.563 37.58C463.363 38.04 464.313 38.27 465.413 38.27C466.193 38.27 466.813 38.16 467.273 37.94C467.753 37.7 467.993 37.33 467.993 36.83C467.993 36.51 467.883 36.24 467.663 36.02C467.443 35.78 467.003 35.59 466.343 35.45L463.703 34.91C461.963 34.55 460.723 34.01 459.983 33.29C459.263 32.55 458.903 31.6 458.903 30.44C458.903 29.62 459.143 28.85 459.623 28.13C460.123 27.41 460.863 26.83 461.843 26.39C462.823 25.93 464.043 25.7 465.503 25.7C467.003 25.7 468.303 25.94 469.403 26.42C470.523 26.88 471.403 27.57 472.043 28.49L469.583 30.89C469.143 30.19 468.563 29.66 467.843 29.3C467.143 28.92 466.403 28.73 465.623 28.73C465.063 28.73 464.583 28.79 464.183 28.91C463.783 29.03 463.483 29.2 463.283 29.42C463.083 29.62 462.983 29.88 462.983 30.2C462.983 30.52 463.123 30.8 463.403 31.04C463.683 31.26 464.193 31.45 464.933 31.61L467.993 32.24C469.473 32.54 470.533 33.05 471.173 33.77C471.813 34.47 472.133 35.32 472.133 36.32C472.133 37.28 471.873 38.14 471.353 38.9C470.853 39.64 470.103 40.23 469.103 40.67C468.123 41.09 466.913 41.3 465.473 41.3ZM480.72 21.41V36.11C480.72 36.83 480.9 37.36 481.26 37.7C481.64 38.02 482.15 38.18 482.79 38.18C483.31 38.18 483.75 38.11 484.11 37.97C484.49 37.81 484.83 37.6 485.13 37.34L485.79 40.07C485.31 40.45 484.71 40.75 483.99 40.97C483.27 41.19 482.51 41.3 481.71 41.3C480.71 41.3 479.82 41.15 479.04 40.85C478.28 40.55 477.68 40.07 477.24 39.41C476.82 38.75 476.61 37.87 476.61 36.77V22.55L480.72 21.41ZM485.52 26V29.06H473.85V26H485.52ZM490.371 23.84C489.511 23.84 488.871 23.66 488.451 23.3C488.031 22.92 487.821 22.37 487.821 21.65C487.821 20.91 488.031 20.36 488.451 20C488.871 19.62 489.511 19.43 490.371 19.43C491.231 19.43 491.871 19.62 492.291 20C492.711 20.36 492.921 20.91 492.921 21.65C492.921 22.37 492.711 22.92 492.291 23.3C491.871 23.66 491.231 23.84 490.371 23.84ZM492.411 26V41H488.301V26H492.411ZM503.577 25.7C504.917 25.7 506.047 25.9 506.967 26.3C507.907 26.68 508.657 27.21 509.217 27.89C509.797 28.55 510.207 29.29 510.447 30.11L506.607 31.49C506.407 30.59 506.067 29.91 505.587 29.45C505.107 28.99 504.457 28.76 503.637 28.76C502.877 28.76 502.227 28.94 501.687 29.3C501.147 29.64 500.737 30.17 500.457 30.89C500.177 31.59 500.037 32.47 500.037 33.53C500.037 34.59 500.177 35.47 500.457 36.17C500.757 36.87 501.177 37.39 501.717 37.73C502.277 38.07 502.927 38.24 503.667 38.24C504.267 38.24 504.777 38.14 505.197 37.94C505.617 37.72 505.957 37.41 506.217 37.01C506.497 36.61 506.687 36.13 506.787 35.57L510.507 36.77C510.287 37.67 509.877 38.46 509.277 39.14C508.677 39.82 507.907 40.35 506.967 40.73C506.027 41.11 504.937 41.3 503.697 41.3C502.157 41.3 500.797 40.99 499.617 40.37C498.437 39.75 497.527 38.86 496.887 37.7C496.247 36.54 495.927 35.14 495.927 33.5C495.927 31.86 496.247 30.46 496.887 29.3C497.527 28.14 498.427 27.25 499.587 26.63C500.747 26.01 502.077 25.7 503.577 25.7ZM522.251 31.43C522.251 30.57 522.001 29.9 521.501 29.42C521.021 28.94 520.381 28.7 519.581 28.7C518.841 28.7 518.191 28.89 517.631 29.27C517.071 29.65 516.661 30.28 516.401 31.16L512.891 30.08C513.231 28.76 513.971 27.7 515.111 26.9C516.271 26.1 517.821 25.7 519.761 25.7C521.081 25.7 522.231 25.91 523.211 26.33C524.191 26.73 524.951 27.34 525.491 28.16C526.051 28.98 526.331 30.01 526.331 31.25V37.34C526.331 38.1 526.691 38.48 527.411 38.48C527.751 38.48 528.071 38.43 528.371 38.33L528.131 40.88C527.611 41.14 526.961 41.27 526.181 41.27C525.481 41.27 524.851 41.15 524.291 40.91C523.731 40.67 523.291 40.31 522.971 39.83C522.651 39.33 522.491 38.71 522.491 37.97V37.85L523.211 37.73C523.091 38.49 522.761 39.14 522.221 39.68C521.681 40.2 521.021 40.6 520.241 40.88C519.481 41.16 518.691 41.3 517.871 41.3C516.851 41.3 515.971 41.15 515.231 40.85C514.491 40.53 513.921 40.07 513.521 39.47C513.121 38.87 512.921 38.13 512.921 37.25C512.921 36.13 513.281 35.22 514.001 34.52C514.721 33.8 515.751 33.31 517.091 33.05L522.731 31.91L522.701 34.46L519.101 35.18C518.421 35.32 517.901 35.51 517.541 35.75C517.201 35.97 517.031 36.34 517.031 36.86C517.031 37.36 517.211 37.74 517.571 38C517.951 38.26 518.401 38.39 518.921 38.39C519.341 38.39 519.751 38.34 520.151 38.24C520.551 38.14 520.911 37.98 521.231 37.76C521.551 37.54 521.801 37.24 521.981 36.86C522.161 36.48 522.251 36.02 522.251 35.48V31.43ZM534.978 19.43V36.38C534.978 37.08 535.098 37.57 535.338 37.85C535.578 38.13 535.978 38.27 536.538 38.27C536.878 38.27 537.158 38.25 537.378 38.21C537.598 38.15 537.878 38.07 538.218 37.97L537.858 40.67C537.518 40.87 537.088 41.02 536.568 41.12C536.068 41.24 535.568 41.3 535.068 41.3C533.608 41.3 532.538 40.95 531.858 40.25C531.198 39.53 530.868 38.39 530.868 36.83V19.43H534.978ZM557.074 21.2C560.174 21.2 562.574 22.06 564.274 23.78C565.974 25.48 566.824 27.92 566.824 31.1C566.824 34.26 565.974 36.7 564.274 38.42C562.574 40.14 560.174 41 557.074 41H549.424V21.2H557.074ZM556.864 37.7C558.744 37.7 560.154 37.14 561.094 36.02C562.054 34.88 562.534 33.24 562.534 31.1C562.534 28.96 562.054 27.33 561.094 26.21C560.154 25.07 558.744 24.5 556.864 24.5H553.564V37.7H556.864ZM578.999 31.43C578.999 30.57 578.749 29.9 578.249 29.42C577.769 28.94 577.129 28.7 576.329 28.7C575.589 28.7 574.939 28.89 574.379 29.27C573.819 29.65 573.409 30.28 573.149 31.16L569.639 30.08C569.979 28.76 570.719 27.7 571.859 26.9C573.019 26.1 574.569 25.7 576.509 25.7C577.829 25.7 578.979 25.91 579.959 26.33C580.939 26.73 581.699 27.34 582.239 28.16C582.799 28.98 583.079 30.01 583.079 31.25V37.34C583.079 38.1 583.439 38.48 584.159 38.48C584.499 38.48 584.819 38.43 585.119 38.33L584.879 40.88C584.359 41.14 583.709 41.27 582.929 41.27C582.229 41.27 581.599 41.15 581.039 40.91C580.479 40.67 580.039 40.31 579.719 39.83C579.399 39.33 579.239 38.71 579.239 37.97V37.85L579.959 37.73C579.839 38.49 579.509 39.14 578.969 39.68C578.429 40.2 577.769 40.6 576.989 40.88C576.229 41.16 575.439 41.3 574.619 41.3C573.599 41.3 572.719 41.15 571.979 40.85C571.239 40.53 570.669 40.07 570.269 39.47C569.869 38.87 569.669 38.13 569.669 37.25C569.669 36.13 570.029 35.22 570.749 34.52C571.469 33.8 572.499 33.31 573.839 33.05L579.479 31.91L579.449 34.46L575.849 35.18C575.169 35.32 574.649 35.51 574.289 35.75C573.949 35.97 573.779 36.34 573.779 36.86C573.779 37.36 573.959 37.74 574.319 38C574.699 38.26 575.149 38.39 575.669 38.39C576.089 38.39 576.499 38.34 576.899 38.24C577.299 38.14 577.659 37.98 577.979 37.76C578.299 37.54 578.549 37.24 578.729 36.86C578.909 36.48 578.999 36.02 578.999 35.48V31.43ZM592.4 21.41V36.11C592.4 36.83 592.58 37.36 592.94 37.7C593.32 38.02 593.83 38.18 594.47 38.18C594.99 38.18 595.43 38.11 595.79 37.97C596.17 37.81 596.51 37.6 596.81 37.34L597.47 40.07C596.99 40.45 596.39 40.75 595.67 40.97C594.95 41.19 594.19 41.3 593.39 41.3C592.39 41.3 591.5 41.15 590.72 40.85C589.96 40.55 589.36 40.07 588.92 39.41C588.5 38.75 588.29 37.87 588.29 36.77V22.55L592.4 21.41ZM597.2 26V29.06H585.53V26H597.2ZM608.677 31.43C608.677 30.57 608.427 29.9 607.927 29.42C607.447 28.94 606.807 28.7 606.007 28.7C605.267 28.7 604.617 28.89 604.057 29.27C603.497 29.65 603.087 30.28 602.827 31.16L599.317 30.08C599.657 28.76 600.397 27.7 601.537 26.9C602.697 26.1 604.247 25.7 606.187 25.7C607.507 25.7 608.657 25.91 609.637 26.33C610.617 26.73 611.377 27.34 611.917 28.16C612.477 28.98 612.757 30.01 612.757 31.25V37.34C612.757 38.1 613.117 38.48 613.837 38.48C614.177 38.48 614.497 38.43 614.797 38.33L614.557 40.88C614.037 41.14 613.387 41.27 612.607 41.27C611.907 41.27 611.277 41.15 610.717 40.91C610.157 40.67 609.717 40.31 609.397 39.83C609.077 39.33 608.917 38.71 608.917 37.97V37.85L609.637 37.73C609.517 38.49 609.187 39.14 608.647 39.68C608.107 40.2 607.447 40.6 606.667 40.88C605.907 41.16 605.117 41.3 604.297 41.3C603.277 41.3 602.397 41.15 601.657 40.85C600.917 40.53 600.347 40.07 599.947 39.47C599.547 38.87 599.347 38.13 599.347 37.25C599.347 36.13 599.707 35.22 600.427 34.52C601.147 33.8 602.177 33.31 603.517 33.05L609.157 31.91L609.127 34.46L605.527 35.18C604.847 35.32 604.327 35.51 603.967 35.75C603.627 35.97 603.457 36.34 603.457 36.86C603.457 37.36 603.637 37.74 603.997 38C604.377 38.26 604.827 38.39 605.347 38.39C605.767 38.39 606.177 38.34 606.577 38.24C606.977 38.14 607.337 37.98 607.657 37.76C607.977 37.54 608.227 37.24 608.407 36.86C608.587 36.48 608.677 36.02 608.677 35.48V31.43ZM617.245 46.73L615.205 44.72C616.405 43.62 617.375 42.47 618.115 41.27C618.855 40.07 619.385 38.77 619.705 37.37C620.045 35.95 620.215 34.41 620.215 32.75C620.215 31.05 620.045 29.5 619.705 28.1C619.385 26.7 618.855 25.4 618.115 24.2C617.375 22.98 616.405 21.83 615.205 20.75L617.245 18.77C619.465 20.39 621.145 22.38 622.285 24.74C623.445 27.08 624.025 29.75 624.025 32.75C624.025 35.73 623.445 38.39 622.285 40.73C621.145 43.07 619.465 45.07 617.245 46.73Z" fill="white"/>
<mask id="mask0_72_1076" style="mask-type:alpha" maskUnits="userSpaceOnUse" x="0" y="92" width="938" height="468">
<rect y="92" width="938" height="468" fill="url(#paint0_linear_72_1076)"/>
</mask>
<g mask="url(#mask0_72_1076)">
<path d="M135 480.5L153 448.89H189L207 480.5L189 512.11H153L135 480.5Z" fill="#EFF9EF"/>
<path d="M2 302L20.25 269.957H56.75L75 302L56.75 334.043H20.25L2 302Z" fill="#EFF9EF"/>
<path d="M94 171L132.25 105.182L208.75 105.182L247 171L208.75 236.818L132.25 236.818L94 171Z" fill="#CDEACD"/>
<path d="M433 497L464.25 442.44H526.75L558 497L526.75 551.56H464.25L433 497Z" fill="#D7F7D7"/>
<path d="M421 171.5L456.75 109.579L528.25 109.579L564 171.5L528.25 233.421L456.75 233.421L421 171.5Z" fill="#CDEACD"/>
<path d="M790 198L807.25 167.689H841.75L859 198L841.75 228.311H807.25L790 198Z" fill="#D9D9D9"/>
<path d="M556 433.5L608.5 342.134H713.5L766 433.5L713.5 524.866H608.5L556 433.5Z" fill="#D7F7D7"/>
<path d="M719 338.5L771.75 247.134L877.25 247.134L930 338.5L877.25 429.866H771.75L719 338.5Z" fill="#D7F7D7"/>
<path d="M556 244.5L608.5 153.134L713.5 153.134L766 244.5L713.5 335.866H608.5L556 244.5Z" fill="#D7F7D7"/>
<path d="M226 432.5L279 341.134H385L438 432.5L385 523.866H279L226 432.5Z" fill="#CDEACD"/>
</g>
<path d="M226 243.5L279 152.134L385 152.134L438 243.5L385 334.866H279L226 243.5Z" fill="#027502"/>
<path d="M280.691 226V221.8C282.191 221 283.491 220.2 284.591 219.4C285.711 218.6 286.631 217.82 287.351 217.06C288.091 216.28 288.641 215.55 289.001 214.87C289.361 214.17 289.541 213.53 289.541 212.95C289.541 212.47 289.421 212.05 289.181 211.69C288.941 211.33 288.521 211.15 287.921 211.15C287.241 211.15 286.741 211.43 286.421 211.99C286.101 212.55 285.961 213.44 286.001 214.66L280.031 213.22C279.991 211.54 280.341 210.16 281.081 209.08C281.821 208 282.831 207.2 284.111 206.68C285.411 206.16 286.841 205.9 288.401 205.9C289.901 205.9 291.161 206.11 292.181 206.53C293.221 206.93 294.051 207.46 294.671 208.12C295.291 208.76 295.731 209.46 295.991 210.22C296.271 210.96 296.411 211.67 296.411 212.35C296.411 213.67 296.061 214.86 295.361 215.92C294.681 216.98 293.761 217.93 292.601 218.77C291.441 219.61 290.151 220.37 288.731 221.05V221.11C289.151 221.07 289.611 221.04 290.111 221.02C290.631 220.98 291.171 220.96 291.731 220.96C292.311 220.94 292.881 220.93 293.441 220.93H296.531V226H280.691ZM308.275 226V222.22H298.615V217.99C298.895 217.47 299.275 216.83 299.755 216.07C300.255 215.29 300.835 214.4 301.495 213.4L306.205 206.2H314.275V217.69H316.945V222.22H314.275V226H308.275ZM303.775 217.69H308.365V212.62C308.365 212.32 308.365 211.99 308.365 211.63C308.385 211.27 308.405 210.9 308.425 210.52H308.365C308.185 210.86 307.995 211.2 307.795 211.54C307.615 211.88 307.425 212.2 307.225 212.5L304.825 216.19C304.665 216.45 304.495 216.7 304.315 216.94C304.155 217.18 303.975 217.43 303.775 217.69ZM321.863 219.82C322.783 219.82 323.523 220.02 324.083 220.42C324.663 220.82 325.083 221.34 325.343 221.98C325.623 222.6 325.763 223.27 325.763 223.99C325.763 225.07 325.513 226.08 325.013 227.02C324.533 227.98 323.923 228.8 323.183 229.48C322.443 230.18 321.713 230.68 320.993 230.98L318.383 229.21C318.943 228.95 319.473 228.65 319.973 228.31C320.493 227.97 320.963 227.6 321.383 227.2C321.803 226.8 322.133 226.39 322.373 225.97L322.223 225.85C322.083 225.93 321.923 225.99 321.743 226.03C321.563 226.09 321.333 226.12 321.053 226.12C320.613 226.12 320.173 226.02 319.733 225.82C319.293 225.6 318.923 225.28 318.623 224.86C318.323 224.44 318.173 223.91 318.173 223.27C318.173 222.45 318.343 221.79 318.683 221.29C319.043 220.79 319.503 220.42 320.063 220.18C320.643 219.94 321.243 219.82 321.863 219.82ZM335.293 205.9C337.213 205.9 338.813 206.26 340.093 206.98C341.393 207.68 342.363 208.77 343.003 210.25C343.663 211.73 343.993 213.64 343.993 215.98C343.993 218.5 343.593 220.52 342.793 222.04C342.013 223.54 340.963 224.63 339.643 225.31C338.323 225.97 336.873 226.3 335.293 226.3C333.513 226.3 331.953 225.98 330.613 225.34C329.293 224.68 328.303 223.59 327.643 222.07L333.763 219.88C333.843 220.34 334.013 220.69 334.273 220.93C334.533 221.17 334.893 221.29 335.353 221.29C335.713 221.29 336.043 221.22 336.343 221.08C336.643 220.94 336.903 220.73 337.123 220.45C337.343 220.17 337.513 219.81 337.633 219.37C337.753 218.93 337.813 218.4 337.813 217.78C337.813 217.68 337.813 217.59 337.813 217.51C337.813 217.41 337.813 217.29 337.813 217.15H337.723C337.523 217.55 337.203 217.89 336.763 218.17C336.343 218.45 335.853 218.67 335.293 218.83C334.733 218.97 334.123 219.04 333.463 219.04C332.263 219.04 331.193 218.79 330.253 218.29C329.313 217.77 328.573 217.05 328.033 216.13C327.493 215.19 327.223 214.1 327.223 212.86C327.223 211.4 327.563 210.16 328.243 209.14C328.943 208.1 329.893 207.3 331.093 206.74C332.313 206.18 333.713 205.9 335.293 205.9ZM335.293 210.97C334.773 210.97 334.333 211.12 333.973 211.42C333.633 211.7 333.463 212.11 333.463 212.65C333.463 213.19 333.633 213.61 333.973 213.91C334.333 214.19 334.773 214.33 335.293 214.33C335.613 214.33 335.913 214.27 336.193 214.15C336.473 214.01 336.693 213.82 336.853 213.58C337.033 213.32 337.123 213.01 337.123 212.65C337.123 212.29 337.033 211.99 336.853 211.75C336.693 211.49 336.473 211.3 336.193 211.18C335.913 211.04 335.613 210.97 335.293 210.97ZM354.949 226.3C351.949 226.3 349.729 225.45 348.289 223.75C346.869 222.05 346.159 219.5 346.159 216.1C346.159 212.7 346.869 210.15 348.289 208.45C349.729 206.75 351.949 205.9 354.949 205.9C357.949 205.9 360.159 206.75 361.579 208.45C363.019 210.15 363.739 212.7 363.739 216.1C363.739 219.5 363.019 222.05 361.579 223.75C360.159 225.45 357.949 226.3 354.949 226.3ZM354.949 221.05C355.469 221.05 355.869 220.91 356.149 220.63C356.429 220.35 356.619 219.85 356.719 219.13C356.839 218.41 356.899 217.4 356.899 216.1C356.899 214.8 356.839 213.79 356.719 213.07C356.619 212.35 356.429 211.85 356.149 211.57C355.869 211.29 355.469 211.15 354.949 211.15C354.449 211.15 354.049 211.29 353.749 211.57C353.469 211.85 353.269 212.35 353.149 213.07C353.049 213.79 352.999 214.8 352.999 216.1C352.999 217.4 353.049 218.41 353.149 219.13C353.269 219.85 353.469 220.35 353.749 220.63C354.049 220.91 354.449 221.05 354.949 221.05ZM374.335 205.99C375.975 205.99 377.395 206.22 378.595 206.68C379.815 207.12 380.755 207.76 381.415 208.6C382.095 209.42 382.435 210.41 382.435 211.57C382.435 212.65 382.165 213.57 381.625 214.33C381.085 215.09 380.255 215.67 379.135 216.07V216.1C380.375 216.48 381.315 217.03 381.955 217.75C382.615 218.45 382.945 219.39 382.945 220.57C382.945 221.73 382.605 222.74 381.925 223.6C381.245 224.44 380.265 225.1 378.985 225.58C377.705 226.06 376.155 226.3 374.335 226.3C372.515 226.3 370.965 226.06 369.685 225.58C368.405 225.1 367.425 224.44 366.745 223.6C366.065 222.74 365.725 221.73 365.725 220.57C365.725 219.39 366.055 218.45 366.715 217.75C367.375 217.03 368.315 216.48 369.535 216.1V216.07C368.435 215.67 367.605 215.09 367.045 214.33C366.505 213.57 366.235 212.65 366.235 211.57C366.235 210.41 366.565 209.42 367.225 208.6C367.905 207.76 368.855 207.12 370.075 206.68C371.295 206.22 372.715 205.99 374.335 205.99ZM374.335 210.73C373.775 210.73 373.325 210.88 372.985 211.18C372.665 211.48 372.505 211.89 372.505 212.41C372.505 212.93 372.665 213.34 372.985 213.64C373.325 213.94 373.785 214.09 374.365 214.09C374.925 214.09 375.365 213.94 375.685 213.64C376.005 213.34 376.165 212.93 376.165 212.41C376.165 211.89 376.005 211.48 375.685 211.18C375.365 210.88 374.915 210.73 374.335 210.73ZM374.335 221.56C374.755 221.56 375.105 221.5 375.385 221.38C375.685 221.24 375.905 221.04 376.045 220.78C376.205 220.52 376.285 220.22 376.285 219.88C376.285 219.52 376.205 219.22 376.045 218.98C375.905 218.72 375.685 218.53 375.385 218.41C375.105 218.27 374.755 218.2 374.335 218.2C373.935 218.2 373.585 218.27 373.285 218.41C372.985 218.53 372.755 218.72 372.595 218.98C372.455 219.22 372.385 219.52 372.385 219.88C372.385 220.22 372.455 220.52 372.595 220.78C372.755 221.04 372.985 221.24 373.285 221.38C373.585 221.5 373.935 221.56 374.335 221.56Z" fill="white"/>
<path d="M291.191 251.8V265H288.031L283.411 257.24L282.271 255.08H282.251L282.331 257.36V265H279.851V251.8H282.991L287.611 259.54L288.751 261.72H288.791L288.711 259.44V251.8H291.191ZM297.738 265.2C297.072 265.2 296.472 265.08 295.938 264.84C295.405 264.6 294.978 264.22 294.658 263.7C294.352 263.167 294.198 262.48 294.198 261.64V255H296.938V260.98C296.938 261.753 297.098 262.293 297.418 262.6C297.738 262.893 298.198 263.04 298.798 263.04C299.078 263.04 299.352 262.993 299.618 262.9C299.885 262.793 300.118 262.633 300.318 262.42C300.532 262.207 300.698 261.933 300.818 261.6C300.938 261.253 300.998 260.847 300.998 260.38V255H303.738V265H301.298L301.198 263.26C300.865 263.927 300.405 264.42 299.818 264.74C299.245 265.047 298.552 265.2 297.738 265.2ZM306.622 265V255H309.082L309.182 256.8C309.515 256.133 309.968 255.633 310.542 255.3C311.128 254.967 311.775 254.8 312.482 254.8C313.202 254.8 313.848 254.967 314.422 255.3C315.008 255.633 315.448 256.127 315.742 256.78C315.955 256.34 316.242 255.973 316.602 255.68C316.962 255.387 317.362 255.167 317.802 255.02C318.242 254.873 318.688 254.8 319.142 254.8C319.795 254.8 320.388 254.933 320.922 255.2C321.468 255.467 321.902 255.867 322.222 256.4C322.542 256.933 322.702 257.613 322.702 258.44V265H319.962V258.98C319.962 258.247 319.802 257.727 319.482 257.42C319.162 257.113 318.748 256.96 318.242 256.96C317.842 256.96 317.468 257.06 317.122 257.26C316.788 257.46 316.522 257.76 316.322 258.16C316.135 258.547 316.042 259.033 316.042 259.62V265H313.302V258.98C313.302 258.247 313.135 257.727 312.802 257.42C312.482 257.113 312.068 256.96 311.562 256.96C311.215 256.96 310.868 257.053 310.522 257.24C310.188 257.427 309.908 257.72 309.682 258.12C309.468 258.52 309.362 259.047 309.362 259.7V265H306.622ZM331.408 265.2C330.795 265.2 330.235 265.073 329.728 264.82C329.235 264.553 328.821 264.193 328.488 263.74C328.168 263.273 327.948 262.753 327.828 262.18L328.108 261.82L327.948 265H325.528V250.62H328.268V257.82L328.008 257.4C328.221 256.653 328.628 256.033 329.228 255.54C329.828 255.047 330.581 254.8 331.488 254.8C332.288 254.8 333.001 255.007 333.628 255.42C334.268 255.833 334.768 256.427 335.128 257.2C335.501 257.973 335.688 258.913 335.688 260.02C335.688 261.1 335.501 262.027 335.128 262.8C334.768 263.573 334.261 264.167 333.608 264.58C332.968 264.993 332.235 265.2 331.408 265.2ZM330.588 263.1C331.321 263.1 331.895 262.84 332.308 262.32C332.735 261.787 332.948 261.013 332.948 260C332.948 258.987 332.741 258.22 332.328 257.7C331.915 257.167 331.341 256.9 330.608 256.9C330.128 256.9 329.715 257.027 329.368 257.28C329.021 257.533 328.748 257.893 328.548 258.36C328.361 258.827 328.268 259.38 328.268 260.02C328.268 260.66 328.361 261.213 328.548 261.68C328.748 262.147 329.021 262.5 329.368 262.74C329.728 262.98 330.135 263.1 330.588 263.1ZM342.707 265.2C341.654 265.2 340.734 264.993 339.947 264.58C339.174 264.167 338.574 263.573 338.147 262.8C337.72 262.027 337.507 261.093 337.507 260C337.507 258.907 337.72 257.973 338.147 257.2C338.574 256.427 339.167 255.833 339.927 255.42C340.7 255.007 341.58 254.8 342.567 254.8C343.58 254.8 344.44 255.007 345.147 255.42C345.854 255.82 346.394 256.373 346.767 257.08C347.14 257.773 347.327 258.567 347.327 259.46C347.327 259.727 347.32 259.98 347.307 260.22C347.294 260.46 347.274 260.673 347.247 260.86H339.267V258.96H346.047L344.727 259.44C344.727 258.6 344.534 257.953 344.147 257.5C343.774 257.047 343.24 256.82 342.547 256.82C342.04 256.82 341.6 256.94 341.227 257.18C340.867 257.42 340.594 257.78 340.407 258.26C340.22 258.727 340.127 259.32 340.127 260.04C340.127 260.747 340.227 261.333 340.427 261.8C340.64 262.253 340.934 262.593 341.307 262.82C341.694 263.047 342.154 263.16 342.687 263.16C343.274 263.16 343.747 263.047 344.107 262.82C344.467 262.593 344.747 262.28 344.947 261.88L347.127 262.72C346.914 263.24 346.587 263.687 346.147 264.06C345.72 264.433 345.207 264.72 344.607 264.92C344.02 265.107 343.387 265.2 342.707 265.2ZM349.649 265V255H352.029L352.209 256.96C352.476 256.267 352.862 255.733 353.369 255.36C353.889 254.987 354.536 254.8 355.309 254.8C355.536 254.8 355.742 254.82 355.929 254.86C356.116 254.9 356.269 254.953 356.389 255.02L356.069 257.32C355.936 257.267 355.769 257.227 355.569 257.2C355.382 257.173 355.136 257.16 354.829 257.16C354.429 257.16 354.042 257.26 353.669 257.46C353.296 257.647 352.989 257.94 352.749 258.34C352.509 258.727 352.389 259.22 352.389 259.82V265H349.649ZM369.828 251.6C371.135 251.6 372.262 251.873 373.208 252.42C374.155 252.967 374.882 253.747 375.388 254.76C375.908 255.773 376.168 256.987 376.168 258.4C376.168 259.813 375.908 261.027 375.388 262.04C374.882 263.053 374.155 263.833 373.208 264.38C372.262 264.927 371.135 265.2 369.828 265.2C368.522 265.2 367.388 264.927 366.428 264.38C365.482 263.833 364.748 263.053 364.228 262.04C363.722 261.027 363.468 259.813 363.468 258.4C363.468 256.987 363.722 255.773 364.228 254.76C364.748 253.747 365.482 252.967 366.428 252.42C367.388 251.873 368.522 251.6 369.828 251.6ZM369.828 253.86C369.095 253.86 368.462 254.033 367.928 254.38C367.408 254.727 367.008 255.24 366.728 255.92C366.462 256.6 366.328 257.427 366.328 258.4C366.328 259.373 366.462 260.2 366.728 260.88C367.008 261.56 367.408 262.073 367.928 262.42C368.462 262.767 369.095 262.94 369.828 262.94C370.562 262.94 371.188 262.767 371.708 262.42C372.228 262.073 372.622 261.56 372.888 260.88C373.168 260.2 373.308 259.373 373.308 258.4C373.308 257.427 373.168 256.6 372.888 255.92C372.622 255.24 372.228 254.727 371.708 254.38C371.188 254.033 370.562 253.86 369.828 253.86ZM383.132 250.42C383.599 250.42 384.019 250.473 384.392 250.58C384.779 250.673 385.066 250.793 385.252 250.94L384.872 252.76C384.726 252.667 384.559 252.593 384.372 252.54C384.186 252.487 383.966 252.46 383.712 252.46C383.192 252.46 382.779 252.58 382.472 252.82C382.166 253.047 382.012 253.44 382.012 254V255.38L382.132 255.92V265H379.392V253.8C379.392 253.24 379.486 252.747 379.672 252.32C379.859 251.893 380.119 251.54 380.452 251.26C380.786 250.98 381.179 250.773 381.632 250.64C382.099 250.493 382.599 250.42 383.132 250.42ZM385.172 255V257.04H377.652V255H385.172ZM292.923 285.78H299.883V288H290.163V274.8H292.923V285.78ZM306.359 288.2C305.306 288.2 304.386 287.993 303.599 287.58C302.826 287.167 302.226 286.573 301.799 285.8C301.373 285.027 301.159 284.093 301.159 283C301.159 281.907 301.373 280.973 301.799 280.2C302.226 279.427 302.819 278.833 303.579 278.42C304.353 278.007 305.233 277.8 306.219 277.8C307.233 277.8 308.093 278.007 308.799 278.42C309.506 278.82 310.046 279.373 310.419 280.08C310.793 280.773 310.979 281.567 310.979 282.46C310.979 282.727 310.973 282.98 310.959 283.22C310.946 283.46 310.926 283.673 310.899 283.86H302.919V281.96H309.699L308.379 282.44C308.379 281.6 308.186 280.953 307.799 280.5C307.426 280.047 306.893 279.82 306.199 279.82C305.693 279.82 305.253 279.94 304.879 280.18C304.519 280.42 304.246 280.78 304.059 281.26C303.873 281.727 303.779 282.32 303.779 283.04C303.779 283.747 303.879 284.333 304.079 284.8C304.293 285.253 304.586 285.593 304.959 285.82C305.346 286.047 305.806 286.16 306.339 286.16C306.926 286.16 307.399 286.047 307.759 285.82C308.119 285.593 308.399 285.28 308.599 284.88L310.779 285.72C310.566 286.24 310.239 286.687 309.799 287.06C309.373 287.433 308.859 287.72 308.259 287.92C307.673 288.107 307.039 288.2 306.359 288.2ZM319.001 281.62C319.001 281.047 318.835 280.6 318.501 280.28C318.181 279.96 317.755 279.8 317.221 279.8C316.728 279.8 316.295 279.927 315.921 280.18C315.548 280.433 315.275 280.853 315.101 281.44L312.761 280.72C312.988 279.84 313.481 279.133 314.241 278.6C315.015 278.067 316.048 277.8 317.341 277.8C318.221 277.8 318.988 277.94 319.641 278.22C320.295 278.487 320.801 278.893 321.161 279.44C321.535 279.987 321.721 280.673 321.721 281.5V285.56C321.721 286.067 321.961 286.32 322.441 286.32C322.668 286.32 322.881 286.287 323.081 286.22L322.921 287.92C322.575 288.093 322.141 288.18 321.621 288.18C321.155 288.18 320.735 288.1 320.361 287.94C319.988 287.78 319.695 287.54 319.481 287.22C319.268 286.887 319.161 286.473 319.161 285.98V285.9L319.641 285.82C319.561 286.327 319.341 286.76 318.981 287.12C318.621 287.467 318.181 287.733 317.661 287.92C317.155 288.107 316.628 288.2 316.081 288.2C315.401 288.2 314.815 288.1 314.321 287.9C313.828 287.687 313.448 287.38 313.181 286.98C312.915 286.58 312.781 286.087 312.781 285.5C312.781 284.753 313.021 284.147 313.501 283.68C313.981 283.2 314.668 282.873 315.561 282.7L319.321 281.94L319.301 283.64L316.901 284.12C316.448 284.213 316.101 284.34 315.861 284.5C315.635 284.647 315.521 284.893 315.521 285.24C315.521 285.573 315.641 285.827 315.881 286C316.135 286.173 316.435 286.26 316.781 286.26C317.061 286.26 317.335 286.227 317.601 286.16C317.868 286.093 318.108 285.987 318.321 285.84C318.535 285.693 318.701 285.493 318.821 285.24C318.941 284.987 319.001 284.68 319.001 284.32V281.62ZM324.786 288V278H327.166L327.346 279.96C327.612 279.267 327.999 278.733 328.506 278.36C329.026 277.987 329.672 277.8 330.446 277.8C330.672 277.8 330.879 277.82 331.066 277.86C331.252 277.9 331.406 277.953 331.526 278.02L331.206 280.32C331.072 280.267 330.906 280.227 330.706 280.2C330.519 280.173 330.272 280.16 329.966 280.16C329.566 280.16 329.179 280.26 328.806 280.46C328.432 280.647 328.126 280.94 327.886 281.34C327.646 281.727 327.526 282.22 327.526 282.82V288H324.786ZM333.223 288V278H335.683L335.843 281L335.503 280.68C335.663 280.027 335.917 279.493 336.263 279.08C336.61 278.653 337.03 278.333 337.523 278.12C338.03 277.907 338.583 277.8 339.183 277.8C339.877 277.8 340.49 277.933 341.023 278.2C341.57 278.467 341.997 278.873 342.303 279.42C342.623 279.953 342.783 280.627 342.783 281.44V288H340.043V282.22C340.043 281.367 339.877 280.78 339.543 280.46C339.21 280.127 338.777 279.96 338.243 279.96C337.87 279.96 337.503 280.053 337.143 280.24C336.797 280.413 336.51 280.7 336.283 281.1C336.07 281.5 335.963 282.033 335.963 282.7V288H333.223ZM350.246 288.2C349.193 288.2 348.273 287.993 347.486 287.58C346.713 287.167 346.113 286.573 345.686 285.8C345.259 285.027 345.046 284.093 345.046 283C345.046 281.907 345.259 280.973 345.686 280.2C346.113 279.427 346.706 278.833 347.466 278.42C348.239 278.007 349.119 277.8 350.106 277.8C351.119 277.8 351.979 278.007 352.686 278.42C353.393 278.82 353.933 279.373 354.306 280.08C354.679 280.773 354.866 281.567 354.866 282.46C354.866 282.727 354.859 282.98 354.846 283.22C354.833 283.46 354.813 283.673 354.786 283.86H346.806V281.96H353.586L352.266 282.44C352.266 281.6 352.073 280.953 351.686 280.5C351.313 280.047 350.779 279.82 350.086 279.82C349.579 279.82 349.139 279.94 348.766 280.18C348.406 280.42 348.133 280.78 347.946 281.26C347.759 281.727 347.666 282.32 347.666 283.04C347.666 283.747 347.766 284.333 347.966 284.8C348.179 285.253 348.473 285.593 348.846 285.82C349.233 286.047 349.693 286.16 350.226 286.16C350.813 286.16 351.286 286.047 351.646 285.82C352.006 285.593 352.286 285.28 352.486 284.88L354.666 285.72C354.453 286.24 354.126 286.687 353.686 287.06C353.259 287.433 352.746 287.72 352.146 287.92C351.559 288.107 350.926 288.2 350.246 288.2ZM357.188 288V278H359.568L359.748 279.96C360.015 279.267 360.401 278.733 360.908 278.36C361.428 277.987 362.075 277.8 362.848 277.8C363.075 277.8 363.281 277.82 363.468 277.86C363.655 277.9 363.808 277.953 363.928 278.02L363.608 280.32C363.475 280.267 363.308 280.227 363.108 280.2C362.921 280.173 362.675 280.16 362.368 280.16C361.968 280.16 361.581 280.26 361.208 280.46C360.835 280.647 360.528 280.94 360.288 281.34C360.048 281.727 359.928 282.22 359.928 282.82V288H357.188ZM369.372 288.2C368.358 288.2 367.432 288.02 366.592 287.66C365.765 287.3 365.092 286.793 364.572 286.14L366.152 284.54C366.472 285.02 366.898 285.413 367.432 285.72C367.965 286.027 368.598 286.18 369.332 286.18C369.852 286.18 370.265 286.107 370.572 285.96C370.892 285.8 371.052 285.553 371.052 285.22C371.052 285.007 370.978 284.827 370.832 284.68C370.685 284.52 370.392 284.393 369.952 284.3L368.192 283.94C367.032 283.7 366.205 283.34 365.712 282.86C365.232 282.367 364.992 281.733 364.992 280.96C364.992 280.413 365.152 279.9 365.472 279.42C365.805 278.94 366.298 278.553 366.952 278.26C367.605 277.953 368.418 277.8 369.392 277.8C370.392 277.8 371.258 277.96 371.992 278.28C372.738 278.587 373.325 279.047 373.752 279.66L372.112 281.26C371.818 280.793 371.432 280.44 370.952 280.2C370.485 279.947 369.992 279.82 369.472 279.82C369.098 279.82 368.778 279.86 368.512 279.94C368.245 280.02 368.045 280.133 367.912 280.28C367.778 280.413 367.712 280.587 367.712 280.8C367.712 281.013 367.805 281.2 367.992 281.36C368.178 281.507 368.518 281.633 369.012 281.74L371.052 282.16C372.038 282.36 372.745 282.7 373.172 283.18C373.598 283.647 373.812 284.213 373.812 284.88C373.812 285.52 373.638 286.093 373.292 286.6C372.958 287.093 372.458 287.487 371.792 287.78C371.138 288.06 370.332 288.2 369.372 288.2Z" fill="white"/>
<path d="M64 338.5L116.5 247.134L221.5 247.134L274 338.5L221.5 429.866H116.5L64 338.5Z" fill="#169C16"/>
<path d="M117.691 321V316.8C119.191 316 120.491 315.2 121.591 314.4C122.711 313.6 123.631 312.82 124.351 312.06C125.091 311.28 125.641 310.55 126.001 309.87C126.361 309.17 126.541 308.53 126.541 307.95C126.541 307.47 126.421 307.05 126.181 306.69C125.941 306.33 125.521 306.15 124.921 306.15C124.241 306.15 123.741 306.43 123.421 306.99C123.101 307.55 122.961 308.44 123.001 309.66L117.031 308.22C116.991 306.54 117.341 305.16 118.081 304.08C118.821 303 119.831 302.2 121.111 301.68C122.411 301.16 123.841 300.9 125.401 300.9C126.901 300.9 128.161 301.11 129.181 301.53C130.221 301.93 131.051 302.46 131.671 303.12C132.291 303.76 132.731 304.46 132.991 305.22C133.271 305.96 133.411 306.67 133.411 307.35C133.411 308.67 133.061 309.86 132.361 310.92C131.681 311.98 130.761 312.93 129.601 313.77C128.441 314.61 127.151 315.37 125.731 316.05V316.11C126.151 316.07 126.611 316.04 127.111 316.02C127.631 315.98 128.171 315.96 128.731 315.96C129.311 315.94 129.881 315.93 130.441 315.93H133.531V321H117.691ZM145.275 321V317.22H135.615V312.99C135.895 312.47 136.275 311.83 136.755 311.07C137.255 310.29 137.835 309.4 138.495 308.4L143.205 301.2H151.275V312.69H153.945V317.22H151.275V321H145.275ZM140.775 312.69H145.365V307.62C145.365 307.32 145.365 306.99 145.365 306.63C145.385 306.27 145.405 305.9 145.425 305.52H145.365C145.185 305.86 144.995 306.2 144.795 306.54C144.615 306.88 144.425 307.2 144.225 307.5L141.825 311.19C141.665 311.45 141.495 311.7 141.315 311.94C141.155 312.18 140.975 312.43 140.775 312.69ZM158.863 314.82C159.783 314.82 160.523 315.02 161.083 315.42C161.663 315.82 162.083 316.34 162.343 316.98C162.623 317.6 162.763 318.27 162.763 318.99C162.763 320.07 162.513 321.08 162.013 322.02C161.533 322.98 160.923 323.8 160.183 324.48C159.443 325.18 158.713 325.68 157.993 325.98L155.383 324.21C155.943 323.95 156.473 323.65 156.973 323.31C157.493 322.97 157.963 322.6 158.383 322.2C158.803 321.8 159.133 321.39 159.373 320.97L159.223 320.85C159.083 320.93 158.923 320.99 158.743 321.03C158.563 321.09 158.333 321.12 158.053 321.12C157.613 321.12 157.173 321.02 156.733 320.82C156.293 320.6 155.923 320.28 155.623 319.86C155.323 319.44 155.173 318.91 155.173 318.27C155.173 317.45 155.343 316.79 155.683 316.29C156.043 315.79 156.503 315.42 157.063 315.18C157.643 314.94 158.243 314.82 158.863 314.82ZM172.293 300.9C174.213 300.9 175.813 301.26 177.093 301.98C178.393 302.68 179.363 303.77 180.003 305.25C180.663 306.73 180.993 308.64 180.993 310.98C180.993 313.5 180.593 315.52 179.793 317.04C179.013 318.54 177.963 319.63 176.643 320.31C175.323 320.97 173.873 321.3 172.293 321.3C170.513 321.3 168.953 320.98 167.613 320.34C166.293 319.68 165.303 318.59 164.643 317.07L170.763 314.88C170.843 315.34 171.013 315.69 171.273 315.93C171.533 316.17 171.893 316.29 172.353 316.29C172.713 316.29 173.043 316.22 173.343 316.08C173.643 315.94 173.903 315.73 174.123 315.45C174.343 315.17 174.513 314.81 174.633 314.37C174.753 313.93 174.813 313.4 174.813 312.78C174.813 312.68 174.813 312.59 174.813 312.51C174.813 312.41 174.813 312.29 174.813 312.15H174.723C174.523 312.55 174.203 312.89 173.763 313.17C173.343 313.45 172.853 313.67 172.293 313.83C171.733 313.97 171.123 314.04 170.463 314.04C169.263 314.04 168.193 313.79 167.253 313.29C166.313 312.77 165.573 312.05 165.033 311.13C164.493 310.19 164.223 309.1 164.223 307.86C164.223 306.4 164.563 305.16 165.243 304.14C165.943 303.1 166.893 302.3 168.093 301.74C169.313 301.18 170.713 300.9 172.293 300.9ZM172.293 305.97C171.773 305.97 171.333 306.12 170.973 306.42C170.633 306.7 170.463 307.11 170.463 307.65C170.463 308.19 170.633 308.61 170.973 308.91C171.333 309.19 171.773 309.33 172.293 309.33C172.613 309.33 172.913 309.27 173.193 309.15C173.473 309.01 173.693 308.82 173.853 308.58C174.033 308.32 174.123 308.01 174.123 307.65C174.123 307.29 174.033 306.99 173.853 306.75C173.693 306.49 173.473 306.3 173.193 306.18C172.913 306.04 172.613 305.97 172.293 305.97ZM191.949 321.3C188.949 321.3 186.729 320.45 185.289 318.75C183.869 317.05 183.159 314.5 183.159 311.1C183.159 307.7 183.869 305.15 185.289 303.45C186.729 301.75 188.949 300.9 191.949 300.9C194.949 300.9 197.159 301.75 198.579 303.45C200.019 305.15 200.739 307.7 200.739 311.1C200.739 314.5 200.019 317.05 198.579 318.75C197.159 320.45 194.949 321.3 191.949 321.3ZM191.949 316.05C192.469 316.05 192.869 315.91 193.149 315.63C193.429 315.35 193.619 314.85 193.719 314.13C193.839 313.41 193.899 312.4 193.899 311.1C193.899 309.8 193.839 308.79 193.719 308.07C193.619 307.35 193.429 306.85 193.149 306.57C192.869 306.29 192.469 306.15 191.949 306.15C191.449 306.15 191.049 306.29 190.749 306.57C190.469 306.85 190.269 307.35 190.149 308.07C190.049 308.79 189.999 309.8 189.999 311.1C189.999 312.4 190.049 313.41 190.149 314.13C190.269 314.85 190.469 315.35 190.749 315.63C191.049 315.91 191.449 316.05 191.949 316.05ZM211.335 300.99C212.975 300.99 214.395 301.22 215.595 301.68C216.815 302.12 217.755 302.76 218.415 303.6C219.095 304.42 219.435 305.41 219.435 306.57C219.435 307.65 219.165 308.57 218.625 309.33C218.085 310.09 217.255 310.67 216.135 311.07V311.1C217.375 311.48 218.315 312.03 218.955 312.75C219.615 313.45 219.945 314.39 219.945 315.57C219.945 316.73 219.605 317.74 218.925 318.6C218.245 319.44 217.265 320.1 215.985 320.58C214.705 321.06 213.155 321.3 211.335 321.3C209.515 321.3 207.965 321.06 206.685 320.58C205.405 320.1 204.425 319.44 203.745 318.6C203.065 317.74 202.725 316.73 202.725 315.57C202.725 314.39 203.055 313.45 203.715 312.75C204.375 312.03 205.315 311.48 206.535 311.1V311.07C205.435 310.67 204.605 310.09 204.045 309.33C203.505 308.57 203.235 307.65 203.235 306.57C203.235 305.41 203.565 304.42 204.225 303.6C204.905 302.76 205.855 302.12 207.075 301.68C208.295 301.22 209.715 300.99 211.335 300.99ZM211.335 305.73C210.775 305.73 210.325 305.88 209.985 306.18C209.665 306.48 209.505 306.89 209.505 307.41C209.505 307.93 209.665 308.34 209.985 308.64C210.325 308.94 210.785 309.09 211.365 309.09C211.925 309.09 212.365 308.94 212.685 308.64C213.005 308.34 213.165 307.93 213.165 307.41C213.165 306.89 213.005 306.48 212.685 306.18C212.365 305.88 211.915 305.73 211.335 305.73ZM211.335 316.56C211.755 316.56 212.105 316.5 212.385 316.38C212.685 316.24 212.905 316.04 213.045 315.78C213.205 315.52 213.285 315.22 213.285 314.88C213.285 314.52 213.205 314.22 213.045 313.98C212.905 313.72 212.685 313.53 212.385 313.41C212.105 313.27 211.755 313.2 211.335 313.2C210.935 313.2 210.585 313.27 210.285 313.41C209.985 313.53 209.755 313.72 209.595 313.98C209.455 314.22 209.385 314.52 209.385 314.88C209.385 315.22 209.455 315.52 209.595 315.78C209.755 316.04 209.985 316.24 210.285 316.38C210.585 316.5 210.935 316.56 211.335 316.56Z" fill="white"/>
<path d="M128.46 346.8V360H125.92L120.82 351.68L119.54 349.34H119.52L119.6 351.48V360H117.64V346.8H120.16L125.24 355.1L126.54 357.48H126.56L126.48 355.32V346.8H128.46ZM135.49 360.2C134.836 360.2 134.23 360.08 133.67 359.84C133.123 359.6 132.683 359.213 132.35 358.68C132.016 358.147 131.85 357.453 131.85 356.6V350H133.99V356.06C133.99 356.967 134.183 357.593 134.57 357.94C134.956 358.273 135.496 358.44 136.19 358.44C136.523 358.44 136.843 358.387 137.15 358.28C137.47 358.16 137.756 357.98 138.01 357.74C138.263 357.487 138.456 357.167 138.59 356.78C138.736 356.393 138.81 355.94 138.81 355.42V350H140.95V360H139.07L138.97 358.38C138.623 359.007 138.156 359.467 137.57 359.76C136.983 360.053 136.29 360.2 135.49 360.2ZM144.293 360V350H146.193L146.293 351.68C146.639 351.04 147.099 350.567 147.673 350.26C148.259 349.953 148.879 349.8 149.533 349.8C150.253 349.8 150.913 349.967 151.513 350.3C152.126 350.62 152.586 351.107 152.893 351.76C153.106 351.32 153.399 350.953 153.773 350.66C154.146 350.367 154.559 350.153 155.013 350.02C155.466 349.873 155.913 349.8 156.353 349.8C156.993 349.8 157.593 349.933 158.153 350.2C158.713 350.467 159.166 350.873 159.513 351.42C159.859 351.967 160.033 352.667 160.033 353.52V360H157.893V353.86C157.893 353.047 157.699 352.46 157.313 352.1C156.926 351.74 156.433 351.56 155.833 351.56C155.366 351.56 154.933 351.673 154.533 351.9C154.146 352.127 153.833 352.467 153.593 352.92C153.353 353.36 153.233 353.907 153.233 354.56V360H151.093V353.86C151.093 353.047 150.899 352.46 150.513 352.1C150.126 351.74 149.633 351.56 149.033 351.56C148.633 351.56 148.233 351.667 147.833 351.88C147.433 352.093 147.099 352.427 146.833 352.88C146.566 353.333 146.433 353.933 146.433 354.68V360H144.293ZM168.637 360.2C168.051 360.2 167.511 360.087 167.017 359.86C166.537 359.633 166.131 359.32 165.797 358.92C165.464 358.507 165.217 358.047 165.057 357.54L165.317 357.2L165.157 360H163.277V345.5H165.417V352.52L165.177 352.18C165.431 351.487 165.864 350.92 166.477 350.48C167.091 350.027 167.831 349.8 168.697 349.8C169.497 349.8 170.231 350.007 170.897 350.42C171.577 350.833 172.111 351.427 172.497 352.2C172.884 352.973 173.077 353.913 173.077 355.02C173.077 356.1 172.877 357.027 172.477 357.8C172.091 358.573 171.557 359.167 170.877 359.58C170.211 359.993 169.464 360.2 168.637 360.2ZM168.177 358.48C169.044 358.48 169.717 358.173 170.197 357.56C170.691 356.933 170.937 356.08 170.937 355C170.937 353.92 170.697 353.073 170.217 352.46C169.737 351.847 169.064 351.54 168.197 351.54C167.637 351.54 167.151 351.687 166.737 351.98C166.324 352.26 165.997 352.66 165.757 353.18C165.531 353.7 165.417 354.32 165.417 355.04C165.417 355.747 165.531 356.36 165.757 356.88C165.984 357.387 166.304 357.78 166.717 358.06C167.144 358.34 167.631 358.48 168.177 358.48ZM180.216 360.2C179.216 360.2 178.336 359.993 177.576 359.58C176.816 359.167 176.223 358.573 175.796 357.8C175.383 357.013 175.176 356.08 175.176 355C175.176 353.92 175.383 352.993 175.796 352.22C176.223 351.433 176.81 350.833 177.556 350.42C178.303 350.007 179.15 349.8 180.096 349.8C181.07 349.8 181.896 350 182.576 350.4C183.256 350.8 183.776 351.347 184.136 352.04C184.496 352.733 184.676 353.52 184.676 354.4C184.676 354.64 184.67 354.867 184.656 355.08C184.643 355.293 184.623 355.48 184.596 355.64H176.556V354H183.656L182.596 354.32C182.596 353.413 182.37 352.72 181.916 352.24C181.463 351.747 180.843 351.5 180.056 351.5C179.483 351.5 178.983 351.633 178.556 351.9C178.13 352.167 177.803 352.567 177.576 353.1C177.35 353.62 177.236 354.26 177.236 355.02C177.236 355.767 177.356 356.4 177.596 356.92C177.836 357.44 178.176 357.833 178.616 358.1C179.056 358.367 179.576 358.5 180.176 358.5C180.843 358.5 181.383 358.373 181.796 358.12C182.21 357.867 182.536 357.513 182.776 357.06L184.476 357.86C184.236 358.34 183.91 358.76 183.496 359.12C183.096 359.467 182.616 359.733 182.056 359.92C181.496 360.107 180.883 360.2 180.216 360.2ZM187.379 360V350H189.199L189.399 351.8C189.665 351.147 190.059 350.653 190.579 350.32C191.112 349.973 191.765 349.8 192.539 349.8C192.739 349.8 192.939 349.82 193.139 349.86C193.339 349.887 193.505 349.933 193.639 350L193.339 351.88C193.192 351.827 193.025 351.787 192.839 351.76C192.665 351.72 192.425 351.7 192.119 351.7C191.705 351.7 191.299 351.813 190.899 352.04C190.499 352.253 190.165 352.58 189.899 353.02C189.645 353.46 189.519 354.02 189.519 354.7V360H187.379ZM207.514 346.6C208.794 346.6 209.901 346.873 210.834 347.42C211.768 347.967 212.488 348.747 212.994 349.76C213.501 350.773 213.754 351.987 213.754 353.4C213.754 354.813 213.501 356.027 212.994 357.04C212.488 358.053 211.768 358.833 210.834 359.38C209.901 359.927 208.794 360.2 207.514 360.2C206.248 360.2 205.148 359.927 204.214 359.38C203.281 358.833 202.561 358.053 202.054 357.04C201.548 356.027 201.294 354.813 201.294 353.4C201.294 351.987 201.548 350.773 202.054 349.76C202.561 348.747 203.281 347.967 204.214 347.42C205.148 346.873 206.248 346.6 207.514 346.6ZM207.514 348.46C206.688 348.46 205.974 348.653 205.374 349.04C204.788 349.427 204.334 349.987 204.014 350.72C203.694 351.453 203.534 352.347 203.534 353.4C203.534 354.44 203.694 355.333 204.014 356.08C204.334 356.813 204.788 357.373 205.374 357.76C205.974 358.147 206.688 358.34 207.514 358.34C208.354 358.34 209.068 358.147 209.654 357.76C210.254 357.373 210.714 356.813 211.034 356.08C211.354 355.333 211.514 354.44 211.514 353.4C211.514 352.347 211.354 351.453 211.034 350.72C210.714 349.987 210.254 349.427 209.654 349.04C209.068 348.653 208.354 348.46 207.514 348.46ZM220.877 345.36C221.29 345.36 221.663 345.407 221.997 345.5C222.343 345.58 222.603 345.693 222.777 345.84L222.377 347.38C222.23 347.287 222.063 347.22 221.877 347.18C221.69 347.127 221.477 347.1 221.237 347.1C220.69 347.1 220.257 347.227 219.937 347.48C219.63 347.733 219.477 348.147 219.477 348.72V350.18L219.537 350.72V360H217.397V348.56C217.397 348.053 217.47 347.6 217.617 347.2C217.777 346.8 218.01 346.467 218.317 346.2C218.623 345.92 218.99 345.713 219.417 345.58C219.857 345.433 220.343 345.36 220.877 345.36ZM222.717 350V351.68H215.517V350H222.717ZM129.152 369.8L124.252 383H121.752L116.852 369.8H119.132L122.212 378.58L123.012 381.2L123.812 378.6L126.892 369.8H129.152ZM134.6 372.8C135.573 372.8 136.433 373.007 137.18 373.42C137.926 373.833 138.506 374.433 138.92 375.22C139.346 375.993 139.56 376.92 139.56 378C139.56 379.08 139.346 380.013 138.92 380.8C138.506 381.573 137.926 382.167 137.18 382.58C136.433 382.993 135.573 383.2 134.6 383.2C133.626 383.2 132.766 382.993 132.02 382.58C131.273 382.167 130.686 381.573 130.26 380.8C129.833 380.013 129.62 379.08 129.62 378C129.62 376.92 129.833 375.993 130.26 375.22C130.686 374.433 131.273 373.833 132.02 373.42C132.766 373.007 133.626 372.8 134.6 372.8ZM134.6 374.48C134 374.48 133.486 374.62 133.06 374.9C132.646 375.167 132.326 375.56 132.1 376.08C131.873 376.6 131.76 377.24 131.76 378C131.76 378.747 131.873 379.387 132.1 379.92C132.326 380.44 132.646 380.84 133.06 381.12C133.486 381.387 134 381.52 134.6 381.52C135.2 381.52 135.706 381.387 136.12 381.12C136.533 380.84 136.853 380.44 137.08 379.92C137.306 379.387 137.42 378.747 137.42 378C137.42 377.24 137.306 376.6 137.08 376.08C136.853 375.56 136.533 375.167 136.12 374.9C135.706 374.62 135.2 374.48 134.6 374.48ZM144.332 368.5V380.2C144.332 380.693 144.418 381.033 144.592 381.22C144.765 381.407 145.052 381.5 145.452 381.5C145.692 381.5 145.892 381.487 146.052 381.46C146.225 381.42 146.438 381.353 146.692 381.26L146.452 382.86C146.225 382.967 145.965 383.047 145.672 383.1C145.378 383.167 145.085 383.2 144.792 383.2C143.898 383.2 143.238 382.973 142.812 382.52C142.398 382.053 142.192 381.34 142.192 380.38V368.5H144.332ZM152.042 383.2C151.389 383.2 150.782 383.08 150.222 382.84C149.676 382.6 149.236 382.213 148.902 381.68C148.569 381.147 148.402 380.453 148.402 379.6V373H150.542V379.06C150.542 379.967 150.736 380.593 151.122 380.94C151.509 381.273 152.049 381.44 152.742 381.44C153.076 381.44 153.396 381.387 153.702 381.28C154.022 381.16 154.309 380.98 154.562 380.74C154.816 380.487 155.009 380.167 155.142 379.78C155.289 379.393 155.362 378.94 155.362 378.42V373H157.502V383H155.622L155.522 381.38C155.176 382.007 154.709 382.467 154.122 382.76C153.536 383.053 152.842 383.2 152.042 383.2ZM160.846 383V373H162.746L162.886 375.6L162.606 375.32C162.792 374.747 163.059 374.273 163.406 373.9C163.766 373.513 164.186 373.233 164.666 373.06C165.159 372.887 165.679 372.8 166.226 372.8C166.932 372.8 167.566 372.94 168.126 373.22C168.699 373.487 169.152 373.893 169.486 374.44C169.819 374.987 169.986 375.68 169.986 376.52V383H167.846V377.18C167.846 376.193 167.639 375.513 167.226 375.14C166.826 374.753 166.319 374.56 165.706 374.56C165.266 374.56 164.839 374.667 164.426 374.88C164.012 375.08 163.666 375.407 163.386 375.86C163.119 376.313 162.986 376.92 162.986 377.68V383H160.846ZM176.031 370.06V380C176.031 380.493 176.158 380.853 176.411 381.08C176.678 381.307 177.031 381.42 177.471 381.42C177.831 381.42 178.145 381.367 178.411 381.26C178.678 381.14 178.925 380.98 179.151 380.78L179.631 382.34C179.325 382.607 178.945 382.82 178.491 382.98C178.051 383.127 177.558 383.2 177.011 383.2C176.438 383.2 175.911 383.107 175.431 382.92C174.951 382.733 174.578 382.433 174.311 382.02C174.045 381.593 173.905 381.04 173.891 380.36V370.66L176.031 370.06ZM179.471 373V374.68H171.971V373H179.471ZM185.988 383.2C184.988 383.2 184.108 382.993 183.348 382.58C182.588 382.167 181.994 381.573 181.568 380.8C181.154 380.013 180.948 379.08 180.948 378C180.948 376.92 181.154 375.993 181.568 375.22C181.994 374.433 182.581 373.833 183.328 373.42C184.074 373.007 184.921 372.8 185.868 372.8C186.841 372.8 187.668 373 188.348 373.4C189.028 373.8 189.548 374.347 189.908 375.04C190.268 375.733 190.448 376.52 190.448 377.4C190.448 377.64 190.441 377.867 190.428 378.08C190.414 378.293 190.394 378.48 190.368 378.64H182.328V377H189.428L188.368 377.32C188.368 376.413 188.141 375.72 187.688 375.24C187.234 374.747 186.614 374.5 185.828 374.5C185.254 374.5 184.754 374.633 184.328 374.9C183.901 375.167 183.574 375.567 183.348 376.1C183.121 376.62 183.008 377.26 183.008 378.02C183.008 378.767 183.128 379.4 183.368 379.92C183.608 380.44 183.948 380.833 184.388 381.1C184.828 381.367 185.348 381.5 185.948 381.5C186.614 381.5 187.154 381.373 187.568 381.12C187.981 380.867 188.308 380.513 188.548 380.06L190.248 380.86C190.008 381.34 189.681 381.76 189.268 382.12C188.868 382.467 188.388 382.733 187.828 382.92C187.268 383.107 186.654 383.2 185.988 383.2ZM197.55 383.2C196.55 383.2 195.67 382.993 194.91 382.58C194.15 382.167 193.557 381.573 193.13 380.8C192.717 380.013 192.51 379.08 192.51 378C192.51 376.92 192.717 375.993 193.13 375.22C193.557 374.433 194.144 373.833 194.89 373.42C195.637 373.007 196.484 372.8 197.43 372.8C198.404 372.8 199.23 373 199.91 373.4C200.59 373.8 201.11 374.347 201.47 375.04C201.83 375.733 202.01 376.52 202.01 377.4C202.01 377.64 202.004 377.867 201.99 378.08C201.977 378.293 201.957 378.48 201.93 378.64H193.89V377H200.99L199.93 377.32C199.93 376.413 199.704 375.72 199.25 375.24C198.797 374.747 198.177 374.5 197.39 374.5C196.817 374.5 196.317 374.633 195.89 374.9C195.464 375.167 195.137 375.567 194.91 376.1C194.684 376.62 194.57 377.26 194.57 378.02C194.57 378.767 194.69 379.4 194.93 379.92C195.17 380.44 195.51 380.833 195.95 381.1C196.39 381.367 196.91 381.5 197.51 381.5C198.177 381.5 198.717 381.373 199.13 381.12C199.544 380.867 199.87 380.513 200.11 380.06L201.81 380.86C201.57 381.34 201.244 381.76 200.83 382.12C200.43 382.467 199.95 382.733 199.39 382.92C198.83 383.107 198.217 383.2 197.55 383.2ZM204.713 383V373H206.533L206.733 374.8C206.999 374.147 207.393 373.653 207.913 373.32C208.446 372.973 209.099 372.8 209.873 372.8C210.073 372.8 210.273 372.82 210.473 372.86C210.673 372.887 210.839 372.933 210.973 373L210.673 374.88C210.526 374.827 210.359 374.787 210.173 374.76C209.999 374.72 209.759 374.7 209.453 374.7C209.039 374.7 208.633 374.813 208.233 375.04C207.833 375.253 207.499 375.58 207.233 376.02C206.979 376.46 206.853 377.02 206.853 377.7V383H204.713ZM216.462 383.2C215.462 383.2 214.549 383.007 213.722 382.62C212.895 382.233 212.242 381.687 211.762 380.98L213.242 379.7C213.535 380.247 213.955 380.687 214.502 381.02C215.062 381.34 215.729 381.5 216.502 381.5C217.115 381.5 217.602 381.393 217.962 381.18C218.322 380.967 218.502 380.667 218.502 380.28C218.502 380.027 218.415 379.807 218.242 379.62C218.082 379.42 217.769 379.267 217.302 379.16L215.202 378.72C214.135 378.507 213.375 378.167 212.922 377.7C212.469 377.22 212.242 376.613 212.242 375.88C212.242 375.333 212.402 374.827 212.722 374.36C213.042 373.893 213.509 373.52 214.122 373.24C214.749 372.947 215.495 372.8 216.362 372.8C217.362 372.8 218.215 372.98 218.922 373.34C219.629 373.687 220.169 374.187 220.542 374.84L219.062 376.08C218.809 375.547 218.435 375.153 217.942 374.9C217.449 374.633 216.935 374.5 216.402 374.5C215.975 374.5 215.609 374.553 215.302 374.66C214.995 374.767 214.762 374.913 214.602 375.1C214.442 375.287 214.362 375.507 214.362 375.76C214.362 376.027 214.462 376.26 214.662 376.46C214.862 376.66 215.222 376.813 215.742 376.92L218.022 377.4C218.982 377.587 219.655 377.907 220.042 378.36C220.442 378.8 220.642 379.34 220.642 379.98C220.642 380.62 220.475 381.187 220.142 381.68C219.809 382.16 219.329 382.533 218.702 382.8C218.075 383.067 217.329 383.2 216.462 383.2Z" fill="white"/>
<path d="M391 338.5L443.75 247.134L549.25 247.134L602 338.5L549.25 429.866H443.75L391 338.5Z" fill="#169C16"/>
<path d="M462.643 321.3C460.943 321.3 459.393 321.01 457.993 320.43C456.613 319.83 455.393 318.75 454.333 317.19L460.333 314.25C460.493 314.87 460.753 315.37 461.113 315.75C461.493 316.13 462.053 316.32 462.793 316.32C463.233 316.32 463.603 316.25 463.903 316.11C464.203 315.97 464.433 315.75 464.593 315.45C464.773 315.15 464.863 314.78 464.863 314.34C464.863 313.96 464.783 313.65 464.623 313.41C464.463 313.15 464.223 312.95 463.903 312.81C463.583 312.67 463.173 312.6 462.673 312.6C462.313 312.6 461.993 312.63 461.713 312.69C461.433 312.75 461.183 312.83 460.963 312.93C460.743 313.03 460.533 313.15 460.333 313.29L455.233 312.33L456.553 301.2H469.903V306.33H461.443L461.113 308.79L460.963 309.42H460.993C461.353 308.98 461.873 308.66 462.553 308.46C463.253 308.26 463.993 308.16 464.773 308.16C466.113 308.16 467.233 308.42 468.133 308.94C469.053 309.44 469.753 310.12 470.233 310.98C470.713 311.84 470.953 312.82 470.953 313.92C470.953 315.26 470.723 316.4 470.263 317.34C469.803 318.28 469.173 319.04 468.373 319.62C467.573 320.2 466.683 320.63 465.703 320.91C464.723 321.17 463.703 321.3 462.643 321.3ZM476.023 314.82C476.943 314.82 477.683 315.02 478.243 315.42C478.823 315.82 479.243 316.34 479.503 316.98C479.783 317.6 479.923 318.27 479.923 318.99C479.923 320.07 479.673 321.08 479.173 322.02C478.693 322.98 478.083 323.8 477.343 324.48C476.603 325.18 475.873 325.68 475.153 325.98L472.543 324.21C473.103 323.95 473.633 323.65 474.133 323.31C474.653 322.97 475.123 322.6 475.543 322.2C475.963 321.8 476.293 321.39 476.533 320.97L476.383 320.85C476.243 320.93 476.083 320.99 475.903 321.03C475.723 321.09 475.493 321.12 475.213 321.12C474.773 321.12 474.333 321.02 473.893 320.82C473.453 320.6 473.083 320.28 472.783 319.86C472.483 319.44 472.333 318.91 472.333 318.27C472.333 317.45 472.503 316.79 472.843 316.29C473.203 315.79 473.663 315.42 474.223 315.18C474.803 314.94 475.403 314.82 476.023 314.82ZM491.373 300.9C492.453 300.9 493.483 301.04 494.463 301.32C495.443 301.6 496.303 302.07 497.043 302.73C497.803 303.39 498.343 304.29 498.663 305.43L493.113 308.04C492.973 307.46 492.723 307.01 492.363 306.69C492.003 306.37 491.533 306.21 490.953 306.21C490.573 306.21 490.213 306.29 489.873 306.45C489.533 306.61 489.233 306.85 488.973 307.17C488.733 307.49 488.543 307.91 488.403 308.43C488.263 308.95 488.193 309.57 488.193 310.29C488.193 310.37 488.193 310.44 488.193 310.5C488.193 310.56 488.193 310.64 488.193 310.74L488.223 311.04C488.463 310.6 488.813 310.22 489.273 309.9C489.753 309.56 490.293 309.3 490.893 309.12C491.493 308.92 492.093 308.82 492.693 308.82C493.853 308.82 494.893 309.05 495.813 309.51C496.733 309.95 497.463 310.6 498.003 311.46C498.563 312.3 498.843 313.33 498.843 314.55C498.843 315.93 498.513 317.13 497.853 318.15C497.213 319.15 496.303 319.93 495.123 320.49C493.963 321.03 492.593 321.3 491.013 321.3C489.273 321.3 487.713 320.97 486.333 320.31C484.953 319.63 483.853 318.57 483.033 317.13C482.233 315.67 481.833 313.76 481.833 311.4C481.833 308.96 482.253 306.97 483.093 305.43C483.953 303.89 485.103 302.75 486.543 302.01C487.983 301.27 489.593 300.9 491.373 300.9ZM490.893 313.05C490.573 313.05 490.273 313.12 489.993 313.26C489.713 313.38 489.483 313.57 489.303 313.83C489.123 314.07 489.033 314.37 489.033 314.73C489.033 315.09 489.123 315.4 489.303 315.66C489.483 315.9 489.713 316.09 489.993 316.23C490.273 316.35 490.573 316.41 490.893 316.41C491.473 316.41 491.913 316.27 492.213 315.99C492.533 315.69 492.693 315.27 492.693 314.73C492.693 314.37 492.623 314.07 492.483 313.83C492.343 313.57 492.143 313.38 491.883 313.26C491.623 313.12 491.293 313.05 490.893 313.05ZM509.285 321.3C506.285 321.3 504.065 320.45 502.625 318.75C501.205 317.05 500.495 314.5 500.495 311.1C500.495 307.7 501.205 305.15 502.625 303.45C504.065 301.75 506.285 300.9 509.285 300.9C512.285 300.9 514.495 301.75 515.915 303.45C517.355 305.15 518.075 307.7 518.075 311.1C518.075 314.5 517.355 317.05 515.915 318.75C514.495 320.45 512.285 321.3 509.285 321.3ZM509.285 316.05C509.805 316.05 510.205 315.91 510.485 315.63C510.765 315.35 510.955 314.85 511.055 314.13C511.175 313.41 511.235 312.4 511.235 311.1C511.235 309.8 511.175 308.79 511.055 308.07C510.955 307.35 510.765 306.85 510.485 306.57C510.205 306.29 509.805 306.15 509.285 306.15C508.785 306.15 508.385 306.29 508.085 306.57C507.805 306.85 507.605 307.35 507.485 308.07C507.385 308.79 507.335 309.8 507.335 311.1C507.335 312.4 507.385 313.41 507.485 314.13C507.605 314.85 507.805 315.35 508.085 315.63C508.385 315.91 508.785 316.05 509.285 316.05ZM529.031 321.3C526.031 321.3 523.811 320.45 522.371 318.75C520.951 317.05 520.241 314.5 520.241 311.1C520.241 307.7 520.951 305.15 522.371 303.45C523.811 301.75 526.031 300.9 529.031 300.9C532.031 300.9 534.241 301.75 535.661 303.45C537.101 305.15 537.821 307.7 537.821 311.1C537.821 314.5 537.101 317.05 535.661 318.75C534.241 320.45 532.031 321.3 529.031 321.3ZM529.031 316.05C529.551 316.05 529.951 315.91 530.231 315.63C530.511 315.35 530.701 314.85 530.801 314.13C530.921 313.41 530.981 312.4 530.981 311.1C530.981 309.8 530.921 308.79 530.801 308.07C530.701 307.35 530.511 306.85 530.231 306.57C529.951 306.29 529.551 306.15 529.031 306.15C528.531 306.15 528.131 306.29 527.831 306.57C527.551 306.85 527.351 307.35 527.231 308.07C527.131 308.79 527.081 309.8 527.081 311.1C527.081 312.4 527.131 313.41 527.231 314.13C527.351 314.85 527.551 315.35 527.831 315.63C528.131 315.91 528.531 316.05 529.031 316.05Z" fill="white"/>
<path d="M471.497 360V346.8H481.057V348.64H473.637V352.44H479.437V354.24H473.637V358.16H481.337V360H471.497ZM485.472 350L488.292 354.28L488.692 354.34L492.752 360H490.212L487.272 355.6L486.812 355.44L482.892 350H485.472ZM492.692 350L488.772 355.36L488.332 355.34L485.132 360H482.692L486.952 354.3L487.372 354.34L490.232 350H492.692ZM500.512 353.58C500.512 352.913 500.326 352.4 499.952 352.04C499.592 351.667 499.092 351.48 498.452 351.48C497.852 351.48 497.339 351.62 496.912 351.9C496.486 352.18 496.172 352.633 495.972 353.26L494.172 352.5C494.426 351.687 494.919 351.033 495.652 350.54C496.399 350.047 497.359 349.8 498.532 349.8C499.332 349.8 500.039 349.933 500.652 350.2C501.266 350.453 501.746 350.84 502.092 351.36C502.452 351.88 502.632 352.547 502.632 353.36V357.82C502.632 358.313 502.879 358.56 503.372 358.56C503.612 358.56 503.846 358.527 504.072 358.46L503.952 359.94C503.646 360.087 503.259 360.16 502.792 360.16C502.366 360.16 501.979 360.087 501.632 359.94C501.299 359.78 501.032 359.547 500.832 359.24C500.646 358.92 500.552 358.527 500.552 358.06V357.92L500.992 357.9C500.872 358.42 500.626 358.853 500.252 359.2C499.879 359.533 499.446 359.787 498.952 359.96C498.459 360.12 497.959 360.2 497.452 360.2C496.826 360.2 496.259 360.1 495.752 359.9C495.259 359.7 494.866 359.4 494.572 359C494.292 358.587 494.152 358.08 494.152 357.48C494.152 356.733 494.392 356.12 494.872 355.64C495.366 355.16 496.059 354.833 496.952 354.66L500.832 353.9L500.812 355.4L497.992 355.98C497.432 356.087 497.012 356.24 496.732 356.44C496.452 356.64 496.312 356.933 496.312 357.32C496.312 357.693 496.452 357.993 496.732 358.22C497.026 358.433 497.412 358.54 497.892 358.54C498.226 358.54 498.546 358.5 498.852 358.42C499.172 358.34 499.459 358.213 499.712 358.04C499.966 357.853 500.159 357.62 500.292 357.34C500.439 357.047 500.512 356.7 500.512 356.3V353.58ZM506.139 360V350H508.039L508.139 351.68C508.485 351.04 508.945 350.567 509.519 350.26C510.105 349.953 510.725 349.8 511.379 349.8C512.099 349.8 512.759 349.967 513.359 350.3C513.972 350.62 514.432 351.107 514.739 351.76C514.952 351.32 515.245 350.953 515.619 350.66C515.992 350.367 516.405 350.153 516.859 350.02C517.312 349.873 517.759 349.8 518.199 349.8C518.839 349.8 519.439 349.933 519.999 350.2C520.559 350.467 521.012 350.873 521.359 351.42C521.705 351.967 521.879 352.667 521.879 353.52V360H519.739V353.86C519.739 353.047 519.545 352.46 519.159 352.1C518.772 351.74 518.279 351.56 517.679 351.56C517.212 351.56 516.779 351.673 516.379 351.9C515.992 352.127 515.679 352.467 515.439 352.92C515.199 353.36 515.079 353.907 515.079 354.56V360H512.939V353.86C512.939 353.047 512.745 352.46 512.359 352.1C511.972 351.74 511.479 351.56 510.879 351.56C510.479 351.56 510.079 351.667 509.679 351.88C509.279 352.093 508.945 352.427 508.679 352.88C508.412 353.333 508.279 353.933 508.279 354.68V360H506.139ZM457.408 383H455.148L453.888 379.54H448.348L447.088 383H444.888L449.868 369.8H452.428L457.408 383ZM448.948 377.8H453.288L451.128 371.64L448.948 377.8ZM461.725 370.06V380C461.725 380.493 461.851 380.853 462.105 381.08C462.371 381.307 462.725 381.42 463.165 381.42C463.525 381.42 463.838 381.367 464.105 381.26C464.371 381.14 464.618 380.98 464.845 380.78L465.325 382.34C465.018 382.607 464.638 382.82 464.185 382.98C463.745 383.127 463.251 383.2 462.705 383.2C462.131 383.2 461.605 383.107 461.125 382.92C460.645 382.733 460.271 382.433 460.005 382.02C459.738 381.593 459.598 381.04 459.585 380.36V370.66L461.725 370.06ZM465.165 373V374.68H457.665V373H465.165ZM469.088 370.06V380C469.088 380.493 469.214 380.853 469.468 381.08C469.734 381.307 470.088 381.42 470.528 381.42C470.888 381.42 471.201 381.367 471.468 381.26C471.734 381.14 471.981 380.98 472.208 380.78L472.688 382.34C472.381 382.607 472.001 382.82 471.548 382.98C471.108 383.127 470.614 383.2 470.068 383.2C469.494 383.2 468.968 383.107 468.488 382.92C468.008 382.733 467.634 382.433 467.368 382.02C467.101 381.593 466.961 381.04 466.948 380.36V370.66L469.088 370.06ZM472.528 373V374.68H465.028V373H472.528ZM479.044 383.2C478.044 383.2 477.164 382.993 476.404 382.58C475.644 382.167 475.051 381.573 474.624 380.8C474.211 380.013 474.004 379.08 474.004 378C474.004 376.92 474.211 375.993 474.624 375.22C475.051 374.433 475.638 373.833 476.384 373.42C477.131 373.007 477.978 372.8 478.924 372.8C479.898 372.8 480.724 373 481.404 373.4C482.084 373.8 482.604 374.347 482.964 375.04C483.324 375.733 483.504 376.52 483.504 377.4C483.504 377.64 483.498 377.867 483.484 378.08C483.471 378.293 483.451 378.48 483.424 378.64H475.384V377H482.484L481.424 377.32C481.424 376.413 481.198 375.72 480.744 375.24C480.291 374.747 479.671 374.5 478.884 374.5C478.311 374.5 477.811 374.633 477.384 374.9C476.958 375.167 476.631 375.567 476.404 376.1C476.178 376.62 476.064 377.26 476.064 378.02C476.064 378.767 476.184 379.4 476.424 379.92C476.664 380.44 477.004 380.833 477.444 381.1C477.884 381.367 478.404 381.5 479.004 381.5C479.671 381.5 480.211 381.373 480.624 381.12C481.038 380.867 481.364 380.513 481.604 380.06L483.304 380.86C483.064 381.34 482.738 381.76 482.324 382.12C481.924 382.467 481.444 382.733 480.884 382.92C480.324 383.107 479.711 383.2 479.044 383.2ZM486.207 383V373H488.107L488.207 374.68C488.554 374.04 489.014 373.567 489.587 373.26C490.174 372.953 490.794 372.8 491.447 372.8C492.167 372.8 492.827 372.967 493.427 373.3C494.04 373.62 494.5 374.107 494.807 374.76C495.02 374.32 495.314 373.953 495.687 373.66C496.06 373.367 496.474 373.153 496.927 373.02C497.38 372.873 497.827 372.8 498.267 372.8C498.907 372.8 499.507 372.933 500.067 373.2C500.627 373.467 501.08 373.873 501.427 374.42C501.774 374.967 501.947 375.667 501.947 376.52V383H499.807V376.86C499.807 376.047 499.614 375.46 499.227 375.1C498.84 374.74 498.347 374.56 497.747 374.56C497.28 374.56 496.847 374.673 496.447 374.9C496.06 375.127 495.747 375.467 495.507 375.92C495.267 376.36 495.147 376.907 495.147 377.56V383H493.007V376.86C493.007 376.047 492.814 375.46 492.427 375.1C492.04 374.74 491.547 374.56 490.947 374.56C490.547 374.56 490.147 374.667 489.747 374.88C489.347 375.093 489.014 375.427 488.747 375.88C488.48 376.333 488.347 376.933 488.347 377.68V383H486.207ZM505.191 387.2V373H507.091L507.251 375.8L506.971 375.46C507.131 374.94 507.378 374.48 507.711 374.08C508.045 373.68 508.458 373.367 508.951 373.14C509.458 372.913 510.011 372.8 510.611 372.8C511.425 372.8 512.165 373.007 512.831 373.42C513.498 373.833 514.025 374.427 514.411 375.2C514.798 375.96 514.991 376.887 514.991 377.98C514.991 379.073 514.791 380.013 514.391 380.8C514.005 381.573 513.471 382.167 512.791 382.58C512.125 382.993 511.378 383.2 510.551 383.2C509.698 383.2 508.971 382.98 508.371 382.54C507.771 382.087 507.345 381.513 507.091 380.82L507.331 380.48V387.2H505.191ZM510.091 381.46C510.958 381.46 511.631 381.153 512.111 380.54C512.605 379.927 512.851 379.08 512.851 378C512.851 376.92 512.611 376.073 512.131 375.46C511.651 374.833 510.985 374.52 510.131 374.52C509.571 374.52 509.078 374.667 508.651 374.96C508.238 375.24 507.911 375.64 507.671 376.16C507.445 376.667 507.331 377.28 507.331 378C507.331 378.707 507.445 379.32 507.671 379.84C507.898 380.36 508.218 380.76 508.631 381.04C509.045 381.32 509.531 381.46 510.091 381.46ZM520.514 370.06V380C520.514 380.493 520.64 380.853 520.894 381.08C521.16 381.307 521.514 381.42 521.954 381.42C522.314 381.42 522.627 381.367 522.894 381.26C523.16 381.14 523.407 380.98 523.634 380.78L524.114 382.34C523.807 382.607 523.427 382.82 522.974 382.98C522.534 383.127 522.04 383.2 521.494 383.2C520.92 383.2 520.394 383.107 519.914 382.92C519.434 382.733 519.06 382.433 518.794 382.02C518.527 381.593 518.387 381.04 518.374 380.36V370.66L520.514 370.06ZM523.954 373V374.68H516.454V373H523.954ZM530.47 383.2C529.47 383.2 528.59 382.993 527.83 382.58C527.07 382.167 526.477 381.573 526.05 380.8C525.637 380.013 525.43 379.08 525.43 378C525.43 376.92 525.637 375.993 526.05 375.22C526.477 374.433 527.063 373.833 527.81 373.42C528.557 373.007 529.403 372.8 530.35 372.8C531.323 372.8 532.15 373 532.83 373.4C533.51 373.8 534.03 374.347 534.39 375.04C534.75 375.733 534.93 376.52 534.93 377.4C534.93 377.64 534.923 377.867 534.91 378.08C534.897 378.293 534.877 378.48 534.85 378.64H526.81V377H533.91L532.85 377.32C532.85 376.413 532.623 375.72 532.17 375.24C531.717 374.747 531.097 374.5 530.31 374.5C529.737 374.5 529.237 374.633 528.81 374.9C528.383 375.167 528.057 375.567 527.83 376.1C527.603 376.62 527.49 377.26 527.49 378.02C527.49 378.767 527.61 379.4 527.85 379.92C528.09 380.44 528.43 380.833 528.87 381.1C529.31 381.367 529.83 381.5 530.43 381.5C531.097 381.5 531.637 381.373 532.05 381.12C532.463 380.867 532.79 380.513 533.03 380.06L534.73 380.86C534.49 381.34 534.163 381.76 533.75 382.12C533.35 382.467 532.87 382.733 532.31 382.92C531.75 383.107 531.137 383.2 530.47 383.2ZM541.473 383.2C540.646 383.2 539.893 382.993 539.213 382.58C538.546 382.167 538.019 381.573 537.633 380.8C537.246 380.027 537.053 379.1 537.053 378.02C537.053 376.9 537.259 375.953 537.673 375.18C538.086 374.407 538.639 373.82 539.333 373.42C540.026 373.007 540.786 372.8 541.613 372.8C542.466 372.8 543.186 373.033 543.773 373.5C544.359 373.967 544.753 374.573 544.953 375.32L544.713 375.54V368.5H546.853V383H544.953L544.793 380.28L545.073 380.3C544.979 380.9 544.759 381.42 544.413 381.86C544.066 382.287 543.633 382.62 543.113 382.86C542.606 383.087 542.059 383.2 541.473 383.2ZM541.933 381.48C542.506 381.48 542.999 381.333 543.413 381.04C543.826 380.747 544.146 380.333 544.373 379.8C544.599 379.267 544.713 378.627 544.713 377.88C544.713 377.187 544.599 376.593 544.373 376.1C544.146 375.593 543.826 375.207 543.413 374.94C543.013 374.673 542.546 374.54 542.013 374.54C541.119 374.54 540.426 374.847 539.933 375.46C539.439 376.073 539.193 376.92 539.193 378C539.193 379.08 539.433 379.933 539.913 380.56C540.393 381.173 541.066 381.48 541.933 381.48Z" fill="white"/>
<defs>
<linearGradient id="paint0_linear_72_1076" x1="15" y1="303" x2="833" y2="301.5" gradientUnits="userSpaceOnUse">
<stop stop-color="#F2F0F0"/>
<stop offset="1" stop-color="#F2F0F0" stop-opacity="0"/>
</linearGradient>
</defs>
</svg>
