<svg width="1061" height="316" viewBox="0 0 1061 316" fill="none" xmlns="http://www.w3.org/2000/svg">
<path d="M125.03 287.74H34.51V294.01H125.03V287.74Z" fill="white"/>
<path d="M34.51 277.42V267.69H124.3L124.68 277.42H34.51Z" fill="white"/>
<path d="M34.51 257.21V243.83H123.68L123.96 257.21H34.51Z" fill="white"/>
<path d="M34.51 233.32V213.92H122.76L123.2 233.32H34.51Z" fill="white"/>
<path d="M34.51 203.74V173.74H291.55L293.44 203.74H137.89L120.16 173.75L122.32 203.74H34.51Z" fill="white"/>
<path d="M34.51 163.37V126.24H188.01L210.75 163.37L208.62 126.24H293.44V163.37H34.51Z" fill="white"/>
<path d="M34.51 115.82V43.3799L138.34 43.6799L181.32 115.82H34.51Z" fill="white"/>
<path d="M293.43 43.3799H208.61V115.82H293.43V43.3799Z" fill="white"/>
<path d="M293.44 213.92V233.32H157.73L144.86 213.92H293.44Z" fill="white"/>
<path d="M293.44 243.83V257.21H173.24L164.43 243.83H293.44Z" fill="white"/>
<path d="M293.44 267.69V277.42H186.54L180.16 267.69H293.44Z" fill="white"/>
<path d="M293.44 287.75V294.02H197.58L193.41 287.75H293.44Z" fill="white"/>
<path d="M406.2 287.74H317.63V294.01H406.2V287.74Z" fill="white"/>
<path d="M406.2 267.68H317.63V277.41H406.2V267.68Z" fill="white"/>
<path d="M406.2 243.83H317.63V257.21H406.2V243.83Z" fill="white"/>
<path d="M406.2 213.92H317.63V233.29H406.2V213.92Z" fill="white"/>
<path d="M406.2 173.74H317.63V203.75H406.2V173.74Z" fill="white"/>
<path d="M406.2 126.24H317.63V163.37H406.2V126.24Z" fill="white"/>
<path d="M406.2 43.3799H317.63V115.82H406.2V43.3799Z" fill="white"/>
<path d="M558.48 39.1001H605.48V115.82H434.32C455.51 70.8201 503.2 39.1001 558.48 39.1001Z" fill="white"/>
<path d="M529.48 126.24C524.048 130.803 519.66 136.479 516.613 142.885C513.566 149.291 511.932 156.277 511.82 163.37H422.59C423.207 150.695 425.704 138.181 430 126.24H529.48Z" fill="white"/>
<path d="M512.61 173.74C514.717 185.526 520.975 196.169 530.25 203.74H427.86C424.934 193.991 423.254 183.911 422.86 173.74H512.61Z" fill="white"/>
<path d="M605.48 213.92V233.32H441.1C437.298 227.152 434.048 220.66 431.39 213.92H605.48Z" fill="white"/>
<path d="M605.48 243.83V257.21H460C455.787 253.031 451.874 248.56 448.29 243.83H605.48Z" fill="white"/>
<path d="M605.48 267.69V277.42H485.58C480.742 274.43 476.069 271.182 471.58 267.69H605.48Z" fill="white"/>
<path d="M605.48 287.75V293.15H525.29C525.29 293.15 522.62 294.07 506.71 287.75H605.48Z" fill="white"/>
<path d="M651.13 112.46H662.97L684.42 149.8V112.46H694.94V166H683.65L661.65 128.01V166H651.13V112.46Z" fill="white"/>
<path d="M719.77 141.92C721.194 141.798 722.595 141.492 723.94 141.01C724.582 140.828 725.149 140.443 725.556 139.914C725.963 139.384 726.189 138.738 726.2 138.07C726.266 137.403 726.138 136.731 725.831 136.135C725.524 135.539 725.051 135.044 724.47 134.71C722.874 134.001 721.133 133.682 719.39 133.78C716.9 133.78 715.12 134.39 714.08 135.59C713.267 136.648 712.756 137.905 712.6 139.23H702.51C702.609 136.146 703.656 133.167 705.51 130.7C708.277 127.2 713.04 125.453 719.8 125.46C723.85 125.387 727.859 126.274 731.5 128.05C734.92 129.757 736.627 133 736.62 137.78V155.94C736.62 157.21 736.62 158.73 736.7 160.52C736.668 161.481 736.882 162.434 737.32 163.29C737.72 163.815 738.251 164.226 738.86 164.48V166H727.45C727.148 165.276 726.923 164.522 726.78 163.75C726.66 163.05 726.57 162.25 726.49 161.36C725.028 162.917 723.343 164.249 721.49 165.31C719.145 166.619 716.495 167.285 713.81 167.24C710.534 167.364 707.328 166.27 704.81 164.17C702.44 162.17 701.24 159.22 701.24 155.47C701.24 150.61 703.16 147.08 706.97 144.9C709.863 143.479 712.997 142.614 716.21 142.35L719.77 141.92ZM726.16 146.75C725.53 147.153 724.86 147.488 724.16 147.75C723.249 148.067 722.312 148.305 721.36 148.46L718.98 148.9C717.316 149.115 715.696 149.591 714.18 150.31C713.393 150.733 712.742 151.371 712.304 152.15C711.867 152.93 711.661 153.818 711.71 154.71C711.645 155.422 711.747 156.139 712.009 156.805C712.272 157.47 712.686 158.064 713.22 158.54C714.268 159.342 715.561 159.759 716.88 159.72C719.14 159.722 721.344 159.023 723.19 157.72C725.12 156.41 726.11 154.03 726.19 150.57L726.16 146.75Z" fill="white"/>
<path d="M740.85 134.14V126.77H746.42V115.77H756.76V126.77H763.25V134.14H756.76V155.06C756.76 156.69 756.96 157.71 757.39 158.06C757.82 158.41 759.07 158.66 761.19 158.66H762.19C762.54 158.66 762.89 158.66 763.19 158.6V166.34L758.19 166.52C753.25 166.68 749.88 165.85 748.06 163.98C746.89 162.79 746.31 160.98 746.31 158.49V134.14H740.85Z" fill="white"/>
<path d="M781.25 121.68H770.64V112.13H781.25V121.68ZM770.64 126.41H781.25V166H770.64V126.41Z" fill="white"/>
<path d="M822.65 161.17C819.283 165.283 814.163 167.34 807.29 167.34C800.417 167.34 795.293 165.283 791.92 161.17C788.638 156.906 786.859 151.676 786.859 146.295C786.859 140.914 788.638 135.684 791.92 131.42C795.287 127.233 800.41 125.14 807.29 125.14C814.17 125.14 819.29 127.233 822.65 131.42C825.925 135.687 827.701 140.916 827.701 146.295C827.701 151.674 825.925 156.903 822.65 161.17ZM814.29 155.44C815.917 153.287 816.733 150.227 816.74 146.26C816.747 142.293 815.93 139.24 814.29 137.1C813.412 136.092 812.329 135.285 811.113 134.731C809.897 134.178 808.576 133.892 807.24 133.892C805.904 133.892 804.583 134.178 803.367 134.731C802.151 135.285 801.068 136.092 800.19 137.1C798.537 139.24 797.713 142.293 797.72 146.26C797.727 150.227 798.55 153.287 800.19 155.44C801.064 156.453 802.146 157.266 803.363 157.824C804.579 158.381 805.902 158.669 807.24 158.669C808.578 158.669 809.901 158.381 811.117 157.824C812.334 157.266 813.416 156.453 814.29 155.44Z" fill="white"/>
<path d="M866.66 128.68C869.28 130.82 870.59 134.373 870.59 139.34V166H859.87V141.92C859.953 140.279 859.673 138.64 859.05 137.12C858.05 135.12 856.05 134.07 853.21 134.07C849.703 134.07 847.293 135.56 845.98 138.54C845.249 140.453 844.909 142.493 844.98 144.54V166H834.5V126.48H844.63V132.25C845.645 130.586 846.929 129.103 848.43 127.86C850.808 126.191 853.667 125.348 856.57 125.46C860.209 125.303 863.785 126.444 866.66 128.68Z" fill="white"/>
<path d="M895.38 141.92C896.803 141.798 898.205 141.492 899.55 141.01C900.192 140.828 900.759 140.443 901.166 139.914C901.573 139.384 901.799 138.738 901.81 138.07C901.876 137.403 901.748 136.731 901.441 136.135C901.134 135.539 900.661 135.044 900.08 134.71C898.488 134.003 896.75 133.684 895.01 133.78C892.51 133.78 890.73 134.39 889.69 135.59C888.881 136.65 888.37 137.906 888.21 139.23H878.12C878.226 136.147 879.273 133.171 881.12 130.7C883.9 127.2 888.663 125.453 895.41 125.46C899.46 125.384 903.47 126.272 907.11 128.05C910.53 129.757 912.24 133 912.24 137.78V155.94C912.24 157.21 912.24 158.73 912.31 160.52C912.284 161.481 912.497 162.432 912.93 163.29C913.332 163.813 913.863 164.223 914.47 164.48V166H903.06C902.758 165.276 902.533 164.522 902.39 163.75C902.27 163.05 902.18 162.25 902.1 161.36C900.638 162.917 898.953 164.249 897.1 165.31C894.758 166.619 892.112 167.285 889.43 167.24C886.154 167.363 882.948 166.269 880.43 164.17C878.063 162.123 876.877 159.223 876.87 155.47C876.87 150.61 878.777 147.087 882.59 144.9C885.483 143.479 888.617 142.614 891.83 142.35L895.38 141.92ZM901.77 146.75C901.14 147.153 900.47 147.488 899.77 147.75C898.859 148.068 897.922 148.306 896.97 148.46L894.59 148.9C892.926 149.117 891.307 149.593 889.79 150.31C889.005 150.735 888.357 151.374 887.922 152.153C887.486 152.932 887.281 153.819 887.33 154.71C887.263 155.421 887.363 156.138 887.624 156.804C887.884 157.469 888.297 158.064 888.83 158.54C889.878 159.342 891.171 159.759 892.49 159.72C894.752 159.719 896.959 159.021 898.81 157.72C900.73 156.41 901.72 154.03 901.81 150.57L901.77 146.75Z" fill="white"/>
<path d="M931.24 112.46H920.78V166.01H931.24V112.46Z" fill="white"/>
<path d="M661.61 175.27H650.4V228.81H661.61V175.27Z" fill="white"/>
<path d="M702.81 191.49C705.417 193.63 706.723 197.183 706.73 202.15V228.81H696V204.73C696.082 203.092 695.798 201.455 695.17 199.94C694.17 197.94 692.17 196.88 689.34 196.88C685.82 196.88 683.41 198.38 682.09 201.36C681.363 203.274 681.023 205.314 681.09 207.36V228.79H670.65V189.29H680.77V195.07C681.785 193.404 683.069 191.917 684.57 190.67C686.944 189.001 689.801 188.162 692.7 188.28C696.344 188.12 699.926 189.257 702.81 191.49Z" fill="white"/>
<path d="M732.23 174.78L734.43 174.94V183.37C733.84 183.3 732.86 183.24 731.48 183.2C730.965 183.127 730.44 183.172 729.944 183.331C729.449 183.491 728.996 183.76 728.62 184.12C728.115 184.711 727.835 185.462 727.83 186.24V189.58H734.69V196.89H727.83V228.81H717.46V196.89H711.59V189.58H717.3V187C717.3 182.76 718.03 179.84 719.47 178.24C720.977 175.867 724.643 174.683 730.47 174.69C731.13 174.69 731.74 174.69 732.27 174.74" fill="white"/>
<path d="M773.28 224C769.9 228.127 764.78 230.19 757.92 230.19C751.04 230.19 745.92 228.13 742.55 224C739.269 219.737 737.49 214.509 737.49 209.13C737.49 203.751 739.269 198.523 742.55 194.26C745.93 190 751 188 757.92 188C764.84 188 769.92 190.09 773.28 194.28C776.554 198.546 778.329 203.773 778.329 209.15C778.329 214.527 776.554 219.754 773.28 224.02M764.92 218.3C766.553 216.147 767.37 213.087 767.37 209.12C767.37 205.153 766.553 202.1 764.92 199.96C764.042 198.953 762.959 198.145 761.743 197.591C760.527 197.038 759.206 196.752 757.87 196.752C756.534 196.752 755.213 197.038 753.997 197.591C752.781 198.145 751.698 198.953 750.82 199.96C749.167 202.107 748.34 205.16 748.34 209.12C748.34 213.08 749.167 216.14 750.82 218.3C751.694 219.313 752.776 220.126 753.993 220.684C755.209 221.241 756.532 221.529 757.87 221.529C759.208 221.529 760.531 221.241 761.747 220.684C762.964 220.126 764.046 219.313 764.92 218.3Z" fill="white"/>
<path d="M807.27 188.29C807.4 188.29 807.7 188.29 808.17 188.35V199C807.51 198.94 806.92 198.88 806.41 198.86H805.16C800.953 198.86 798.13 200.217 796.69 202.93C795.877 204.457 795.473 206.79 795.48 209.93V228.85H785V189.25H795V196.17C796.11 194.154 797.531 192.325 799.21 190.75C801.384 189.052 804.095 188.19 806.85 188.32H807.34" fill="white"/>
<path d="M863.41 189.37C865.241 190.136 866.843 191.363 868.06 192.93C869.227 194.412 870.007 196.161 870.33 198.02C870.616 199.949 870.736 201.9 870.69 203.85L870.62 228.85H859.91V203.6C859.962 202.326 859.712 201.058 859.18 199.9C858.253 198.06 856.543 197.14 854.05 197.14C852.804 197.034 851.555 197.32 850.479 197.958C849.404 198.597 848.554 199.555 848.05 200.7C847.452 202.137 847.166 203.684 847.21 205.24V228.81H836.71V205.24C836.807 203.501 836.556 201.76 835.97 200.12C835.1 198.2 833.37 197.25 830.8 197.25C827.8 197.25 825.8 198.2 824.8 200.12C824.16 201.663 823.886 203.333 824 205V228.83H813.4V189.29H823.5V195.07C824.468 193.408 825.708 191.92 827.17 190.67C829.443 189.213 832.074 188.412 834.774 188.354C837.473 188.295 840.136 188.983 842.47 190.34C844.002 191.609 845.185 193.247 845.91 195.1C847.106 192.965 848.867 191.2 851 190C853.231 188.897 855.692 188.339 858.18 188.37C859.968 188.37 861.739 188.709 863.4 189.37" fill="white"/>
<path d="M895.38 204.74C896.803 204.611 898.205 204.302 899.55 203.82C900.192 203.638 900.759 203.253 901.166 202.724C901.573 202.194 901.799 201.548 901.81 200.88C901.877 200.213 901.75 199.54 901.443 198.944C901.136 198.348 900.662 197.853 900.08 197.52C898.485 196.821 896.749 196.506 895.01 196.6C892.51 196.6 890.73 197.2 889.69 198.41C888.879 199.465 888.368 200.719 888.21 202.04H878.12C878.226 198.957 879.273 195.981 881.12 193.51C883.9 190.023 888.663 188.28 895.41 188.28C899.458 188.198 903.468 189.079 907.11 190.85C910.53 192.57 912.24 195.817 912.24 200.59V218.76C912.24 220.02 912.24 221.53 912.31 223.32C912.281 224.284 912.494 225.24 912.93 226.1C913.331 226.626 913.862 227.039 914.47 227.3V228.81H903.06C902.756 228.086 902.532 227.332 902.39 226.56C902.27 225.86 902.18 225.06 902.1 224.17C900.642 225.745 898.957 227.093 897.1 228.17C894.758 229.479 892.112 230.145 889.43 230.1C886.156 230.222 882.952 229.132 880.43 227.04C878.06 224.98 876.87 222.04 876.87 218.33C876.87 213.457 878.777 209.933 882.59 207.76C885.484 206.343 888.618 205.481 891.83 205.22L895.38 204.74ZM901.77 209.56C901.138 209.959 900.468 210.294 899.77 210.56C898.857 210.873 897.921 211.114 896.97 211.28L894.59 211.71C892.925 211.925 891.304 212.404 889.79 213.13C889.004 213.552 888.356 214.189 887.92 214.966C887.484 215.744 887.279 216.63 887.33 217.52C887.261 218.232 887.361 218.949 887.621 219.615C887.882 220.28 888.296 220.875 888.83 221.35C889.878 222.153 891.171 222.569 892.49 222.53C894.752 222.529 896.959 221.831 898.81 220.53C900.73 219.22 901.72 216.84 901.81 213.37L901.77 209.56Z" fill="white"/>
<path d="M916.46 197V189.62H922V178.53H932.34V189.58H938.82V197H932.34V217.92C932.34 219.55 932.54 220.55 932.96 220.92C933.38 221.29 934.65 221.52 936.77 221.52C937.09 221.52 937.42 221.52 937.77 221.52C938.12 221.52 938.47 221.52 938.77 221.47V229.21L933.83 229.39C928.88 229.57 925.52 228.71 923.71 226.85C922.53 225.67 921.95 223.85 921.95 221.36V197H916.46Z" fill="white"/>
<path d="M956.86 184.5H946.25V174.94H956.86V184.5ZM946.25 189.22H956.86V228.81H946.25V189.22Z" fill="white"/>
<path d="M988.84 203.43C988.662 201.994 988.141 200.622 987.32 199.43C986.15 197.82 984.32 197.03 981.85 197.03C978.323 197.03 975.91 198.76 974.61 202.22C973.854 204.58 973.515 207.054 973.61 209.53C973.517 211.905 973.856 214.276 974.61 216.53C975.067 218.023 976.011 219.32 977.29 220.215C978.569 221.11 980.111 221.552 981.67 221.47C984.11 221.47 985.85 220.81 986.88 219.47C987.975 217.989 988.627 216.227 988.76 214.39H999.43C999.146 217.634 997.946 220.731 995.97 223.32C992.7 227.85 987.83 230.11 981.41 230.11C974.99 230.11 970.24 228.22 967.21 224.45C964.18 220.68 962.66 215.77 962.66 209.75C962.66 202.95 964.327 197.667 967.66 193.9C970.993 190.133 975.617 188.243 981.53 188.23C986.55 188.23 990.657 189.343 993.85 191.57C997.04 193.79 998.93 197.74 999.52 203.38L988.84 203.43Z" fill="white"/>
<path d="M1014 216.18C1014.07 217.604 1014.57 218.973 1015.44 220.1C1016.74 221.48 1019.15 222.17 1022.66 222.17C1024.35 222.241 1026.03 221.93 1027.58 221.26C1028.1 221.046 1028.54 220.691 1028.87 220.235C1029.2 219.78 1029.39 219.243 1029.42 218.684C1029.46 218.125 1029.34 217.567 1029.08 217.074C1028.81 216.58 1028.42 216.17 1027.93 215.89C1026.96 215.27 1023.31 214.227 1017 212.76C1012.46 211.64 1009.26 210.25 1007.4 208.59C1005.54 206.93 1004.61 204.59 1004.61 201.46C1004.61 199.658 1005 197.877 1005.76 196.243C1006.51 194.609 1007.62 193.16 1009 192C1011.9 189.373 1015.99 188.06 1021.26 188.06C1026.26 188.06 1030.33 189.06 1033.47 191.06C1036.61 193.06 1038.47 196.45 1038.88 201.28H1028.44C1028.37 200.143 1027.97 199.051 1027.3 198.13C1026.15 196.717 1024.19 196.013 1021.41 196.02C1019.14 196.02 1017.52 196.37 1016.55 197.07C1016.12 197.329 1015.76 197.692 1015.51 198.125C1015.26 198.558 1015.12 199.048 1015.1 199.55C1015.07 200.083 1015.2 200.612 1015.48 201.07C1015.75 201.528 1016.16 201.894 1016.64 202.12C1017.67 202.68 1021.3 203.637 1027.55 204.99C1031.71 205.963 1034.83 207.43 1036.91 209.39C1037.91 210.35 1038.7 211.508 1039.23 212.791C1039.76 214.074 1040.02 215.453 1039.99 216.84C1040.04 218.674 1039.66 220.494 1038.89 222.16C1038.12 223.826 1036.98 225.293 1035.56 226.45C1032.56 228.93 1028.06 230.17 1021.87 230.17C1015.68 230.17 1010.93 228.86 1007.94 226.23C1006.5 225.002 1005.34 223.467 1004.57 221.737C1003.79 220.007 1003.41 218.126 1003.45 216.23L1014 216.18Z" fill="white"/>
<path d="M656.48 246C660.82 241.6 666.353 239.397 673.08 239.39C682.08 239.39 688.657 242.343 692.81 248.25C694.965 251.166 696.252 254.633 696.52 258.25H685.23C684.734 256.14 683.79 254.162 682.46 252.45C680.46 250.117 677.46 248.95 673.46 248.95C671.587 248.892 669.73 249.314 668.066 250.175C666.402 251.036 664.985 252.308 663.95 253.87C661.63 257.163 660.467 261.81 660.46 267.81C660.453 273.81 661.68 278.307 664.14 281.3C665.241 282.723 666.658 283.87 668.279 284.649C669.901 285.428 671.681 285.819 673.48 285.79C677.36 285.79 680.313 284.507 682.34 281.94C683.684 280.081 684.637 277.968 685.14 275.73H696.4C695.633 281.165 693.02 286.172 689 289.91C685 293.577 679.9 295.407 673.7 295.4C666.02 295.4 659.977 292.93 655.57 287.99C651.163 283.05 648.973 276.243 649 267.57C649 258.237 651.507 251.033 656.52 245.96" fill="white"/>
<path d="M730 255.12C732.817 256.372 735.215 258.406 736.91 260.98C738.587 263.425 739.675 266.225 740.09 269.16C740.412 271.767 740.529 274.395 740.44 277.02H711.31C711.483 281.02 712.877 283.807 715.49 285.38C717.232 286.407 719.229 286.92 721.25 286.86C723.337 286.964 725.393 286.322 727.05 285.05C727.946 284.296 728.677 283.367 729.2 282.32H739.87C739.59 284.68 738.3 287.06 736 289.48C732.42 293.327 727.42 295.253 721 295.26C715.88 295.326 710.897 293.604 706.91 290.39C702.85 287.143 700.82 281.857 700.82 274.53C700.82 267.67 702.653 262.41 706.32 258.75C709.987 255.09 714.75 253.26 720.61 253.26C723.839 253.215 727.042 253.849 730.01 255.12M714.39 264.06C712.825 265.75 711.847 267.9 711.6 270.19H729.6C729.589 269.014 729.336 267.852 728.858 266.777C728.38 265.702 727.686 264.736 726.82 263.94C725.087 262.489 722.879 261.727 720.62 261.8C719.482 261.727 718.341 261.891 717.269 262.28C716.197 262.668 715.217 263.275 714.39 264.06Z" fill="white"/>
<path d="M777.18 256.58C779.8 258.74 781.11 262.28 781.11 267.25V293.91H770.4V269.83C770.479 268.187 770.192 266.548 769.56 265.03C768.56 263.03 766.56 262.03 763.74 262.03C760.22 262.03 757.81 263.52 756.49 266.5C755.763 268.414 755.423 270.453 755.49 272.5V293.93H745V254.39H755.12V260.17C756.132 258.502 757.417 257.014 758.92 255.77C761.297 254.101 764.158 253.261 767.06 253.38C770.699 253.221 774.277 254.355 777.16 256.58" fill="white"/>
<path d="M786 262.06V254.68H791.57V243.68H801.91V254.68H808.4V262.06H801.91V283C801.91 284.62 802.12 285.62 802.54 286C802.95 286.41 804.22 286.6 806.35 286.6H807.35L808.35 286.54V294.28L803.35 294.46C798.41 294.62 795.04 293.78 793.23 291.91C792.063 290.73 791.477 288.903 791.47 286.43V262.06H786Z" fill="white"/>
<path d="M836.52 253.39L837.43 253.44V264.05C836.77 263.98 836.17 263.93 835.66 263.91C835.15 263.89 834.74 263.86 834.42 263.86C830.22 263.86 827.42 265.23 825.95 267.94C825.14 269.47 824.74 271.81 824.74 274.99V293.91H814.22V254.32H824.22V261.21C825.332 259.195 826.76 257.372 828.45 255.81C830.617 254.114 833.321 253.252 836.07 253.38H836.56" fill="white"/>
<path d="M868.84 255.12C871.654 256.372 874.049 258.406 875.74 260.98C877.42 263.424 878.512 266.224 878.93 269.16C879.247 271.767 879.361 274.395 879.27 277.02H850.17C850.33 281.02 851.72 283.807 854.34 285.38C856.083 286.405 858.079 286.918 860.1 286.86C862.189 286.961 864.247 286.32 865.91 285.05C866.802 284.293 867.534 283.365 868.06 282.32H878.72C878.45 284.68 877.15 287.06 874.86 289.48C871.27 293.33 866.27 295.26 859.86 295.26C854.743 295.324 849.764 293.601 845.78 290.39C841.72 287.143 839.687 281.857 839.68 274.53C839.68 267.67 841.517 262.41 845.19 258.75C848.863 255.09 853.627 253.26 859.48 253.26C862.709 253.216 865.911 253.849 868.88 255.12M853.24 264.06C851.682 265.753 850.707 267.902 850.46 270.19H868.46C868.447 269.013 868.193 267.851 867.713 266.776C867.233 265.701 866.538 264.736 865.67 263.94C863.937 262.487 861.73 261.725 859.47 261.8C858.331 261.73 857.189 261.894 856.115 262.283C855.042 262.671 854.06 263.276 853.23 264.06" fill="white"/>
<path d="M885.19 94.24C884.07 92.53 881.19 88.45 875.37 80.24C868.85 71.09 866.17 66.84 865.12 64.87L872.32 59.96C872.795 61.0821 873.357 62.1654 874 63.2C874.275 63.762 874.681 64.2496 875.184 64.622C875.687 64.9944 876.272 65.2406 876.89 65.34H877.15C877.573 65.358 877.99 65.2365 878.336 64.9944C878.683 64.7523 878.941 64.4029 879.07 64C879.177 63.5616 879.227 63.1113 879.22 62.66V51.66H869V43.57H892.87L891.77 42.07C891.42 41.59 891.19 41.24 891.05 41.07C889.737 38.7818 889.105 36.1655 889.23 33.53C889.257 31.7726 889.682 30.0441 890.474 28.4748C891.265 26.9055 892.403 25.5362 893.8 24.47C896.71 22.19 900.67 21.03 905.57 21.03C910.85 21.03 918.49 23.81 923.69 30.03C926.833 33.8967 929.357 38.2284 931.17 42.87V94H920.92V51.66H911V94H900.79V72.32H896.41L892.08 64.71L900.79 64.8V51.66H889.4V63.77C889.396 65.7162 888.729 67.603 887.51 69.12C886.149 70.976 884.17 72.2847 881.93 72.81L880.55 73.17L881.47 74.31C882.47 75.56 883.85 77.24 885.53 79.41C887.84 81.96 890.33 84.97 892.98 88.41L885.19 94.24ZM904.5 28.68C903.951 28.6795 903.403 28.7196 902.86 28.8C901.997 28.9041 901.166 29.1884 900.42 29.6346C899.674 30.0808 899.03 30.6789 898.53 31.39C897.778 32.585 897.405 33.9793 897.46 35.39C897.398 36.9481 897.828 38.4862 898.69 39.7859C899.551 41.0855 900.801 42.0807 902.26 42.63C903.447 43.1745 904.719 43.5127 906.02 43.63H916.74C920.99 43.63 920.99 43.63 920.99 42.63V42.5V42.37C919.17 35.9 911.99 28.69 904.54 28.69" fill="white"/>
<path d="M838 97.78C836.71 96.78 835.26 95.42 833.73 93.92L833.49 93.68H833.15C832.95 93.68 832.62 93.68 832.21 93.68C832.1 93.68 831.66 93.68 831.66 93.68H830.22C827.828 93.6708 825.501 92.8964 823.58 91.47C822.769 90.9197 822.113 90.1717 821.672 89.2968C821.231 88.4219 821.02 87.4489 821.06 86.47C821.052 85.6954 821.206 84.9276 821.512 84.2162C821.819 83.5049 822.271 82.8657 822.84 82.34C824.135 81.1833 825.836 80.5865 827.57 80.68C828.576 80.6856 829.572 80.8754 830.51 81.24C833.136 82.3925 835.361 84.3 836.9 86.72C837.003 86.8645 837.139 86.9812 837.298 87.0598C837.457 87.1383 837.633 87.1762 837.81 87.17C838.344 87.1358 838.867 87 839.35 86.77L839.76 86.61C840.977 86.0993 842.049 85.2954 842.88 84.27C843.612 83.358 844.131 82.2938 844.4 81.1554C844.668 80.0169 844.678 78.833 844.43 77.69C844.349 77.2664 844.167 76.8686 843.9 76.53C843.741 76.3418 843.541 76.192 843.316 76.0916C843.091 75.9912 842.846 75.9428 842.6 75.95C842.37 75.9531 842.141 75.9867 841.92 76.05C841.148 76.2536 840.395 76.5246 839.67 76.86C839.14 77.08 838.6 77.31 838.04 77.48C837.214 77.7314 836.354 77.8562 835.49 77.85C834.068 77.8392 832.661 77.5505 831.35 77C829.212 76.094 827.3 74.7283 825.75 73C822.31 69.16 820.64 65.88 820.64 63C820.631 62.2128 820.801 61.4338 821.137 60.7218C821.473 60.0099 821.967 59.3835 822.58 58.89C823.725 57.8591 825.219 57.3015 826.76 57.33H841.15V51.65H812V94H801.73V51.65H792.15V94H781.89V74.56L780.71 75.02C780.237 75.2125 779.73 75.3077 779.22 75.3C778.799 75.2966 778.38 75.2462 777.97 75.15L776.84 74.91L776.93 76.13C777.3 81.13 776.09 84.99 773.34 87.57C770.81 89.89 767.12 91.06 762.34 91.06C758.4 91.06 754.48 89.35 750.68 85.97C746.048 81.7342 742.487 76.4597 740.29 70.58L747.76 67.45C748.27 68.45 748.76 69.45 749.22 70.45C750.074 72.3376 751.05 74.168 752.14 75.93C753.73 78.43 756.48 81.59 760.52 82.53C761.107 82.6682 761.707 82.7387 762.31 82.74C763.657 82.7916 764.974 82.3347 766 81.46C768 79.65 768.17 76.15 767.17 73.95C765.91 71.11 762.87 70.39 761.17 70.2H760.79C760.32 70.2 759.44 70.2 758.6 70.26L756.99 70.33C756.47 69.17 755.19 66.33 754.47 64.78C755.81 64.41 757.85 63.67 759.18 63.18C760.709 62.7117 762.041 61.7521 762.97 60.45C763.57 59.4699 763.879 58.3391 763.86 57.19C763.913 56.2674 763.667 55.3525 763.16 54.58C762.771 54.0596 762.26 53.6419 761.673 53.3631C761.086 53.0843 760.439 52.9528 759.79 52.98C757.771 53.0599 755.837 53.8172 754.3 55.13C753.17 56.0178 752.137 57.0235 751.22 58.13C749 53.26 748 50.92 747.4 49.8C747.675 49.5159 747.972 49.255 748.29 49.02C751.648 46.4344 755.762 45.0221 760 45C763.524 44.8751 766.971 46.0456 769.69 48.29C770.896 49.2723 771.86 50.5174 772.51 51.9301C773.16 53.3428 773.478 54.8854 773.44 56.44C773.564 59.1795 772.601 61.8571 770.76 63.89L769.84 64.89L771.05 65.41C771.625 65.6899 772.183 66.0038 772.72 66.35C774.02 67.16 775.5 68.07 776.92 68.07H777.17C777.17 68.07 781.9 67.53 781.9 65.96V43.55H827.12H828.63C831.15 43.55 833.7 43.55 836.26 43.55H841.26H843.37L841.89 42C840.3 40.29 837.66 37.37 837.27 36.78C836.183 35.021 835.65 32.9758 835.74 30.91C835.904 28.7667 836.698 26.7197 838.022 25.026C839.345 23.3323 841.14 22.0674 843.18 21.39C844.765 20.9204 846.407 20.6714 848.06 20.65C849.485 20.6179 850.9 20.8907 852.21 21.45C855.21 22.86 855.51 23.76 854.98 28.71L854.64 28.59C853.99 28.35 853.4 28.16 852.83 27.99C851.643 27.6257 850.412 27.4239 849.17 27.39C848.129 27.349 847.095 27.5799 846.17 28.06C845.447 28.4744 844.832 29.0518 844.372 29.7463C843.911 30.4407 843.62 31.233 843.52 32.06C843.378 32.9417 843.438 33.8441 843.694 34.6996C843.95 35.5551 844.397 36.3415 845 37C845.354 37.3997 845.688 37.8169 846 38.25C846.39 38.74 846.79 39.25 847.09 39.56C847.89 40.43 848.59 41.07 849.3 41.75C849.73 42.14 850.16 42.55 850.65 43.03V52.61V63.98L830.78 63.93L831.57 65.33C831.72 65.6 833.03 67.91 833.57 68.54L833.89 68.93C834.701 70.1771 835.889 71.1334 837.28 71.66C837.666 71.7738 838.067 71.8311 838.47 71.83C839.621 71.7569 840.749 71.4757 841.8 71L842.36 70.79C844.331 70.0733 846.413 69.7077 848.51 69.71C849.824 69.6372 851.134 69.9096 852.31 70.5C854.72 71.87 855 75.08 854.98 77.73C854.92 83.5 852.11 87.8 846.37 90.87C845.94 91.12 845.62 91.3 845.29 91.46L843.78 92.17L845.18 93.1C847.08 94.35 853.71 98.1 854.35 98.45L854.16 98.69L848.5 105.15L838 97.78Z" fill="white"/>
<path d="M676.68 104.74C676.39 104.743 676.101 104.71 675.82 104.64C674.42 104.29 673.51 102.91 672.63 101.58C672.45 101.3 672.27 101.02 672.09 100.77L670.91 99.0901C671.22 99.0901 671.54 99.0901 671.91 99.0901C672.544 99.0994 673.175 99.0083 673.78 98.8201C674.248 98.6522 674.668 98.3704 675 98.0001C675.24 97.733 675.406 97.4084 675.483 97.058C675.56 96.7075 675.545 96.3431 675.44 96.0001C675.241 95.4552 674.864 94.9935 674.37 94.6901L674.19 94.5501C673.54 94.0301 672.9 93.5001 672.26 92.9701L652 76.3201V43.5901H684.13H729.06V94.0001H718.82V70.0001H706.39V75.2001C706.381 75.9504 706.192 76.6876 705.84 77.3501C705.64 77.8921 705.27 78.3546 704.785 78.6684C704.3 78.9821 703.726 79.1301 703.15 79.0901H703C702.24 79.0901 700.35 78.2701 696 73.1801C691.51 67.9001 691 66.0801 691 65.5401C691 62.7001 692.34 61.4401 695.34 61.4401H718.8V51.6601H684.3V68.3201C684.327 69.3179 684.122 70.3083 683.702 71.2139C683.282 72.1195 682.659 72.9156 681.88 73.5401C680.058 75.1789 677.7 76.0963 675.25 76.1201L667.42 69.5801C671.29 69.4701 672.54 69.0901 673.14 68.7901C673.473 68.6089 673.738 68.3251 673.897 67.981C674.055 67.6369 674.098 67.2508 674.02 66.8801V51.6601H662.19V74.0701L668 78.9101L678.1 87.3401L681.95 90.5601C682.831 91.2006 683.573 92.0128 684.131 92.9477C684.69 93.8827 685.053 94.921 685.2 96.0001C685.409 97.5806 685.028 99.1828 684.13 100.5C683.469 101.405 682.645 102.178 681.7 102.78C680.248 103.882 678.515 104.554 676.7 104.72" fill="white"/>
<path d="M785.18 51.6601H775.91V43.5701H798.84" fill="white"/>
<path d="M711.97 43.5701H734.89V51.6501H725.62" fill="white"/>
<path d="M832.96 43.5701H855.89V51.6501H846.62" fill="white"/>
</svg>
