<svg width="909" height="204" viewBox="0 0 909 204" fill="none" xmlns="http://www.w3.org/2000/svg">
<path d="M72.13 198.141H0V203.141H72.13V198.141Z" fill="white"/>
<path d="M0 189.912V182.152H71.55L71.85 189.912H0Z" fill="white"/>
<path d="M0 173.801V163.141H71.06L71.28 173.801H0Z" fill="white"/>
<path d="M0 154.773V139.312H70.33L70.67 154.773H0Z" fill="white"/>
<path d="M0 131.199V107.289H204.83L206.32 131.199H82.38L68.25 107.299L69.97 131.199H0Z" fill="white"/>
<path d="M0 99.0314V69.4414H122.32L140.44 99.0314L138.74 69.4414H206.32V99.0314H0Z" fill="white"/>
<path d="M0 61.1402V3.41016L82.73 3.65015L116.99 61.1402H0Z" fill="white"/>
<path d="M206.33 3.41016H138.74V61.1402H206.33V3.41016Z" fill="white"/>
<path d="M206.33 139.312V154.773H98.1902L87.9302 139.312H206.33Z" fill="white"/>
<path d="M206.33 163.141V173.801H110.54L103.53 163.141H206.33Z" fill="white"/>
<path d="M206.33 182.152V189.912H121.15L116.06 182.152H206.33Z" fill="white"/>
<path d="M206.33 198.141V203.141H129.94L126.62 198.141H206.33Z" fill="white"/>
<path d="M296.18 198.141H225.6V203.141H296.18V198.141Z" fill="white"/>
<path d="M296.18 182.152H225.6V189.902H296.18V182.152Z" fill="white"/>
<path d="M296.18 163.141H225.6V173.801H296.18V163.141Z" fill="white"/>
<path d="M296.18 139.312H225.6V154.753H296.18V139.312Z" fill="white"/>
<path d="M296.18 107.289H225.6V131.199H296.18V107.289Z" fill="white"/>
<path d="M296.18 69.4414H225.6V99.0314H296.18V69.4414Z" fill="white"/>
<path d="M296.18 3.41016H225.6V61.1402H296.18V3.41016Z" fill="white"/>
<path d="M417.52 0H454.98V61.14H318.59C335.48 25.25 373.48 0 417.52 0Z" fill="white"/>
<path d="M394.42 69.4414C390.091 73.0771 386.594 77.6009 384.167 82.7062C381.739 87.8115 380.438 93.379 380.35 99.0314H309.24C309.732 88.9296 311.724 78.9572 315.15 69.4414H394.42Z" fill="white"/>
<path d="M380.98 107.289C382.638 116.676 387.605 125.159 394.98 131.199H313.44C311.108 123.429 309.764 115.395 309.44 107.289H380.98Z" fill="white"/>
<path d="M454.98 139.312V154.773H323.98C320.947 149.859 318.357 144.685 316.24 139.312H454.98Z" fill="white"/>
<path d="M454.98 163.141V173.801H338.98C335.637 170.47 332.533 166.908 329.69 163.141H454.98Z" fill="white"/>
<path d="M454.98 182.141V189.901H359.44C355.592 187.512 351.874 184.922 348.3 182.141H454.98Z" fill="white"/>
<path d="M454.98 198.141V202.441H391.08C391.08 202.441 388.95 203.171 376.27 198.141H454.98Z" fill="white"/>
<path d="M491.95 4.10156H504.64L527.65 44.1416V4.10156H538.93V61.5216H526.82L503.23 20.7816V61.5216H491.95V4.10156Z" fill="white"/>
<path d="M565.55 35.6912C567.077 35.5489 568.579 35.2129 570.02 34.6912C570.709 34.4938 571.317 34.08 571.752 33.511C572.188 32.942 572.429 32.2478 572.44 31.5312C572.511 30.8167 572.374 30.097 572.046 29.4584C571.718 28.8198 571.212 28.2895 570.59 27.9312C568.879 27.1674 567.011 26.8245 565.14 26.9312C562.474 26.9312 560.577 27.5978 559.45 28.9312C558.581 30.0658 558.032 31.4125 557.86 32.8312H547.04C547.142 29.5268 548.248 26.3318 550.21 23.6712C553.184 19.9312 558.29 18.0645 565.53 18.0712C569.872 17.9906 574.172 18.9362 578.08 20.8312C581.74 22.6812 583.56 26.1512 583.56 31.2712V50.7312C583.56 52.0812 583.56 53.7312 583.65 55.6412C583.609 56.6824 583.84 57.7163 584.32 58.6412C584.747 59.2064 585.317 59.6481 585.97 59.9212V61.5612H573.82C573.502 60.7806 573.264 59.9698 573.11 59.1412C572.99 58.3912 572.88 57.5312 572.8 56.5712C571.228 58.2428 569.418 59.6747 567.43 60.8212C564.912 62.2199 562.07 62.9305 559.19 62.8812C555.675 63.0127 552.235 61.841 549.53 59.5912C546.984 57.3912 545.71 54.2812 545.71 50.2612C545.71 45.0512 547.71 41.2612 551.85 38.9312C554.1 37.6512 557.39 36.7412 561.75 36.2012L565.55 35.6912ZM572.4 40.8712C571.717 41.3032 570.989 41.6619 570.23 41.9412C569.255 42.2836 568.251 42.538 567.23 42.7012L564.68 43.1712C562.894 43.4003 561.155 43.9134 559.53 44.6912C558.686 45.1412 557.988 45.8243 557.52 46.6592C557.052 47.4941 556.833 48.4457 556.89 49.4012C556.816 50.1655 556.925 50.9365 557.206 51.6509C557.488 52.3653 557.935 53.0028 558.51 53.5112C559.631 54.3741 561.016 54.8228 562.43 54.7812C564.846 54.7946 567.207 54.0612 569.19 52.6812C571.257 51.2678 572.33 48.7112 572.41 45.0112L572.4 40.8712Z" fill="white"/>
<path d="M588.15 27.3516V19.4516H594.15V7.60156H605.22V19.4516H612.22V27.3516H605.22V49.7916C605.22 51.5316 605.43 52.6216 605.89 53.0416C606.35 53.4616 607.7 53.6916 609.97 53.6916C610.31 53.6916 610.67 53.6916 611.06 53.6916C611.45 53.6916 611.81 53.6916 612.17 53.6316V61.9316L606.82 62.1416C601.533 62.3216 597.917 61.4149 595.97 59.4216C594.71 58.1416 594.09 56.1816 594.09 53.5316V27.3516H588.15Z" fill="white"/>
<path d="M631.47 13.99H620.1V3.75H631.47V13.99ZM620.1 19.06H631.47V61.52H620.1V19.06Z" fill="white"/>
<path d="M675.87 56.3314C672.25 60.7381 666.76 62.9448 659.4 62.9514C652.04 62.9581 646.547 60.7514 642.92 56.3314C639.269 51.8119 637.348 46.1395 637.5 40.3314C637.378 34.5554 639.297 28.9214 642.92 24.4214C646.533 19.9281 652.027 17.6848 659.4 17.6914C666.773 17.6981 672.263 19.9414 675.87 24.4214C679.489 28.9239 681.407 34.5562 681.29 40.3314C681.438 46.1388 679.517 51.8097 675.87 56.3314ZM666.87 50.1914C668.61 47.8781 669.483 44.5948 669.49 40.3414C669.497 36.0881 668.623 32.8148 666.87 30.5214C665.931 29.4355 664.77 28.5645 663.464 27.9674C662.159 27.3704 660.741 27.0614 659.305 27.0614C657.87 27.0614 656.451 27.3704 655.146 27.9674C653.84 28.5645 652.679 29.4355 651.74 30.5214C649.98 32.8214 649.097 36.0948 649.09 40.3414C649.083 44.5881 649.993 47.8714 651.82 50.1914C652.759 51.2773 653.92 52.1484 655.226 52.7454C656.531 53.3425 657.95 53.6515 659.385 53.6515C660.821 53.6515 662.239 53.3425 663.545 52.7454C664.85 52.1484 666.011 51.2773 666.95 50.1914" fill="white"/>
<path d="M723.06 21.4906C725.867 23.7906 727.27 27.6006 727.27 32.9206V61.5206H715.82V35.6906C715.91 33.9333 715.609 32.1779 714.94 30.5506C713.84 28.3706 711.76 27.2806 708.68 27.2806C704.907 27.2806 702.32 28.8739 700.92 32.0606C700.128 34.123 699.754 36.3223 699.82 38.5306V61.5306H688.58V19.1406H699.44V25.3306C700.522 23.5395 701.898 21.9438 703.51 20.6106C706.06 18.8222 709.128 17.9226 712.24 18.0506C716.14 17.882 719.973 19.1008 723.06 21.4906Z" fill="white"/>
<path d="M753.82 35.6916C755.346 35.5468 756.848 35.2109 758.29 34.6916C758.978 34.4938 759.584 34.0797 760.018 33.5105C760.452 32.9413 760.691 32.2473 760.7 31.5315C760.773 30.818 760.638 30.0985 760.312 29.4598C759.985 28.821 759.481 28.2903 758.86 27.9316C757.149 27.1678 755.28 26.8249 753.41 26.9316C750.743 26.9316 748.847 27.5982 747.72 28.9316C746.851 30.0662 746.302 31.4129 746.13 32.8316H735.35C735.444 29.5273 736.547 26.331 738.51 23.6715C741.51 19.9315 746.59 18.0715 753.83 18.0715C758.173 17.9876 762.473 18.9334 766.38 20.8316C770.04 22.6816 771.88 26.1515 771.88 31.2715V50.7315C771.88 52.0815 771.88 53.7315 771.95 55.6415C771.916 56.6821 772.146 57.7144 772.62 58.6415C773.052 59.2022 773.62 59.6429 774.27 59.9215V61.5615H762.09C761.767 60.7826 761.529 59.9713 761.38 59.1415C761.25 58.3915 761.14 57.5315 761.06 56.5715C759.49 58.2455 757.68 59.6777 755.69 60.8215C753.179 62.22 750.344 62.9306 747.47 62.8815C743.948 63.0152 740.501 61.8436 737.79 59.5915C735.25 57.3915 733.98 54.2816 733.98 50.2616C733.98 45.0516 735.98 41.2616 740.11 38.9316C742.36 37.6516 745.65 36.7415 750.01 36.2015L753.82 35.6916ZM760.66 40.8716C759.977 41.3055 759.25 41.6643 758.49 41.9416C757.515 42.2848 756.511 42.5391 755.49 42.7015L752.94 43.1715C751.164 43.4038 749.435 43.9169 747.82 44.6916C746.975 45.1416 746.278 45.8247 745.81 46.6596C745.342 47.4945 745.123 48.4461 745.18 49.4016C745.11 50.1674 745.222 50.9389 745.507 51.6531C745.792 52.3674 746.242 53.0042 746.82 53.5116C747.944 54.376 749.333 54.8247 750.75 54.7815C753.169 54.7919 755.532 54.0588 757.52 52.6815C759.58 51.2682 760.647 48.7116 760.72 45.0116L760.66 40.8716Z" fill="white"/>
<path d="M792.3 4.10156H781.09V61.5216H792.3V4.10156Z" fill="white"/>
<path d="M503.2 71.4492H491.17V128.859H503.2V71.4492Z" fill="white"/>
<path d="M547.36 88.8423C550.17 91.1423 551.57 94.9424 551.57 100.272V128.862H540.09V103.052C540.181 101.29 539.873 99.5295 539.19 97.9023C538.09 95.7223 536.01 94.6324 532.95 94.6324C529.17 94.6324 526.59 96.2323 525.18 99.4223C524.382 101.48 524.008 103.677 524.08 105.882V128.882H512.88V86.4924H523.73V92.6823C524.821 90.8949 526.199 89.3001 527.81 87.9624C530.357 86.1755 533.421 85.2759 536.53 85.4023C540.95 85.4023 544.56 86.549 547.36 88.8423Z" fill="white"/>
<path d="M578.91 70.9311C579.49 70.9311 580.27 71.0311 581.27 71.1011V80.1011C580.64 80.0211 579.59 79.9611 578.11 79.9211C577.556 79.8419 576.991 79.8909 576.459 80.0643C575.927 80.2376 575.441 80.5307 575.04 80.9211C574.5 81.5582 574.202 82.3658 574.2 83.2011V86.7711H581.55V94.6111H574.2V128.841H563.08V94.6311H556.82V86.7911H562.95V84.0811C562.95 79.5344 563.723 76.4011 565.27 74.6811C566.89 72.1411 570.82 70.8711 577.03 70.8711C577.73 70.8711 578.38 70.8711 578.95 70.9311" fill="white"/>
<path d="M622.93 123.671C619.31 128.104 613.817 130.317 606.45 130.311C599.083 130.304 593.593 128.091 589.98 123.671C586.46 119.101 584.551 113.494 584.551 107.726C584.551 101.957 586.46 96.3508 589.98 91.7808C593.6 87.2941 599.09 85.0508 606.45 85.0508C613.81 85.0508 619.303 87.2941 622.93 91.7808C626.445 96.3529 628.351 101.959 628.351 107.726C628.351 113.493 626.445 119.099 622.93 123.671ZM613.93 117.531C615.683 115.231 616.56 111.954 616.56 107.701C616.56 103.447 615.683 100.171 613.93 97.8708C612.991 96.7849 611.83 95.9138 610.524 95.3168C609.219 94.7197 607.8 94.4107 606.365 94.4107C604.93 94.4107 603.511 94.7197 602.206 95.3168C600.9 95.9138 599.739 96.7849 598.8 97.8708C597.033 100.171 596.15 103.447 596.15 107.701C596.15 111.954 597.033 115.231 598.8 117.531C599.739 118.617 600.9 119.488 602.206 120.085C603.511 120.682 604.93 120.991 606.365 120.991C607.8 120.991 609.219 120.682 610.524 120.085C611.83 119.488 612.991 118.617 613.93 117.531Z" fill="white"/>
<path d="M659.37 85.4102L660.37 85.4802V96.8502C659.66 96.7702 659.03 96.7102 658.48 96.6902H657.15C652.63 96.6902 649.61 98.1502 648.06 101.05C647.19 102.7 646.77 105.21 646.77 108.62V128.9H635.45V86.4002H646.15V93.8202C647.339 91.6591 648.861 89.6985 650.66 88.0102C652.99 86.1883 655.896 85.2623 658.85 85.4002H659.37" fill="white"/>
<path d="M719.57 86.5721C721.534 87.3951 723.256 88.7066 724.57 90.3821C725.82 91.9728 726.655 93.8489 727 95.8421C727.309 97.9138 727.44 100.008 727.39 102.102L727.32 128.862H715.82V101.862C715.876 100.485 715.605 99.1145 715.03 97.8621C714.03 95.8621 712.2 94.9121 709.52 94.9121C706.43 94.9121 704.3 96.1721 703.12 98.7221C702.474 100.262 702.164 101.923 702.21 103.592V128.862H690.94V103.592C691.047 101.724 690.778 99.8543 690.15 98.0921C689.21 96.0921 687.37 95.0221 684.61 95.0221C681.41 95.0221 679.263 96.0455 678.17 98.0921C677.475 99.7406 677.167 101.526 677.27 103.312V128.862H665.9V86.4921H676.82V92.6821C677.857 90.8973 679.189 89.3013 680.76 87.9621C683.198 86.4039 686.018 85.547 688.911 85.4853C691.804 85.4235 694.658 86.1594 697.16 87.6121C698.805 88.9732 700.076 90.7322 700.85 92.7221C702.129 90.4176 704.023 88.5135 706.32 87.2221C708.713 86.041 711.352 85.4446 714.02 85.4821C715.936 85.4866 717.833 85.8566 719.61 86.5721" fill="white"/>
<path d="M753.82 103.052C755.346 102.908 756.848 102.572 758.29 102.052C758.978 101.854 759.584 101.44 760.018 100.871C760.452 100.302 760.691 99.6078 760.7 98.892C760.773 98.1784 760.638 97.4589 760.312 96.8202C759.985 96.1815 759.481 95.6507 758.86 95.292C757.146 94.538 755.28 94.1956 753.41 94.292C750.73 94.292 748.83 94.932 747.72 96.232C746.847 97.3644 746.298 98.7122 746.13 100.132H735.35C735.442 96.8305 736.545 93.6368 738.51 90.982C741.51 87.232 746.59 85.372 753.83 85.372C758.173 85.2911 762.474 86.2403 766.38 88.142C770.04 89.982 771.88 93.472 771.88 98.582V118.062C771.88 119.412 771.88 121.062 771.95 122.962C771.914 124.003 772.144 125.036 772.62 125.962C773.051 126.526 773.619 126.97 774.27 127.252V128.872H762.09C761.765 128.097 761.527 127.289 761.38 126.462C761.25 125.712 761.14 124.852 761.06 123.892C759.491 125.565 757.681 126.994 755.69 128.132C753.18 129.534 750.345 130.248 747.47 130.202C743.949 130.338 740.502 129.17 737.79 126.922C735.25 124.712 733.98 121.612 733.98 117.582C733.98 112.362 735.98 108.582 740.11 106.242C742.36 104.972 745.65 104.072 750.01 103.522L753.82 103.052ZM760.66 108.222C759.975 108.655 759.248 109.017 758.49 109.302C757.511 109.631 756.508 109.885 755.49 110.062L752.94 110.522C751.153 110.753 749.414 111.27 747.79 112.052C746.945 112.502 746.248 113.185 745.78 114.02C745.312 114.855 745.093 115.807 745.15 116.762C745.078 117.524 745.186 118.292 745.466 119.004C745.746 119.716 746.189 120.353 746.76 120.862C747.884 121.726 749.273 122.175 750.69 122.132C753.11 122.143 755.475 121.406 757.46 120.022C759.52 118.622 760.59 116.072 760.66 112.352V108.222Z" fill="white"/>
<path d="M776.46 94.7092V86.7892H782.46V74.9492H793.52V86.7892H800.47V94.7092H793.52V117.139C793.52 118.879 793.74 119.959 794.18 120.389C794.62 120.819 795.99 121.039 798.27 121.039H799.35C799.73 121.039 800.11 121.039 800.47 120.979V129.279L795.17 129.469C789.86 129.659 786.26 128.739 784.32 126.749C783.06 125.479 782.43 123.509 782.43 120.859V94.7092H776.46Z" fill="white"/>
<path d="M819.82 81.3506H808.41V71.1406H819.82V81.3506ZM808.46 86.3506H819.82V128.811H808.41L808.46 86.3506Z" fill="white"/>
<path d="M854.06 101.642C853.877 100.102 853.321 98.6294 852.44 97.3524C851.18 95.6324 849.23 94.7823 846.57 94.7823C842.79 94.7823 840.203 96.639 838.81 100.352C837.99 102.882 837.618 105.535 837.71 108.192C837.619 110.745 837.991 113.293 838.81 115.712C839.298 117.314 840.309 118.706 841.681 119.665C843.054 120.624 844.708 121.095 846.38 121.002C849 121.002 850.87 120.292 851.97 118.902C853.145 117.315 853.839 115.423 853.97 113.452H865.42C865.118 116.931 863.835 120.253 861.72 123.032C858.21 127.882 852.99 130.312 846.1 130.312C839.21 130.312 834.1 128.312 830.88 124.232C827.66 120.152 825.99 114.932 825.99 108.482C825.99 101.192 827.8 95.4823 831.38 91.4823C834.96 87.4823 839.94 85.4023 846.26 85.4023C851.64 85.4023 856.043 86.5957 859.47 88.9823C862.897 91.369 864.92 95.589 865.54 101.642H854.06Z" fill="white"/>
<path d="M881.09 115.312C881.156 116.842 881.698 118.314 882.64 119.522C884.027 121.002 886.607 121.742 890.38 121.742C892.189 121.808 893.991 121.467 895.65 120.742C896.196 120.502 896.665 120.117 897.007 119.628C897.349 119.14 897.551 118.567 897.59 117.972C897.629 117.377 897.505 116.783 897.229 116.254C896.954 115.725 896.54 115.281 896.03 114.972C894.99 114.305 891.083 113.189 884.31 111.622C879.437 110.422 876.003 108.932 874.01 107.152C872.01 105.372 871.01 102.832 871.01 99.5019C871.002 97.5792 871.416 95.6783 872.223 93.9331C873.03 92.188 874.21 90.6412 875.68 89.4019C878.78 86.5819 883.17 85.1719 888.82 85.1719C894.17 85.1719 898.55 86.2319 901.91 88.3419C905.27 90.4519 907.23 94.1219 907.72 99.3419H896.52C896.443 98.122 896.02 96.9494 895.3 95.9619C894.07 94.4519 891.96 93.7019 888.99 93.7019C886.55 93.7019 884.813 94.0785 883.78 94.8319C883.32 95.1091 882.937 95.4966 882.664 95.9593C882.392 96.422 882.239 96.9453 882.22 97.4819C882.189 98.0538 882.33 98.622 882.624 99.1136C882.918 99.6052 883.352 99.9981 883.87 100.242C884.977 100.842 888.877 101.869 895.57 103.322C900.03 104.362 903.363 105.935 905.57 108.042C906.649 109.07 907.501 110.314 908.069 111.692C908.638 113.07 908.91 114.552 908.87 116.042C908.918 118.009 908.515 119.961 907.692 121.748C906.869 123.536 905.647 125.11 904.12 126.352C900.96 129.019 896.067 130.352 889.44 130.352C882.7 130.352 877.72 128.942 874.5 126.122C872.943 124.801 871.702 123.147 870.868 121.284C870.034 119.42 869.628 117.393 869.68 115.352L881.09 115.312Z" fill="white"/>
<path d="M497.68 147.25C502.347 142.53 508.283 140.167 515.49 140.16C525.143 140.16 532.197 143.33 536.65 149.67C538.967 152.791 540.354 156.504 540.65 160.38H528.52C527.971 158.115 526.949 155.992 525.52 154.15C523.36 151.66 520.16 150.4 515.92 150.4C513.912 150.342 511.921 150.797 510.137 151.721C508.353 152.644 506.833 154.007 505.72 155.68C503.233 159.2 501.987 164.2 501.98 170.68C501.973 177.16 503.3 181.98 505.96 185.14C507.137 186.666 508.654 187.896 510.39 188.733C512.126 189.569 514.033 189.99 515.96 189.96C520.12 189.96 523.28 188.57 525.46 185.83C526.9 183.836 527.92 181.57 528.46 179.17H540.46C539.635 185.017 536.829 190.404 532.51 194.43C528.243 198.357 522.777 200.32 516.11 200.32C507.87 200.32 501.39 197.67 496.67 192.37C491.95 187.07 489.59 179.77 489.59 170.47C489.59 160.47 492.273 152.747 497.64 147.3" fill="white"/>
<path d="M576.51 157.072C579.52 158.424 582.086 160.601 583.91 163.352C585.704 165.982 586.871 168.989 587.32 172.142C587.666 174.937 587.789 177.756 587.69 180.572H556.48C556.66 184.825 558.153 187.825 560.96 189.572C562.829 190.673 564.971 191.224 567.14 191.162C569.377 191.268 571.58 190.581 573.36 189.222C574.319 188.41 575.104 187.413 575.67 186.292H587.11C586.81 188.812 585.42 191.372 582.96 193.972C579.12 198.085 573.74 200.142 566.82 200.142C561.329 200.213 555.986 198.367 551.71 194.922C547.363 191.428 545.187 185.762 545.18 177.922C545.18 170.588 547.143 164.948 551.07 161.002C554.997 157.055 560.107 155.092 566.4 155.112C569.866 155.064 573.304 155.746 576.49 157.112M559.73 166.702C558.045 168.509 556.993 170.815 556.73 173.272H576.04C576.023 172.009 575.748 170.764 575.232 169.612C574.716 168.46 573.97 167.425 573.04 166.572C571.183 165.012 568.814 164.192 566.39 164.272C565.169 164.195 563.946 164.372 562.797 164.79C561.647 165.208 560.596 165.859 559.71 166.702" fill="white"/>
<path d="M627.11 158.642C629.92 160.952 631.32 164.752 631.32 170.082V198.672H619.82V172.842C619.907 171.084 619.603 169.329 618.93 167.702C617.83 165.516 615.747 164.422 612.68 164.422C608.913 164.422 606.323 166.022 604.91 169.222C604.115 171.284 603.744 173.484 603.82 175.692V198.692H592.63V156.282H603.48V162.482C604.571 160.698 605.949 159.106 607.56 157.772C610.107 155.976 613.176 155.073 616.29 155.202C620.19 155.037 624.022 156.256 627.11 158.642Z" fill="white"/>
<path d="M636.52 164.512V156.602H642.52V144.762H653.61V156.602H660.61V164.512H653.61V186.942C653.61 188.682 653.83 189.772 654.28 190.192C654.73 190.612 656.08 190.842 658.37 190.842H659.46L660.57 190.772V199.072L655.26 199.262C649.96 199.442 646.343 198.532 644.41 196.532C643.16 195.272 642.52 193.302 642.52 190.662V164.512H636.52Z" fill="white"/>
<path d="M690.74 155.22H691.74V166.6C691.03 166.52 690.4 166.47 689.85 166.44C689.3 166.41 688.85 166.44 688.52 166.44C684.01 166.44 680.98 167.91 679.43 170.81C678.57 172.437 678.14 174.957 678.14 178.37V198.66H666.82V156.21H677.5V163.61C678.695 161.45 680.224 159.492 682.03 157.81C684.359 155.993 687.259 155.067 690.21 155.2H690.73" fill="white"/>
<path d="M725.4 157.072C728.41 158.424 730.976 160.601 732.8 163.352C734.602 165.979 735.772 168.987 736.22 172.142C736.551 174.939 736.672 177.757 736.58 180.572H705.38C705.553 184.825 707.043 187.825 709.85 189.572C711.719 190.673 713.862 191.224 716.03 191.162C717.777 191.305 719.527 190.917 721.049 190.047C722.571 189.178 723.795 187.869 724.56 186.292H735.99C735.7 188.812 734.31 191.372 731.85 193.972C728.01 198.085 722.633 200.142 715.72 200.142C710.236 200.211 704.899 198.365 700.63 194.922C696.27 191.428 694.087 185.762 694.08 177.922C694.08 170.588 696.05 164.948 699.99 161.002C703.92 157.072 709.04 155.112 715.31 155.112C718.776 155.064 722.214 155.746 725.4 157.112M708.63 166.702C706.953 168.514 705.901 170.817 705.63 173.272H724.93C724.914 172.009 724.639 170.764 724.123 169.611C723.607 168.459 722.861 167.425 721.93 166.572C720.073 165.012 717.704 164.192 715.28 164.272C714.058 164.196 712.833 164.373 711.682 164.791C710.532 165.209 709.479 165.86 708.59 166.702" fill="white"/>
</svg>
