<svg width="20" height="90" viewBox="0 0 20 90" fill="none" xmlns="http://www.w3.org/2000/svg">
<path d="M18.8489 84.6915L18.8276 84.9353L19.2503 85.0937L19.3061 86.373L20 87.3282L19.6092 87.3181L19.9734 87.8007L19.657 87.8962L19.4151 88.3863L19.4736 89.3591L19.2477 89.5802L18.8834 89.3264L18.6043 90L18.3517 89.8869L18.474 89.3239L18.1417 89.163L18.0752 88.5145L17.626 88.135L17.6632 87.7328L17.0703 87.1522L16.7141 87.2452L16.6476 86.2298L16.8497 86.089L16.629 85.9483L16.9826 85.242L17.5302 85.2721L17.8413 84.9756L18.3252 85.1188L18.3757 84.767L18.8489 84.6915ZM17.291 82.4696L17.7855 83.387L16.5439 84.6689L16.2302 83.9501L16.3632 83.2689L17.3016 83.0251L17.291 82.4696ZM13.4494 76.1156L13.7897 76.3091L13.819 76.8017L14.0263 76.7389L14.4278 77.1511L14.3905 77.7845L13.9386 77.4025L13.1756 77.6036L13.0187 77.2743L13.1942 77.0254L12.7236 77.1134L12.8327 76.3594L13.4494 76.1156ZM15.3795 76.0779L15.7889 76.4775L15.7278 77.1712L14.9169 76.5529L15.2067 76.1131L15.4194 76.4272L15.3795 76.0779ZM15.7411 75.0147L15.9006 75.9723L15.5417 75.0951L15.7411 75.0147ZM15.1402 73.8534L15.3556 74.2204L14.8691 74.7633L15.3901 75.4193L15.4141 75.9899L15.1854 75.8516L14.9302 76.015L14.8425 76.4172L14.6644 75.8994L14.8983 75.9396L14.9621 75.638L15.0419 75.8718L15.1775 75.5249L14.6617 75.8164L14.7122 75.3841L14.3666 75.0473L14.3028 74.4843L15.1402 73.8534ZM11.7799 73.4789L11.8277 73.969L11.6044 73.7026L11.7799 73.4789ZM10.5197 72.4886L10.7191 72.5917L10.5224 73.3608L11.4263 74.0269L11.3652 74.2631L10.4878 73.969L10.0705 73.4362L10.1582 72.6721L10.5197 72.4886ZM9.57065 71.2017L9.7275 71.5762L9.46963 71.4732L9.57065 71.2017ZM16.1717 70.1033L16.4775 71.2545L16.294 71.2696L16.2515 71.7698L16.1717 70.1033ZM6.61439 62.7489L7.03708 63.2792L7.38536 63.136L7.05039 63.3195L7.10887 63.9076L6.63564 64.1464L5.96835 64.0635L5.84341 63.0832L6.37245 63.0656L6.45488 62.6182L6.61439 62.7489ZM3.47733 44.5463L3.64481 44.9032L3.66344 44.6845L3.96652 44.9259L3.99043 45.6095L4.30678 45.7679L4.41047 46.9643L3.75648 47.6882L4.09678 48.0627L3.44542 48.8041L2.54152 48.3995L1.96997 48.5779L2.3767 47.668L1.91146 47.0849L1.86362 45.8257L2.11085 46.0594L2.79676 44.946L3.28858 44.6217L3.41618 44.8605L3.47733 44.5463ZM4.92624 37.7775L5.43931 38.5919L5.01662 38.9161L5.52706 39.1348L5.49782 39.3233L4.47161 39.5922L4.23237 39.3635L4.29883 38.9915L4.71354 38.9362L4.60453 38.1747L4.92624 37.7775ZM4.41579 37.4281L4.25895 37.5086L4.36263 37.0335L4.41579 37.4281ZM0.0504962 36.8676L0.648662 36.9606L0.63805 37.6418L0 37.5639L0.0504962 36.8676ZM3.75382 36.747L4.09678 36.9079L3.64215 37.2899L3.75382 36.747ZM9.3048 34.0903L9.89764 34.1757L9.63978 34.4346L9.24632 34.2561L9.3048 34.0903ZM8.71196 31.9815L8.86082 31.8734L9.17188 32.1448L9.68761 33.4267L9.55735 33.6579L9.06819 32.9064L8.76778 32.9265L8.20417 32.4012L8.66143 31.803L8.71196 31.9815ZM8.94059 31.2148L8.98047 31.8708L8.62421 31.5541L8.59763 31.1796L8.94059 31.2148ZM9.38457 30.6141L9.58925 31.8508L9.1453 31.514L9.14796 31.1646L8.55245 30.7775L8.89006 30.7121L9.12135 31.0113L9.38457 30.6141ZM9.8551 30.0109L10.1608 30.775L9.92422 31.4285L9.49355 30.8755L9.8551 30.0109ZM5.61212 29.7419L5.64402 30.5211L6.17839 30.4407L5.85672 31.5064L6.56652 31.8357L6.31663 32.1272L6.0561 31.901L6.0242 32.1775L6.39637 32.366L5.82215 32.7807L5.88329 34.0098L6.14116 33.1075L6.57716 33.0622L6.62237 33.4493L6.24485 35.6511L6.10394 35.5355L6.07204 35.7869L5.62277 35.5984L5.69721 36.008L5.21068 36.1865L5.29843 36.5057L5.4606 36.3348L5.53767 36.5334L5.9471 36.1287L5.84873 35.8296L6.25283 36.0608L5.73174 38.142L5.58288 37.8127L4.98738 37.6468L4.9927 37.0888L4.65506 37.1969L4.54339 36.566L4.86509 36.6113L4.9608 36.3826L4.81457 36.2217L4.54073 36.4027L4.30944 35.4802L4.00637 35.7391L3.82827 34.1807L3.55976 34.2888L3.45075 34.04L4.01435 32.9491L4.29617 33.6001L4.46632 33.4945L4.49556 33.9269L4.57529 33.7811L4.72152 31.2148L5.61212 29.7419ZM6.0242 29.9355L6.22891 29.9279L6.16245 30.3075L5.87265 30.2622L6.0242 29.9355ZM7.93034 29.5182L8.06592 29.8802L7.81338 29.762L7.76019 29.9933L7.66981 29.6791L7.93034 29.5182ZM9.96145 29.4504L10.0651 29.7243L10.2858 29.4705L10.2273 30.0938L9.79396 29.8148L9.96145 29.4504ZM8.38763 29.2418L8.16429 29.7947L7.92768 29.1588L8.21748 29.2443L8.30786 28.91L8.38763 29.2418ZM6.48678 28.915L7.1913 29.106L7.52095 28.9653L7.7868 29.4051L7.43586 29.6288L7.68577 30.1919L7.29232 30.1642L7.34282 30.6066L7.01582 30.5211L6.78187 30.9057L6.89883 31.1696L6.34853 31.6522L6.05344 31.3053L6.40968 29.7294L6.09067 29.6313L6.18371 29.3197L6.34587 29.4303L6.54526 29.194L6.48678 28.915ZM18.7532 28.7969L19.1626 29.1613L19.2264 29.7319L18.6016 29.6389L18.466 29.1915L18.7532 28.7969ZM8.54979 27.7563L8.28394 28.3671L8.13505 28.3118L8.26265 27.7513L8.54979 27.7563ZM5.72911 23.1541L5.80619 24.3782L5.54034 23.5035L5.72911 23.1541ZM7.89844 22.1889L8.16429 22.2266L7.96756 22.5308L8.23341 22.5459L8.53383 23.3979L8.3052 23.7674L8.83956 24.4787L8.57903 25.2252L8.69865 26.8464L8.28128 27.0223L8.26797 27.1882L8.57903 27.1681L8.08721 27.4346L8.07657 27.8543L7.10354 27.6105L7.8506 28.8044L7.13012 29.0005L6.4283 28.8095L6.2342 29.0759L5.83809 29.0256L5.59619 28.7114L5.68923 25.733L5.42338 25.6073L5.64934 25.6148L6.21827 24.9111L5.92584 24.6622L6.13318 24.338L5.87797 23.1742L6.03748 23.3602L6.89088 22.3574L7.25244 22.6263L7.59802 22.5509L7.89844 22.1889ZM5.55364 21.3419L5.83277 21.4927L5.85139 22.4931L5.61744 23.0184L5.31703 23.0762L5.47653 23.2898L5.2346 23.6694L5.00331 22.7947L5.25057 21.6787L5.55364 21.3419ZM9.14264 21.2866L8.82892 21.6184L8.86614 21.9803L8.50991 21.9125L8.60029 21.3746L8.74386 21.5958L9.14264 21.2866ZM9.40316 14.8647L9.58396 15.4026L9.46431 16.4054L9.58659 16.7548L9.7727 16.5638L9.88171 16.7297L9.70092 16.9961L10.1077 17.5114L9.8232 17.8784L9.44305 17.4083L9.10275 17.3178L8.90602 17.5893L8.71994 17.2399L8.49394 17.4234L9.17188 17.6898L9.20644 18.1724L9.59457 18.1146L9.59191 18.3685L9.83384 18.2177L9.43507 19.2608L9.46697 20.3516L9.10807 20.9347L8.66941 20.8618L8.77044 21.1082L8.31052 20.5753L8.09783 20.6507L7.93034 21.0101L8.35306 21.5706L8.05265 21.8471L7.98885 21.4198L7.70437 21.445L7.3827 22.0582L7.59802 22.5509L7.25244 22.6288L6.68883 22.204V21.4123L6.9653 21.3997L7.04506 21.1107L6.62237 21.0478L6.71807 20.2561L7.01316 20.1807L6.87225 19.8388L7.30293 19.7031L6.86693 19.5498L7.07696 18.6173L7.38536 18.3886L7.01582 18.1674L7.24179 17.8909L7.00518 17.8055L7.20989 17.0791L7.5289 16.9609L7.25244 16.7749H7.53688L7.72829 16.4683L7.58209 16.0033L8.24938 15.6665L8.11113 15.2794L8.65611 15.1889L8.93526 15.3749L8.92196 14.8697L9.17986 15.2166L9.40316 14.8647ZM9.24632 13.7185L9.38457 14.269L8.79435 13.9548L9.24632 13.7185ZM16.4642 0L16.1239 0.751527L16.1372 0.324217L16.4642 0Z" fill="#FF6600"/>
</svg>
