<svg width="94" height="77" viewBox="0 0 94 77" fill="none" xmlns="http://www.w3.org/2000/svg">
<path d="M65.4504 29.0164L65.2322 30.3601L64.8096 29.7778L64.8004 29.3447L65.4504 29.0164ZM65.0846 29.0376L65.0162 28.6989L64.8635 28.938L64.1551 28.9907L64.1226 28.5961L63.6169 28.9097L64.5917 29.3234L64.579 29.884L64.8337 29.9595L65.2057 30.7689L60.914 32.8037L58.2803 33.8052L56.1724 33.2284L54.4296 33.4277L52.9316 34.1487L51.473 37.2424L51.5285 37.7642L49.8965 39.4369L49.743 39.6886L49.9588 40.1579L49.4266 40.6089L47.726 40.8317L47.2398 40.0373L47.3866 39.6178L47.5958 39.6204L47.53 39.3084L46.137 38.8365L44.3815 39.1642L43.1309 39.7411L42.0573 40.4253L41.2384 41.3115L40.4258 43.7367L39.2342 45.5641L38.6308 48.2856L39.4144 52.3363L40.4033 54.0143L39.5907 59.4546L40.9415 62.9758L40.8438 65.068L41.7706 67.4644L40.0766 64.4886L39.7601 64.3496L39.6949 65.38L39.3487 65.0444L39.5479 64.7114L39.3229 64.6695L38.6668 65.6684L39.9661 66.8142L40.8467 66.8325L41.7341 67.5955L41.7346 68.2116L41.3102 67.9809L40.7736 66.961L39.8543 66.9374L38.8833 66.2557L37.9981 66.3475L37.9516 66.5756L38.4518 66.6726L38.4906 66.8745L38.1365 66.8351L38.0128 67.1629L37.6189 67.2599L37.6351 67.6479L37.2738 67.8052L37.5212 68.1565L37.1917 68.5996L36.3185 68.9772L35.7207 68.9667L35.4798 69.2262L35.178 68.985L34.7923 69.339L35.5399 69.9053L35.064 70.2383L34.8109 69.9263L34.4103 70.0941L34.4961 69.7847L34.2289 69.8371L34.1726 69.2262L33.1356 69.651L32.7652 69.3993L32.6131 68.888L31.3568 68.7438L30.7193 68.9824L31.3121 69.2341L31.1454 70.039L31.4423 69.8319L31.5528 69.984L31.2721 70.081L31.2975 70.3248L30.4045 70.608L30.4841 70.9934L29.9364 71.3761L29.46 70.8623L28.8834 70.9278L28.8829 71.2949L28.5377 71.5177L28.1122 72.417L27.1295 72.3357L26.0784 71.6121L25.3121 71.7144L25.0663 72.0946L25.4328 72.2859L24.9306 72.2728L24.8616 71.502L23.3338 71.9739L22.8219 71.8507L22.7198 72.4511L22.2185 72.2938L21.7786 72.7474L22.1663 73.4396H21.9199L21.4059 75.1595L20.9782 75.4715L21.0028 76.1479L20.7297 76.2161L20.6308 75.9381L20.5667 75.9591L20.3658 75.9381L20.3085 76.4048L19.9454 76.418L19.9684 76.9371L18.8959 77L17.981 76.5254L17.6751 76.0745L16.7991 76.1951L17.2379 75.8044L17.161 75.3692L17.4011 74.2707L18.1299 74.2733L18.6271 73.3347L19.0137 73.7148L19.6888 73.6519L19.5345 72.8654L19.9487 72.9257L19.8742 72.1339L20.4971 71.8874L20.4657 71.5518L20.7716 71.3709L20.5461 71.1114L21.2548 70.684L20.9243 70.3274L21.2505 70.1282L21.3536 69.457L21.0973 69.0244L20.688 69.533L20.1116 68.9247L19.6913 69.0375L19.5559 68.7963L19.1658 68.9746L18.8808 68.7832L19.2378 68.6416L18.7416 68.3768L19.1601 65.7838L17.2441 65.6789L16.7222 66.0355L16.8478 65.3407L16.455 65.2568L16.3987 64.9631L15.5176 65.1178L15.2545 64.7508L15.3219 64.5043L15.8072 64.5463L15.8544 64.2474L15.5671 63.9747L15.9583 63.4687L15.9033 62.7267L15.0525 62.1919L15.013 62.5851L14.3947 62.4829L14.1668 62.9679L13.9175 62.9705L13.8929 62.2679L14.3111 62.1158L14.1747 61.4499L13.5304 62.0712L13.2413 61.6753L12.4341 61.6308L12.2938 61.9375L12.5448 62.496L11.9373 62.7844L11.966 63.0518L11.1948 63.3114L11.1466 63.9852L10.9918 63.6496L10.6179 63.7571L10.6943 63.4634L10.446 63.4818L9.99207 63.7204L10.3007 63.9564L10.119 64.0481L9.81747 63.8593L9.35295 64.174L8.92525 63.8541L8.83862 64.5331L8.54573 64.2867L8.49402 64.6013L8.10394 64.6485L8.19436 63.2353L7.62128 63.2091L7.80779 62.7922L7.04334 62.669L6.57963 62.9024L6.42588 62.5353L5.76239 62.7424L5.56722 62.0949L5.30517 62.4855L5.22749 62.2574L4.92051 62.5038L4.89993 61.8353L4.65225 62.0398L4.72913 62.5379L4.27516 62.6271L4.72588 62.96L4.77704 63.7283L3.93895 63.6575L3.52533 63.9144L3.12902 63.5342L2.95334 63.9852L2.73163 63.8698L2.44767 63.0335L3.02182 62.1158L3.30362 62.066L3.23973 61.7383L2.00886 60.6083L2.52454 60.1101L1.96041 59.3891L1.45149 59.3445L1.54245 59.0194L2.07789 58.9381L2.13284 58.6655L3.0516 58.8569L2.91625 59.7273L3.09708 60.2517L4.2416 60.3802L4.54966 60.9701L6.50167 60.582L6.97485 61.0776L6.9107 62.0765L7.40526 62.0634L7.42205 62.2705L7.83974 61.9297L7.60802 61.6177L7.87737 61.2349L7.2312 61.2323L7.32216 60.7866L6.65028 60.6056L7.46428 59.667L7.39687 59.4887L6.86603 59.7535L6.90338 59.4232L7.24366 59.3629L7.39633 58.946L8.69677 59.1112L8.64778 57.7033L8.15971 57.698L8.01434 57.2602L7.34815 57.0819L7.22282 57.4306L7.70114 58.4007L7.32622 58.6366L6.99272 58.1909L7.0382 57.7321L6.10266 57.6534L6.12107 57.0111L5.54312 57.2444L4.60569 56.9324L4.13305 57.5197L4.05292 58.3849L3.70317 58.4321L3.40135 58.0782L2.0879 58.0729L1.93578 57.698L2.23219 57.4437L1.39817 56.8328L1.44526 56.3216L1.79718 56.0489L2.13176 56.2114L2.15748 55.6792L2.50559 55.2938L1.29314 55.4065L0.792067 54.7694L0.464795 54.7144L0 53.8465L0.445026 52.297L0.236862 51.7753L1.04057 51.4842L1.22519 49.6123L0.795858 49.7643L0.0427677 49.5441L0.286941 48.9961L0.165668 48.3564L0.432304 48.1283L1.36947 48.8572L2.6044 49.0695L2.82611 48.8467L3.36859 48.8493L3.29956 49.1272L3.74432 49.1928L4.62762 47.7796L4.36991 47.52L4.67093 47.4466L4.67634 46.9223L4.23862 46.5998L4.74726 46.1567L4.55642 45.8447L4.17473 45.7975L4.10733 45.357L3.54211 45.4199L3.14093 44.0907L2.47122 43.4378L2.48935 43.2569L3.132 43.3303L3.1634 41.7599L3.77626 41.537L4.18475 41.8621L4.28816 41.4636L3.32771 40.5774L3.57081 39.5365L3.08192 39.4343L3.59543 38.6399L4.5058 38.1548L5.74506 37.953L8.80614 38.3882L9.94498 38.4931L10.563 38.9073L11.2349 38.7893L12.2107 39.041L13.2508 38.6792L14.5921 39.1118L14.9962 38.6084L15.3178 39.2849L15.8573 39.4893L16.0482 39.2324H16.5043L16.6846 38.6268L17.3654 38.2912L17.5847 37.0877L18.2847 37.114L19.3358 36.5031L21.1387 36.7915L21.819 36.2907L22.9543 37.1428L23.6757 37.1769L24.3979 36.427L24.4136 35.609L24.7084 35.6536L24.8226 36.1596L25.2674 36.2173L25.2084 35.3128L25.4442 35.0742L26.6829 34.5629L28.394 34.8985L28.8885 34.6337L28.966 31.4691L29.4454 30.8407L31.3305 30.5927L32.16 30.0263L33.9325 29.654L35.4227 28.8565L35.838 29.3179L36.4441 29.2267L36.9167 29.9398L37.5756 29.89L38.6302 28.6727L38.8863 27.8644L38.4562 27.405L37.9697 27.2779L38.1801 26.7577L38.6067 26.071L39.6405 25.834L40.2073 25.129L40.432 25.5052L41.1475 25.5351L41.6077 26.1819L41.8177 27.1861L42.2806 27.3757L42.449 27.8937L42.7633 27.4373L43.3845 27.8437L43.4295 28.1428L44.6801 28.4635L45.1649 28.1693L44.5829 27.7317L44.7053 27.2089L44.9614 27.1512L44.931 26.5293L43.8399 26.2727L43.799 26.6366L42.2768 26.0076L42.6347 25.4942L42.3794 24.9916L42.7094 24.7431L43.0085 25.3665L43.3106 25.4591L43.7332 25.0656L43.8964 24.3839L44.6492 24.027L45.7829 24.6225L45.5826 25.0084L46.5945 24.8965L47.8484 25.3568L48.1581 25.059L48.2929 23.9293L48.798 23.9337L48.7043 23.2793L49.7135 23.5347L50.3626 23.1309L51.7289 22.9091L51.9495 21.8467L52.9551 21.8735L53.6311 21.0368L54.1844 21.433L54.699 21.3803L55.6129 20.347L55.7065 19.2729L55.968 18.9129L55.7239 18.6743L56.5254 17.511L56.5893 17.0572L59.0066 15.7997L59.129 15.5551L58.7237 15.0698L59.2262 14.5614L60.9968 13.8955L61.8533 13.1134L63.4475 13.2835L63.6478 13.6766L64.4033 14.0434L64.7035 13.9639L64.7 13.228L65.0638 13.0649L65.1537 13.3525L65.4387 13.321L65.4807 12.1076L65.7655 12.3137L65.8545 12.1402L65.161 11.4737L65.4747 11.2346L65.5224 10.6339L65.9333 10.5398L66.1818 10.1544L65.4931 10.0272L66.0808 9.4082L65.8085 8.9216L67.133 7.40773L67.4284 7.82671L67.7102 7.80075L67.7927 8.63083L68.0699 8.59097L67.8515 9.16464L68.6195 9.41292L68.7461 9.67773L68.3371 10.1502L68.3875 10.5878L68.9297 11.0801L69.3046 10.3909L70.5763 9.86048L70.8847 9.09988L70.6841 8.80465L70.9537 8.57001L71.4913 8.92264L71.9577 8.88724L72.0424 9.43415L72.5219 9.619L73.5145 9.22441L73.9406 9.33374L73.998 8.6927L73.7533 8.81331L73.4939 8.50944L74.3626 7.39412L73.6948 7.27507L73.629 7.03649L73.9474 6.81521L73.4073 6.79186L73.449 6.18781L73.9119 6.00743L74.8751 4.59451L75.6828 4.95554L75.7221 5.27016L75.8904 4.67396L76.4394 4.77882L76.597 4.38896L77.4984 4.26415L77.5293 3.88294L77.9689 3.89814L78.1451 3.55574L77.385 2.74847L77.7797 2.79146L77.3744 2.38745L77.1774 2.86751L76.8991 1.99731L77.3812 1.75585L78.1159 1.91997L78.664 2.52456L78.5823 1.87881L78.8887 1.87041L78.928 1.62055L78.7095 1.04061L78.8725 0.943856L79.1121 1.23881L79.2501 1.09934L79.3473 1.57755L79.111 1.55371L79.1329 1.74169L79.5549 1.80959L79.7317 0.990535L80.1117 1.27815L80.413 0.818797L80.2939 0.433906L80.6347 0.0353974L81.5012 1.67693L81.8088 1.7325L81.6041 2.05159L82.0743 2.85335L82.4769 2.97788L82.001 2.1326L82.5586 1.77446L83.5353 4.0455L84.3531 4.30637L85.3785 4.23951L86.0217 4.9267L86.5054 4.88421L86.8389 4.55597L88.9644 4.36196L89.0086 3.46869L89.3185 3.65641L89.4257 3.46345L89.1894 3.27205L89.6149 3.33787L89.3521 3.11606L89.7343 3.23718L90.1055 2.90763L89.9433 2.61633L90.2373 2.27131L89.9376 1.7097L90.6022 2.10062L90.8109 1.62527L91.7118 1.09749L91.9649 1.72045L92.2589 1.21995L92.7499 1.25035L92.7461 0.906106L92.342 0.960642L92.0131 0.393532L92.8281 0.417391L92.8728 0L93.3084 0.0668582L93.2115 0.445188L93.5071 0.728351L94 1.022L91.9075 3.35517L91.5686 4.35487L90.5337 5.30346L89.2443 7.17072L86.5363 9.61796L86.5235 10.1213L81.7617 12.4495L80.0387 13.5869L79.533 14.406L78.13 15.661V16.0574L77.3593 17.0697L75.8193 18.663L68.7012 22.1566L65.8911 24.2583L65.0592 25.2737L64.7558 26.3607L64.488 26.4853L64.5728 27.0039L65.2254 27.5524L65.7249 27.4181L65.5914 28.7603L65.0846 29.0376Z" fill="#FFBC5C"/>
</svg>
