<svg width="141" height="46" viewBox="0 0 141 46" fill="none" xmlns="http://www.w3.org/2000/svg">
<path d="M22.7187 1H117.965C129.977 1 139.684 10.7727 139.684 22.7982C139.684 34.8542 129.947 44.5964 117.965 44.5964H22.7187C10.7067 44.5964 1 34.8238 1 22.7982C1 10.7727 10.737 1 22.7187 1Z" fill="white"/>
<path d="M22.7188 1.42627H117.965C129.735 1.42627 139.259 10.9858 139.259 22.7983C139.259 34.6107 129.735 44.1703 117.965 44.1703H22.7188C10.9495 44.1703 1.4248 34.6107 1.4248 22.7983C1.4248 10.9858 10.9495 1.42627 22.7188 1.42627Z" stroke="#010202" stroke-opacity="0.25" stroke-width="2.7543"/>
<path d="M51.4443 12.6299V17.5923H52.9307C53.7193 17.5923 54.326 17.3488 54.8113 16.8921C55.2967 16.4354 55.509 15.8265 55.509 15.0959C55.509 14.3652 55.2663 13.7563 54.8113 13.2997C54.3563 12.843 53.7193 12.6299 52.9307 12.6299H51.4443ZM52.9307 13.3605C53.4767 13.3605 53.9317 13.5128 54.235 13.8477C54.5687 14.1521 54.7203 14.5783 54.7203 15.1263C54.7203 15.6439 54.5687 16.0701 54.235 16.405C53.9013 16.7399 53.4767 16.8921 52.9307 16.8921H52.2027V13.3605H52.9307Z" fill="#010202"/>
<path d="M58.0262 13.8169C57.5105 13.8169 57.0555 13.9996 56.6915 14.3649C56.3275 14.7302 56.1455 15.1869 56.1455 15.7349C56.1455 16.2829 56.3275 16.7396 56.6915 17.1049C57.0555 17.4702 57.4802 17.6529 58.0262 17.6833C58.5418 17.6833 58.9968 17.5007 59.3608 17.1353C59.7248 16.77 59.9068 16.3133 59.9068 15.7653C59.9068 15.2173 59.7248 14.7607 59.3608 14.3953C58.9665 13.9996 58.5418 13.8169 58.0262 13.8169ZM58.0262 14.5476C58.3295 14.5476 58.6025 14.6693 58.8148 14.9129C59.0272 15.126 59.1182 15.4305 59.1182 15.7653C59.1182 16.1002 58.9968 16.4047 58.8148 16.6178C58.6025 16.8309 58.3295 16.9527 58.0262 16.9527C57.7228 16.9527 57.4498 16.8309 57.2375 16.6178C57.0252 16.3742 56.9342 16.1002 56.9342 15.7653C56.9342 15.4305 57.0252 15.126 57.2375 14.9129C57.4498 14.6693 57.7228 14.5476 58.0262 14.5476Z" fill="#010202"/>
<path d="M64.3667 16.2829L63.2747 13.8169H63.0017L61.94 16.3133L60.9997 13.9082H60.1807L61.758 17.6833H62.031L63.1533 15.2173L64.2757 17.6833H64.5487L66.0957 13.9082H65.2767L64.3667 16.2829Z" fill="#010202"/>
<path d="M68.522 13.8169C68.0974 13.8169 67.7334 13.9691 67.4604 14.2736V13.9082H66.7627V17.592H67.521V15.4C67.521 14.8825 67.8547 14.5476 68.34 14.5476C68.795 14.5476 69.0984 14.8825 69.0984 15.4V17.592H69.8567V15.2782C69.8567 14.3953 69.341 13.8169 68.522 13.8169Z" fill="#010202"/>
<path d="M70.8877 11.96V17.5922H71.646V11.96H70.8877Z" fill="#010202"/>
<path d="M74.3768 13.8169C73.8611 13.8169 73.4061 13.9996 73.0421 14.3649C72.6781 14.7302 72.4961 15.1869 72.4961 15.7349C72.4961 16.2829 72.6781 16.7396 73.0421 17.1049C73.4061 17.4702 73.8308 17.6529 74.3768 17.6833C74.8924 17.6833 75.3474 17.5007 75.7114 17.1353C76.0754 16.77 76.2574 16.3133 76.2574 15.7653C76.2574 15.2173 76.0754 14.7607 75.7114 14.3953C75.3474 13.9996 74.8924 13.8169 74.3768 13.8169ZM74.4071 14.5476C74.7104 14.5476 74.9834 14.6693 75.1958 14.9129C75.4081 15.126 75.4991 15.4305 75.4991 15.7653C75.4991 16.1002 75.3778 16.4047 75.1958 16.6178C74.9834 16.8309 74.7104 16.9527 74.4071 16.9527C74.1038 16.9527 73.8308 16.8309 73.6184 16.6178C73.4061 16.3742 73.3151 16.1002 73.3151 15.7653C73.3151 15.4305 73.4061 15.126 73.6184 14.9129C73.8004 14.6693 74.0734 14.5476 74.4071 14.5476Z" fill="#010202"/>
<path d="M78.5013 13.8169C77.8643 13.8169 77.3789 14.0909 77.0149 14.6085L77.4396 15.0651C77.7429 14.6998 78.0766 14.5171 78.4103 14.5171C78.8956 14.5171 79.1686 14.7911 79.1686 15.3087V15.5522H78.1676C77.3789 15.5522 76.8633 15.9785 76.8633 16.6178C76.8633 17.2571 77.3486 17.6833 78.1069 17.6833C78.5923 17.6833 78.9563 17.5311 79.2293 17.1962V17.6224H79.9269V15.4C79.9269 14.3649 79.3506 13.8169 78.5013 13.8169ZM78.2586 17.0745C77.8946 17.0745 77.6519 16.8918 77.6519 16.5873C77.6519 16.2829 77.8643 16.1307 78.289 16.1307H79.199V16.1916C79.1686 16.7091 78.7743 17.0745 78.2586 17.0745Z" fill="#010202"/>
<path d="M83.6581 14.3652C83.3851 13.9999 82.9908 13.8172 82.4751 13.8172C81.9898 13.8172 81.5651 13.9999 81.2314 14.3652C80.8978 14.7306 80.7461 15.1872 80.7461 15.7352C80.7461 16.2832 80.8978 16.7399 81.2314 17.1052C81.5651 17.4706 81.9594 17.6532 82.4751 17.6532C83.0211 17.6532 83.4458 17.4401 83.7188 17.0444V17.5619H84.4164V11.9297H83.6581V14.3652ZM82.6268 16.953C82.3234 16.953 82.0504 16.8312 81.8381 16.6181C81.6258 16.405 81.5348 16.1006 81.5348 15.7352C81.5348 15.3699 81.6258 15.0959 81.8381 14.8828C82.0504 14.6697 82.2931 14.5479 82.6268 14.5479C82.8998 14.5479 83.1728 14.6392 83.3851 14.8524C83.5974 15.0655 83.6884 15.3699 83.6884 15.7352C83.6884 16.5572 83.2031 16.953 82.6268 16.953Z" fill="#010202"/>
<path d="M89.1785 13.8169C88.6629 13.8169 88.2079 13.9996 87.8439 14.3649C87.4799 14.7302 87.2979 15.1869 87.2979 15.7349C87.2979 16.2829 87.4799 16.7396 87.8439 17.1049C88.2079 17.4702 88.6325 17.6529 89.1785 17.6833C89.6942 17.6833 90.1492 17.5007 90.5132 17.1353C90.8772 16.77 91.0592 16.3133 91.0592 15.7653C91.0592 15.2173 90.8772 14.7607 90.5132 14.3953C90.1189 13.9996 89.6942 13.8169 89.1785 13.8169ZM89.1785 14.5476C89.4819 14.5476 89.7549 14.6693 89.9672 14.9129C90.1795 15.126 90.2705 15.4305 90.2705 15.7653C90.2705 16.1002 90.1492 16.4047 89.9672 16.6178C89.7549 16.8309 89.4819 16.9527 89.1785 16.9527C88.8752 16.9527 88.6022 16.8309 88.3899 16.6178C88.1775 16.3742 88.0865 16.1002 88.0865 15.7653C88.0865 15.4305 88.1775 15.126 88.3899 14.9129C88.6022 14.6693 88.8752 14.5476 89.1785 14.5476Z" fill="#010202"/>
<path d="M93.6685 13.8169C93.2438 13.8169 92.8798 13.9691 92.6068 14.2736V13.9082H91.9092V17.592H92.6675V15.4C92.6675 14.8825 93.0012 14.5476 93.4865 14.5476C93.9415 14.5476 94.2448 14.8825 94.2448 15.4V17.592H95.0032V15.2782C95.0032 14.3953 94.5178 13.8169 93.6685 13.8169Z" fill="#010202"/>
<path d="M99.7042 16.9527C99.2492 16.9527 99.0065 16.8005 99.0065 16.3134V14.5781H100.068V13.9083H99.0065V12.9341H98.2482V13.9083H97.6719V14.5781H98.2482V16.3743C98.2482 17.2267 98.7335 17.653 99.5525 17.653C99.7345 17.653 99.9469 17.6225 100.19 17.5616V16.8919C99.9469 16.9527 99.7952 16.9527 99.7042 16.9527Z" fill="#010202"/>
<path d="M102.708 13.8171C102.283 13.8171 101.949 13.9693 101.676 14.2737V11.96H100.918V17.5922H101.676V15.4002C101.676 14.8826 102.01 14.5477 102.495 14.5477C102.95 14.5477 103.254 14.8826 103.254 15.4002V17.5922H104.012V15.2784C104.012 14.426 103.527 13.8171 102.708 13.8171Z" fill="#010202"/>
<path d="M108.319 15.5218C108.319 15.0347 108.168 14.6389 107.864 14.304C107.561 13.9691 107.167 13.8169 106.712 13.8169C106.196 13.8169 105.771 13.9996 105.407 14.3953C105.043 14.7607 104.892 15.2173 104.892 15.7653C104.892 16.3133 105.074 16.77 105.438 17.1353C105.802 17.5007 106.257 17.6833 106.803 17.6833C107.349 17.6833 107.804 17.5007 108.198 17.0745L107.834 16.5265C107.531 16.8309 107.167 16.9527 106.803 16.9527C106.196 16.9527 105.741 16.5873 105.65 15.9785H108.289C108.289 15.8262 108.319 15.674 108.319 15.5218ZM106.651 14.4867C107.167 14.4867 107.561 14.852 107.561 15.4H105.65C105.741 14.852 106.135 14.4867 106.651 14.4867Z" fill="#010202"/>
<path d="M59.4217 30.8354L55.4784 21.3672H54.9931L51.0801 30.8354H52.5967L53.2337 29.2827H57.2377L57.8747 30.8354H59.4217ZM53.7494 28.0041L55.2357 24.1376L56.6917 28.0041H53.7494Z" fill="#010202"/>
<path d="M64.0931 23.7422C63.1225 23.7422 62.2731 24.1684 61.7878 24.8991V23.9249H60.4531V33.3931H61.8788V30.0137C62.3945 30.6835 63.1528 30.988 64.0931 30.988C65.0335 30.988 65.8221 30.6531 66.4288 29.9529C67.0355 29.2526 67.3388 28.4002 67.3388 27.3651C67.3388 26.33 67.0355 25.4775 66.4288 24.7773C65.8221 24.0771 65.0335 23.7422 64.0931 23.7422ZM63.8505 29.618C63.3045 29.618 62.8191 29.4353 62.4248 29.0395C62.0305 28.6437 61.8485 28.0957 61.8485 27.3346C61.8485 25.8429 62.7585 25.0817 63.8505 25.0817C64.4268 25.0817 64.9121 25.2949 65.3065 25.7211C65.7008 26.1473 65.8828 26.6953 65.8828 27.3651C65.8828 28.0349 65.7008 28.5524 65.3065 28.9786C64.9121 29.4049 64.4268 29.618 63.8505 29.618Z" fill="#010202"/>
<path d="M72.3138 23.7422C71.3432 23.7422 70.4938 24.1684 70.0085 24.8991V23.9249H68.6738V33.3931H70.0995V30.0137C70.6152 30.6835 71.3735 30.988 72.3138 30.988C73.2542 30.988 74.0428 30.6531 74.6495 29.9529C75.2562 29.2526 75.5595 28.4002 75.5595 27.3651C75.5595 26.33 75.2562 25.4775 74.6495 24.7773C74.0428 24.0771 73.2542 23.7422 72.3138 23.7422ZM72.1015 29.618C71.5555 29.618 71.0702 29.4353 70.6758 29.0395C70.2815 28.6437 70.0995 28.0957 70.0995 27.3346C70.0995 25.8429 71.0095 25.0817 72.1015 25.0817C72.6778 25.0817 73.1632 25.2949 73.5575 25.7211C73.9518 26.1473 74.1338 26.6953 74.1338 27.3651C74.1338 28.0349 73.9518 28.5524 73.5575 28.9786C73.1328 29.4049 72.6778 29.618 72.1015 29.618Z" fill="#010202"/>
<path d="M83.2332 21.3672C82.4445 21.3672 81.7772 21.6107 81.2312 22.0674C80.6852 22.5241 80.4122 23.133 80.4122 23.8941C80.4122 25.0814 81.1705 25.8425 82.4749 26.4819L83.4455 26.969C84.3859 27.4256 84.7499 27.6996 84.7499 28.3694C84.7499 29.161 84.1432 29.6785 83.2029 29.6785C82.2929 29.6785 81.5345 29.1914 80.8672 28.1867L79.8662 28.9783C80.5639 30.2265 81.7772 30.9876 83.2332 30.9876C84.0825 30.9876 84.8105 30.7441 85.3565 30.257C85.9329 29.7699 86.2059 29.1001 86.2059 28.3085C86.2059 27.0907 85.5082 26.3601 84.0825 25.6599L83.0815 25.1727C82.1715 24.7161 81.8379 24.4725 81.8379 23.8332C81.8379 23.1025 82.4445 22.7067 83.1725 22.7067C83.9309 22.7067 84.5679 23.1025 85.0532 23.8332L86.0542 23.0416C85.5385 22.037 84.4769 21.3672 83.2332 21.3672Z" fill="#010202"/>
<path d="M90.696 29.648C89.8467 29.648 89.3917 29.3436 89.3917 28.4607V25.1727H91.3634V23.894H89.3917V22.0674H87.966V23.894H86.874V25.1727H87.966V28.5521C87.966 30.1656 88.876 30.9572 90.3927 30.9572C90.7264 30.9572 91.1207 30.8963 91.5757 30.8049V29.5567C91.1814 29.6176 90.9084 29.648 90.696 29.648Z" fill="#010202"/>
<path d="M95.67 23.7422C94.6993 23.7422 93.85 24.1075 93.1826 24.7773C92.5153 25.4775 92.1816 26.33 92.1816 27.3346C92.1816 28.3393 92.5153 29.2222 93.1826 29.892C93.85 30.5922 94.669 30.9271 95.67 30.9575C96.6406 30.9575 97.4596 30.5922 98.1573 29.9224C98.855 29.2222 99.1886 28.3697 99.1886 27.3346C99.1886 26.33 98.8246 25.4471 98.1573 24.7773C97.49 24.1075 96.6406 23.7422 95.67 23.7422ZM95.7003 25.1122C96.2766 25.1122 96.762 25.3253 97.1563 25.782C97.5506 26.2082 97.763 26.7257 97.763 27.3955C97.763 28.0349 97.5506 28.5524 97.1563 29.0091C96.762 29.4353 96.2766 29.6484 95.7003 29.6484C95.0936 29.6484 94.6083 29.4353 94.2443 29.0091C93.85 28.5829 93.668 28.0349 93.668 27.3955C93.668 26.7562 93.85 26.2082 94.2443 25.782C94.6083 25.3253 95.0936 25.1122 95.7003 25.1122Z" fill="#010202"/>
<path d="M103.799 23.8335C102.98 23.8335 102.343 24.1684 101.858 24.8077V23.8944H100.523V30.8053H101.949V27.1215C101.949 25.9037 102.768 25.2035 103.89 25.2035H104.315V23.8944C104.194 23.8639 104.012 23.8335 103.799 23.8335Z" fill="#010202"/>
<path d="M111.292 26.9081C111.292 25.9948 110.989 25.2336 110.412 24.6248C109.836 24.0159 109.108 23.7114 108.228 23.7114C107.258 23.7114 106.439 24.0768 105.802 24.777C105.134 25.4772 104.831 26.3297 104.831 27.3343C104.831 28.3694 105.165 29.2219 105.832 29.9221C106.499 30.6223 107.349 30.9572 108.38 30.9572C109.381 30.9572 110.261 30.5919 111.019 29.8308L110.352 28.8261C109.745 29.3741 109.108 29.6481 108.41 29.6481C107.258 29.6481 106.439 28.9783 106.257 27.8214H111.201C111.231 27.517 111.292 27.2125 111.292 26.9081ZM108.168 24.9901C109.138 24.9901 109.866 25.6599 109.866 26.695H106.257C106.469 25.6599 107.227 24.9901 108.168 24.9901Z" fill="#010202"/>
<path d="M44.4985 22.1892C44.4681 19.5405 46.8038 18.2619 46.8948 18.201C45.5905 16.4048 43.5278 16.1612 42.8301 16.1308C41.1315 15.9481 39.4631 17.105 38.5835 17.105C37.7038 17.105 36.3388 16.1612 34.9131 16.1916C33.0628 16.2221 31.3035 17.2268 30.3631 18.8099C28.3915 22.0065 29.8475 26.7254 31.7585 29.3132C32.6988 30.5919 33.7908 31.9923 35.2468 31.9619C36.6725 31.901 37.1881 31.1094 38.8868 31.1094C40.5855 31.1094 41.0708 31.9619 42.5571 31.9314C44.0738 31.901 45.0445 30.6528 45.9545 29.3741C47.0465 27.9128 47.4711 26.4819 47.5015 26.421C47.4408 26.3905 44.5288 25.3554 44.4985 22.1892ZM41.7078 14.4563C42.4661 13.5734 42.9818 12.3556 42.8301 11.1074C41.7381 11.1379 40.3428 11.8076 39.5541 12.6905C38.8565 13.4516 38.2195 14.7303 38.4015 15.9176C39.6451 16.009 40.9191 15.3088 41.7078 14.4563Z" fill="#010202"/>
</svg>
