<svg width="104" height="67" viewBox="0 0 104 67" fill="none" xmlns="http://www.w3.org/2000/svg">
<path d="M2.88694 42.7498L3.04873 43.7156L2.63952 43.9351L2.88694 42.7498ZM39.6868 19.1519L42.4604 19L43.7184 18.4175L44.4876 18.5811L45.4728 17.9292L47.5379 17.955L48.5268 17.5044L48.4246 16.9576L48.7504 16.6055L52.2629 17.1487L52.9905 17.5542L53.0094 17.9136L54.6767 18.7475L60.0838 17.931L62.4065 18.3656L65.472 17.7929L67.0634 16.1869L68.0902 15.9631L67.9349 15.1818L67.4878 14.8675L70.0909 12.0878L71.8074 10.8731L73.3912 8.84959L75.0661 8.06183L75.0244 7.44557L74.2779 6.49975L74.9562 5.96743L75.3465 6.8097L75.7065 6.61603L76.8507 7.10329L77.8928 6.63711L78.3664 7.44013L82.0305 5.81373L82.1442 5.50162L83.2392 5.5136L83.8872 4.95476L84.611 4.85846L84.9633 4.22187L87.7673 3.59579L92.4583 1.8862L93.576 2.40326L95.7397 1.69725L97.2326 0.347734L100.836 0L103.329 0.157339L102.503 1.59987L100.791 2.9839L100.09 3.88939L100.207 4.17571L99.722 4.36939L100.351 5.13171L100.055 5.41041L100.434 5.82428L100.196 6.27774L100.806 6.63856L101.063 7.28279L101.745 7.51934L101.882 8.3518L101.219 9.69259L101.514 9.9255L101.867 9.4495L101.939 10.1213L102.329 9.46512L102.875 9.43206L103.17 9.80196L103.333 9.60065L104 10.7957L102.158 12.138L101.954 12.6474L101.401 12.0973L100.51 12.1413L96.956 13.2397L95.7397 12.5497L94.8113 13.5235L94.781 14.8948L92.985 15.4395L91.3329 16.7519L90.4652 16.5281L89.0594 17.8667L87.6005 18.5974L87.0133 18.7235L86.0698 18.1276L85.3801 18.4731L83.9971 20.6958L82.0949 21.9861L81.1363 22.2317L80.7384 21.8694L80.2572 22.7172L79.7684 22.3683L78.4991 23.09L78.4119 23.6935L77.5138 24.0641L77.3736 25.503L76.5779 25.918L76.0096 26.7188L75.6382 26.4063L75.57 24.9445L75.354 25.0372L73.8725 26.761L73.6906 28.7976L72.5804 29.1094L70.8828 31.7877L70.6593 33.5452L70.0606 34.6851L70.466 36.2145L69.4202 36.7726L68.8746 37.5004L68.2115 37.209L67.4461 38.0505L67.1846 37.4935L67.4878 36.3885L67.071 35.406L66.7224 35.9234L65.669 36.3936L65.9607 37.4535L63.7858 38.9836L62.5808 40.7986L61.391 41.235L59.8147 42.707L60.8681 44.1437L61.9556 44.6553L62.2246 45.6066L61.7889 46.2261L62.1527 46.8318L60.7506 47.9309L59.8792 50.5315L59.3676 51.36L58.7689 51.3309L58.4507 51.865L58.6742 53.0318L58.3067 53.248L58.5226 53.5939L58.1248 54.3119L57.6019 54.672L57.6057 55.4532L56.8744 55.8245L56.3742 55.3057L56.162 55.4797L56.1203 56.6519L55.605 57.1966L56.0786 57.8009L55.5974 59.1667L56.1165 59.3851L55.3625 59.5359L55.5519 59.7724L54.9457 60.8774L55.0025 62.3563L54.3659 62.4925L53.3012 62.6259L52.9033 62.3268L52.7972 62.6448L52.1038 62.5583L51.543 62.9326L50.4972 60.4675L49.2696 63.3283L48.1783 63.7094L47.9699 65.0746L46.9657 65.2025L46.6512 66.3801L45.901 66.6414L45.8214 67L45.0901 66.8103L44.859 65.0782L42.7901 65.1018L41.4109 65.144L42.3922 62.9057L41.7102 61.5097V60.756L42.036 58.1177L42.8166 56.7467L41.8655 53.9365L42.8204 53.5757L44.3475 54.7872L45.0219 54.7494L45.2985 54.3148L45.9995 54.3708L46.2117 53.8464L45.9578 52.982L45.6206 53.1877L45.3477 52.998L45.7039 52.9348L45.4842 52.6048L44.9575 52.6666L44.9158 51.6412L45.5297 51.5493L45.8744 50.3211L46.8407 50.4676L46.5413 49.7674L48.1328 50.154L48.8793 49.1257L51.1414 48.3928L50.4859 47.8728L50.9405 47.2511L50.8117 46.4299L50.4176 46.3827L50.0312 45.584L49.7204 45.6934L48.993 44.962L48.7656 45.0793L48.6708 44.6455L47.9282 44.9714L47.7501 44.014L47.2423 44.087L48.5155 42.8712L48.6595 41.9188L47.8221 42.5238L47.3257 42.4711L47.0832 41.5747L46.1624 41.3847L45.5675 40.3488L45.0181 40.2005L45.0333 39.4959L44.2451 39.1112L43.3964 39.6046L41.6761 39.7612L40.5545 40.5326L40.4294 38.0796L40.869 37.0785L41.6192 36.4357L40.6038 36.3529L40.4825 35.7773L42.8014 33.433L41.8769 33.7222L40.8425 33.4261L40.0998 34.0129L38.7812 34.2414L37.7657 34.0983L36.6327 34.8228L35.7764 33.9039L35.8673 33.1081L34.939 32.7415L33.4915 33.7811L33.3096 35.6164L32.4722 36.4652L31.5174 35.8635L31.9569 35.4285L31.8622 34.4242L30.9376 34.2374L29.7175 36.1985L30.2063 36.1472L29.2742 37.0618L29.8161 37.1276L30.176 36.7402L30.1078 37.0324L28.774 37.5876L28.3534 37.3489L26.9515 37.6261L26.0004 39.2271L25.1478 39.6362L24.623 39.5294L24.4241 38.7147L24.6969 37.2737L22.5064 37.947L22.2866 37.7987L22.758 37.3852L22.2741 37.4514L21.4788 37.9139L21.9471 36.7675L20.9313 36.7824L20.5243 35.7294L20.0829 35.8061L20.1355 36.3267L19.5414 35.656L18.7809 35.8925L18.3387 35.6494L17.8154 36.4147L17.1989 36.2944L17.3119 35.5597L16.3032 35.6734L15.296 36.5789L14.9952 36.3456L15.365 35.9063L14.5992 35.5161L13.45 36.6243L13.8095 35.5462L12.8698 34.5481L12.0696 35.0052L11.5406 34.5666L11.0223 34.6339L10.3538 35.2614L8.02125 35.7835L6.97089 35.4903L5.09715 36.931L5.37983 37.1599L5.15589 37.4862L4.10782 37.8757L4.28324 38.7471L3.92555 39.2678L3.2541 39.4342L5.30442 41.7455L2.88391 42.7538L3.13211 41.2651L2.30039 39.7401L2.44701 38.8557L1.9696 38.0073L3.21698 35.858L2.57738 35.7497L2.41329 35.4445L2.97107 35.2319L2.38184 34.6331L2.38489 35.1469L2.10866 35.079L1.79756 34.1284L1.36748 34.1713L1.78733 33.8098L1.68995 33.3116L1.05716 32.9115L1.24738 32.59L0.922264 32.098L0.3933 31.9156L0.646426 31.759L0 31.5126L0.611181 31.1064L0.0390155 31.0199L0.556994 30.6529L0.163301 30.0992L0.498644 30.3004L0.700613 30.0788L0.377759 29.4731L1.04884 29.7594L0.915071 29.1966L1.41411 29.0316L1.43305 28.6399L2.67095 28.0938L2.49893 27.7737L2.1776 27.8837L2.89036 26.773L2.59479 26.2842L2.74787 24.7044L3.00327 24.5928L2.66642 23.9057L2.98356 23.4479L2.66489 22.4948L2.75356 21.9116L4.32228 22.1543L7.4184 21.5966L8.12014 21.3211L8.04322 20.6333L8.54982 19.8601L9.97492 19.9567L10.8555 19.1145L11.7543 19.0127L14.2252 20.7863L16.7306 21.3738L22.3503 21.1649L23.0517 20.4567L25.7768 20.7169L26.9931 21.162L28.1791 20.1795L29.566 20.9843L31.722 20.4298L32.7678 20.7147L34.651 19.8888L35.568 18.7987L36.2197 18.7616L37.671 19.7794L38.6561 19.968L39.3723 19.7314L39.6868 19.1519Z" fill="#FFBC5C"/>
</svg>
