<svg width="669" height="400" viewBox="0 0 669 400" fill="none" xmlns="http://www.w3.org/2000/svg">
<g opacity="0.06" clip-path="url(#clip0_8_309)">
<path opacity="0.87" d="M-23 439L31 385" stroke="#012D01" stroke-width="3.5"/>
<path opacity="0.87" d="M-23 385L31 331" stroke="#012D01" stroke-width="3.5"/>
<path opacity="0.87" d="M-23 331L31 277" stroke="#012D01" stroke-width="3.5"/>
<path opacity="0.87" d="M-23 223L31 277" stroke="#012D01" stroke-width="3.5"/>
<path opacity="0.87" d="M-23 169L31 223" stroke="#012D01" stroke-width="3.5"/>
<path opacity="0.87" d="M-23 169L31 115" stroke="#012D01" stroke-width="3.5"/>
<path opacity="0.87" d="M-23 61L31 115" stroke="#012D01" stroke-width="3.5"/>
<path opacity="0.87" d="M-23 7L31 61" stroke="#012D01" stroke-width="3.5"/>
<path opacity="0.87" d="M-23 7L31 -47" stroke="#012D01" stroke-width="3.5"/>
<path opacity="0.81" d="M31 439L85 385" stroke="#012D01" stroke-width="3.5"/>
<path opacity="0.81" d="M31 331L85 385" stroke="#012D01" stroke-width="3.5"/>
<path opacity="0.81" d="M31 277L85 331" stroke="#012D01" stroke-width="3.5"/>
<path opacity="0.81" d="M31 277L85 223" stroke="#012D01" stroke-width="3.5"/>
<path opacity="0.81" d="M31 169L85 223" stroke="#012D01" stroke-width="3.5"/>
<path opacity="0.81" d="M31 115L85 169" stroke="#012D01" stroke-width="3.5"/>
<path opacity="0.81" d="M31 61L85 115" stroke="#012D01" stroke-width="3.5"/>
<path opacity="0.81" d="M31 61L85 7" stroke="#012D01" stroke-width="3.5"/>
<path opacity="0.81" d="M31 7L85 -47" stroke="#012D01" stroke-width="3.5"/>
<path opacity="0.74" d="M85 439L139 385" stroke="#012D01" stroke-width="3.5"/>
<path opacity="0.74" d="M85 331L139 385" stroke="#012D01" stroke-width="3.5"/>
<path opacity="0.74" d="M85 331L139 277" stroke="#012D01" stroke-width="3.5"/>
<path opacity="0.74" d="M85 277L139 223" stroke="#012D01" stroke-width="3.5"/>
<path opacity="0.74" d="M85 223L139 169" stroke="#012D01" stroke-width="3.5"/>
<path opacity="0.74" d="M85 115L139 169" stroke="#012D01" stroke-width="3.5"/>
<path opacity="0.74" d="M85 115L139 61" stroke="#012D01" stroke-width="3.5"/>
<path opacity="0.74" d="M85 7L139 61" stroke="#012D01" stroke-width="3.5"/>
<path opacity="0.74" d="M85 7L139 -47" stroke="#012D01" stroke-width="3.5"/>
<path opacity="0.68" d="M139 385L193 439" stroke="#012D01" stroke-width="3.5"/>
<path opacity="0.68" d="M139 385L193 331" stroke="#012D01" stroke-width="3.5"/>
<path opacity="0.68" d="M139 277L193 331" stroke="#012D01" stroke-width="3.5"/>
<path opacity="0.68" d="M139 223L193 277" stroke="#012D01" stroke-width="3.5"/>
<path opacity="0.68" d="M139 223L193 169" stroke="#012D01" stroke-width="3.5"/>
<path opacity="0.68" d="M139 169L193 115" stroke="#012D01" stroke-width="3.5"/>
<path opacity="0.68" d="M139 61L193 115" stroke="#012D01" stroke-width="3.5"/>
<path opacity="0.68" d="M139 61L193 7" stroke="#012D01" stroke-width="3.5"/>
<path opacity="0.68" d="M139 7L193 -47" stroke="#012D01" stroke-width="3.5"/>
<path opacity="0.62" d="M193 385L247 439" stroke="#012D01" stroke-width="3.5"/>
<path opacity="0.62" d="M193 385L247 331" stroke="#012D01" stroke-width="3.5"/>
<path opacity="0.62" d="M193 331L247 277" stroke="#012D01" stroke-width="3.5"/>
<path opacity="0.62" d="M193 223L247 277" stroke="#012D01" stroke-width="3.5"/>
<path opacity="0.62" d="M193 169L247 223" stroke="#012D01" stroke-width="3.5"/>
<path opacity="0.62" d="M193 115L247 169" stroke="#012D01" stroke-width="3.5"/>
<path opacity="0.62" d="M193 115L247 61" stroke="#012D01" stroke-width="3.5"/>
<path opacity="0.62" d="M193 7L247 61" stroke="#012D01" stroke-width="3.5"/>
<path opacity="0.62" d="M193 7L247 -47" stroke="#012D01" stroke-width="3.5"/>
<path opacity="0.55" d="M247 385L301 439" stroke="#012D01" stroke-width="3.5"/>
<path opacity="0.55" d="M247 331L301 385" stroke="#012D01" stroke-width="3.5"/>
<path opacity="0.55" d="M247 331L301 277" stroke="#012D01" stroke-width="3.5"/>
<path opacity="0.55" d="M247 277L301 223" stroke="#012D01" stroke-width="3.5"/>
<path opacity="0.55" d="M247 169L301 223" stroke="#012D01" stroke-width="3.5"/>
<path opacity="0.55" d="M247 115L301 169" stroke="#012D01" stroke-width="3.5"/>
<path opacity="0.55" d="M247 115L301 61" stroke="#012D01" stroke-width="3.5"/>
<path opacity="0.55" d="M247 7L301 61" stroke="#012D01" stroke-width="3.5"/>
<path opacity="0.55" d="M247 -47L301 7" stroke="#012D01" stroke-width="3.5"/>
<path opacity="0.49" d="M301 439L355 385" stroke="#012D01" stroke-width="3.5"/>
<path opacity="0.49" d="M301 331L355 385" stroke="#012D01" stroke-width="3.5"/>
<path opacity="0.49" d="M301 277L355 331" stroke="#012D01" stroke-width="3.5"/>
<path opacity="0.49" d="M301 277L355 223" stroke="#012D01" stroke-width="3.5"/>
<path opacity="0.49" d="M301 223L355 169" stroke="#012D01" stroke-width="3.5"/>
<path opacity="0.49" d="M301 169L355 115" stroke="#012D01" stroke-width="3.5"/>
<path opacity="0.49" d="M301 61L355 115" stroke="#012D01" stroke-width="3.5"/>
<path opacity="0.49" d="M301 7L355 61" stroke="#012D01" stroke-width="3.5"/>
<path opacity="0.49" d="M301 7L355 -47" stroke="#012D01" stroke-width="3.5"/>
<path opacity="0.42" d="M355 439L409 385" stroke="#012D01" stroke-width="3.5"/>
<path opacity="0.42" d="M355 385L409 331" stroke="#012D01" stroke-width="3.5"/>
<path opacity="0.42" d="M355 331L409 277" stroke="#012D01" stroke-width="3.5"/>
<path opacity="0.42" d="M355 277L409 223" stroke="#012D01" stroke-width="3.5"/>
<path opacity="0.42" d="M355 223L409 169" stroke="#012D01" stroke-width="3.5"/>
<path opacity="0.42" d="M355 115L409 169" stroke="#012D01" stroke-width="3.5"/>
<path opacity="0.42" d="M355 61L409 115" stroke="#012D01" stroke-width="3.5"/>
<path opacity="0.42" d="M355 7L409 61" stroke="#012D01" stroke-width="3.5"/>
<path opacity="0.42" d="M355 -47L409 7" stroke="#012D01" stroke-width="3.5"/>
<path opacity="0.36" d="M409 385L463 439" stroke="#012D01" stroke-width="3.5"/>
<path opacity="0.36" d="M409 331L463 385" stroke="#012D01" stroke-width="3.5"/>
<path opacity="0.36" d="M409 331L463 277" stroke="#012D01" stroke-width="3.5"/>
<path opacity="0.36" d="M409 223L463 277" stroke="#012D01" stroke-width="3.5"/>
<path opacity="0.36" d="M409 223L463 169" stroke="#012D01" stroke-width="3.5"/>
<path opacity="0.36" d="M409 169L463 115" stroke="#012D01" stroke-width="3.5"/>
<path opacity="0.36" d="M409 61L463 115" stroke="#012D01" stroke-width="3.5"/>
<path opacity="0.36" d="M409 61L463 7" stroke="#012D01" stroke-width="3.5"/>
<path opacity="0.36" d="M409 7L463 -47" stroke="#012D01" stroke-width="3.5"/>
<path opacity="0.29" d="M463 385L517 439" stroke="#012D01" stroke-width="3.5"/>
<path opacity="0.29" d="M463 331L517 385" stroke="#012D01" stroke-width="3.5"/>
<path opacity="0.29" d="M463 277L517 331" stroke="#012D01" stroke-width="3.5"/>
<path opacity="0.29" d="M463 223L517 277" stroke="#012D01" stroke-width="3.5"/>
<path opacity="0.29" d="M463 169L517 223" stroke="#012D01" stroke-width="3.5"/>
<path opacity="0.29" d="M463 115L517 169" stroke="#012D01" stroke-width="3.5"/>
<path opacity="0.29" d="M463 61L517 115" stroke="#012D01" stroke-width="3.5"/>
<path opacity="0.29" d="M463 7L517 61" stroke="#012D01" stroke-width="3.5"/>
<path opacity="0.29" d="M463 7L517 -47" stroke="#012D01" stroke-width="3.5"/>
<path opacity="0.23" d="M517 385L571 439" stroke="#012D01" stroke-width="3.5"/>
<path opacity="0.23" d="M517 331L571 385" stroke="#012D01" stroke-width="3.5"/>
<path opacity="0.23" d="M517 277L571 331" stroke="#012D01" stroke-width="3.5"/>
<path opacity="0.23" d="M517 277L571 223" stroke="#012D01" stroke-width="3.5"/>
<path opacity="0.23" d="M517 169L571 223" stroke="#012D01" stroke-width="3.5"/>
<path opacity="0.23" d="M517 169L571 115" stroke="#012D01" stroke-width="3.5"/>
<path opacity="0.23" d="M517 61L571 115" stroke="#012D01" stroke-width="3.5"/>
<path opacity="0.23" d="M517 61L571 7" stroke="#012D01" stroke-width="3.5"/>
<path opacity="0.23" d="M517 -47L571 7" stroke="#012D01" stroke-width="3.5"/>
<path opacity="0.17" d="M571 385L625 439" stroke="#012D01" stroke-width="3.5"/>
<path opacity="0.17" d="M571 331L625 385" stroke="#012D01" stroke-width="3.5"/>
<path opacity="0.17" d="M571 331L625 277" stroke="#012D01" stroke-width="3.5"/>
<path opacity="0.17" d="M571 223L625 277" stroke="#012D01" stroke-width="3.5"/>
<path opacity="0.17" d="M571 169L625 223" stroke="#012D01" stroke-width="3.5"/>
<path opacity="0.17" d="M571 169L625 115" stroke="#012D01" stroke-width="3.5"/>
<path opacity="0.17" d="M571 115L625 61" stroke="#012D01" stroke-width="3.5"/>
<path opacity="0.17" d="M571 7L625 61" stroke="#012D01" stroke-width="3.5"/>
<path opacity="0.17" d="M571 7L625 -47" stroke="#012D01" stroke-width="3.5"/>
<path opacity="0.1" d="M625 385L679 439" stroke="#012D01" stroke-width="3.5"/>
<path opacity="0.1" d="M625 385L679 331" stroke="#012D01" stroke-width="3.5"/>
<path opacity="0.1" d="M625 277L679 331" stroke="#012D01" stroke-width="3.5"/>
<path opacity="0.1" d="M625 277L679 223" stroke="#012D01" stroke-width="3.5"/>
<path opacity="0.1" d="M625 223L679 169" stroke="#012D01" stroke-width="3.5"/>
<path opacity="0.1" d="M625 115L679 169" stroke="#012D01" stroke-width="3.5"/>
<path opacity="0.1" d="M625 115L679 61" stroke="#012D01" stroke-width="3.5"/>
<path opacity="0.1" d="M625 61L679 7" stroke="#012D01" stroke-width="3.5"/>
<path opacity="0.1" d="M625 7L679 -47" stroke="#012D01" stroke-width="3.5"/>
</g>
<defs>
<clipPath id="clip0_8_309">
<rect width="400" height="800" fill="white" transform="matrix(0 -1 1 0 -131 400)"/>
</clipPath>
</defs>
</svg>
