<svg width="1920" height="628" viewBox="0 0 1920 628" fill="none" xmlns="http://www.w3.org/2000/svg">
<path opacity="0.3" d="M82.5452 262.312C21.7969 280.469 -104.553 342.274 -57.5588 325.092L-55.6768 349.121L1968.8 166.388L1958.51 35.007C1958.51 35.007 1675.25 13.9834 1495.48 37.3613C1258.08 68.2344 1172.26 208.638 933.276 211.382C822.817 212.65 763.201 142.439 660.075 148.317C556.949 154.196 527.358 190.11 500.021 207.322C472.684 224.535 452.351 256.583 381.881 272.464C311.411 288.345 276.723 233.523 200.166 238.029C152.684 240.823 126.358 249.216 82.5452 262.312Z" fill="url(#paint0_linear_8_49064)"/>
<path opacity="0.3" d="M1832.5 546.003C1893.95 561.613 2022.76 618.097 1975.09 602.889L1974.22 626.976L-56.1212 528.786L-51.3167 397.091C-51.3167 397.091 230.825 364.278 411.411 380.143C649.895 401.093 741.491 537.798 980.381 530.578C1090.8 527.241 1147.43 454.606 1250.72 456.181C1354 457.756 1385.06 492.405 1413.09 508.463C1441.12 524.521 1462.77 555.694 1533.84 568.624C1604.91 581.553 1637.29 525.333 1713.96 526.644C1761.52 527.457 1788.17 534.745 1832.5 546.003Z" fill="url(#paint1_linear_8_49064)"/>
<defs>
<linearGradient id="paint0_linear_8_49064" x1="940.551" y1="120.174" x2="948.731" y2="224.618" gradientUnits="userSpaceOnUse">
<stop stop-color="#FFEFBF"/>
<stop offset="1" stop-color="#FDF5E1" stop-opacity="0"/>
</linearGradient>
<linearGradient id="paint1_linear_8_49064" x1="969.311" y1="439.752" x2="965.491" y2="544.446" gradientUnits="userSpaceOnUse">
<stop stop-color="#FFEFBF"/>
<stop offset="1" stop-color="#FDF5E1" stop-opacity="0"/>
</linearGradient>
</defs>
</svg>
