<svg width="240" height="292" viewBox="0 0 240 292" fill="none" xmlns="http://www.w3.org/2000/svg">
<path d="M39.9414 250.946L126.585 211.406L221.505 222.04L183.687 256.151L39.9414 250.946Z" fill="#ED8164"/>
<path d="M221.507 246.303L223.266 242.034C223.266 242.034 219.934 243.906 219.822 236.043C219.709 228.218 221.507 226.645 221.507 226.645L182.004 259.483C182.004 259.483 170.921 269.143 173.916 280.339C176.949 291.497 180.955 289.363 180.955 289.363L221.507 246.303Z" fill="#FFE9CC"/>
<path d="M219.599 233.609C211.398 242.521 202.412 250.721 192.789 258.098C201.027 249.186 210.013 240.986 219.599 233.609Z" fill="#E2B98D"/>
<path d="M179.012 278.429C188.298 267.833 198.37 257.873 209.116 248.737C199.83 259.371 189.758 269.293 179.012 278.429Z" fill="#E2B98D"/>
<path d="M220.612 240.761C216.156 246.602 210.914 251.77 205.035 256.15C209.453 250.309 214.733 245.142 220.612 240.761Z" fill="#E2B98D"/>
<path d="M179.684 283.784C185.749 276.22 192.602 269.256 200.09 263.115C194.062 270.716 187.21 277.643 179.684 283.784Z" fill="#E2B98D"/>
<g style="mix-blend-mode:multiply" opacity="0.5">
<path d="M221.505 226.645L182.002 259.483C182.002 259.483 175.075 265.511 173.652 273.599L219.858 233.198C220.157 227.843 221.505 226.645 221.505 226.645Z" fill="#FFE9CC"/>
<path d="M220.231 239.75L175.074 283.821C177.845 291.01 180.953 289.363 180.953 289.363L221.504 246.303L223.264 242.034C223.264 242.034 221.167 243.195 220.231 239.75Z" fill="#FFE9CC"/>
</g>
<path d="M180.953 287.715L223.264 242.034V245.629L180.953 291.497V287.715Z" fill="#B75141"/>
<path d="M183.687 256.151L183.574 259.483L221.504 226.645V222.04L183.687 256.151Z" fill="#B75141"/>
<path d="M180.952 289.363C180.952 289.363 178.405 280.564 179.005 273.674C179.566 266.784 183.573 257.461 183.573 257.461L40.5013 252.743C40.5013 252.743 34.0985 260.382 34.0236 271.053C33.9862 281.724 39.9397 289.363 39.9397 289.363H180.952Z" fill="white"/>
<path d="M46.4174 282.061C38.9661 273.899 44.5078 263.677 44.5078 263.677L180.54 266.71C182.112 261.767 183.573 257.461 183.573 257.461L40.5013 252.743C40.5013 252.743 34.0985 260.382 34.0236 271.053C33.9862 281.724 39.9397 289.363 39.9397 289.363H180.952C180.952 289.363 179.941 285.806 179.342 281.462L46.4174 282.061Z" fill="#FFEEDE"/>
<path d="M35.5625 266.785C63.4204 265.736 91.2783 265.736 119.136 266.785C91.2783 267.796 63.4204 267.796 35.5625 266.785Z" fill="#F7CEAA"/>
<path d="M83.9336 275.584C109.882 274.535 135.905 274.535 161.891 275.584C135.905 276.595 109.882 276.595 83.9336 275.584Z" fill="#F7CEAA"/>
<path d="M106.668 271.053C130.856 270.304 155.082 270.529 179.233 271.839C155.045 272.588 130.856 272.326 106.668 271.053Z" fill="#F7CEAA"/>
<path d="M38.0352 280.339C55.8582 279.291 73.7562 279.291 91.6167 280.339C73.7562 281.35 55.8582 281.35 38.0352 280.339Z" fill="#F7CEAA"/>
<path d="M36.9102 271.839C43.4628 270.791 50.1651 270.791 56.7177 271.839C50.1651 272.85 43.4628 272.85 36.9102 271.839Z" fill="#F7CEAA"/>
<path d="M38.5586 258.098C80.7573 258.547 123.443 260.007 165.567 262.479C123.368 262.029 80.7199 260.569 38.5586 258.098Z" fill="#F7CEAA"/>
<path d="M179.197 280.339C166.765 281.35 154.259 281.35 141.828 280.339C154.259 279.291 166.765 279.291 179.197 280.339Z" fill="#F7CEAA"/>
<path d="M98.918 282.96C106.182 281.912 113.558 281.912 120.822 282.96C113.558 283.971 106.182 283.971 98.918 282.96Z" fill="#F7CEAA"/>
<path d="M180.952 291.497V287.715H41.0261C41.0261 287.715 34.436 281.425 35.4844 268.02C36.2708 257.91 42.5613 254.241 42.5613 254.241L183.573 259.483L183.686 256.15L39.9402 250.946C39.9402 250.946 31.6652 257.274 32.0022 270.903C32.3018 284.533 39.9402 291.497 39.9402 291.497H180.952Z" fill="#D3614A"/>
<path d="M214.535 215.861L215.659 213.353C215.659 213.353 212.476 211.406 213.262 205.152C214.048 198.862 218.954 196.503 218.954 196.503H217.381L174.583 230.277C174.583 230.277 168.854 235.332 169.641 241.697C170.427 248.025 176.156 248.999 176.156 248.999L214.535 215.861Z" fill="#FFE9CC"/>
<path d="M173.344 238.552C178.137 233.123 183.678 228.405 189.781 224.548C185.026 229.978 179.447 234.695 173.344 238.552Z" fill="#E2B98D"/>
<path d="M174.582 245.666C176.042 243.345 178.401 241.66 181.06 241.023C179.599 243.345 177.241 245.03 174.582 245.666Z" fill="#E2B98D"/>
<path d="M177.094 240.387C185.107 231.962 193.868 224.211 203.267 217.322C195.254 225.784 186.492 233.497 177.094 240.387Z" fill="#E2B98D"/>
<path d="M213.264 205.153C208.209 210.844 202.368 215.824 195.965 219.98C201.02 214.251 206.861 209.271 213.264 205.153Z" fill="#E2B98D"/>
<path d="M213.747 212.342C207.457 219.119 200.417 225.222 192.816 230.427C199.069 223.649 206.109 217.584 213.747 212.342Z" fill="#E2B98D"/>
<path d="M213.26 208.822C212.399 211.293 210.564 213.315 208.168 214.401C209.029 211.93 210.901 209.908 213.26 208.822Z" fill="#E2B98D"/>
<g style="mix-blend-mode:multiply" opacity="0.5">
<path d="M176.156 248.999L214.535 215.861L215.659 213.352C215.659 213.352 214.648 212.753 213.936 211.143L170.277 244.094C171.962 248.287 176.156 248.999 176.156 248.999Z" fill="#FFE9CC"/>
<path d="M213.187 206.051C213.212 205.751 213.237 205.452 213.262 205.152C214.049 198.862 218.954 196.503 218.954 196.503H217.381L174.583 230.277C174.583 230.277 170.202 234.134 169.641 239.338L170.502 238.327L213.187 206.051Z" fill="#FFE9CC"/>
</g>
<path d="M174.586 228.367L218.956 193.47V196.503L174.586 232.187V228.367Z" fill="#9B4534"/>
<path d="M176.156 247.726V250.871L215.659 216.797V213.353L176.156 247.726Z" fill="#9B4534"/>
<path d="M218.957 193.47L113.479 186.656L56.9023 215.861L174.587 228.367L218.957 193.47Z" fill="#7F3428"/>
<path d="M52.7776 229.154C52.7776 224.885 53.0771 219.493 54.9867 218.22C56.8964 216.947 61.5019 217.434 61.5019 217.434L174.581 230.277V232.187C174.581 232.187 170.912 242.97 176.154 247.726V249.785L57.1959 240.087C57.1959 240.087 52.7401 233.572 52.7776 229.154Z" fill="white"/>
<path d="M60.2288 224.548L173.42 237.691C173.72 234.621 174.581 232.187 174.581 232.187V230.277L61.5019 217.434C61.5019 217.434 56.8964 216.947 54.9867 218.22C53.0771 219.493 52.7776 224.885 52.7776 229.154C52.7401 233.572 57.1959 240.087 57.1959 240.087L176.154 249.785V247.726C174.918 246.602 174.207 245.18 173.757 243.644L60.079 234.508C55.8105 228.555 60.2288 224.548 60.2288 224.548Z" fill="#FFEEDE"/>
<path d="M54.0898 224.548C79.4016 226.084 104.713 228.592 129.838 232.187C104.489 230.652 79.2144 228.105 54.0898 224.548Z" fill="#F7CEAA"/>
<path d="M82.4336 230.427C103.065 231.513 123.659 233.647 144.103 236.792C123.472 235.706 102.878 233.572 82.4336 230.427Z" fill="#F7CEAA"/>
<path d="M54.5039 231.363C73.2631 232.149 91.9473 233.947 110.482 236.792C91.7601 236.006 73.0758 234.209 54.5039 231.363Z" fill="#F7CEAA"/>
<path d="M87.1914 236.792C109.732 237.691 132.236 239.676 154.59 242.634C132.049 241.735 109.545 239.75 87.1914 236.792Z" fill="#F7CEAA"/>
<path d="M146.016 239.713C153.954 239.339 161.892 240.012 169.642 241.697C161.742 242.072 153.766 241.398 146.016 239.713Z" fill="#F7CEAA"/>
<path d="M104.637 226.458C126.916 228.18 149.119 230.951 171.136 234.695C148.857 232.973 126.653 230.24 104.637 226.458Z" fill="#F7CEAA"/>
<path d="M174.587 232.187V228.368L56.902 215.861C56.902 215.861 50.3869 216.648 50.8736 226.945C51.3604 237.242 54.9924 242.184 58.8116 242.184C62.5934 242.184 176.159 250.871 176.159 250.871V247.726C176.159 247.726 61.1706 239.151 58.9614 238.852C56.7523 238.515 54.1687 233.273 54.0189 227.094C53.8691 220.916 55.4792 218.52 58.1751 218.52C60.871 218.52 174.587 232.187 174.587 232.187Z" fill="#AF5648"/>
<path d="M44.6602 181.339L99.0655 158.423L208.325 160.932L175.675 188.153L44.6602 181.339Z" fill="#ED8164"/>
<path d="M213.269 188.977V186.955C213.269 186.955 203.122 184.596 204.844 168.308C204.807 164.789 205.331 165.949 205.331 165.949L175.339 190.849L171.707 203.243L186.123 217.359L213.269 188.977Z" fill="#FFE9CC"/>
<path d="M204.738 174.224C200.207 179.354 194.89 183.81 189.012 187.367C193.542 182.237 198.897 177.781 204.738 174.224Z" fill="#E2B98D"/>
<path d="M202.787 179.616C197.058 185.719 190.581 191.111 183.504 195.642C189.233 189.501 195.748 184.147 202.787 179.616Z" fill="#E2B98D"/>
<path d="M177.629 204.89C182.908 198.825 189.012 193.47 195.677 188.977C190.36 195.005 184.294 200.36 177.629 204.89Z" fill="#E2B98D"/>
<path d="M180.43 209.796C183.912 204.853 188.255 200.51 193.198 197.065C189.716 202.007 185.372 206.313 180.43 209.796Z" fill="#E2B98D"/>
<path d="M209.606 184.933C203.502 192.721 196.575 199.873 189.012 206.238C195.115 198.45 202.042 191.298 209.606 184.933Z" fill="#E2B98D"/>
<path d="M206.752 181.339C205.067 184.521 202.446 187.217 199.301 188.977C200.986 185.757 203.569 183.098 206.752 181.339Z" fill="#E2B98D"/>
<g style="mix-blend-mode:multiply" opacity="0.5">
<path d="M204.922 166.286L205.334 165.949C205.334 165.949 205.072 165.35 204.922 166.286Z" fill="#FFE9CC"/>
<path d="M204.844 168.308C204.844 167.297 204.881 166.661 204.919 166.286L175.338 190.849L172.23 201.408L204.881 175.423C204.619 173.401 204.544 171.042 204.844 168.308Z" fill="#FFE9CC"/>
<path d="M208.592 183.922L179.461 210.807L186.126 217.359L213.272 188.977V186.955C213.272 186.955 210.839 186.394 208.592 183.922Z" fill="#FFE9CC"/>
</g>
<path d="M215.177 184.933V188.64L186.121 218.782V215.599L215.177 184.933Z" fill="#B75141"/>
<path d="M175.676 188.153L208.326 160.932V165.238L175.676 191.823V188.153Z" fill="#B75141"/>
<path d="M41.8169 196.728C41.1429 191.224 45.7859 183.099 45.7859 183.099L175.677 189.913C175.677 189.913 172.494 205.153 186.124 215.599V217.359L51.1777 210.545C51.1777 210.545 43.3895 209.421 41.8169 196.728Z" fill="white"/>
<path d="M180.245 209.496L52.9376 204.853C46.9092 197.552 52.301 190.999 52.301 190.999L175.677 198.226C174.928 193.433 175.677 189.913 175.677 189.913L45.7859 183.099C45.7859 183.099 41.1429 191.224 41.8169 196.728C43.3895 209.421 51.1777 210.545 51.1777 210.545L186.124 217.359V215.6C183.653 213.69 181.706 211.631 180.245 209.496Z" fill="#FFEEDE"/>
<path d="M45.0742 188.153C75.965 189.539 106.856 191.898 137.597 195.305C106.706 193.957 75.8153 191.561 45.0742 188.153Z" fill="#F7CEAA"/>
<path d="M50.6914 198.413C64.8825 198.525 79.0735 199.686 93.1148 201.858C78.9238 201.745 64.7327 200.584 50.6914 198.413Z" fill="#F7CEAA"/>
<path d="M57.918 203.805C77.6881 204.404 97.4582 206.051 117.079 208.71C97.271 208.111 77.5383 206.463 57.918 203.805Z" fill="#F7CEAA"/>
<path d="M43.6914 194.219C83.9431 195.979 124.569 198.787 164.671 202.607C124.419 200.809 83.7933 198.001 43.6914 194.219Z" fill="#F7CEAA"/>
<path d="M118.199 206.426C139.28 206.276 160.361 207.175 181.329 209.084C160.248 209.234 139.205 208.335 118.199 206.426Z" fill="#F7CEAA"/>
<path d="M175.678 191.823V188.153L44.663 181.339C44.663 181.339 39.1214 186.581 39.758 198.001C40.3945 209.421 49.7553 211.63 49.7553 211.63L186.124 218.782V215.599L50.8412 209.421C50.8412 209.421 43.5772 204.666 43.5772 196.878C43.5772 189.127 46.9096 184.372 46.9096 184.372L175.678 191.823Z" fill="#D3614A"/>
<path d="M233.187 147.04L152.122 137.829L56.8281 151.159L159.76 160.033L233.187 147.04Z" fill="#7F3428"/>
<path d="M161.07 162.205L231.95 149.736L235.994 154.454V158.723L233.972 163.74L231.314 166.998L158.074 181.002L161.07 162.205Z" fill="#FFE9CC"/>
<g style="mix-blend-mode:multiply" opacity="0.5">
<path d="M231.95 149.736L161.07 162.205L160.021 168.72L163.429 168.308L228.206 157.188C228.206 157.188 231.688 159.734 228.206 162.467C225.098 164.901 169.794 174.337 158.861 176.172L158.074 181.002L231.314 166.998L233.972 163.74L235.994 158.723V154.454L231.95 149.736Z" fill="#FFE9CC"/>
</g>
<path d="M163.094 167.26C183.538 162.879 204.169 159.509 224.95 157.188C204.506 161.569 183.837 164.901 163.094 167.26Z" fill="#E2B98D"/>
<path d="M233.972 157.824C220.866 161.231 207.499 163.665 194.02 165.051C207.125 161.606 220.492 159.21 233.972 157.824Z" fill="#E2B98D"/>
<path d="M163.094 174.786C177.172 171.266 191.476 168.758 205.892 167.26C191.813 170.78 177.509 173.288 163.094 174.786Z" fill="#E2B98D"/>
<path d="M159.758 164.489V160.033L233.184 147.041C233.184 147.041 237.453 149.399 238.089 157.824C238.726 166.212 231.125 168.608 231.125 168.608L159.121 183.024V178.905L229.515 166.062C229.515 166.062 239.999 157.337 228.878 152.17L159.758 164.489Z" fill="#9B4534"/>
<path d="M159.756 164.489V160.033L56.8242 151.159V155.615L159.756 164.489Z" fill="#AF5648"/>
<path d="M159.12 178.905V183.024L54.8398 172.09V168.758L159.12 178.905Z" fill="#AF5648"/>
<path d="M54.8398 168.758C54.8398 168.758 63.639 164.939 56.8243 155.615L159.756 164.489C159.756 164.489 164.025 164.939 163.538 170.967C163.089 176.995 159.12 178.905 159.12 178.905L54.8398 168.758Z" fill="white"/>
<path d="M54.8398 168.758L159.12 178.905C159.12 178.905 161.404 177.819 162.714 174.674L58.3221 165.762C56.9741 167.822 54.8398 168.758 54.8398 168.758Z" fill="#FFEEDE"/>
<path d="M159.756 164.489L56.8242 155.615C58.0224 157.225 58.6964 158.685 59.0708 159.996L163.426 168.308C162.677 164.826 159.756 164.489 159.756 164.489Z" fill="#FFEEDE"/>
<path d="M58.8867 159.397C82.6633 161.007 106.402 163.628 129.917 167.26C106.14 165.65 82.4386 163.029 58.8867 159.397Z" fill="#F7CEAA"/>
<path d="M163.089 173.588C140.099 172.278 117.184 169.919 94.418 166.549C117.408 167.859 140.324 170.218 163.089 173.588Z" fill="#F7CEAA"/>
<path d="M74.2734 166.549C87.3786 167.035 100.446 168.533 113.327 171.042C100.222 170.593 87.154 169.057 74.2734 166.549Z" fill="#F7CEAA"/>
<path d="M224.833 144.831L225.956 142.921C225.956 142.921 220.864 138.803 221.65 130.565C222.437 122.327 227.192 118.808 227.192 118.808L114.3 122.515L106.512 137.866L113.027 151.533L224.833 144.831Z" fill="white"/>
<path d="M227.193 118.808L114.301 122.515L110.332 130.303L222.775 125.547C224.422 120.867 227.193 118.808 227.193 118.808Z" fill="#FFEEDE"/>
<path d="M222.699 138.203L110.145 145.467L113.028 151.533L224.834 144.831L225.957 142.921C225.957 142.921 224.01 141.348 222.699 138.203Z" fill="#FFEEDE"/>
<path d="M222.441 126.558C185.484 128.73 148.49 129.891 111.496 130.003C148.415 127.832 185.409 126.671 222.441 126.558Z" fill="#F7CEAA"/>
<path d="M221.653 130.565C207.612 132.25 193.458 132.924 179.305 132.587C193.346 130.865 207.537 130.191 221.653 130.565Z" fill="#F7CEAA"/>
<path d="M110.785 136.593C129.058 134.609 147.442 133.635 165.827 133.747C147.555 135.695 129.17 136.668 110.785 136.593Z" fill="#F7CEAA"/>
<path d="M111.27 141.648C136.806 138.952 162.417 137.23 188.029 136.593C162.53 139.289 136.918 140.974 111.27 141.648Z" fill="#F7CEAA"/>
<path d="M222.439 138.166C202.145 140.263 181.775 141.311 161.406 141.349C181.663 139.252 202.032 138.203 222.439 138.166Z" fill="#F7CEAA"/>
<path d="M113.031 147.04C132.989 145.093 153.021 144.119 173.053 144.194C153.133 146.179 133.063 147.115 113.031 147.04Z" fill="#F7CEAA"/>
<path d="M114.302 151.646C114.302 151.646 105.578 135.62 115.014 122.59L51.9591 115.812C51.9591 115.812 44.5078 121.354 44.5078 129.779C44.5078 138.166 47.6905 145.954 47.6905 145.954L114.302 151.646Z" fill="#FFE9CC"/>
<g style="mix-blend-mode:multiply" opacity="0.5">
<path d="M56.3025 123.675L111.606 129.517C112.318 127.195 113.404 124.836 115.014 122.59L51.9591 115.812C51.9591 115.812 44.5078 121.354 44.5078 129.779C44.5078 138.166 47.6905 145.954 47.6905 145.954L114.302 151.646C114.302 151.646 112.58 148.089 111.719 145.617L53.4568 140.375C53.4568 140.375 47.6531 129.292 56.3025 123.675Z" fill="#FFE9CC"/>
</g>
<path d="M47.5469 123.114C68.9645 124.387 90.3073 126.671 111.5 130.003C90.0826 128.73 68.7399 126.446 47.5469 123.114Z" fill="#E2B98D"/>
<path d="M69.2656 129.142C83.1946 129.629 97.0861 131.164 110.79 133.748C96.8614 133.224 82.9699 131.688 69.2656 129.142Z" fill="#E2B98D"/>
<path d="M45.6367 130.715C56.2332 130.94 66.8297 132.175 77.2015 134.459C66.5676 134.235 56.0085 132.961 45.6367 130.715Z" fill="#E2B98D"/>
<path d="M74.9531 139.739C87.1222 139.776 99.2913 140.862 111.273 142.921C99.1041 142.921 86.9725 141.836 74.9531 139.739Z" fill="#E2B98D"/>
<path d="M51.6602 114.389L125.386 110.907L228.168 117.722L115.576 121.728L51.6602 114.389Z" fill="#ED8164"/>
<path d="M114.301 123.75L116.51 120.268L51.6578 114.39C51.6578 114.39 41.3234 118.808 41.6604 131.351C41.96 143.895 47.202 148.163 47.202 148.163L113.028 154.491L113.177 150.56L48.8121 144.531C48.8121 144.531 44.9929 136.107 45.6294 130.715C46.266 125.323 47.8386 120.68 51.8076 117.722L114.301 123.75Z" fill="#B75141"/>
<path d="M113.177 150.56L113.027 154.491L225.957 146.404V142.921L113.177 150.56Z" fill="#D3614A"/>
<path d="M114.301 123.75L116.51 120.268L228.166 117.722V120.268L114.301 123.75Z" fill="#D3614A"/>
<path d="M2.90625 122.889L31.5879 105.066L102.019 94.1702H139.125L227.604 108.548L238.463 117.572L133.734 111.656C133.734 111.656 129.39 116.187 119.655 115.064C109.957 113.94 104.266 109.971 104.266 109.971L102.019 103.231L2.90625 122.889Z" fill="#ED8164"/>
<path d="M103.144 101.809C103.144 101.809 61.4323 105.066 0.0625198 123.863C-0.499132 124.013 2.90822 126.671 2.90822 126.671C2.90822 126.671 85.8454 105.628 99.9616 104.842C99.9616 104.842 101.422 116.412 115.838 117.498C130.253 118.621 133.286 113.641 133.286 113.641L240 119.257V116.075C240 116.075 145.942 108.773 130.89 110.383C130.89 110.383 124.599 114.727 114.415 112.592C99.9616 109.597 103.144 101.809 103.144 101.809Z" fill="#9B4534"/>
<path d="M101.98 18.0852L110.705 0L118.156 105.441L106.286 98.289L101.98 18.0852Z" fill="white"/>
<path d="M116.136 97.0532C106.625 58.3742 46.8281 15.2019 46.8281 15.2019L55.2154 47.7777C92.0223 66.4994 94.5685 74.5497 94.5685 74.5497L116.136 97.0532Z" fill="#FFE9CC"/>
<path d="M113.964 90.2384C99.848 53.469 46.8281 15.2018 46.8281 15.2018L49.3743 25.1243C62.9662 34.9345 75.7719 45.7931 87.6415 57.5877C97.564 67.4728 106.925 78.2191 113.964 90.2384Z" fill="white"/>
<g style="mix-blend-mode:multiply" opacity="0.5">
<path d="M97.5293 73.6134C83.7875 61.257 69.3344 49.3875 53.3086 40.3262L55.2182 47.7774C92.0251 66.4991 94.5713 74.5495 94.5713 74.5495L116.139 97.053C115.989 96.4788 115.839 95.9047 115.689 95.3306C113.256 91.2118 110.634 87.2053 107.527 83.5733C104.494 79.9788 101.012 76.7586 97.5293 73.6134Z" fill="#FFE9CC"/>
</g>
<path d="M158.073 58.7486C158.073 58.7486 169.98 37.5182 190.424 19.433C190.424 19.433 160.133 19.8823 138.004 48.7512C115.874 77.6201 113.965 101.472 113.965 101.472L114.789 104.916C114.789 104.916 112.542 88.8905 158.073 58.7486Z" fill="#FFE9CC"/>
<g style="mix-blend-mode:multiply" opacity="0.5">
<path d="M138.004 65.1139C130.215 72.303 123.55 80.6904 118.496 89.9389C116.848 93.4336 115.375 96.9782 114.077 100.573C114.002 101.134 113.965 101.471 113.965 101.471L114.789 104.916C114.789 104.916 112.542 88.8905 158.073 58.7485C158.073 58.7485 160.956 53.5813 166.348 46.205C156.014 51.0726 146.391 57.4005 138.004 65.1139Z" fill="#FFE9CC"/>
</g>
<path d="M181.063 28.4942C183.947 25.4613 187.054 22.3909 190.424 19.4329C190.424 19.4329 160.133 19.8822 138.004 48.7511C115.874 77.6199 113.965 101.471 113.965 101.471L114.04 101.659C119.432 83.3488 129.504 66.4244 143.133 53.0571C153.917 42.4231 166.947 34.0358 181.063 28.4942Z" fill="white"/>
<path d="M186.867 68.7462L207.161 49.0884C207.161 49.0884 139.127 56.6145 115.65 97.8772L114.414 100.311L119.956 101.247C119.956 101.247 115.125 82.9372 186.867 68.7462Z" fill="white"/>
<path d="M213.672 66.4995L177.651 90.1638L118.641 98.626C118.641 98.626 118.828 88.8532 142.118 80.2038C165.37 71.5918 184.841 67.7351 213.672 66.4995Z" fill="#FFE9CC"/>
<g style="mix-blend-mode:multiply" opacity="0.5">
<path d="M164.359 76.9838C148.071 79.5674 131.521 85.2214 119.427 96.0425C118.641 97.6526 118.641 98.6261 118.641 98.6261L177.651 90.1639L203.038 73.5016C190.12 74.4751 177.127 74.9244 164.359 76.9838Z" fill="#FFE9CC"/>
</g>
<path d="M22.0781 62.1561C22.0781 62.1561 82.9986 62.1561 104.866 82.0011C116.136 93.0844 116.136 97.0534 116.136 97.0534C116.136 97.0534 100.934 92.7849 75.0606 94.994C49.2246 97.2032 48.5881 97.0534 48.5881 97.0534L22.0781 62.1561Z" fill="white"/>
<path d="M20.8477 73.2768L46.3841 98.626C46.3841 98.626 103.223 92.8972 115.13 96.3045C115.13 96.3045 91.3911 64.5525 20.8477 73.2768Z" fill="#FFE9CC"/>
<g style="mix-blend-mode:multiply" opacity="0.5">
<path d="M28.1836 80.5782L46.3811 98.6259C46.3811 98.6259 103.22 92.8971 115.127 96.3045C115.127 96.3045 114.865 96.0049 114.378 95.4432C89.778 78.1069 57.1648 72.4904 28.1836 80.5782Z" fill="#FFE9CC"/>
</g>
<path d="M16.2383 88.4788L42.561 103.232C42.561 103.232 103.144 90.0889 116.137 97.0534C116.137 97.0534 98.5015 84.2103 78.4693 81.1774C52.7082 77.2458 16.2383 88.4788 16.2383 88.4788Z" fill="white"/>
<path d="M218.583 80.3161L179.567 98.626H119.957C119.957 98.626 121.53 88.9656 145.793 83.7235C170.056 78.4814 189.901 77.4704 218.583 80.3161Z" fill="white"/>
<path d="M14.8172 97.9894L2.91016 122.889C2.91016 122.889 31.1425 113.379 42.7125 109.41C54.2825 105.478 84.7615 96.267 103.146 101.809L116.139 97.0533C116.139 97.0533 100.75 84.8468 76.6737 85.3335C52.5601 85.7828 14.8172 97.9894 14.8172 97.9894Z" fill="#FFE9CC"/>
<g style="mix-blend-mode:multiply" opacity="0.5">
<path d="M106.741 93.4962C96.7062 90.0514 85.8476 90.2012 75.2885 91.0999C53.4216 92.9346 31.8542 97.7648 11.2603 105.403L6.16797 116.037C18.4494 110.683 31.4423 106.901 44.3228 103.232C61.734 98.2516 79.8192 93.2716 97.6423 96.2671C101.686 96.941 105.655 98.0269 109.474 99.4872L115.278 97.3904C112.545 95.8552 109.699 94.5072 106.741 93.4962Z" fill="#FFE9CC"/>
</g>
<path d="M44.3226 103.232C31.442 106.901 18.4492 110.683 6.16773 116.037L2.91016 122.889C2.91016 122.889 31.1425 113.379 42.7125 109.41C54.2825 105.478 84.7615 96.2671 103.146 101.809L109.474 99.4872C105.655 98.0269 101.686 96.941 97.642 96.2671C79.8189 93.2716 61.7338 98.2516 44.3226 103.232Z" fill="white"/>
<path d="M116.773 97.2032C116.773 97.2032 135.196 86.7564 163.241 86.7564C187.242 86.719 223.824 97.0534 223.824 97.0534C223.824 97.0534 229.366 111.319 237.641 116.075C237.641 116.075 160.807 97.016 126.284 111.319C123.289 112.592 116.773 97.2032 116.773 97.2032Z" fill="#FFE9CC"/>
<g style="mix-blend-mode:multiply" opacity="0.5">
<path d="M226.781 103.307C209.781 97.5402 192.295 93.1968 174.435 91.7365C155.189 90.1264 135.456 91.9612 117.371 98.5138C119.019 102.221 123.811 112.368 126.283 111.319C160.805 97.016 237.639 116.075 237.639 116.075C232.996 113.416 229.215 107.762 226.781 103.307Z" fill="#FFE9CC"/>
</g>
<path d="M230.299 108.923C198.21 96.4917 162.602 93.0095 128.753 99.3374C125.383 99.9365 122.051 100.685 118.793 101.547C120.927 106.002 124.335 112.143 126.282 111.319C160.804 97.0159 237.638 116.075 237.638 116.075C234.83 114.465 232.359 111.806 230.299 108.923Z" fill="white"/>
<path d="M130.888 110.383C130.888 110.383 129.316 98.6259 116.772 97.2031C104.266 95.7802 102.019 103.231 102.019 103.231C102.019 103.231 101.233 114.015 115.649 114.989C130.102 115.925 130.888 110.383 130.888 110.383Z" fill="#D3614A"/>
<path d="M126.018 108.923C126.018 108.923 125.007 101.135 116.657 100.199C108.344 99.225 106.884 104.205 106.884 104.205C106.884 104.205 106.36 111.357 115.945 111.993C125.493 112.592 126.018 108.923 126.018 108.923Z" fill="#9B4534"/>
</svg>
