<svg width="20" height="20" viewBox="0 0 20 20" fill="none" xmlns="http://www.w3.org/2000/svg">
<path d="M2.5 6.66699L7.0416 9.69474C8.11079 10.4075 8.64542 10.7639 9.22317 10.9024C9.73383 11.0247 10.2662 11.0247 10.7768 10.9024C11.3546 10.7639 11.8893 10.4075 12.9584 9.69474L17.5 6.66699M5.16667 15.8337H14.8333C15.7667 15.8337 16.2335 15.8337 16.59 15.652C16.9036 15.4922 17.1586 15.2372 17.3183 14.9237C17.5 14.5672 17.5 14.1004 17.5 13.167V6.83366C17.5 5.90024 17.5 5.43353 17.3183 5.07701C17.1586 4.7634 16.9036 4.50843 16.59 4.34865C16.2335 4.16699 15.7667 4.16699 14.8333 4.16699H5.16667C4.23325 4.16699 3.76653 4.16699 3.41002 4.34865C3.09641 4.50843 2.84144 4.7634 2.68166 5.07701C2.5 5.43353 2.5 5.90023 2.5 6.83366V13.167C2.5 14.1004 2.5 14.5672 2.68166 14.9237C2.84144 15.2372 3.09641 15.4922 3.41002 15.652C3.76653 15.8337 4.23324 15.8337 5.16667 15.8337Z" stroke="white" stroke-width="1.5" strokeLinecap="round" stroke-linejoin="round"/>
</svg>
