<svg width="26" height="26" viewBox="0 0 26 26" fill="none" xmlns="http://www.w3.org/2000/svg">
<path fillRule="evenodd" clipRule="evenodd" d="M7.58366 2.979C5.83411 2.979 4.25203 3.41627 3.10371 4.48256C1.9445 5.55898 1.35449 7.15747 1.35449 9.20817V16.7915C1.35449 18.8423 1.9445 20.4407 3.10371 21.5171C4.25203 22.5834 5.83411 23.0207 7.58366 23.0207H18.417C20.1666 23.0207 21.7487 22.5834 22.8969 21.5171C24.0562 20.4407 24.6462 18.8423 24.6462 16.7915V9.20817C24.6462 7.15747 24.0562 5.55898 22.8969 4.48256C21.7487 3.41627 20.1666 2.979 18.417 2.979H7.58366ZM20.8312 9.059C21.1862 8.78463 21.2516 8.27436 20.9772 7.91928C20.7029 7.5642 20.1927 7.49878 19.8376 7.77315L13.8282 12.4166C13.3406 12.7935 12.6599 12.7935 12.1722 12.4166L6.16298 7.77315C5.80789 7.49878 5.29763 7.5642 5.02325 7.91928C4.74888 8.27436 4.8143 8.78463 5.16939 9.059L11.1787 13.7025C12.2516 14.5315 13.7489 14.5315 14.8218 13.7025L20.8312 9.059Z" fill="white"/>
</svg>
