<svg width="21" height="21" viewBox="0 0 21 21" fill="none" xmlns="http://www.w3.org/2000/svg">
<path d="M20.8421 10.484C20.8414 4.6938 16.1764 0 10.421 0C4.6657 0 0 4.6945 0 10.4854C0 15.698 3.78037 20.0219 8.73238 20.8337L8.79215 20.8421V13.5158H6.14588V10.484H8.79215V8.17518C8.77894 8.05841 8.77199 7.92276 8.77199 7.78572C8.77199 5.74192 10.419 4.08479 12.4502 4.08479C12.5482 4.08479 12.6455 4.08899 12.7421 4.09598L12.7296 4.09528C13.5628 4.10717 14.3689 4.18128 15.1555 4.31343L15.0624 4.30015V6.88024H13.7476C13.6879 6.87185 13.6191 6.86695 13.5496 6.86695C12.7178 6.86695 12.043 7.54519 12.043 8.38284C12.043 8.43039 12.0451 8.47724 12.0492 8.52408L12.0485 8.51779V10.484H14.9387L14.4766 13.5158H12.0485V20.8421C17.061 20.0212 20.8414 15.6966 20.8421 10.484Z" fill="white"/>
</svg>
