<svg width="141" height="46" viewBox="0 0 141 46" fill="none" xmlns="http://www.w3.org/2000/svg">
<path d="M22.7187 1H117.965C129.977 1 139.684 10.7727 139.684 22.7982C139.684 34.8542 129.947 44.5964 117.965 44.5964H22.7187C10.7067 44.5964 1 34.8238 1 22.7982C1 10.7422 10.737 1 22.7187 1Z" fill="white"/>
<path d="M22.7188 1.396H117.965C129.735 1.396 139.259 10.9556 139.259 22.768C139.259 34.5804 129.735 44.14 117.965 44.14H22.7188C10.9495 44.14 1.4248 34.5804 1.4248 22.768C1.4248 10.986 10.9495 1.396 22.7188 1.396Z" stroke="#010202" stroke-opacity="0.25" stroke-width="2.7543"/>
<path d="M36.5813 22.3417L26.2377 12.6299C26.1467 12.8734 26.0557 13.117 26.0557 13.4519V31.3228C26.0557 31.6577 26.1467 31.9012 26.2377 32.1448L36.5813 22.3417Z" fill="#010202"/>
<path d="M37.7939 22.3414L41.2519 25.5685L45.0436 23.5591C46.2569 22.9198 46.2569 21.8543 45.0436 21.2149L41.1609 19.1143L37.7939 22.3414Z" fill="#010202"/>
<path d="M37.1874 21.7631L40.3724 18.6882L28.2088 12.234C27.6931 11.9905 27.1774 11.8991 26.8438 12.0818L37.1874 21.7631Z" fill="#010202"/>
<path d="M37.1874 22.8896L26.8438 32.6623C27.1774 32.8145 27.6931 32.7537 28.2997 32.5101L40.5241 26.0559L37.1874 22.8896Z" fill="#010202"/>
<path d="M53.628 13.2993C52.9303 13.2993 52.3237 13.5429 51.8383 14.03C51.353 14.5171 51.1104 15.126 51.1104 15.8566C51.1104 16.5873 51.353 17.1962 51.8383 17.6833C52.3237 18.1704 52.9303 18.414 53.628 18.414C54.5987 18.414 55.4177 17.8964 55.8423 17.1049V15.7044H53.5977V16.4046H55.0537V16.9527C54.72 17.4702 54.265 17.7138 53.628 17.7138C53.1123 17.7138 52.6877 17.5311 52.354 17.1962C52.0203 16.8309 51.8687 16.4046 51.8687 15.8566C51.8687 15.3391 52.0203 14.8824 52.354 14.5475C52.6573 14.2127 53.082 14.03 53.5977 14.03C54.2044 14.03 54.6593 14.304 55.0233 14.8215L55.5694 14.3344C55.1447 13.6646 54.4773 13.2993 53.628 13.2993Z" fill="#010202"/>
<path d="M56.8135 13.3911V18.3536H60.0288V17.6533H57.5718V16.0702H59.3615V15.37H57.5718V14.0913H59.9378V13.3911H56.8135Z" fill="#010202"/>
<path d="M60.4229 13.3911V14.0913H62.0305V18.3536H62.7889V14.0913H64.3965V13.3911H60.4229Z" fill="#010202"/>
<path d="M66.793 13.3911V18.3536H67.5513V13.3911H66.793Z" fill="#010202"/>
<path d="M68.2793 13.3911V14.0913H69.887V18.3536H70.6453V14.0913H72.253V13.3911H68.2793Z" fill="#010202"/>
<path d="M76.8331 13.2993C76.1354 13.2993 75.5288 13.5429 75.0434 14.03C74.5581 14.5171 74.3154 15.126 74.3154 15.8566C74.3154 16.5873 74.5581 17.1962 75.0434 17.6833C75.5288 18.1704 76.1051 18.414 76.8331 18.414C77.5308 18.414 78.1071 18.1704 78.5924 17.6833C79.0778 17.1962 79.3204 16.5873 79.3204 15.8566C79.3204 15.126 79.0778 14.5171 78.5924 14.03C78.1374 13.5429 77.5308 13.2993 76.8331 13.2993ZM76.8331 14.03C77.3184 14.03 77.7431 14.2127 78.0464 14.5475C78.3801 14.8824 78.5318 15.3391 78.5318 15.8566C78.5318 16.4046 78.3801 16.8309 78.0464 17.1658C77.7128 17.5006 77.3184 17.6833 76.8331 17.6833C76.3478 17.6833 75.9231 17.5006 75.6198 17.1658C75.2861 16.8004 75.1344 16.3742 75.1344 15.8566C75.1344 15.3391 75.2861 14.8824 75.6198 14.5475C75.9534 14.2127 76.3478 14.03 76.8331 14.03Z" fill="#010202"/>
<path d="M83.4154 16.7395L80.5337 13.2993H80.2607V18.3531H81.0191V15.0042L83.9311 18.4444H84.2041V13.3906H83.4457V16.7395H83.4154Z" fill="#010202"/>
<path d="M55.5087 22.0371C54.265 22.0371 53.2337 22.4633 52.3844 23.3462C51.535 24.1987 51.1104 25.2642 51.1104 26.5429C51.1104 27.8216 51.535 28.8871 52.3844 29.7396C53.2337 30.592 54.265 31.0182 55.5087 31.0182C57.177 31.0182 58.6633 30.1049 59.3913 28.7349V26.2993H55.4783V27.5476H58.0567V28.4913C57.4804 29.3742 56.6614 29.8004 55.5694 29.8004C54.6594 29.8004 53.9313 29.496 53.355 28.8871C52.7787 28.2782 52.5057 27.4867 52.5057 26.5429C52.5057 25.6296 52.7787 24.8684 53.3247 24.2596C53.8707 23.6507 54.5987 23.3462 55.4783 23.3462C56.5097 23.3462 57.359 23.8029 57.9657 24.7162L58.9363 23.8942C58.1477 22.646 56.995 22.0371 55.5087 22.0371Z" fill="#010202"/>
<path d="M63.2135 24.2598C62.3035 24.2598 61.5148 24.5946 60.8778 25.234C60.2408 25.8733 59.9375 26.6953 59.9375 27.6391C59.9375 28.5829 60.2408 29.4049 60.8778 30.0442C61.5148 30.6835 62.2732 31.0184 63.2135 31.0184C64.1235 31.0184 64.8818 30.6835 65.5492 30.0442C66.1862 29.3744 66.5198 28.5829 66.5198 27.6391C66.5198 26.6953 66.1862 25.8733 65.5492 25.234C64.9122 24.5946 64.1235 24.2598 63.2135 24.2598ZM63.2438 25.5384C63.7898 25.5384 64.2448 25.7515 64.6088 26.1473C64.9728 26.5431 65.1548 27.0302 65.1548 27.6391C65.1548 28.2175 64.9728 28.7351 64.6088 29.1309C64.2448 29.5267 63.7898 29.7093 63.2438 29.7093C62.6978 29.7093 62.2428 29.5267 61.8788 29.1309C61.5148 28.7351 61.3328 28.2175 61.3328 27.6391C61.3328 27.0302 61.5148 26.5431 61.8788 26.1473C62.2125 25.7211 62.6675 25.5384 63.2438 25.5384Z" fill="#010202"/>
<path d="M70.2809 24.2598C69.3709 24.2598 68.5822 24.5946 67.9452 25.234C67.3082 25.8733 67.0049 26.6953 67.0049 27.6391C67.0049 28.5829 67.3082 29.4049 67.9452 30.0442C68.5822 30.6835 69.3405 31.0184 70.2809 31.0184C71.1909 31.0184 71.9492 30.6835 72.6165 30.0442C73.2535 29.3744 73.5872 28.5829 73.5872 27.6391C73.5872 26.6953 73.2535 25.8733 72.6165 25.234C71.9795 24.5946 71.1909 24.2598 70.2809 24.2598ZM70.3112 25.5384C70.8572 25.5384 71.3122 25.7515 71.6762 26.1473C72.0402 26.5431 72.2222 27.0302 72.2222 27.6391C72.2222 28.2175 72.0402 28.7351 71.6762 29.1309C71.3122 29.5267 70.8572 29.7093 70.3112 29.7093C69.7652 29.7093 69.3102 29.5267 68.9462 29.1309C68.5822 28.7351 68.4002 28.2175 68.4002 27.6391C68.4002 27.0302 68.5822 26.5431 68.9462 26.1473C69.2799 25.7211 69.7349 25.5384 70.3112 25.5384Z" fill="#010202"/>
<path d="M79.3511 25.3253C78.8657 24.6251 78.1377 24.2598 77.1671 24.2598C76.2874 24.2598 75.5897 24.5642 75.0134 25.1731C74.4371 25.782 74.1641 26.5431 74.1641 27.5173C74.1641 28.4611 74.4674 29.2527 75.0134 29.8615C75.5897 30.4704 76.2874 30.7749 77.1671 30.7749C78.0771 30.7749 78.7444 30.4704 79.2601 29.8615V30.3182C79.2601 31.536 78.5321 32.1753 77.4097 32.1753C76.6817 32.1753 75.9537 31.8709 75.2257 31.262L74.4977 32.2362C75.3167 33.0582 76.3177 33.454 77.4704 33.454C79.3511 33.454 80.5644 32.2971 80.5644 30.2573V24.4729H79.3511V25.3253ZM77.3794 29.5266C76.8334 29.5266 76.4087 29.344 76.0144 28.9787C75.6504 28.5829 75.4684 28.0958 75.4684 27.5173C75.4684 26.9389 75.6504 26.4518 76.0144 26.056C76.3784 25.6907 76.8334 25.508 77.3794 25.508C78.4107 25.508 79.2601 26.1778 79.2601 27.4869C79.2601 28.1567 79.0781 28.6438 78.7141 29.0091C78.3197 29.344 77.8951 29.5266 77.3794 29.5266Z" fill="#010202"/>
<path d="M81.8379 21.002V30.866H83.1726V21.002H81.8379Z" fill="#010202"/>
<path d="M90.1496 27.2126C90.1496 26.3601 89.8766 25.6599 89.3306 25.0814C88.7846 24.503 88.1173 24.229 87.2983 24.229C86.3883 24.229 85.6299 24.5639 85.0233 25.2032C84.4166 25.8426 84.1133 26.6646 84.1133 27.6083C84.1133 28.5826 84.4166 29.3741 85.0536 30.0134C85.6906 30.6528 86.4793 30.9877 87.4499 30.9877C88.3903 30.9877 89.2093 30.6528 89.9373 29.9526L89.3003 29.0088C88.7543 29.5263 88.1476 29.7699 87.4803 29.7699C86.4186 29.7699 85.6299 29.1306 85.4479 28.065H90.0586C90.1193 27.791 90.1496 27.4866 90.1496 27.2126ZM87.2376 25.4468C88.1476 25.4468 88.8149 26.0557 88.8149 27.0299H85.4479C85.6603 26.0557 86.358 25.4468 87.2376 25.4468Z" fill="#010202"/>
<path d="M94.0322 22.1895V30.8661H95.3669V27.5172H97.0656C97.9149 27.5172 98.5822 27.2737 99.1282 26.7866C99.6439 26.2995 99.9169 25.6297 99.9169 24.8381C99.9169 24.0466 99.6439 23.4072 99.1282 22.9201C98.6126 22.433 97.9149 22.1895 97.0656 22.1895H94.0322ZM97.0656 23.4072C98.0059 23.4072 98.5519 23.9857 98.5519 24.8381C98.5519 25.6906 98.0059 26.269 97.0656 26.269H95.3972V23.4072H97.0656Z" fill="#010202"/>
<path d="M100.676 21.002V30.866H102.01V21.002H100.676Z" fill="#010202"/>
<path d="M105.68 24.2598C104.558 24.2598 103.678 24.7164 103.072 25.6298L103.83 26.4518C104.346 25.8124 104.922 25.4775 105.559 25.4775C106.408 25.4775 106.894 25.9647 106.894 26.8475V27.2738H105.134C103.739 27.2738 102.859 28.0044 102.859 29.1309C102.859 30.2573 103.709 30.988 105.013 30.988C105.862 30.988 106.53 30.6835 106.985 30.1051V30.8358H108.228V26.9389C108.228 25.234 107.227 24.2598 105.68 24.2598ZM105.286 29.9529C104.649 29.9529 104.194 29.6484 104.194 29.1004C104.194 28.5829 104.558 28.3089 105.286 28.3089H106.863V28.4306C106.894 29.3135 106.166 29.9529 105.286 29.9529Z" fill="#010202"/>
<path d="M111.929 29.1305L110.14 24.4116H108.714L111.201 30.5918L110.959 31.2007C110.655 31.9314 110.231 32.1445 109.594 32.1445C109.503 32.1445 109.26 32.1445 108.866 32.0836V33.2405C109.199 33.3318 109.563 33.3623 109.897 33.3623C110.959 33.3623 111.656 32.8143 112.172 31.5965L115.205 24.4116H113.78L111.929 29.1305Z" fill="#010202"/>
</svg>
