<svg width="73" height="69" viewBox="0 0 73 69" fill="none" xmlns="http://www.w3.org/2000/svg">
<path d="M72.4301 48.1626L65.3158 43.4202V30.0177C65.3158 29.3094 64.742 28.737 64.0351 28.737H58.9123V23.6142C58.9123 22.9059 58.3385 22.3335 57.6316 22.3335H47.3142C46.7341 16.8008 42.4412 12.4516 37.1404 12.1224V9.52643H44.8246C45.5315 9.52643 46.1053 8.95396 46.1053 8.24573V1.84223C46.1053 1.134 45.5315 0.561523 44.8246 0.561523H37.1404H35.8596H34.5789V1.84223V8.24573V12.2787C29.8801 13.17 26.2185 17.2542 25.6858 22.3335H15.3684C14.6615 22.3335 14.0877 22.9059 14.0877 23.6142V28.737H8.96491C8.25797 28.737 7.68421 29.3094 7.68421 30.0177V43.4202L0.569912 48.1626C0.213877 48.4009 0 48.8004 0 49.2282V67.158C0 67.8662 0.573754 68.4387 1.2807 68.4387H8.96491H16.6491H21.7719H28.1754H33.2982H39.7018H44.8246H51.2281H56.3509H64.0351H71.7193C72.4262 68.4387 73 67.8662 73 67.158V49.2282C73 48.8004 72.7861 48.4009 72.4301 48.1626ZM37.1404 3.12293H43.5439V6.96503H37.1404V3.12293ZM36.5 14.6492C40.6853 14.6492 44.1496 17.997 44.7298 22.3335H28.2702C28.8504 17.997 32.3147 14.6492 36.5 14.6492ZM16.6491 24.8949H56.3509V28.737H16.6491V24.8949ZM2.5614 49.9134L7.68421 46.4977V65.8773H2.5614V49.9134ZM10.2456 44.1054V31.2984H15.3684H57.6316H62.7544V44.1054V65.8773H57.6316V47.9475C57.6316 47.2393 57.0578 46.6668 56.3509 46.6668H51.2281C50.5211 46.6668 49.9474 47.2393 49.9474 47.9475V65.8773H46.1053V47.9475C46.1053 47.2393 45.5315 46.6668 44.8246 46.6668H39.7018C38.9948 46.6668 38.4211 47.2393 38.4211 47.9475V65.8773H34.5789V47.9475C34.5789 47.2393 34.0052 46.6668 33.2982 46.6668H28.1754C27.4685 46.6668 26.8947 47.2393 26.8947 47.9475V65.8773H23.0526V47.9475C23.0526 47.2393 22.4789 46.6668 21.7719 46.6668H16.6491C15.9422 46.6668 15.3684 47.2393 15.3684 47.9475V65.8773H10.2456V44.1054ZM17.9298 65.8773V49.2282H20.4912V65.8773H17.9298ZM29.4561 65.8773V49.2282H32.0175V65.8773H29.4561ZM40.9825 65.8773V49.2282H43.5439V65.8773H40.9825ZM52.5088 65.8773V49.2282H55.0702V65.8773H52.5088ZM70.4386 65.8773H65.3158V46.4977L70.4386 49.9134V65.8773Z" fill="#F38332"/>
<path d="M16.6489 42.8246H21.7717C22.4786 42.8246 23.0524 42.2521 23.0524 41.5439V36.4211C23.0524 35.7129 22.4786 35.1404 21.7717 35.1404H16.6489C15.9419 35.1404 15.3682 35.7129 15.3682 36.4211V41.5439C15.3682 42.2521 15.9419 42.8246 16.6489 42.8246ZM17.9296 37.7018H20.491V40.2632H17.9296V37.7018Z" fill="#F38332"/>
<path d="M28.1752 42.8246H33.298C34.005 42.8246 34.5787 42.2521 34.5787 41.5439V36.4211C34.5787 35.7129 34.005 35.1404 33.298 35.1404H28.1752C27.4683 35.1404 26.8945 35.7129 26.8945 36.4211V41.5439C26.8945 42.2521 27.4683 42.8246 28.1752 42.8246ZM29.4559 37.7018H32.0173V40.2632H29.4559V37.7018Z" fill="#F38332"/>
<path d="M39.7016 42.8246H44.8244C45.5314 42.8246 46.1051 42.2521 46.1051 41.5439V36.4211C46.1051 35.7129 45.5314 35.1404 44.8244 35.1404H39.7016C38.9947 35.1404 38.4209 35.7129 38.4209 36.4211V41.5439C38.4209 42.2521 38.9947 42.8246 39.7016 42.8246ZM40.9823 37.7018H43.5437V40.2632H40.9823V37.7018Z" fill="#F38332"/>
<path d="M51.228 42.8246H56.3508C57.0577 42.8246 57.6315 42.2521 57.6315 41.5439V36.4211C57.6315 35.7129 57.0577 35.1404 56.3508 35.1404H51.228C50.521 35.1404 49.9473 35.7129 49.9473 36.4211V41.5439C49.9473 42.2521 50.521 42.8246 51.228 42.8246ZM52.5087 37.7018H55.0701V40.2632H52.5087V37.7018Z" fill="#F38332"/>
</svg>
