<svg width="83" height="83" viewBox="0 0 83 83" fill="none" xmlns="http://www.w3.org/2000/svg">
<path d="M25.4351 17.4034C27.6493 17.4034 29.4512 15.6014 29.4512 13.3872C29.4512 11.173 27.6493 9.37109 25.4351 9.37109C23.2208 9.37109 21.4189 11.173 21.4189 13.3872C21.4189 15.6014 23.2208 17.4034 25.4351 17.4034ZM25.4351 12.0485C26.174 12.0485 26.7738 12.6483 26.7738 13.3872C26.7738 14.1262 26.174 14.7259 25.4351 14.7259C24.6961 14.7259 24.0964 14.1262 24.0964 13.3872C24.0964 12.6483 24.6961 12.0485 25.4351 12.0485Z" fill="#F38332"/>
<path d="M33.4679 5.35484H17.4034V21.4194H33.4679V5.35484ZM30.7905 18.7419H20.0808V8.03225H30.7905V18.7419Z" fill="#F38332"/>
<path d="M45.5159 24.0968H5.35461V26.7743H45.5159V24.0968Z" fill="#F38332"/>
<path d="M45.5159 29.4517H5.35461V32.1291H45.5159V29.4517Z" fill="#F38332"/>
<path d="M45.5159 34.8065H5.35461V37.4839H45.5159V34.8065Z" fill="#F38332"/>
<path d="M45.5159 40.1613H5.35461V42.8388H45.5159V40.1613Z" fill="#F38332"/>
<path d="M18.7417 45.5162H5.35461V48.1936H18.7417V45.5162Z" fill="#F38332"/>
<path d="M24.0964 45.5161H21.4189V48.1935H24.0964V45.5161Z" fill="#F38332"/>
<path d="M45.5162 64.2578H33.4678V66.9352H45.5162V64.2578Z" fill="#F38332"/>
<path d="M83 37.4839V24.0968H73.194L74.9088 11.2398C74.9477 10.9466 74.9677 10.6508 74.9677 10.3536V6.69355C74.9677 3.00273 71.965 0 68.2742 0C64.5834 0 61.5806 3.00273 61.5806 6.69355V10.3536C61.5806 10.6508 61.6007 10.9453 61.6395 11.2371L63.3544 24.0968H61.5806V10.7097H56.2258V5.35484H44.7316L39.3768 0H0V72.2903H5.35484V77.6452H10.7097V83H61.5806V58.9032H77.6452C80.5984 58.9032 83 56.5016 83 53.5484C83 50.5952 80.5984 48.1935 77.6452 48.1935H61.5806V37.4839H83ZM64.2581 6.69355C64.2581 4.47932 66.06 2.67742 68.2742 2.67742C70.4884 2.67742 72.2903 4.47932 72.2903 6.69355V10.3536C72.2903 10.5303 72.2783 10.7083 72.2555 10.8837L69.7802 29.4516H66.7695L64.2929 10.8837C64.2701 10.7083 64.2581 10.5303 64.2581 10.3536V6.69355ZM56.2258 13.3871H58.9032V24.0968H56.2258V13.3871ZM56.2258 37.4839H58.9032V48.1935H56.2258V37.4839ZM53.5484 8.03226V24.0968V37.4839V48.1935H50.871V11.4942L47.4091 8.03226H53.5484ZM40.1613 4.57036L46.3006 10.7097H40.1613V4.57036ZM2.67742 69.6129V2.67742H37.4839V13.3871H48.1935V48.1935H35.7743L26.8505 53.5484L35.7743 58.9032H48.1935V69.6129H2.67742ZM36.1452 51.0932V56.0036L32.0527 53.5484L36.1452 51.0932ZM8.03226 74.9677V72.2903H50.871V58.9032H53.5484V74.9677H8.03226ZM58.9032 80.3226H13.3871V77.6452H56.2258V58.9032H58.9032V80.3226ZM76.3065 50.871H77.6452C79.1218 50.871 80.3226 52.0718 80.3226 53.5484C80.3226 55.025 79.1218 56.2258 77.6452 56.2258H76.3065V50.871ZM70.9516 50.871H73.629V56.2258H70.9516V50.871ZM68.2742 50.871V56.2258H38.8226V50.871H68.2742ZM56.2258 34.8065V26.7742H63.7105L64.068 29.4516H61.5806V32.129H74.9677V29.4516H72.4804L72.8379 26.7742H80.3226V34.8065H56.2258Z" fill="#F38332"/>
</svg>
