<svg width="305" height="282" viewBox="0 0 305 282" fill="none" xmlns="http://www.w3.org/2000/svg">
<g clip-path="url(#clip0_2616_7491)">
<path d="M48.6999 62.2898H46.4814V232.43H48.6999V62.2898Z" fill="#263238" stroke="#263238" strokeLinecap="round" stroke-linejoin="round"/>
<path d="M68.0754 232.43L47.4795 67.4039L31.8652 232.43H68.0754Z" fill="#057FC7" stroke="#263238" strokeLinecap="round" stroke-linejoin="round"/>
<path d="M67.9044 232.43L61.8071 182.367L37.8311 221.071L53.8719 232.43H67.9044Z" fill="#057FC7" stroke="#263238" strokeLinecap="round" stroke-linejoin="round"/>
<path d="M68.4492 203.073L37.8311 221.071L47.4792 67.4039L68.4492 203.073Z" fill="#057FC7" stroke="#263238" strokeLinecap="round" stroke-linejoin="round"/>
<path d="M47.4795 67.4039L68.4495 203.073L52.1395 192.076L47.4795 67.4039Z" fill="#057FC7" stroke="#263238" strokeLinecap="round" stroke-linejoin="round"/>
<path d="M52.1393 192.076L59.7987 179.073L50.8135 162.738L52.1393 192.076Z" fill="#057FC7" stroke="#263238" strokeLinecap="round" stroke-linejoin="round"/>
<path d="M47.4797 67.4039L34.5039 163.737L59.7991 179.073L47.4797 67.4039Z" fill="#057FC7" stroke="#263238" strokeLinecap="round" stroke-linejoin="round"/>
<path d="M46.482 62.2898L43.627 57.248L47.7422 49.1692L51.8574 57.5832L48.7004 62.2898H46.482Z" fill="white" stroke="#263238" strokeLinecap="round" stroke-linejoin="round"/>
<path d="M264.858 62.2898H262.64V232.43H264.858V62.2898Z" fill="#263238" stroke="#263238" strokeLinecap="round" stroke-linejoin="round"/>
<path d="M284.234 232.43L263.638 67.4039L248.023 232.43H284.234Z" fill="#057FC7" stroke="#263238" strokeLinecap="round" stroke-linejoin="round"/>
<path d="M284.063 232.43L277.965 182.367L253.989 221.071L270.03 232.43H284.063Z" fill="#057FC7" stroke="#263238" strokeLinecap="round" stroke-linejoin="round"/>
<path d="M284.607 203.073L253.989 221.071L263.637 67.4039L284.607 203.073Z" fill="#057FC7" stroke="#263238" strokeLinecap="round" stroke-linejoin="round"/>
<path d="M263.638 67.4039L284.608 203.073L268.298 192.076L263.638 67.4039Z" fill="#057FC7" stroke="#263238" strokeLinecap="round" stroke-linejoin="round"/>
<path d="M268.297 192.076L275.957 179.073L266.965 162.738L268.297 192.076Z" fill="#057FC7" stroke="#263238" strokeLinecap="round" stroke-linejoin="round"/>
<path d="M263.638 67.4039L250.662 163.737L275.957 179.073L263.638 67.4039Z" fill="#057FC7" stroke="#263238" strokeLinecap="round" stroke-linejoin="round"/>
<path d="M262.64 62.2898L259.778 57.248L263.9 49.1692L268.015 57.5832L264.858 62.2898H262.64Z" fill="white" stroke="#263238" strokeLinecap="round" stroke-linejoin="round"/>
<path d="M120.681 105.852C120.681 105.852 110.836 101.001 105.821 109.586C100.807 118.17 104.161 187.632 104.161 187.632H117.806L120.681 105.852Z" fill="#8F8F8F" stroke="#263238" strokeLinecap="round" stroke-linejoin="round"/>
<path d="M200.59 105.852C200.59 105.852 210.435 101.001 215.449 109.586C220.464 118.17 217.11 187.632 217.11 187.632H203.465L200.59 105.852Z" fill="#8F8F8F" stroke="#263238" strokeLinecap="round" stroke-linejoin="round"/>
<path d="M120.68 105.852H202.138C204.672 105.852 206.733 108.1 206.857 110.94L209.666 188.375H113.146L115.955 110.94C116.06 108.133 118.14 105.852 120.68 105.852Z" fill="#8F8F8F" stroke="#263238" strokeLinecap="round" stroke-linejoin="round"/>
<path d="M149.887 137.207C149.887 137.207 126.423 150.86 119.768 154.541C113.113 158.222 108.446 160.063 108.446 162.692V230.688H214.287C214.287 230.688 212.128 163.54 211.458 161.713C210.789 159.885 175.019 137.207 172.853 136.543C170.687 135.879 149.887 137.207 149.887 137.207Z" fill="#263238" stroke="#263238" strokeLinecap="round" stroke-linejoin="round"/>
<path d="M209.627 162.212C209.627 162.212 211.458 160.543 213.126 163.212C214.793 165.88 230.433 198.544 230.768 201.712C231.103 204.881 229.455 204.881 230.112 206.879C230.768 208.877 236.938 220.026 235.94 223.214C234.942 226.402 230.906 230.51 229.245 230.675C227.585 230.839 193.803 230.675 193.803 230.675C191.288 230.081 189.028 228.7 187.351 226.731C184.851 223.562 178.195 214.734 178.195 213.229C178.195 211.723 185.52 206.399 187.016 204.729C188.513 203.06 193.173 203.231 193.842 202.757C194.512 202.284 202.808 183.07 204.836 178.041C206.098 174.825 207.154 171.532 208 168.181" fill="#263238"/>
<path d="M209.627 162.212C209.627 162.212 211.458 160.543 213.126 163.212C214.793 165.88 230.433 198.544 230.768 201.712C231.103 204.881 229.455 204.881 230.112 206.879C230.768 208.877 236.938 220.026 235.94 223.214C234.942 226.402 230.906 230.51 229.245 230.675C227.585 230.839 193.803 230.675 193.803 230.675C191.288 230.081 189.028 228.7 187.351 226.731C184.851 223.562 178.195 214.734 178.195 213.229C178.195 211.723 185.52 206.399 187.016 204.729C188.513 203.06 193.173 203.231 193.842 202.757C194.512 202.284 202.808 183.07 204.836 178.041C206.098 174.825 207.154 171.532 208 168.181" stroke="#263238" strokeLinecap="round" stroke-linejoin="round"/>
<path d="M187.332 226.711C187.332 226.711 175.708 214.412 178.143 211.25C180.578 208.088 191.814 203.178 191.814 203.178L205.486 172.283" stroke="#808080" strokeLinecap="round" stroke-linejoin="round"/>
<path d="M193.823 202.711C193.823 202.711 198.148 204.545 200.314 206.379C202.48 208.213 217.287 213.38 226.108 213.544" stroke="#808080" strokeLinecap="round" stroke-linejoin="round"/>
<path d="M200.478 202.212C200.478 202.212 213.788 205.045 225.773 198.708" stroke="#808080" strokeLinecap="round" stroke-linejoin="round"/>
<path d="M209.628 168.878C209.628 168.878 207.967 183.208 206.635 188.046" stroke="#808080" strokeLinecap="round" stroke-linejoin="round"/>
<path d="M213.29 170.541C213.625 171.041 217.287 185.542 217.287 191.208" stroke="#808080" strokeLinecap="round" stroke-linejoin="round"/>
<path d="M113.776 157.874C113.776 157.874 106.786 159.879 105.289 162.042C103.793 164.204 89.6423 182.544 88.4806 185.377C87.3189 188.21 91.6376 197.867 91.6376 199.543C91.6376 201.219 77.5066 220.709 78.99 224.877C80.4733 229.044 85.6518 230.543 85.6518 230.543H134.608C134.608 230.543 138.434 222.714 142.432 219.881C146.429 217.048 148.424 217.712 149.422 216.213C150.419 214.714 149.087 212.046 145.759 210.376C142.432 208.706 133.112 205.209 133.112 205.209C133.112 205.209 135.442 203.71 133.768 202.547C132.094 201.383 125.616 198.209 124.953 197.209C124.29 196.21 117.963 179.547 115.961 171.54" fill="#263238"/>
<path d="M113.776 157.874C113.776 157.874 106.786 159.879 105.289 162.042C103.793 164.204 89.6423 182.544 88.4806 185.377C87.3189 188.21 91.6376 197.867 91.6376 199.543C91.6376 201.219 77.5066 220.709 78.99 224.877C80.4733 229.044 85.6518 230.543 85.6518 230.543H134.608C134.608 230.543 138.434 222.714 142.432 219.881C146.429 217.048 148.424 217.712 149.422 216.213C150.419 214.714 149.087 212.046 145.759 210.376C142.432 208.706 133.112 205.209 133.112 205.209C133.112 205.209 135.442 203.71 133.768 202.547C132.094 201.383 125.616 198.209 124.953 197.209C124.29 196.21 117.963 179.547 115.961 171.54" stroke="#263238" strokeLinecap="round" stroke-linejoin="round"/>
<path d="M148.017 216.516C148.017 216.516 152.414 213.531 149.073 211.954C145.733 210.376 134.352 205.985 134.352 205.985C134.352 205.985 136.8 202.823 135.047 202.126C133.295 201.43 124.927 197.209 124.927 197.209L114.721 168.069" stroke="#808080" strokeLinecap="round" stroke-linejoin="round"/>
<path d="M92.8057 189.21C92.8057 189.21 116.27 195.546 112.607 196.046C108.945 196.545 97.8004 196.046 96.468 196.375" stroke="#808080" strokeLinecap="round" stroke-linejoin="round"/>
<path d="M131.248 202.711C131.248 202.711 106.307 207.214 108.276 207.714C110.245 208.213 130.407 205.709 130.407 205.709" stroke="#808080" strokeLinecap="round" stroke-linejoin="round"/>
<path d="M110.278 166.709C110.278 166.709 108.118 184.378 108.118 188.71" stroke="#808080" strokeLinecap="round" stroke-linejoin="round"/>
<path d="M107.784 166.209C107.784 166.209 102.96 177.042 102.461 181.545" stroke="#808080" strokeLinecap="round" stroke-linejoin="round"/>
<path d="M121.265 166.544H153.714" stroke="#808080" strokeLinecap="round" stroke-linejoin="round"/>
<path d="M176.017 166.709H202.972" stroke="#808080" strokeLinecap="round" stroke-linejoin="round"/>
<path d="M160.533 176.378L156.707 206.379" stroke="#808080" strokeLinecap="round" stroke-linejoin="round"/>
<path d="M162.2 181.045V206.379" stroke="#808080" strokeLinecap="round" stroke-linejoin="round"/>
<path d="M165.364 176.378L168.528 208.213" stroke="#808080" strokeLinecap="round" stroke-linejoin="round"/>
<path d="M148.483 132.284C148.483 132.284 147.827 146.384 149.343 153.089C150.859 159.793 160.862 177.154 163.592 174.925C166.322 172.697 175.78 153.95 176.121 149.138C176.463 144.326 176.299 132.284 176.299 132.284C176.299 132.284 166.854 138.127 160.501 136.583C156.369 135.531 152.345 134.091 148.483 132.284Z" fill="white" stroke="#263238" strokeLinecap="round" stroke-linejoin="round"/>
<path d="M148.345 137.312C151.515 140.145 155.755 142.86 157.317 143.176C159.68 143.649 165.587 143.59 167.477 142.65C170.56 141.075 173.521 139.274 176.338 137.26C176.338 134.427 176.298 132.284 176.298 132.284C176.298 132.284 166.853 138.127 160.5 136.583C156.368 135.531 152.345 134.091 148.483 132.284C148.483 132.284 148.391 134.367 148.345 137.312Z" fill="#263238" stroke="#263238" strokeLinecap="round" stroke-linejoin="round"/>
<path d="M176.338 139.81C174.481 143.951 168.803 155.199 162.214 154.64C156.405 154.14 151.056 146.686 148.358 142.361C148.437 146.18 148.693 150.282 149.343 153.089C150.885 159.793 160.842 177.16 163.592 174.925C166.342 172.69 175.78 153.95 176.121 149.138C176.279 146.916 176.331 143.196 176.338 139.81Z" fill="white" stroke="#263238" strokeLinecap="round" stroke-linejoin="round"/>
<path d="M162.732 155.061C162.338 155.107 162.614 154.673 162.213 154.64C161.813 154.607 162.108 155.047 161.76 154.975L157.58 159.793L161.012 164.092L158.098 168.569C158.098 168.569 157.757 169.009 157.402 169.509C159.969 173.295 162.423 175.879 163.592 174.925C164.609 174.097 166.545 170.981 168.599 167.189L164.963 164.27L167.366 160.326L162.732 155.061Z" fill="#057FC7" stroke="#263238" strokeLinecap="round" stroke-linejoin="round"/>
<path d="M154.317 163.409L162.213 154.64L170.627 163.409" stroke="#263238" strokeLinecap="round" stroke-linejoin="round"/>
<path d="M144.794 116.895C144.794 116.895 143.121 113.694 141.591 113.832C140.062 113.97 138.25 116.461 140.338 120.662C142.425 124.862 144.512 124.704 144.65 123.035C144.788 121.365 144.794 116.895 144.794 116.895Z" fill="white" stroke="#263238" strokeLinecap="round" stroke-linejoin="round"/>
<path d="M140.909 119.446C140.909 119.446 140.036 115.797 141.788 116.159C143.541 116.521 144.926 119.301 144.926 119.301C144.926 119.301 141.224 115.83 140.909 119.446Z" fill="#263238"/>
<path d="M178.648 116.895C178.648 116.895 180.316 113.694 181.851 113.832C183.387 113.97 185.186 116.461 183.098 120.662C181.011 124.862 178.924 124.704 178.786 123.035C178.648 121.365 178.648 116.895 178.648 116.895Z" fill="white" stroke="#263238" strokeLinecap="round" stroke-linejoin="round"/>
<path d="M178.943 119.446C178.943 119.446 182.225 114.542 182.711 116.553C182.879 117.068 182.943 117.61 182.901 118.15C182.858 118.689 182.708 119.214 182.461 119.696C182.461 119.696 182.264 115.613 178.943 119.446Z" fill="#263238"/>
<path d="M146.002 97.313C146.002 97.313 143.174 126.374 144.827 129.924C146.481 133.473 154.961 139.429 157.298 139.902C159.634 140.376 165.568 140.316 167.458 139.376C169.348 138.436 178.544 133.46 179.489 130.634C180.434 127.807 177.605 100.619 176.424 97.1092C175.242 93.599 167.458 91.1931 160.376 91.1931C153.294 91.1931 146.711 95.1832 146.002 97.313Z" fill="white" stroke="#263238" strokeLinecap="round" stroke-linejoin="round"/>
<path d="M148.962 98.9301C148.962 98.9301 154.613 105.642 161.34 107.114C168.068 108.586 175.124 105.983 175.124 105.983L148.962 98.9301Z" fill="#263238" stroke="#263238" strokeLinecap="round" stroke-linejoin="round"/>
<path d="M164.556 110.624C164.556 110.624 163.44 113.832 163.44 114.246C163.44 114.66 163.998 120.662 163.998 120.662" stroke="#263238" strokeLinecap="round" stroke-linejoin="round"/>
<path d="M152.723 124.008C152.867 123.173 158.433 120.938 158.433 120.938C158.433 120.938 156.621 122.193 157.737 122.614C158.853 123.035 161.774 125.125 162.745 124.704C163.716 124.284 167.622 122.338 167.759 121.779C167.897 121.221 167.201 120.103 167.201 120.103C167.201 120.103 171.52 123.173 171.934 124.284" stroke="#263238" strokeLinecap="round" stroke-linejoin="round"/>
<path d="M157.876 108.396C157.876 108.396 154.121 106.305 152.172 107.699C150.223 109.093 150.636 109.927 151.194 109.927C151.752 109.927 152.723 108.672 153.977 108.672C155.231 108.672 157.462 109.927 157.876 108.396Z" fill="#DBDBDB" stroke="#263238" strokeLinecap="round" stroke-linejoin="round"/>
<path d="M165.068 108.396C165.068 108.396 168.823 106.305 170.772 107.699C172.721 109.093 172.308 109.927 171.75 109.927C171.192 109.927 170.214 108.672 168.967 108.672C167.72 108.672 165.456 109.927 165.068 108.396Z" fill="#DBDBDB" stroke="#263238" strokeLinecap="round" stroke-linejoin="round"/>
<path d="M154.607 116.337C155.183 116.337 155.651 115.651 155.651 114.805C155.651 113.959 155.183 113.273 154.607 113.273C154.031 113.273 153.563 113.959 153.563 114.805C153.563 115.651 154.031 116.337 154.607 116.337Z" fill="#263238"/>
<path d="M168.107 116.337C168.683 116.337 169.151 115.651 169.151 114.805C169.151 113.959 168.683 113.273 168.107 113.273C167.531 113.273 167.063 113.959 167.063 114.805C167.063 115.651 167.531 116.337 168.107 116.337Z" fill="#263238"/>
<path d="M153.701 125.125C153.701 125.125 155.368 127.097 156.327 127.492C157.285 127.886 165.515 128.188 168.016 127.63C168.721 127.482 169.365 127.124 169.862 126.601C170.359 126.079 170.686 125.417 170.799 124.704" stroke="#263238" strokeLinecap="round" stroke-linejoin="round"/>
<path d="M156.923 116.198C156.923 116.198 156.779 118.71 152.047 119.827" stroke="#263238" strokeLinecap="round" stroke-linejoin="round"/>
<path d="M166.368 116.481C166.368 116.481 167.97 118.762 172.006 119.045" stroke="#263238" strokeLinecap="round" stroke-linejoin="round"/>
<path d="M174.316 106.292C174.316 106.292 173.608 108.922 174.789 110.309C175.97 111.696 176.915 112.669 176.915 112.669C176.915 112.669 176.679 117.158 178.09 117.158C179.501 117.158 179.035 115.035 179.035 115.035L178.327 104.189L174.316 106.292Z" fill="#DBDBDB" stroke="#263238" strokeLinecap="round" stroke-linejoin="round"/>
<path d="M148.128 98.4962C148.128 98.4962 156.385 105.109 164.642 106.292C172.899 107.476 179.272 107.002 180.217 104.399C181.162 101.796 182.376 95.1109 173.883 91.8045C165.39 88.4981 155.092 88.0379 149.31 92.1134C148.423 92.6941 147.671 93.4589 147.105 94.356C146.539 95.253 146.171 96.2615 146.028 97.313C146.028 97.313 143.908 98.0229 143.908 99.9424V116.218H145.562C145.562 116.218 145.09 110.545 147.21 109.362C149.33 108.179 150.984 105.582 150.984 103.689C150.984 101.796 148.128 98.4962 148.128 98.4962Z" fill="#DBDBDB" stroke="#263238" strokeLinecap="round" stroke-linejoin="round"/>
<path d="M149.369 219.802C149.369 219.802 163.671 224.634 165.994 225.462C168.318 226.29 173.811 229.459 173.811 230.458C173.811 231.457 173.647 231.628 172.65 231.628H159.182C158.348 231.628 144.086 231.799 143.397 231.378C142.484 231.012 141.529 230.76 140.555 230.629C140.555 230.629 143.213 220.302 149.369 219.802Z" fill="white" stroke="#263238" strokeLinecap="round" stroke-linejoin="round"/>
<path d="M153.694 228.795C153.694 228.795 160.179 230.109 162.673 231.628L153.694 228.795Z" fill="white"/>
<path d="M153.694 228.795C153.694 228.795 160.179 230.109 162.673 231.628" stroke="#263238" strokeLinecap="round" stroke-linejoin="round"/>
<path d="M157.016 226.132C157.016 226.132 164.669 229.13 166.664 231.628L157.016 226.132Z" fill="white"/>
<path d="M157.016 226.132C157.016 226.132 164.669 229.13 166.664 231.628" stroke="#263238" strokeLinecap="round" stroke-linejoin="round"/>
<path d="M161.341 225.298C161.341 225.298 168.823 228.63 170.982 231.293L161.341 225.298Z" fill="white"/>
<path d="M161.341 225.298C161.341 225.298 168.823 228.63 170.982 231.293" stroke="#263238" strokeLinecap="round" stroke-linejoin="round"/>
<path d="M145.727 216.377L151.548 219.71C151.548 219.71 145.727 222.714 144.06 225.712C142.393 228.709 141.231 231.043 141.231 231.043H134.608C134.608 231.043 135.074 221.853 145.727 216.377Z" fill="white" stroke="#263238" strokeLinecap="round" stroke-linejoin="round"/>
<path d="M176.561 220.847C176.561 220.847 175.977 219.48 176.686 218.685C177.395 217.889 183.466 216.713 186.039 218.389C188.612 220.065 191.066 226.685 190.955 228.683C190.843 230.681 183.617 231.602 181.339 230.655C179.062 229.708 176.561 220.847 176.561 220.847Z" fill="white" stroke="#263238" strokeLinecap="round" stroke-linejoin="round"/>
<path d="M178.136 219.605L174.605 220.072C174.605 220.072 154.534 218.422 153.32 219.184C152.106 219.947 142.772 231.772 142.772 231.772L154.232 232.43C154.232 232.43 163.802 228.302 164.635 228.348C165.469 228.394 169.361 230.287 172.327 230.793C175.294 231.299 182.56 229.741 182.56 229.741C182.56 229.741 183.341 227.769 181.903 224.022C180.466 220.276 178.136 219.605 178.136 219.605Z" fill="white" stroke="#263238" strokeLinecap="round" stroke-linejoin="round"/>
<path d="M151.41 232.265C151.41 232.265 159.831 224.903 161.032 224.305L151.41 232.265Z" fill="white"/>
<path d="M151.41 232.265C151.41 232.265 159.831 224.903 161.032 224.305" stroke="#263238" strokeLinecap="round" stroke-linejoin="round"/>
<path d="M156.963 222.57L148.273 231.753" stroke="#263238" strokeLinecap="round" stroke-linejoin="round"/>
<path d="M153.708 221.216L145.097 231.904" stroke="#263238" strokeLinecap="round" stroke-linejoin="round"/>
<path d="M295.864 235.368H13.9404V279.607H295.864V235.368Z" fill="white"/>
<path opacity="0.3" d="M286.38 237.228H27.3301V241.264H286.38V237.228Z" fill="black"/>
<path d="M302.099 230.931H10.0947V238.484H302.099V230.931Z" fill="#263238" stroke="#263238" strokeLinecap="round" stroke-linejoin="round"/>
<path d="M95.7141 238.537H27.2188V245.932H95.7141V238.537Z" stroke="#263238" strokeLinecap="round" stroke-linejoin="round"/>
<path d="M83.8278 253.327H39.1115L33.5195 245.932H89.4132L83.8278 253.327Z" stroke="#263238" strokeLinecap="round" stroke-linejoin="round"/>
<path d="M39.1113 253.327V281.507" stroke="#263238" strokeLinecap="round" stroke-linejoin="round"/>
<path d="M83.71 281.507V253.327" stroke="#263238" strokeLinecap="round" stroke-linejoin="round"/>
<path d="M44.0146 281.671V257.908H59.4911V281.507" stroke="#263238" strokeLinecap="round" stroke-linejoin="round"/>
<path d="M62.9893 281.671V257.908H78.4657V281.507" stroke="#263238" strokeLinecap="round" stroke-linejoin="round"/>
<path d="M286.426 238.537H217.931V245.932H286.426V238.537Z" stroke="#263238" strokeLinecap="round" stroke-linejoin="round"/>
<path d="M274.54 253.327H229.824L224.238 245.932H280.125L274.54 253.327Z" stroke="#263238" strokeLinecap="round" stroke-linejoin="round"/>
<path d="M229.823 281.507V253.327" stroke="#263238" strokeLinecap="round" stroke-linejoin="round"/>
<path d="M274.428 253.327V281.507" stroke="#263238" strokeLinecap="round" stroke-linejoin="round"/>
<path d="M234.727 281.671V257.908H250.203V281.507" stroke="#263238" strokeLinecap="round" stroke-linejoin="round"/>
<path d="M253.701 281.671V257.908H269.178V281.507" stroke="#263238" strokeLinecap="round" stroke-linejoin="round"/>
<path d="M84.0439 262.668H229.495" stroke="#263238" strokeLinecap="round" stroke-linejoin="round"/>
<path d="M186.335 242.829H128.643V258.29H186.335V242.829Z" fill="white"/>
<path d="M184.692 243.998V257.467H128.995V243.998H184.692ZM186.661 242.026H127V259.492H186.687V242L186.661 242.026Z" fill="#263238"/>
<path d="M139.766 250.794V252.455C139.703 252.535 139.605 252.622 139.47 252.716C139.337 252.81 139.163 252.891 138.948 252.959C138.734 253.025 138.47 253.059 138.157 253.059C137.886 253.059 137.638 253.014 137.413 252.924C137.189 252.832 136.995 252.698 136.833 252.522C136.671 252.347 136.546 252.132 136.458 251.878C136.37 251.624 136.326 251.334 136.326 251.008V250.727C136.326 250.4 136.367 250.11 136.449 249.856C136.533 249.603 136.653 249.388 136.807 249.212C136.963 249.036 137.15 248.902 137.366 248.811C137.585 248.719 137.829 248.673 138.099 248.673C138.46 248.673 138.757 248.732 138.989 248.852C139.224 248.971 139.403 249.135 139.528 249.344C139.653 249.551 139.732 249.789 139.763 250.059H138.978C138.956 249.91 138.913 249.78 138.849 249.669C138.784 249.556 138.693 249.468 138.573 249.405C138.456 249.341 138.304 249.309 138.116 249.309C137.958 249.309 137.819 249.34 137.697 249.402C137.576 249.465 137.475 249.556 137.393 249.675C137.311 249.794 137.248 249.941 137.205 250.117C137.164 250.293 137.144 250.494 137.144 250.721V251.008C137.144 251.236 137.167 251.439 137.214 251.617C137.261 251.793 137.328 251.941 137.416 252.062C137.506 252.182 137.616 252.272 137.747 252.335C137.88 252.396 138.03 252.426 138.198 252.426C138.351 252.426 138.477 252.413 138.576 252.388C138.678 252.36 138.759 252.328 138.82 252.291C138.88 252.254 138.927 252.218 138.96 252.183V251.383H138.113V250.794H139.766ZM140.331 251.447V251.386C140.331 251.153 140.364 250.939 140.431 250.744C140.497 250.547 140.594 250.376 140.721 250.231C140.848 250.087 141.003 249.975 141.187 249.895C141.37 249.812 141.579 249.771 141.814 249.771C142.052 249.771 142.263 249.812 142.446 249.895C142.632 249.975 142.788 250.087 142.915 250.231C143.042 250.376 143.139 250.547 143.205 250.744C143.272 250.939 143.305 251.153 143.305 251.386V251.447C143.305 251.678 143.272 251.892 143.205 252.089C143.139 252.284 143.042 252.455 142.915 252.602C142.788 252.746 142.633 252.858 142.449 252.938C142.266 253.019 142.056 253.059 141.82 253.059C141.585 253.059 141.375 253.019 141.19 252.938C141.004 252.858 140.848 252.746 140.721 252.602C140.594 252.455 140.497 252.284 140.431 252.089C140.364 251.892 140.331 251.678 140.331 251.447ZM141.105 251.386V251.447C141.105 251.586 141.118 251.716 141.146 251.837C141.173 251.958 141.215 252.064 141.272 252.156C141.328 252.248 141.402 252.32 141.491 252.373C141.583 252.424 141.693 252.449 141.82 252.449C141.945 252.449 142.052 252.424 142.142 252.373C142.232 252.32 142.305 252.248 142.362 252.156C142.42 252.064 142.463 251.958 142.49 251.837C142.518 251.716 142.531 251.586 142.531 251.447V251.386C142.531 251.249 142.518 251.121 142.49 251.002C142.463 250.881 142.42 250.774 142.362 250.683C142.305 250.589 142.231 250.516 142.139 250.463C142.049 250.408 141.941 250.381 141.814 250.381C141.689 250.381 141.581 250.408 141.491 250.463C141.402 250.516 141.328 250.589 141.272 250.683C141.215 250.774 141.173 250.881 141.146 251.002C141.118 251.121 141.105 251.249 141.105 251.386ZM144.872 252.414L145.611 249.83H146.419L145.332 253H144.84L144.872 252.414ZM144.333 249.83L145.08 252.42L145.107 253H144.612L143.522 249.83H144.333ZM148.209 253.059C147.969 253.059 147.753 253.02 147.562 252.941C147.37 252.863 147.207 252.755 147.072 252.616C146.94 252.476 146.837 252.312 146.765 252.127C146.695 251.939 146.659 251.738 146.659 251.523V251.406C146.659 251.162 146.695 250.94 146.765 250.741C146.835 250.54 146.935 250.367 147.064 250.223C147.193 250.078 147.347 249.967 147.527 249.889C147.706 249.811 147.904 249.771 148.121 249.771C148.346 249.771 148.544 249.81 148.716 249.886C148.888 249.96 149.031 250.065 149.147 250.202C149.262 250.339 149.349 250.503 149.407 250.694C149.466 250.884 149.495 251.094 149.495 251.324V251.649H147.011V251.116H148.734V251.058C148.73 250.935 148.706 250.822 148.663 250.721C148.62 250.617 148.554 250.535 148.464 250.475C148.374 250.412 148.258 250.381 148.115 250.381C148 250.381 147.9 250.406 147.814 250.457C147.73 250.506 147.659 250.576 147.603 250.668C147.548 250.758 147.507 250.865 147.48 250.99C147.452 251.115 147.439 251.254 147.439 251.406V251.523C147.439 251.656 147.456 251.779 147.491 251.893C147.528 252.006 147.582 252.104 147.653 252.188C147.725 252.271 147.811 252.335 147.91 252.382C148.012 252.427 148.127 252.449 148.256 252.449C148.418 252.449 148.565 252.418 148.695 252.355C148.828 252.291 148.944 252.196 149.041 252.071L149.431 252.476C149.364 252.573 149.275 252.667 149.161 252.757C149.05 252.847 148.915 252.92 148.757 252.977C148.599 253.031 148.416 253.059 148.209 253.059ZM150.787 250.478V253H150.014V249.83H150.746L150.787 250.478ZM151.751 249.81L151.739 250.53C151.696 250.522 151.648 250.517 151.593 250.513C151.54 250.509 151.49 250.507 151.444 250.507C151.324 250.507 151.22 250.523 151.13 250.557C151.04 250.588 150.965 250.634 150.904 250.694C150.846 250.755 150.801 250.829 150.77 250.917C150.738 251.003 150.721 251.101 150.717 251.21L150.55 251.189C150.55 250.988 150.57 250.802 150.612 250.63C150.653 250.458 150.712 250.308 150.79 250.179C150.868 250.05 150.966 249.95 151.083 249.88C151.202 249.808 151.339 249.771 151.493 249.771C151.536 249.771 151.582 249.775 151.631 249.783C151.682 249.789 151.722 249.798 151.751 249.81ZM152.935 250.507V253H152.161V249.83H152.888L152.935 250.507ZM152.812 251.301H152.583C152.585 251.07 152.616 250.861 152.677 250.674C152.737 250.486 152.822 250.325 152.932 250.19C153.043 250.056 153.175 249.952 153.327 249.88C153.48 249.808 153.65 249.771 153.837 249.771C153.989 249.771 154.127 249.793 154.25 249.836C154.373 249.879 154.479 249.947 154.567 250.041C154.656 250.135 154.725 250.258 154.772 250.41C154.82 250.561 154.845 250.746 154.845 250.967V253H154.066V250.961C154.066 250.816 154.044 250.702 154.001 250.618C153.96 250.534 153.9 250.475 153.82 250.439C153.741 250.404 153.645 250.387 153.529 250.387C153.41 250.387 153.306 250.411 153.216 250.46C153.128 250.507 153.054 250.572 152.993 250.656C152.935 250.74 152.89 250.837 152.859 250.946C152.827 251.056 152.812 251.174 152.812 251.301ZM156.348 249.83V253H155.571V249.83H156.348ZM155.519 249.001C155.519 248.886 155.558 248.79 155.636 248.714C155.716 248.638 155.823 248.6 155.958 248.6C156.093 248.6 156.199 248.638 156.278 248.714C156.358 248.79 156.398 248.886 156.398 249.001C156.398 249.114 156.358 249.209 156.278 249.285C156.199 249.361 156.093 249.399 155.958 249.399C155.823 249.399 155.716 249.361 155.636 249.285C155.558 249.209 155.519 249.114 155.519 249.001ZM157.845 250.507V253H157.071V249.83H157.798L157.845 250.507ZM157.722 251.301H157.493C157.495 251.07 157.527 250.861 157.587 250.674C157.648 250.486 157.733 250.325 157.842 250.19C157.953 250.056 158.085 249.952 158.237 249.88C158.39 249.808 158.56 249.771 158.747 249.771C158.9 249.771 159.037 249.793 159.16 249.836C159.283 249.879 159.389 249.947 159.477 250.041C159.567 250.135 159.635 250.258 159.682 250.41C159.731 250.561 159.755 250.746 159.755 250.967V253H158.976V250.961C158.976 250.816 158.954 250.702 158.911 250.618C158.87 250.534 158.81 250.475 158.73 250.439C158.652 250.404 158.555 250.387 158.44 250.387C158.32 250.387 158.216 250.411 158.126 250.46C158.038 250.507 157.964 250.572 157.903 250.656C157.845 250.74 157.8 250.837 157.769 250.946C157.737 251.056 157.722 251.174 157.722 251.301ZM162.453 249.83H163.156V252.903C163.156 253.19 163.094 253.434 162.969 253.633C162.846 253.834 162.673 253.986 162.45 254.09C162.228 254.195 161.969 254.248 161.674 254.248C161.547 254.248 161.409 254.23 161.261 254.195C161.114 254.16 160.973 254.104 160.836 254.028C160.701 253.954 160.589 253.857 160.499 253.738L160.848 253.281C160.953 253.404 161.072 253.497 161.205 253.56C161.338 253.624 161.482 253.656 161.636 253.656C161.792 253.656 161.925 253.627 162.034 253.568C162.146 253.512 162.231 253.428 162.289 253.316C162.35 253.207 162.38 253.072 162.38 252.912V250.554L162.453 249.83ZM160.312 251.453V251.392C160.312 251.149 160.341 250.93 160.4 250.732C160.458 250.533 160.542 250.362 160.652 250.22C160.763 250.077 160.897 249.967 161.053 249.889C161.211 249.811 161.389 249.771 161.586 249.771C161.795 249.771 161.971 249.81 162.113 249.886C162.258 249.962 162.377 250.07 162.471 250.211C162.567 250.352 162.641 250.519 162.694 250.712C162.748 250.903 162.79 251.114 162.82 251.345V251.512C162.792 251.736 162.748 251.942 162.688 252.13C162.629 252.317 162.551 252.481 162.453 252.622C162.356 252.761 162.235 252.868 162.09 252.944C161.945 253.021 161.776 253.059 161.58 253.059C161.385 253.059 161.209 253.019 161.053 252.938C160.897 252.858 160.763 252.746 160.652 252.602C160.542 252.457 160.458 252.287 160.4 252.092C160.341 251.896 160.312 251.684 160.312 251.453ZM161.085 251.392V251.453C161.085 251.59 161.099 251.718 161.126 251.837C161.153 251.956 161.195 252.062 161.252 252.153C161.309 252.243 161.38 252.313 161.466 252.364C161.552 252.415 161.654 252.44 161.774 252.44C161.934 252.44 162.065 252.407 162.166 252.341C162.27 252.272 162.348 252.18 162.401 252.062C162.455 251.943 162.49 251.81 162.506 251.661V251.201C162.496 251.084 162.475 250.976 162.442 250.876C162.41 250.776 162.366 250.69 162.31 250.618C162.253 250.546 162.181 250.489 162.093 250.448C162.005 250.407 161.901 250.387 161.779 250.387C161.662 250.387 161.56 250.413 161.472 250.466C161.384 250.517 161.312 250.588 161.255 250.68C161.198 250.771 161.155 250.878 161.126 250.999C161.099 251.12 161.085 251.251 161.085 251.392ZM167.041 251.099H165.951L165.945 250.53H166.88C167.04 250.53 167.174 250.508 167.281 250.463C167.389 250.418 167.47 250.353 167.525 250.267C167.581 250.181 167.61 250.076 167.61 249.953C167.61 249.816 167.583 249.705 167.53 249.619C167.48 249.533 167.4 249.471 167.29 249.432C167.181 249.391 167.042 249.37 166.874 249.37H166.212V253H165.406V248.734H166.874C167.116 248.734 167.332 248.758 167.522 248.805C167.713 248.85 167.875 248.92 168.008 249.016C168.141 249.111 168.241 249.231 168.31 249.376C168.38 249.521 168.415 249.692 168.415 249.892C168.415 250.067 168.374 250.229 168.292 250.378C168.212 250.524 168.088 250.644 167.92 250.735C167.754 250.827 167.543 250.88 167.287 250.894L167.041 251.099ZM167.006 253H165.714L166.051 252.367H167.006C167.166 252.367 167.298 252.341 167.402 252.288C167.507 252.235 167.585 252.163 167.636 252.071C167.689 251.978 167.715 251.87 167.715 251.749C167.715 251.616 167.692 251.501 167.645 251.403C167.6 251.306 167.528 251.23 167.428 251.178C167.33 251.125 167.201 251.099 167.041 251.099H166.203L166.209 250.53H167.276L167.46 250.75C167.706 250.752 167.906 250.801 168.061 250.896C168.217 250.992 168.332 251.115 168.406 251.266C168.481 251.416 168.518 251.578 168.518 251.752C168.518 252.025 168.458 252.255 168.339 252.44C168.222 252.626 168.05 252.766 167.823 252.859C167.599 252.953 167.326 253 167.006 253ZM169.019 251.447V251.386C169.019 251.153 169.052 250.939 169.118 250.744C169.185 250.547 169.281 250.376 169.408 250.231C169.535 250.087 169.691 249.975 169.874 249.895C170.058 249.812 170.267 249.771 170.501 249.771C170.739 249.771 170.95 249.812 171.134 249.895C171.32 249.975 171.476 250.087 171.603 250.231C171.73 250.376 171.826 250.547 171.893 250.744C171.959 250.939 171.992 251.153 171.992 251.386V251.447C171.992 251.678 171.959 251.892 171.893 252.089C171.826 252.284 171.73 252.455 171.603 252.602C171.476 252.746 171.32 252.858 171.137 252.938C170.953 253.019 170.743 253.059 170.507 253.059C170.273 253.059 170.063 253.019 169.877 252.938C169.692 252.858 169.535 252.746 169.408 252.602C169.281 252.455 169.185 252.284 169.118 252.089C169.052 251.892 169.019 251.678 169.019 251.447ZM169.792 251.386V251.447C169.792 251.586 169.806 251.716 169.833 251.837C169.861 251.958 169.903 252.064 169.959 252.156C170.016 252.248 170.089 252.32 170.179 252.373C170.271 252.424 170.38 252.449 170.507 252.449C170.632 252.449 170.739 252.424 170.829 252.373C170.919 252.32 170.992 252.248 171.049 252.156C171.108 252.064 171.151 251.958 171.178 251.837C171.205 251.716 171.219 251.586 171.219 251.447V251.386C171.219 251.249 171.205 251.121 171.178 251.002C171.151 250.881 171.108 250.774 171.049 250.683C170.992 250.589 170.918 250.516 170.826 250.463C170.737 250.408 170.628 250.381 170.501 250.381C170.376 250.381 170.269 250.408 170.179 250.463C170.089 250.516 170.016 250.589 169.959 250.683C169.903 250.774 169.861 250.881 169.833 251.002C169.806 251.121 169.792 251.249 169.792 251.386ZM174.456 252.326V248.5H175.236V253H174.532L174.456 252.326ZM172.42 251.453V251.392C172.42 251.149 172.447 250.93 172.502 250.732C172.559 250.533 172.641 250.362 172.748 250.22C172.856 250.077 172.986 249.967 173.138 249.889C173.292 249.811 173.467 249.771 173.662 249.771C173.852 249.771 174.017 249.81 174.157 249.886C174.3 249.962 174.421 250.07 174.521 250.211C174.622 250.352 174.703 250.519 174.764 250.712C174.824 250.903 174.868 251.114 174.896 251.345V251.512C174.868 251.736 174.824 251.942 174.764 252.13C174.703 252.317 174.622 252.481 174.521 252.622C174.421 252.761 174.3 252.868 174.157 252.944C174.015 253.021 173.848 253.059 173.656 253.059C173.463 253.059 173.289 253.019 173.135 252.938C172.983 252.858 172.853 252.746 172.745 252.602C172.64 252.457 172.559 252.287 172.502 252.092C172.447 251.896 172.42 251.684 172.42 251.453ZM173.196 251.392V251.453C173.196 251.59 173.208 251.718 173.232 251.837C173.255 251.956 173.293 252.062 173.346 252.153C173.399 252.243 173.466 252.313 173.548 252.364C173.632 252.415 173.734 252.44 173.853 252.44C174.005 252.44 174.13 252.407 174.228 252.341C174.327 252.272 174.404 252.18 174.459 252.062C174.514 251.943 174.549 251.81 174.565 251.661V251.201C174.557 251.084 174.536 250.976 174.503 250.876C174.472 250.776 174.427 250.69 174.368 250.618C174.312 250.546 174.241 250.489 174.157 250.448C174.073 250.407 173.974 250.387 173.859 250.387C173.739 250.387 173.638 250.413 173.554 250.466C173.47 250.517 173.402 250.588 173.349 250.68C173.296 250.771 173.257 250.878 173.232 250.999C173.208 251.12 173.196 251.251 173.196 251.392ZM176.864 252.648L177.714 249.83H178.543L177.272 253.48C177.242 253.559 177.204 253.644 177.157 253.735C177.112 253.827 177.052 253.914 176.976 253.996C176.9 254.08 176.804 254.148 176.689 254.201C176.575 254.254 176.438 254.28 176.276 254.28C176.205 254.28 176.143 254.275 176.088 254.266C176.033 254.256 175.976 254.243 175.915 254.228V253.647C175.935 253.649 175.957 253.65 175.983 253.65C176.01 253.652 176.033 253.653 176.053 253.653C176.166 253.653 176.26 253.64 176.334 253.612C176.408 253.587 176.468 253.545 176.513 253.486C176.56 253.43 176.599 253.355 176.63 253.264L176.864 252.648ZM176.445 249.83L177.163 252.165L177.289 252.982L176.756 253.079L175.611 249.83H176.445Z" fill="black"/>
</g>
<defs>
<clipPath id="clip0_2616_7491">
<rect width="305" height="282" fill="white"/>
</clipPath>
</defs>
</svg>
