<svg width="90" height="90" viewBox="0 0 90 90" fill="none" xmlns="http://www.w3.org/2000/svg">
<g clip-path="url(#clip0_3427_5075)">
<path d="M85.6452 23.2258V0H68.2258V23.2258H67.709L60.6948 7.79226L51.2332 0.223548L49.3026 11.8045L54.3789 23.2258H49.3548V31.9355H52.2581V36.2903H7.25806C3.25597 36.2903 0 39.5463 0 43.5484V74.0323C0 78.0344 3.25597 81.2903 7.25806 81.2903H23.2258V87.0968H17.4194V90H49.3548V87.0968H43.5484V81.2903H59.5161C63.5182 81.2903 66.7742 78.0344 66.7742 74.0323V66.7742H82.7419C85.1429 66.7742 87.0968 64.8203 87.0968 62.4194V31.9355H90V23.2258H85.6452ZM71.129 2.90323H82.7419V5.80645H79.8387V8.70968H82.7419V11.6129H76.9355V14.5161H82.7419V17.4194H79.8387V20.3226H82.7419V23.2258H71.129V2.90323ZM53.2829 5.58145L57.8061 9.20177L52.3786 11.0105L53.2829 5.58145ZM53.3439 13.7482L59.3071 11.761L64.5198 23.2258H57.5565L53.3439 13.7482ZM40.6452 87.0968H26.129V81.2903H40.6452V87.0968ZM59.5161 78.3871H7.25806C4.8571 78.3871 2.90323 76.4332 2.90323 74.0323H63.871C63.871 76.4332 61.9171 78.3871 59.5161 78.3871ZM63.871 71.129H2.90323V43.5484C2.90323 41.1474 4.8571 39.1936 7.25806 39.1936H52.2581V62.4194C52.2581 64.8203 54.2119 66.7742 56.6129 66.7742H63.871V71.129ZM84.1936 56.6129H81.2903V59.5161H84.1936V62.4194C84.1936 63.2206 83.5432 63.871 82.7419 63.871H56.6129C55.8116 63.871 55.1613 63.2206 55.1613 62.4194V59.5161H78.3871V56.6129H55.1613V31.9355H84.1936V56.6129ZM87.0968 29.0323H52.2581V26.129H87.0968V29.0323Z" fill="#F38332"/>
<path d="M5.80469 68.2258H49.3531V42.0968H5.80469V68.2258ZM8.70791 45H46.4498V65.3226H8.70791V45Z" fill="#F38332"/>
<path d="M36.2527 55.1613C35.884 51.0982 32.4626 47.9032 28.3051 47.9032C25.3061 47.9032 22.5872 49.6205 21.2358 52.258H18.093L11.8555 61.6137L14.271 63.2235L19.6463 55.1613H25.3511L30.7264 63.225L33.1419 61.6151L30.7758 58.0645H37.0148L40.9342 63.2903L43.2568 61.5498L38.4664 55.1613H36.2527ZM28.8393 55.1613L26.9043 52.258H24.7806C25.7068 51.3493 26.9624 50.8064 28.3051 50.8064C30.8571 50.8064 32.9561 52.7051 33.3118 55.1613H28.8393Z" fill="#F38332"/>
</g>
<defs>
<clipPath id="clip0_3427_5075">
<rect width="90" height="90" fill="white"/>
</clipPath>
</defs>
</svg>
