<svg width="62" height="27" viewBox="0 0 62 27" fill="none" xmlns="http://www.w3.org/2000/svg">
<path d="M61 13.5C61 20.3071 54.8337 26 47 26C39.1663 26 33 20.3071 33 13.5C33 6.69294 39.1663 1 47 1C54.8337 1 61 6.69294 61 13.5Z" stroke="white" stroke-width="2"/>
<mask id="path-2-inside-1_2224_304" fill="white">
<path fillRule="evenodd" clipRule="evenodd" d="M40.5 2.37519C36.5737 4.80976 34 8.88437 34 13.5C34 18.1156 36.5737 22.1902 40.5 24.6248C38.084 26.1229 35.1558 27 32 27C23.7157 27 17 20.9558 17 13.5C17 6.04416 23.7157 0 32 0C35.1558 0 38.084 0.877091 40.5 2.37519Z"/>
</mask>
<path d="M40.5 2.37519L41.554 4.07495L44.2952 2.37519L41.554 0.67544L40.5 2.37519ZM40.5 24.6248L41.554 26.3246L44.2952 24.6248L41.554 22.9251L40.5 24.6248ZM36 13.5C36 9.66648 38.1351 6.19486 41.554 4.07495L39.446 0.67544C35.0123 3.42465 32 8.10227 32 13.5H36ZM41.554 22.9251C38.1351 20.8051 36 17.3335 36 13.5H32C32 18.8977 35.0123 23.5754 39.446 26.3246L41.554 22.9251ZM39.446 22.9251C37.3472 24.2265 34.7841 25 32 25V29C35.5275 29 38.8208 28.0193 41.554 26.3246L39.446 22.9251ZM32 25C24.6169 25 19 19.6583 19 13.5H15C15 22.2534 22.8146 29 32 29V25ZM19 13.5C19 7.34172 24.6169 2 32 2V-2C22.8146 -2 15 4.74659 15 13.5H19ZM32 2C34.7841 2 37.3472 2.7735 39.446 4.07495L41.554 0.67544C38.8208 -1.01931 35.5275 -2 32 -2V2Z" fill="white" mask="url(#path-2-inside-1_2224_304)"/>
<mask id="path-4-inside-2_2224_304" fill="white">
<path fillRule="evenodd" clipRule="evenodd" d="M24.5 3.05211C21.1425 5.52788 19 9.28876 19 13.5C19 17.7112 21.1425 21.4721 24.5 23.9479C21.9132 25.8554 18.6051 27 15 27C6.71573 27 0 20.9558 0 13.5C0 6.04416 6.71573 0 15 0C18.6051 0 21.9132 1.14463 24.5 3.05211Z"/>
</mask>
<path d="M24.5 3.05211L25.687 4.66181L27.8699 3.05211L25.687 1.44242L24.5 3.05211ZM24.5 23.9479L25.687 25.5576L27.8699 23.9479L25.687 22.3382L24.5 23.9479ZM21 13.5C21 9.99902 22.7772 6.80744 25.687 4.66181L23.313 1.44242C19.5078 4.24832 17 8.57849 17 13.5H21ZM25.687 22.3382C22.7772 20.1926 21 17.001 21 13.5H17C17 18.4215 19.5078 22.7517 23.313 25.5576L25.687 22.3382ZM23.313 22.3382C21.0724 23.9904 18.1809 25 15 25V29C19.0293 29 22.754 27.7203 25.687 25.5576L23.313 22.3382ZM15 25C7.61687 25 2 19.6583 2 13.5H-2C-2 22.2534 5.81458 29 15 29V25ZM2 13.5C2 7.34172 7.61687 2 15 2V-2C5.81458 -2 -2 4.74659 -2 13.5H2ZM15 2C18.1809 2 21.0724 3.0096 23.313 4.66181L25.687 1.44242C22.754 -0.720338 19.0293 -2 15 -2V2Z" fill="white" mask="url(#path-4-inside-2_2224_304)"/>
</svg>
