<svg width="84" height="84" viewBox="0 0 84 84" fill="none" xmlns="http://www.w3.org/2000/svg">
<g clip-path="url(#clip0_796_17047)">
<path d="M72.0564 52.1062L81.6377 62.0812L39.5064 83.2124C39.5064 83.2124 33.9939 85.9687 31.3689 81.6374C20.8689 64.5749 72.0564 52.1062 72.0564 52.1062Z" fill="#256382"/>
<path d="M38.3251 70.7438C38.3251 70.7438 30.3188 73.7626 31.7626 79.4063C33.3376 85.3126 39.7688 81.7688 39.7688 81.7688L79.8 62.0813C79.8 62.0813 77.5688 55.7813 81.6375 51.5813L38.3251 70.7438Z" fill="#D9E3E8"/>
<path d="M45.15 11.6812L83.475 51.1874L38.1937 69.9562L9.1875 21.9187L45.15 11.6812Z" fill="#42ADE2"/>
<path d="M79.6685 55.9124L52.8936 67.4624L79.1435 54.7312L79.6685 55.9124Z" fill="#94989B"/>
<path d="M79.2747 59.3251L50.7935 71.7938L78.7497 58.1438L79.2747 59.3251Z" fill="#94989B"/>
<path d="M79.5374 61.2938L43.1812 77.9626L79.0124 60.1125L79.5374 61.2938Z" fill="#94989B"/>
<path d="M31.2375 81.5064C26.775 71.6626 38.1937 69.9564 38.1937 69.9564L9.1875 21.9189C9.1875 21.9189 2.625 21.7876 2.625 29.0064C2.625 32.0251 3.9375 34.2564 3.9375 34.2564L31.2375 81.5064Z" fill="#428BC1"/>
<path d="M11.4187 42.2625L1.8374 52.2374L43.9687 73.3687C43.9687 73.3687 49.4812 76.1249 52.1062 71.7937C62.6062 54.7312 11.4187 42.2625 11.4187 42.2625Z" fill="#547725"/>
<path d="M45.0186 60.9001C45.0186 60.9001 53.0249 63.9188 51.5811 69.5626C50.0061 75.4688 43.7061 71.9251 43.7061 71.9251L3.6749 52.2376C3.6749 52.2376 5.90615 45.9376 1.8374 41.7375L45.0186 60.9001Z" fill="#D9E3E8"/>
<path d="M38.325 1.8374L0 41.3437L45.2812 60.1124L74.2875 12.0749L38.325 1.8374Z" fill="#83BF4F"/>
<path d="M4.1998 44.8875L30.4498 57.6187L3.6748 46.0687L4.1998 44.8875Z" fill="#94989B"/>
<path d="M4.72461 48.3L32.5496 61.95L4.06836 49.4813L4.72461 48.3Z" fill="#94989B"/>
<path d="M4.4624 50.2688L40.1624 68.1188L3.80615 51.4501L4.4624 50.2688Z" fill="#94989B"/>
<path d="M52.2375 71.6626C56.7 61.8189 45.2812 60.1126 45.2812 60.1126L74.2875 12.0751C74.2875 12.0751 80.85 11.9439 80.85 19.1626C80.85 22.1814 79.5375 24.4126 79.5375 24.4126L52.2375 71.6626Z" fill="#699635"/>
<path d="M74.4187 34.125L82.425 42.525L46.8562 60.2438C46.8562 60.2438 42.1312 62.475 39.9 58.9313C31.2375 44.625 74.4187 34.125 74.4187 34.125Z" fill="#962C2C"/>
<path d="M45.9375 49.875C45.9375 49.875 39.1125 52.3687 40.425 57.2249C41.7375 62.2124 47.1187 59.1937 47.1187 59.1937L80.85 42.525C80.85 42.525 79.0125 37.275 82.425 33.7312L45.9375 49.875Z" fill="#D9E3E8"/>
<path d="M51.7127 0L84.0002 33.3375L45.8065 49.2188L21.2627 8.6625L51.7127 0Z" fill="#ED4C5C"/>
<path d="M52.6313 7.61255L58.9313 14.5688L35.7 23.3625L30.1875 14.4375L52.6313 7.61255Z" fill="white"/>
<path d="M80.8504 37.4063L58.2754 46.9876L80.3254 36.2251L80.8504 37.4063Z" fill="#94989B"/>
<path d="M80.5875 40.2938L56.4375 50.6626L80.0625 39.1125L80.5875 40.2938Z" fill="#94989B"/>
<path d="M80.8502 41.8687L50.1377 55.9125L80.194 40.6875L80.8502 41.8687Z" fill="#94989B"/>
<path d="M40.0311 58.9313C36.3561 50.6626 45.9374 49.2188 45.9374 49.2188L21.2624 8.66258C21.2624 8.66258 15.6187 8.53133 15.6187 14.5688C15.6187 17.0626 16.6687 19.0313 16.6687 19.0313L40.0311 58.9313Z" fill="#C94747"/>
</g>
<defs>
<clipPath id="clip0_796_17047">
<rect width="84" height="84" fill="white"/>
</clipPath>
</defs>
</svg>
