<svg width="84" height="84" viewBox="0 0 84 84" fill="none" xmlns="http://www.w3.org/2000/svg">
<g clip-path="url(#clip0_796_17077)">
<path d="M0 26.6439C0 26.6439 37.0125 65.8876 40.95 84.0001C40.95 84.0001 51.5812 60.5064 84 50.6626C84 50.6626 72.45 23.6251 41.7375 2.1001C41.7375 2.1001 10.3688 11.5501 0 26.6439Z" fill="#EFD8B1"/>
<path d="M4.2002 10.3688C4.2002 10.3688 33.0752 60.5063 33.6002 79.2751C33.6002 79.2751 48.0377 59.8501 81.3752 60.9001C81.3752 60.9001 75.0752 30.8438 49.0877 0.13132C49.0877 7.02664e-05 16.9315 -1.04993 4.2002 10.3688Z" fill="#FFF6D7"/>
<path d="M26.119 12.3376C25.7253 12.8626 26.3815 11.8126 26.119 12.3376V12.3376Z" fill="#7D8B91"/>
<path d="M26.1188 12.3375C26.3813 11.9437 26.5126 11.2875 26.9063 10.8937C27.4313 10.5 27.9563 10.7625 28.4813 10.3687C29.5313 9.58122 30.0563 8.26872 30.9751 7.34997C32.0251 6.29997 33.3376 5.64372 34.7813 5.24997C36.2251 4.72497 37.6688 3.67497 39.1126 3.67497C38.4563 5.64372 37.1438 7.34997 36.8813 9.58122C36.7501 10.7625 36.8813 11.9437 37.0126 13.125C37.2751 12.2062 37.5376 11.2875 37.8001 10.5C38.3251 9.31872 39.5063 9.44997 40.5563 9.05622C41.6063 8.53122 42.5251 7.61247 43.4438 6.82497C43.8376 7.48122 45.2813 6.43122 45.5438 7.34997C45.6751 7.74372 49.2188 7.21872 49.4813 7.08747C48.6938 7.08747 45.9376 7.21872 45.8063 6.56247C45.4126 6.43122 44.6251 6.29997 44.1001 6.29997V5.38122C43.3126 5.90622 42.5251 6.56247 41.7376 7.21872C40.5563 8.13747 39.1126 7.87497 37.9313 8.79372C38.3251 7.48122 39.1126 6.29997 39.6376 4.98747C39.9001 4.46247 40.0313 3.80622 40.1626 3.28122C40.2938 2.75622 40.1626 3.01872 39.7688 2.75622C37.9313 2.23122 36.0938 3.67497 34.5188 4.33122C33.0751 4.98747 31.7626 5.77497 30.7126 6.82497C30.0563 7.48122 29.0063 9.84372 28.0876 10.1062C26.2501 10.1062 26.9063 11.8125 25.7251 12.3375C25.0688 12.6 24.6751 12.6 24.0188 12.9937C23.3626 13.5187 22.4438 14.4375 21.3938 14.3062C21.3938 13.5187 21.3938 12.7312 21.1313 11.9437C20.0813 12.4687 19.6876 13.3875 18.7688 14.0437C19.0313 11.9437 19.9501 10.2375 19.9501 8.00622C18.7688 8.79372 18.1126 9.71247 17.4563 10.8937C16.6688 12.3375 16.0126 14.7 14.4376 15.4875C14.4376 13.5187 15.3563 11.55 15.0938 9.44997C14.7001 10.5 14.7001 11.8125 14.4376 12.7312C14.1751 13.9125 13.9126 15.0937 13.9126 16.4062C16.8001 16.0125 17.3251 11.8125 19.0313 9.97497C18.6376 11.8125 17.9813 13.5187 18.1126 15.4875C19.2938 14.8312 19.8188 13.5187 20.8688 12.7312C21.2626 13.9125 20.3438 15.4875 22.3126 14.5687C23.1001 14.175 23.7563 13.5187 24.5438 12.9937C24.9376 12.7312 25.7251 12.9937 26.1188 12.3375Z" fill="#7D8B91"/>
<path d="M54.3376 18.1125C53.8126 17.5875 52.8938 17.4562 52.2376 16.9312C51.4501 16.275 50.1376 16.5375 49.3501 16.8C47.2501 17.325 45.8063 17.85 43.8376 16.8C43.8376 17.4562 43.9688 20.0812 42.9188 19.95C42.0001 19.95 42.2626 17.1937 42.1313 16.275C41.6063 17.0625 41.2126 17.7187 41.2126 18.6375C41.2126 19.2937 41.4751 19.6875 40.9501 20.3437C40.1626 21 38.9813 20.8687 38.0626 20.7375C37.8001 19.2937 38.1938 17.5875 38.3251 16.0125C38.0626 17.325 37.6688 18.6375 37.4063 20.0812C37.1438 21.1312 36.2251 21.2625 35.4376 21C35.3063 20.7375 35.5688 19.6875 35.5688 19.425C34.7813 20.8687 34.2563 22.7062 33.2063 24.0187C32.6813 24.6749 31.5001 25.3312 30.9751 24.2812C30.5813 23.6249 30.8438 22.7062 30.9751 21.9187C30.3188 22.7062 29.6626 24.9374 28.6126 24.9374C28.7438 24.4124 29.1376 23.8875 28.4813 23.6249C28.2188 24.15 27.9563 24.8062 27.5626 25.4624C27.8251 24.6749 28.0876 23.7562 28.2188 22.8374C26.5126 23.8874 25.4626 25.3312 24.5438 27.0374C24.5438 26.775 24.6751 26.1187 24.6751 25.8562C24.5438 26.3812 23.4938 28.3499 24.1501 28.7437C25.0688 27.2999 25.8563 25.725 27.1688 24.5437C26.5126 26.5125 25.7251 28.2187 25.3313 30.1874C26.1188 29.2687 26.9063 28.2187 27.5626 27.1687C27.6938 26.775 27.9563 26.3812 28.0876 25.9874C28.4813 24.9374 28.4813 25.725 29.2688 25.2C29.9251 24.675 30.3188 23.7562 30.7126 22.9687C30.5813 25.3312 32.5501 25.725 33.8626 23.8875C34.3876 23.1 34.7813 22.3124 35.1751 21.525L36.2251 21.7875C36.7501 21.7875 37.1438 21.7874 37.5376 21.525C38.9813 22.0499 41.2126 22.1812 42.1313 20.475C43.7063 22.1812 44.7563 19.5562 44.8876 18.2437C46.4626 18.9 47.9063 18.1125 49.4813 17.5875C50.4001 17.325 52.1063 16.5375 52.7626 17.5875C53.0251 17.9812 53.6813 17.9812 54.3376 18.1125Z" fill="#7D8B91"/>
<path d="M40.4253 31.6312C40.4253 31.1062 40.0315 30.8437 39.5065 31.2374C38.8503 31.7624 39.244 30.8437 39.244 30.3187C39.244 29.6625 39.3753 29.1375 39.3753 28.4812C39.1128 29.0062 38.719 29.5312 38.4565 30.0562C37.9315 30.9749 38.0628 32.6812 36.7503 32.8124C37.0128 32.1562 37.144 31.4999 37.2753 30.8437C36.619 31.4999 35.8315 31.8937 35.8315 32.9437C35.8315 34.2562 34.519 37.4062 32.8128 37.0124C32.944 34.3874 34.3878 32.0249 35.044 29.5312C32.419 31.1062 30.1878 35.0437 29.9253 37.9312C31.2378 35.6999 32.1565 33.2062 33.994 31.3687C33.469 33.3374 32.8128 35.1749 32.6815 37.1437C32.6815 37.5374 33.7315 37.2749 33.8628 37.2749C34.7815 37.0124 35.4378 36.0937 35.8315 35.3062C35.9628 35.0437 36.2253 34.6499 36.3565 34.3874C36.7503 33.5999 36.8815 34.1249 37.5378 33.7312C38.4565 33.3374 38.4565 32.1562 39.3753 32.2874C40.294 32.4187 42.2628 32.1562 42.919 31.7624C42.1315 31.7624 41.344 31.8937 40.4253 31.6312ZM39.769 31.1062L40.0315 31.3687C39.9003 31.3687 39.769 31.2375 39.769 31.1062Z" fill="#7D8B91"/>
<path d="M57.8816 55.65C57.6191 55.5188 58.5378 54.7313 57.8816 55.65V55.65Z" fill="#7D8B91"/>
<path d="M76.65 52.1063C74.2875 50.4 71.5313 49.35 68.9063 47.9062C69.4313 48.6938 70.2188 49.6125 70.6125 50.5313C69.3 50.6625 69.4313 53.025 69.3 53.025C68.6438 52.6313 66.8063 53.025 66.0188 53.1563C66.0188 53.025 66.0188 52.8938 66.15 52.7625C63.7875 54.3375 61.8188 56.7 58.6688 56.0438C60.1125 53.8125 61.2938 51.3188 61.1625 48.5625C58.8 49.35 57.4875 51.5813 56.4375 53.6813C56.175 52.8938 55.125 52.2375 54.4688 52.8938C53.6813 53.55 53.2875 54.8625 53.025 55.7813C52.6313 56.9625 52.5 58.275 52.3688 59.4563C52.3688 60.375 52.2375 60.5063 53.1563 60.5063C55.3875 60.5063 57.3563 57.8813 58.4063 56.3063C61.2938 57.0938 63 55.7813 65.2313 54.2063C65.2313 55.2563 66.0188 55.9125 67.0688 55.65C68.1188 55.3875 68.6438 54.075 69.4313 54.075C70.0875 54.075 70.4813 54.3375 71.1375 54.3375C71.7938 54.3375 72.5813 54.2063 73.2375 54.075C72.45 53.1563 72.1875 52.5 71.925 51.3187C73.5 51.7125 74.9438 52.1063 76.65 52.1063ZM55.3875 58.5375C55.65 58.275 55.7813 58.1438 55.3875 58.5375C54.9938 58.8 55.125 58.8 55.2563 58.6688C54.6 59.1938 53.8125 59.85 52.8938 59.85C52.8938 57.8813 53.1563 55.5188 54.075 53.8125C54.6 53.025 55.2563 52.7625 56.0438 53.4188C56.5688 53.9438 55.9125 54.4688 55.9125 54.9938C56.0438 54.7313 56.175 54.4688 56.3063 54.3375C56.4375 55.125 56.8313 55.65 57.6188 56.0438C56.9625 56.8313 56.3063 57.75 55.3875 58.5375ZM57.8813 55.65C54.7313 54.3375 58.8 50.2688 60.6375 49.4813C60.375 51.7125 59.1938 53.8125 57.8813 55.65ZM66.9375 54.6C65.8875 54.8625 65.8875 53.8125 66.0188 53.1563C66.675 53.4188 67.3313 53.6813 68.1188 53.8125C67.8563 54.2063 67.4625 54.6 66.9375 54.6ZM70.7438 52.8938C70.875 52.7625 70.875 52.5 70.875 52.3688C70.4813 52.5 70.2188 52.6313 69.825 52.7625C69.825 52.3688 69.6938 51.3188 70.2188 51.1875C71.2688 50.6625 71.2688 52.3688 71.4 53.025C71.1375 53.025 70.875 53.025 70.7438 52.8938ZM71.925 50.5313H71.6625C71.5313 50.4 71.6625 50.4 71.925 50.5313Z" fill="#7D8B91"/>
<path d="M46.8013 27.3013L67.964 6.1438L77.8931 16.0755L56.7303 37.233L46.8013 27.3013Z" fill="#FFCE31"/>
<path d="M82.1627 3.0187L80.8502 1.7062C78.4877 -0.656299 74.5502 -0.656299 72.1877 1.7062L67.8564 6.03745L77.8314 16.0125L82.1627 11.6812C84.6565 9.3187 84.6565 5.51245 82.1627 3.0187Z" fill="#ED4C5C"/>
<path d="M65.2354 8.76631L67.926 6.07568L77.8563 16.0074L75.1644 18.698L65.2354 8.76631Z" fill="#93A2AA"/>
<path d="M66.3496 9.8791L69.0402 7.18848L76.8365 14.9834L74.1459 17.674L66.3496 9.8791Z" fill="#C7D3D8"/>
<path d="M46.7248 27.3L42.3936 38.5875L45.4123 41.6063L56.6998 37.275L46.7248 27.3Z" fill="#FED0AC"/>
<path d="M41.7377 40.5562C41.0814 42.1312 42.0002 42.9187 43.4439 42.2625L48.9564 40.1625L43.8377 35.0437L41.7377 40.5562Z" fill="#333333"/>
<path d="M46.8193 27.3263L65.2888 8.85938L68.6292 12.1997L50.161 30.6679L46.8193 27.3263Z" fill="#FFDF85"/>
<path d="M53.3608 33.9531L71.8277 15.481L75.168 18.8226L56.7012 37.2934L53.3608 33.9531Z" fill="#FF8736"/>
</g>
<defs>
<clipPath id="clip0_796_17077">
<rect width="84" height="84" fill="white"/>
</clipPath>
</defs>
</svg>
