<svg width="87" height="69" viewBox="0 0 87 69" fill="none" xmlns="http://www.w3.org/2000/svg">
<path d="M61.0625 12.75V13.75H62.0625H83.3045L85.8125 16.258V64.9295L83.3045 67.4375H3.69546L1.1875 64.9295V16.258L3.69546 13.75H24.9375H25.9375V12.75V3.88296L28.4455 1.375H58.5545L61.0625 3.88296V12.75ZM31.125 5.5625H30.125V6.5625V12.75V13.75H31.125H55.875H56.875V12.75V6.5625V5.5625H55.875H31.125ZM81.625 18.9375V17.9375H80.625H6.375H5.375V18.9375V23.3306V23.9104L5.87816 24.1985L30.6282 38.3678L32.125 39.2248V37.5V34.8263L34.6891 32.3125H52.423L54.875 34.8146V37.5V39.2061L56.3636 38.3725L81.1136 24.5125L81.625 24.2261V23.64V18.9375ZM50.6875 37.5V36.5H49.6875H37.3125H36.3125V37.5V43.6875V44.6875H37.3125H49.6875H50.6875V43.6875V37.5ZM5.375 62.25V63.25H6.375H80.625H81.625V62.25V30.7556V29.0346L80.1298 29.8868L55.3798 43.9943L54.875 44.2821V44.8631V46.367L52.367 48.875H34.633L32.125 46.367V44.6156V44.0358L31.6218 43.7478L6.87184 29.5784L5.375 28.7215V30.4463V62.25Z" stroke="#F38332" stroke-width="2"/>
</svg>
