<svg width="95" height="95" viewBox="0 0 95 95" fill="none" xmlns="http://www.w3.org/2000/svg">
<g clip-path="url(#clip0_2685_124)">
<path d="M67.4786 70.865C66.8371 70.865 66.2218 71.1198 65.7682 71.5734C65.3146 72.0271 65.0597 72.6423 65.0597 73.2838V80.5403H16.6833V22.4885H26.3586V24.9073C26.3586 25.5489 26.6134 26.1641 27.067 26.6177C27.5207 27.0713 28.1359 27.3262 28.7774 27.3262H52.9656C53.6071 27.3262 54.2224 27.0713 54.676 26.6177C55.1296 26.1641 55.3845 25.5489 55.3845 24.9073V22.4885H65.0597V24.9073C65.0597 25.5489 65.3146 26.1641 65.7682 26.6177C66.2218 27.0713 66.8371 27.3262 67.4786 27.3262C68.1201 27.3262 68.7353 27.0713 69.1889 26.6177C69.6426 26.1641 69.8974 25.5489 69.8974 24.9073V20.0697C69.8974 19.4282 69.6426 18.813 69.1889 18.3593C68.7353 17.9057 68.1201 17.6509 67.4786 17.6509H55.3845V15.2321C55.3845 13.3075 54.6199 11.4618 53.2591 10.101C51.8982 8.74011 50.0525 7.97559 48.128 7.97559H33.615C31.6905 7.97559 29.8448 8.74011 28.4839 10.101C27.1231 11.4618 26.3586 13.3075 26.3586 15.2321V17.6509H14.2645C13.623 17.6509 13.0077 17.9057 12.5541 18.3593C12.1005 18.813 11.8456 19.4282 11.8456 20.0697V82.9591C11.8456 83.6006 12.1005 84.2159 12.5541 84.6695C13.0077 85.1231 13.623 85.3779 14.2645 85.3779H67.4786C68.1201 85.3779 68.7353 85.1231 69.1889 84.6695C69.6426 84.2159 69.8974 83.6006 69.8974 82.9591V73.2838C69.8974 72.6423 69.6426 72.0271 69.1889 71.5734C68.7353 71.1198 68.1201 70.865 67.4786 70.865ZM31.1962 15.2321C31.1962 14.5905 31.4511 13.9753 31.9047 13.5217C32.3583 13.0681 32.9735 12.8132 33.615 12.8132H48.128C48.7695 12.8132 49.3847 13.0681 49.8384 13.5217C50.292 13.9753 50.5468 14.5905 50.5468 15.2321V22.4885H31.1962V15.2321ZM88.5417 37.7078L78.8664 28.0325C78.6417 27.8072 78.3748 27.6285 78.0809 27.5066C77.7871 27.3846 77.472 27.3218 77.1539 27.3218C76.8357 27.3218 76.5207 27.3846 76.2268 27.5066C75.9329 27.6285 75.666 27.8072 75.4413 28.0325L46.4155 57.0583C46.191 57.2834 46.0131 57.5505 45.8919 57.8443C45.7707 58.1382 45.7086 58.453 45.7092 58.7709V68.4462C45.7092 69.0877 45.964 69.7029 46.4176 70.1565C46.8712 70.6101 47.4865 70.865 48.128 70.865H57.8033C58.1211 70.8656 58.436 70.8035 58.7298 70.6823C59.0237 70.5611 59.2908 70.3832 59.5158 70.1587L88.5417 41.1328C88.7669 40.9081 88.9456 40.6412 89.0676 40.3473C89.1895 40.0535 89.2523 39.7384 89.2523 39.4203C89.2523 39.1021 89.1895 38.7871 89.0676 38.4932C88.9456 38.1994 88.7669 37.9324 88.5417 37.7078ZM50.5468 66.0273V59.7723L77.1539 33.1652L83.4089 39.4203L56.8019 66.0273H50.5468ZM40.8715 68.4462C40.8715 69.0877 40.6167 69.7029 40.1631 70.1565C39.7094 70.6101 39.0942 70.865 38.4527 70.865H28.7774C28.1359 70.865 27.5207 70.6101 27.067 70.1565C26.6134 69.7029 26.3586 69.0877 26.3586 68.4462C26.3586 67.8046 26.6134 67.1894 27.067 66.7358C27.5207 66.2822 28.1359 66.0273 28.7774 66.0273H38.4527C39.0942 66.0273 39.7094 66.2822 40.1631 66.7358C40.6167 67.1894 40.8715 67.8046 40.8715 68.4462ZM40.8715 53.9332C40.8715 54.5747 40.6167 55.19 40.1631 55.6436C39.7094 56.0972 39.0942 56.352 38.4527 56.352H28.7774C28.1359 56.352 27.5207 56.0972 27.067 55.6436C26.6134 55.19 26.3586 54.5747 26.3586 53.9332C26.3586 53.2917 26.6134 52.6765 27.067 52.2229C27.5207 51.7692 28.1359 51.5144 28.7774 51.5144H38.4527C39.0942 51.5144 39.7094 51.7692 40.1631 52.2229C40.6167 52.6765 40.8715 53.2917 40.8715 53.9332ZM52.9656 41.8391H28.7774C28.1359 41.8391 27.5207 41.5843 27.067 41.1307C26.6134 40.677 26.3586 40.0618 26.3586 39.4203C26.3586 38.7788 26.6134 38.1635 27.067 37.7099C27.5207 37.2563 28.1359 37.0015 28.7774 37.0015H52.9656C53.6071 37.0015 54.2224 37.2563 54.676 37.7099C55.1296 38.1635 55.3845 38.7788 55.3845 39.4203C55.3845 40.0618 55.1296 40.677 54.676 41.1307C54.2224 41.5843 53.6071 41.8391 52.9656 41.8391Z" fill="white"/>
</g>
<defs>
<clipPath id="clip0_2685_124">
<rect width="77.4023" height="77.4023" fill="white" transform="translate(11.8456 7.97559)"/>
</clipPath>
</defs>
</svg>
