<svg width="84" height="84" viewBox="0 0 84 84" fill="none" xmlns="http://www.w3.org/2000/svg">
<g clip-path="url(#clip0_796_17098)">
<path d="M66.2813 45.15C62.0813 33.9937 50.6625 24.8062 54.6 11.1562C39.2438 12.4687 23.8875 13.9125 8.53126 15.225C1.18125 40.6875 32.9438 54.7312 25.4625 80.1937C39.375 72.975 53.8125 66.5437 67.5938 59.4562C69.0375 54.4687 67.8563 49.35 66.2813 45.15Z" fill="#93A2AA"/>
<path d="M8.6626 49.6125C12.7313 47.25 16.9313 44.8875 21.0001 42.3938C23.7563 44.8875 26.2501 47.6438 27.6938 50.925C23.3626 53.025 19.0313 55.2563 14.8313 57.3563C14.9626 55.3875 14.9626 53.55 14.8313 51.8438C12.8626 51.0563 10.7626 50.2688 8.6626 49.6125Z" fill="#933434"/>
<path d="M77.4376 43.8376C72.5814 30.9751 59.4564 20.4751 64.0501 4.7251C46.4626 6.3001 28.7439 7.8751 11.1564 9.4501C2.62517 38.5876 38.9814 54.7314 30.4502 84.0001C46.3314 75.7314 63.0001 68.3814 78.8814 60.1126C80.5876 54.3376 79.2751 48.5626 77.4376 43.8376Z" fill="#B0BDC6"/>
<path d="M0 30.1875C5.38125 28.6125 10.8938 26.9063 16.275 25.3313C18.9 29.0063 21 32.9438 21.9188 37.275C16.275 38.5875 10.7625 39.7688 5.11875 41.0813C5.90625 38.85 6.3 36.75 6.5625 34.5188C4.4625 32.9438 2.3625 31.6313 0 30.1875Z" fill="#ED4C5C"/>
<path d="M13.5189 6.5625C6.30013 34.65 43.4439 48.3 36.0939 76.3875C51.7126 67.9875 67.8564 60.2437 83.4751 51.8437C84.9189 46.3312 83.3439 40.8187 81.3751 36.4875C75.8626 24.4125 62.3439 14.9625 66.2814 0C48.6939 2.23125 31.1064 4.4625 13.5189 6.5625Z" fill="#D9E3E8"/>
<path d="M19.4248 16.2749C19.5561 17.3249 19.8186 18.3749 19.9498 19.2937L59.7186 11.4187C59.5873 10.6312 59.3248 9.84365 59.1936 9.05615C45.9373 11.5499 32.6811 13.9124 19.4248 16.2749Z" fill="#7D8B91"/>
<path d="M23.0996 27.4312C36.0934 24.2812 49.0871 21.1312 62.2121 17.9812C61.8183 17.1937 61.4246 16.5375 61.1621 15.75C48.0371 18.7687 34.9121 21.6562 21.7871 24.675C22.1809 25.5937 22.7059 26.5125 23.0996 27.4312Z" fill="#7D8B91"/>
<path d="M27.8248 34.9124C40.5561 31.2374 53.1561 27.5624 65.8873 23.8874C65.3623 23.2311 64.9686 22.4436 64.4436 21.7874C51.5811 25.3311 38.8498 28.7436 25.9873 32.2874C26.6436 33.2061 27.1686 34.1249 27.8248 34.9124Z" fill="#7D8B91"/>
<path d="M42 59.9813C42.2625 61.0313 42.3938 61.95 42.525 63C48.3 60.2438 54.2063 57.3562 59.9813 54.6C59.85 53.6812 59.7188 52.7625 59.4563 51.8438C53.6813 54.4688 47.9063 57.225 42 59.9813Z" fill="#7D8B91"/>
</g>
<defs>
<clipPath id="clip0_796_17098">
<rect width="84" height="84" fill="white"/>
</clipPath>
</defs>
</svg>
