<svg width="89" height="89" viewBox="0 0 89 89" fill="none" xmlns="http://www.w3.org/2000/svg">
<g clip-path="url(#clip0_2_24)">
<path d="M34.4516 22.9676C34.4516 13.469 26.7244 5.74176 17.2258 5.74176C7.72721 5.74176 0 13.469 0 22.9676V66.0321C0 75.5307 7.72721 83.2579 17.2258 83.2579C21.5782 83.2579 25.5459 81.6229 28.5819 78.9514H28.7097V78.8352C32.2237 75.68 34.4516 71.1166 34.4516 66.0321V22.9676ZM22.9677 17.2256C22.9677 20.3923 20.3925 22.9676 17.2258 22.9676C14.0591 22.9676 11.4839 20.3923 11.4839 17.2256C11.4839 14.059 14.0591 11.4837 17.2258 11.4837C20.3925 11.4837 22.9677 14.059 22.9677 17.2256ZM17.2258 80.3869C13.9931 80.3869 11.0173 79.3003 8.61577 77.4901C8.63013 74.3349 11.1968 71.774 14.3548 71.774H20.0968C23.2548 71.774 25.8215 74.3349 25.8358 77.4901C23.4343 79.3003 20.4585 80.3869 17.2258 80.3869ZM28.3537 75.0828C27.3015 71.5156 24.0013 68.903 20.0968 68.903H17.2258H14.3548C10.4503 68.903 7.15015 71.5156 6.09794 75.0828C4.08395 72.6109 2.87097 69.4615 2.87097 66.0321C2.87097 58.414 8.84115 52.1811 16.3459 51.7217C12.0078 52.1639 8.6129 55.8373 8.6129 60.2901C8.6129 65.0402 12.4758 68.903 17.2258 68.903C21.9758 68.903 25.8387 65.0402 25.8387 60.2901C25.8387 55.8373 22.4438 52.1639 18.1058 51.7217C25.6105 52.1811 31.5806 58.414 31.5806 66.0321C31.5806 69.4615 30.3677 72.6109 28.3537 75.0828ZM17.2258 54.5482C20.3925 54.5482 22.9677 57.1235 22.9677 60.2901C22.9677 63.4568 20.3925 66.0321 17.2258 66.0321C14.0591 66.0321 11.4839 63.4568 11.4839 60.2901C11.4839 57.1235 14.0591 54.5482 17.2258 54.5482ZM31.5806 56.5306C28.4929 51.8811 23.2146 48.8063 17.2258 48.8063C11.237 48.8063 5.95869 51.8811 2.87097 56.5306V32.469C5.95869 37.1186 11.237 40.1934 17.2258 40.1934C21.5782 40.1934 25.5459 38.5584 28.5819 35.8869H28.7097V35.7706C29.7978 34.7931 30.7696 33.6921 31.5806 32.469V56.5306ZM8.61577 34.4256C8.63013 31.2704 11.1968 28.7095 14.3548 28.7095H20.0968C23.2548 28.7095 25.8215 31.2704 25.8358 34.4256C23.4343 36.2357 20.4585 37.3224 17.2258 37.3224C13.9931 37.3224 11.0173 36.2357 8.61577 34.4256ZM28.3537 32.0183C27.3015 28.4511 24.0013 25.8385 20.0968 25.8385H17.2258H14.3548C10.4503 25.8385 7.15015 28.4511 6.09794 32.0183C4.08395 29.5464 2.87097 26.3969 2.87097 22.9676C2.87097 15.3495 8.84115 9.11658 16.3459 8.65723C12.0078 9.09936 8.6129 12.7728 8.6129 17.2256C8.6129 21.9756 12.4758 25.8385 17.2258 25.8385C21.9758 25.8385 25.8387 21.9756 25.8387 17.2256C25.8387 12.7728 22.4438 9.09936 18.1058 8.65723C25.6105 9.11658 31.5806 15.3495 31.5806 22.9676C31.5806 26.3969 30.3677 29.5464 28.3537 32.0183Z" fill="#F38332"/>
<path d="M71.7746 5.74141C62.276 5.74141 54.5488 13.4686 54.5488 22.9672V66.0317C54.5488 75.5303 62.276 83.2575 71.7746 83.2575C76.127 83.2575 80.0947 81.6225 83.1307 78.9511H83.2585V78.8348C86.7726 75.6796 89.0004 71.1162 89.0004 66.0317V22.9672C89.0004 13.4686 81.2732 5.74141 71.7746 5.74141ZM77.5166 17.2253C77.5166 20.392 74.9413 22.9672 71.7746 22.9672C68.608 22.9672 66.0327 20.392 66.0327 17.2253C66.0327 14.0586 68.608 11.4833 71.7746 11.4833C74.9413 11.4833 77.5166 14.0586 77.5166 17.2253ZM71.7746 80.3866C68.5419 80.3866 65.5662 79.2999 63.1646 77.4898C63.179 74.3346 65.7456 71.7737 68.9037 71.7737H74.6456C77.8037 71.7737 80.3703 74.3346 80.3847 77.4898C77.9831 79.2999 75.0073 80.3866 71.7746 80.3866ZM82.9025 75.0825C81.8503 71.5153 78.5501 68.9027 74.6456 68.9027H71.7746H68.9037C64.9992 68.9027 61.699 71.5153 60.6468 75.0825C58.6328 72.6106 57.4198 69.4611 57.4198 66.0317C57.4198 58.4136 63.39 52.1807 70.8947 51.7214C66.5567 52.1635 63.1617 55.8369 63.1617 60.2898C63.1617 65.0398 67.0246 68.9027 71.7746 68.9027C76.5247 68.9027 80.3875 65.0398 80.3875 60.2898C80.3875 55.8369 76.9926 52.1635 72.6546 51.7214C80.1593 52.1807 86.1295 58.4136 86.1295 66.0317C86.1295 69.4611 84.9165 72.6106 82.9025 75.0825ZM71.7746 54.5479C74.9413 54.5479 77.5166 57.1231 77.5166 60.2898C77.5166 63.4565 74.9413 66.0317 71.7746 66.0317C68.608 66.0317 66.0327 63.4565 66.0327 60.2898C66.0327 57.1231 68.608 54.5479 71.7746 54.5479ZM86.1295 56.5303C83.0417 51.8807 77.7635 48.8059 71.7746 48.8059C65.7858 48.8059 60.5075 51.8807 57.4198 56.5303V32.4687C60.5075 37.1182 65.7858 40.193 71.7746 40.193C76.127 40.193 80.0947 38.558 83.1307 35.8866H83.2585V35.7703C84.3466 34.7927 85.3184 33.6917 86.1295 32.4687V56.5303ZM63.1646 34.4252C63.179 31.2701 65.7456 28.7091 68.9037 28.7091H74.6456C77.8037 28.7091 80.3703 31.2701 80.3847 34.4252C77.9831 36.2354 75.0073 37.3221 71.7746 37.3221C68.5419 37.3221 65.5662 36.2354 63.1646 34.4252ZM82.9025 32.0179C81.8503 28.4508 78.5501 25.8382 74.6456 25.8382H71.7746H68.9037C64.9992 25.8382 61.699 28.4508 60.6468 32.0179C58.6328 29.546 57.4198 26.3966 57.4198 22.9672C57.4198 15.3491 63.39 9.11623 70.8947 8.65688C66.5567 9.09901 63.1617 12.7724 63.1617 17.2253C63.1617 21.9753 67.0246 25.8382 71.7746 25.8382C76.5247 25.8382 80.3875 21.9753 80.3875 17.2253C80.3875 12.7724 76.9926 9.09901 72.6546 8.65688C80.1593 9.11623 86.1295 15.3491 86.1295 22.9672C86.1295 26.3966 84.9165 29.546 82.9025 32.0179Z" fill="#F38332"/>
<path d="M30.8223 86.8535C31.7998 87.1708 32.7975 87.455 33.7908 87.7005L34.4799 84.9142C33.5511 84.6845 32.6181 84.4175 31.7065 84.1232L30.8223 86.8535Z" fill="#F38332"/>
<path d="M25.0994 84.5513C26.0267 85.0006 26.9756 85.4212 27.9216 85.8016L28.9925 83.1387C28.1082 82.7827 27.2196 82.3909 26.3526 81.9703L25.0994 84.5513Z" fill="#F38332"/>
<path d="M59.9922 83.1457L61.0631 85.8085C62.0162 85.4238 62.9651 85.0047 63.8852 84.5582L62.632 81.9758C61.7708 82.3921 60.8836 82.7868 59.9922 83.1457Z" fill="#F38332"/>
<path d="M43.042 86.1047L42.9473 88.9728C43.4612 88.9914 43.9794 89.0001 44.5005 89.0001C45.0129 89.0001 45.5225 88.9914 46.0307 88.9728L45.9331 86.1047C44.9756 86.1363 44.0023 86.1363 43.042 86.1047Z" fill="#F38332"/>
<path d="M54.5029 84.9171L55.1905 87.7034C56.1781 87.4594 57.1772 87.1766 58.1591 86.8593L57.2792 84.1262C56.359 84.4248 55.4245 84.6889 54.5029 84.9171Z" fill="#F38332"/>
<path d="M48.8154 85.9081L49.1097 88.7647C50.1232 88.6599 51.1524 88.5178 52.1673 88.3413L51.6735 85.5119C50.7261 85.6784 49.7643 85.8105 48.8154 85.9081Z" fill="#F38332"/>
<path d="M36.8115 88.3381C37.8178 88.5132 38.8456 88.6567 39.8662 88.7615L40.1634 85.9078C39.2088 85.8087 38.247 85.6738 37.3053 85.5102L36.8115 88.3381Z" fill="#F38332"/>
<path d="M40.1849 3.09186L39.8906 0.235245C38.8772 0.340035 37.848 0.482148 36.8331 0.658713L37.3269 3.48805C38.2743 3.32153 39.2361 3.18947 40.1849 3.09186Z" fill="#F38332"/>
<path d="M29.0083 5.85373L27.9374 3.1909C26.9842 3.57561 26.0354 3.99477 25.1152 4.44121L26.3684 7.02364C27.2297 6.60735 28.1168 6.2126 29.0083 5.85373Z" fill="#F38332"/>
<path d="M52.1888 0.661947C51.1825 0.486818 50.1547 0.34327 49.1341 0.23848L48.8369 3.09222C49.7915 3.19127 50.7533 3.32621 51.695 3.48985L52.1888 0.661947Z" fill="#F38332"/>
<path d="M63.9008 4.44875C62.9735 3.99944 62.0247 3.57884 61.0787 3.19844L60.0078 5.86126C60.8921 6.21726 61.7806 6.60915 62.6477 7.02975L63.9008 4.44875Z" fill="#F38332"/>
<path d="M30.8418 2.1387L31.7217 4.87186C32.6419 4.57471 33.575 4.30915 34.498 4.08091L33.8104 1.29463C32.8242 1.53866 31.8251 1.82289 30.8418 2.1387Z" fill="#F38332"/>
<path d="M58.1773 2.14587C57.1997 1.82863 56.202 1.5444 55.2087 1.29893L54.5197 4.08521C55.4484 4.31489 56.3815 4.58189 57.293 4.87616L58.1773 2.14587Z" fill="#F38332"/>
<path d="M45.9585 2.8952L46.0532 0.0270984C45.0326 -0.00878867 43.9947 -0.00878867 42.9698 0.0270984L43.0674 2.8952C44.0277 2.86505 45.001 2.86505 45.9585 2.8952Z" fill="#F38332"/>
<path d="M43.0516 61.6653L42.8104 64.5248C43.3688 64.5722 43.9315 64.5966 44.5 64.5966C45.0627 64.5966 45.6182 64.5736 46.1695 64.5291L45.934 61.6668C44.9852 61.7472 44.0004 61.7443 43.0516 61.6653Z" fill="#F38332"/>
<path d="M36.322 62.8496C37.347 63.3104 38.415 63.6851 39.4973 63.9636L40.2122 61.1816C39.2877 60.9447 38.3762 60.6232 37.4991 60.2299L36.322 62.8496Z" fill="#F38332"/>
<path d="M48.7725 61.1873L49.4873 63.9693C50.5682 63.6908 51.6363 63.3176 52.6626 62.8597L51.4913 60.2385C50.6113 60.6289 49.6955 60.949 48.7725 61.1873Z" fill="#F38332"/>
<path d="M48.7881 27.8169C49.7125 28.0537 50.6241 28.3753 51.5011 28.7686L52.6782 26.1503C51.6533 25.6895 50.5853 25.3148 49.503 25.0363L48.7881 27.8169Z" fill="#F38332"/>
<path d="M36.3378 26.1414L37.5092 28.7626C38.3877 28.3707 39.3035 28.0506 40.228 27.8123L39.5131 25.0303C38.4322 25.3103 37.3642 25.6835 36.3378 26.1414Z" fill="#F38332"/>
<path d="M42.8301 24.4704L43.0655 27.3327C44.0144 27.2552 44.9991 27.2566 45.9479 27.3342L46.1891 24.4747C45.078 24.3785 43.9383 24.3799 42.8301 24.4704Z" fill="#F38332"/>
</g>
<defs>
<clipPath id="clip0_2_24">
<rect width="89" height="89" fill="white"/>
</clipPath>
</defs>
</svg>
