<svg width="94" height="94" viewBox="0 0 94 94" fill="none" xmlns="http://www.w3.org/2000/svg">
<path d="M91.0625 5.875H76.375V2.9375C76.375 2.15843 76.0655 1.41126 75.5146 0.860374C74.9637 0.309486 74.2166 0 73.4375 0L20.5625 0C19.7834 0 19.0363 0.309486 18.4854 0.860374C17.9345 1.41126 17.625 2.15843 17.625 2.9375V5.875H2.9375C2.15843 5.875 1.41126 6.18449 0.860372 6.73537C0.309483 7.28626 0 8.03343 0 8.8125V20.5625C0.017029 25.5933 1.88146 30.4426 5.23909 34.1891C8.59671 37.9356 13.2136 40.3181 18.2125 40.8841C19.4416 47.0451 22.617 52.6485 27.2708 56.8687C31.9247 61.0889 37.811 63.7029 44.0625 64.3254V76.375H38.1875C34.2921 76.375 30.5563 77.9224 27.8019 80.6769C25.0474 83.4313 23.5 87.1671 23.5 91.0625C23.5 91.8416 23.8095 92.5887 24.3604 93.1396C24.9113 93.6905 25.6584 94 26.4375 94H67.5625C68.3416 94 69.0887 93.6905 69.6396 93.1396C70.1905 92.5887 70.5 91.8416 70.5 91.0625C70.5 87.1671 68.9526 83.4313 66.1981 80.6769C63.4437 77.9224 59.7079 76.375 55.8125 76.375H49.9375V64.3254C56.189 63.7029 62.0753 61.0889 66.7291 56.8687C71.383 52.6485 74.5584 47.0451 75.7875 40.8841C80.7864 40.3181 85.4033 37.9356 88.7609 34.1891C92.1185 30.4426 93.983 25.5933 94 20.5625V8.8125C94 8.03343 93.6905 7.28626 93.1396 6.73537C92.5887 6.18449 91.8416 5.875 91.0625 5.875ZM64.1198 88.125H29.8803C30.4876 86.4071 31.6126 84.9196 33.1003 83.8675C34.5881 82.8154 36.3653 82.2503 38.1875 82.25H55.8125C57.6347 82.2503 59.4119 82.8154 60.8997 83.8675C62.3874 84.9196 63.5124 86.4071 64.1198 88.125ZM5.875 20.5625V11.75H17.625V34.9562C14.3075 34.2791 11.3258 32.4765 9.18466 29.8535C7.04349 27.2306 5.87431 23.9484 5.875 20.5625ZM47 58.75C40.7674 58.75 34.7901 56.2741 30.383 51.867C25.9759 47.4599 23.5 41.4826 23.5 35.25V5.875H70.5V35.25C70.5 41.4826 68.0241 47.4599 63.617 51.867C59.2099 56.2741 53.2326 58.75 47 58.75ZM88.125 20.5625C88.1257 23.9484 86.9565 27.2306 84.8153 29.8535C82.6742 32.4765 79.6925 34.2791 76.375 34.9562V11.75H88.125V20.5625ZM87.2673 71.3577C87.5408 71.6306 87.7578 71.9548 87.9059 72.3117C88.054 72.6685 88.1302 73.0511 88.1302 73.4375C88.1302 73.8239 88.054 74.2065 87.9059 74.5633C87.7578 74.9202 87.5408 75.2444 87.2673 75.5173C86.9939 75.7899 86.6696 76.0059 86.3127 76.1531C85.9559 76.3003 85.5735 76.3757 85.1875 76.375C84.8015 76.3757 84.4191 76.3003 84.0623 76.1531C83.7054 76.0059 83.3811 75.7899 83.1077 75.5173L71.3577 63.7673C71.0842 63.4944 70.8672 63.1702 70.7191 62.8133C70.571 62.4565 70.4948 62.0739 70.4948 61.6875C70.4948 61.3011 70.571 60.9185 70.7191 60.5617C70.8672 60.2048 71.0842 59.8806 71.3577 59.6077C71.6306 59.3342 71.9548 59.1172 72.3117 58.9691C72.6685 58.821 73.0511 58.7448 73.4375 58.7448C73.8239 58.7448 74.2065 58.821 74.5633 58.9691C74.9202 59.1172 75.2444 59.3342 75.5173 59.6077L87.2673 71.3577ZM22.6423 63.7673L10.8923 75.5173C10.619 75.7899 10.2946 76.0059 9.93774 76.1531C9.58088 76.3003 9.19852 76.3757 8.8125 76.375C8.42648 76.3757 8.04412 76.3003 7.68726 76.1531C7.3304 76.0059 7.00605 75.7899 6.73275 75.5173C6.45919 75.2444 6.24215 74.9202 6.09406 74.5633C5.94597 74.2065 5.86974 73.8239 5.86974 73.4375C5.86974 73.0511 5.94597 72.6685 6.09406 72.3117C6.24215 71.9548 6.45919 71.6306 6.73275 71.3577L18.4827 59.6077C18.7556 59.3342 19.0798 59.1172 19.4367 58.9691C19.7935 58.821 20.1761 58.7448 20.5625 58.7448C20.9489 58.7448 21.3315 58.821 21.6883 58.9691C22.0452 59.1172 22.3694 59.3342 22.6423 59.6077C22.9158 59.8806 23.1329 60.2048 23.2809 60.5617C23.429 60.9185 23.5053 61.3011 23.5053 61.6875C23.5053 62.0739 23.429 62.4565 23.2809 62.8133C23.1329 63.1702 22.9158 63.4944 22.6423 63.7673ZM79.3125 52.875C78.5334 52.875 77.7863 52.5655 77.2354 52.0146C76.6845 51.4637 76.375 50.7166 76.375 49.9375C76.375 49.1584 76.6845 48.4113 77.2354 47.8604C77.7863 47.3095 78.5334 47 79.3125 47C80.0916 47 80.8387 47.3095 81.3896 47.8604C81.9405 48.4113 82.25 49.1584 82.25 49.9375C82.25 50.7166 81.9405 51.4637 81.3896 52.0146C80.8387 52.5655 80.0916 52.875 79.3125 52.875ZM14.6875 52.875C13.9084 52.875 13.1613 52.5655 12.6104 52.0146C12.0595 51.4637 11.75 50.7166 11.75 49.9375C11.75 49.1584 12.0595 48.4113 12.6104 47.8604C13.1613 47.3095 13.9084 47 14.6875 47C15.4666 47 16.2137 47.3095 16.7646 47.8604C17.3155 48.4113 17.625 49.1584 17.625 49.9375C17.625 50.7166 17.3155 51.4637 16.7646 52.0146C16.2137 52.5655 15.4666 52.875 14.6875 52.875ZM61.6875 64.625C62.4666 64.625 63.2137 64.9345 63.7646 65.4854C64.3155 66.0363 64.625 66.7834 64.625 67.5625C64.625 68.3416 64.3155 69.0887 63.7646 69.6396C63.2137 70.1905 62.4666 70.5 61.6875 70.5C60.9084 70.5 60.1613 70.1905 59.6104 69.6396C59.0595 69.0887 58.75 68.3416 58.75 67.5625C58.75 66.7834 59.0595 66.0363 59.6104 65.4854C60.1613 64.9345 60.9084 64.625 61.6875 64.625ZM32.3125 70.5C31.5334 70.5 30.7863 70.1905 30.2354 69.6396C29.6845 69.0887 29.375 68.3416 29.375 67.5625C29.375 66.7834 29.6845 66.0363 30.2354 65.4854C30.7863 64.9345 31.5334 64.625 32.3125 64.625C33.0916 64.625 33.8387 64.9345 34.3896 65.4854C34.9405 66.0363 35.25 66.7834 35.25 67.5625C35.25 68.3416 34.9405 69.0887 34.3896 69.6396C33.8387 70.1905 33.0916 70.5 32.3125 70.5Z" fill="white"/>
</svg>
