<svg width="379" height="107" viewBox="0 0 379 107" fill="none" xmlns="http://www.w3.org/2000/svg">
<path d="M189.322 45.5148C98.1639 45.5148 24.2673 50.1686 24.2673 55.9094C24.2673 56.2312 24.075 57.3299 24.5262 57.6438C32.1545 62.9412 103.214 66.0058 189.275 66.0058C277.585 66.0058 349.912 62.9647 354.33 57.4712C354.471 57.2946 354.373 56.0899 354.373 55.9016C354.381 50.1686 280.484 45.5148 189.322 45.5148Z" fill="#231F20"/>
<path d="M189.323 66.308C280.482 66.308 354.381 62.2357 354.381 57.2122C354.381 52.1887 280.482 48.1164 189.323 48.1164C98.1631 48.1164 24.2637 52.1887 24.2637 57.2122C24.2637 62.2357 98.1631 66.308 189.323 66.308Z" fill="#231F20"/>
<path d="M376.952 51.0554C378.208 49.0189 379.42 47.6337 378.859 47.6337C377.183 47.6604 375.51 47.4852 373.876 47.1118C371.129 46.5703 367.256 45.9895 365.733 44.6005C365.733 44.6005 365.777 39.7896 365.906 38.4045C366.036 37.0193 365.906 35.2849 365.211 34.1156C364.517 32.9462 362.398 30.9096 361.138 29.9561C359.879 29.0026 359.537 28.4414 359.365 28.0961C359.192 27.7508 359.235 27.0092 358.8 26.2754C358.437 25.8146 357.934 25.4842 357.367 25.3337C357.313 25.2531 357.263 25.1692 357.218 25.0825C357.155 24.9099 357.242 24.3919 357.371 24.3683C357.501 24.3448 357.697 24.4978 358.066 24.7607C358.023 24.6077 357.999 24.5214 357.587 24.282C357.799 24.2945 358.006 24.3533 358.193 24.4543C358.381 24.5553 358.543 24.6961 358.67 24.8667C358.584 24.4743 358.411 24.3723 357.76 24.0819C358.344 23.6895 359.212 22.0885 359.235 21.1585C359.514 21.1154 360.055 20.7465 360.86 19.8793C361.664 19.0121 362.547 16.7401 362.092 14.2915C361.637 11.843 360.036 12.0195 359.926 12.1255C359.816 12.2314 359.494 11.9764 359.384 11.6271C359.274 11.2779 358.823 11.1955 358.647 11.0856C358.47 10.9758 358.301 10.395 357.862 9.85349C357.422 9.31198 355.998 9.76323 355.696 9.91627C351.972 7.42453 346.231 11.7566 345.474 12.8828C344.716 14.009 345.081 14.3347 344.909 14.6604C344.671 15.0706 344.53 15.5295 344.497 16.0024C344.417 16.6812 344.264 17.3495 344.042 17.9958C343.968 18.1675 343.932 18.353 343.936 18.5399C343.94 18.7267 343.984 18.9105 344.065 19.0788C344.222 19.4013 344.282 19.7626 344.238 20.1187C344.214 20.4443 343.567 21.2684 342.982 22.2847C342.397 23.301 343.767 23.1284 344.128 23.0695C344.489 23.0106 344.52 23.2186 344.52 23.5443C344.52 23.87 344.544 24.0858 344.846 24.129C344.917 24.1533 344.982 24.1931 345.037 24.2454C345.091 24.2977 345.133 24.3613 345.16 24.4316C345.187 24.502 345.198 24.5775 345.193 24.6527C345.187 24.7279 345.165 24.8009 345.128 24.8667C345.067 24.9947 345.056 25.1407 345.096 25.2767C345.135 25.4128 345.224 25.5295 345.344 25.6044C345.56 25.7104 345.517 26.1028 345.517 26.7306C345.517 27.3584 345.929 27.7038 346.6 27.7901C347.425 27.8619 348.243 27.993 349.049 28.1825C349.657 28.3787 349.833 29.5049 349.833 29.5049C347.871 29.8973 346.843 31.6709 345.933 32.9266C344.957 34.3143 344.288 35.8942 343.971 37.5608C343.819 38.666 343.791 39.7846 343.885 40.8962C343.885 41.3749 343.323 42.3716 343.064 42.8033C342.751 43.0936 343.021 43.6548 343.359 44.1374C342.837 45.4402 342.966 47.0412 343.057 47.9084C343.092 48.2733 343.119 48.6932 343.135 49.1288C342.883 50.0197 342.507 50.8704 342.017 51.6558C341.864 51.8716 341.432 51.7421 339.352 51.5695C337.273 51.3968 334.91 50.7847 333.329 49.6428C331.748 48.5009 330.751 49.8586 330.382 50.4276C330.013 50.9966 331.559 52.574 332.309 53.1155C333.058 53.657 336.103 55.7368 338.615 56.3646C341.126 56.9924 342.601 57.1494 342.931 57.2318L343.276 57.326C343.733 58.0178 344.392 58.5521 345.164 58.8563L345.258 58.8995C345.203 59.1624 345.081 59.7314 344.972 60.316C339.631 60.6692 332.415 61.1754 331.343 61.2578C329.652 61.3873 330.865 62.6901 331.214 62.8274H331.324L331.136 64.4323C331.136 64.4323 337.598 64.087 344.34 63.7378C344.253 63.9657 344.119 64.1729 343.947 64.346C343.473 64.7816 342.735 65.3859 342.346 65.7783C341.958 66.1707 341.004 66.2099 340.31 66.2099C339.615 66.2099 333.337 66.0373 331.257 66.1236C329.177 66.2099 324.539 66.4689 323.017 69.0705C322.138 70.5734 321.785 72.398 321.632 74.0383C319.807 74.4307 318.657 74.8976 321.549 75.3136C321.518 76.0003 321.51 76.6242 321.502 77.1264C321.455 79.0335 321.502 82.3689 321.412 83.8404C321.356 85.1134 321.168 86.3771 320.851 87.6114C320.592 88.4786 320.329 89.3418 320.329 89.3418C320.872 89.8121 321.475 90.208 322.122 90.519C322.189 91.1587 322.475 94.0271 322.322 95.0277C322.15 96.1539 320.937 98.6653 320.199 99.4461C319.46 100.214 318.765 101.023 318.12 101.871C318.049 101.973 317.971 102.067 317.896 102.158C317.896 102.148 317.896 102.139 317.896 102.13C317.823 102.202 317.755 102.278 317.692 102.358C316.593 103.5 315.53 103.704 314.431 103.927C313.855 104.019 313.289 104.163 312.74 104.359C310.966 106.482 321.926 104.492 322.577 104.492C323.229 104.492 324.006 104.057 324.653 103.708C324.835 103.608 325.033 103.539 325.238 103.504C325.728 104.626 326.65 105.23 327.985 105.395C330.064 105.658 344.489 105.787 347.565 105.787C350.642 105.787 377.388 105.874 377.388 105.874C378.172 105.83 378.73 105.571 378.514 104.877C378.298 104.182 377.647 104.182 376.348 104.226C375.139 104.269 349.445 104.269 344.304 104.269L344.273 104.249C343.959 104.037 343.037 103.327 343.037 102.287C343.037 101.035 343.119 77.6954 343.123 77.4247L344.12 77.5463C347.652 78.025 356.677 78.7627 361.88 77.9819C367.083 77.201 370.199 77.6797 370.674 74.1678C371.023 71.6054 371.125 69.1725 371.694 66.0215C371.694 66.0922 371.694 66.1589 371.67 66.2178C372.969 66.0883 376.305 65.8528 377.164 65.6331C378.023 65.4133 378.486 64.3342 377.317 63.9026C376.811 63.7142 374.664 63.2434 372.396 62.7646L372.542 62.1996C373.931 56.9846 375.696 53.0959 376.952 51.0554ZM331.897 95.118C331.724 97.2408 331.595 97.802 331.03 98.6692C330.594 99.2818 330.085 99.8391 329.515 100.329C329.494 100.067 329.421 99.8122 329.299 99.5795C328.907 98.5828 328.561 98.3239 328.259 97.7156C327.957 97.1074 327.867 95.8517 327.91 94.9021C328.033 93.8272 328.22 92.7605 328.471 91.708C328.671 91.708 328.863 91.6766 329.083 91.6531C329.083 91.6531 329.111 91.6021 329.162 91.4844V91.5118C329.174 91.4835 329.189 91.456 329.205 91.4294L329.177 91.4844C329.304 91.3277 329.487 91.2275 329.688 91.2057C330.033 91.2332 330.629 91.2725 331.351 91.2882C331.8 92.5122 331.986 93.8172 331.897 95.118ZM337.292 104.198L334.545 104.163C334.938 103.927 335.424 103.637 335.962 103.378C336.284 103.223 336.644 103.166 336.998 103.213H337.061C337.192 103.316 337.278 103.467 337.3 103.633L337.292 104.198ZM340.125 104.233C340.165 103.884 340.223 103.323 340.302 102.664C340.408 101.902 340.433 101.131 340.377 100.364C340.412 100.513 340.42 100.588 340.412 100.498C340.404 100.086 340.298 99.6825 340.102 99.3206C340.037 99.217 339.96 99.1209 339.874 99.0341C339.626 98.4897 339.288 97.9909 338.874 97.5587C338.438 97.0839 337.963 95.7379 337.791 94.8747C337.442 93.4131 337.197 91.9287 337.057 90.4327C337.238 90.3399 337.41 90.2309 337.571 90.107C337.178 88.5374 336.967 88.2 336.751 87.2935C336.535 86.3871 336.488 85.257 336.358 84.6919C336.229 84.1268 335.668 82.6985 335.625 82.0079C335.616 81.0884 335.544 80.1706 335.409 79.2611C335.232 78.5234 334.455 77.095 335.059 76.5771C337.292 76.7968 339.572 77.0244 341.377 77.2206L341.248 101.753C341.26 102.293 341.373 102.825 341.581 103.323C341.73 103.674 341.945 103.994 342.213 104.265L340.125 104.233Z" fill="#231F20"/>
<path d="M74.1295 86.3243C72.3755 86.2576 71.0767 85.0882 70.233 84.5036C69.3893 83.9189 68.2161 82.934 68.2161 82.934C68.3699 82.8465 68.4835 82.7023 68.5326 82.5323C68.5817 82.3622 68.5625 82.1797 68.479 82.0236C68.2161 81.3722 67.6942 79.2768 66.9839 78.4489C66.2737 77.6209 66.1991 75.3096 65.4143 73.9009C64.6295 72.4922 63.0129 68.2465 61.7768 65.7783C60.5407 63.3101 59.9561 61.3559 58.202 60.7713C57.2532 60.4978 56.2642 60.3902 55.2787 60.4534C54.9797 60.1926 54.6405 59.9818 54.2741 59.8295C52.8733 59.2801 47.4817 58.8446 45.9199 58.77L40.3479 58.4679H40.548C41.2566 58.4162 41.9688 58.4451 42.6709 58.5542C42.5866 57.88 42.4124 57.2201 42.1529 56.5922C41.5838 55.7106 40.8988 54.9095 40.1163 54.2103C39.5081 53.6884 38.9038 52.9115 38.4251 52.7781C37.9464 52.6447 37.6403 52.6486 37.2989 52.2601C36.9575 51.8716 36.4317 51.3066 36.2159 51.0829C35.8136 50.4982 35.3162 49.9849 34.7444 49.5643C33.9204 49.0464 32.1428 46.9667 32.0565 46.4487C31.9701 45.9307 31.7543 44.7575 30.2828 43.023C28.8113 41.2886 28.6347 41.2062 27.8107 39.9074C26.9867 38.6086 26.5982 37.1606 24.4321 36.3523C23.184 35.8674 21.8825 35.5328 20.5552 35.3555C20.8079 35.0798 21.1307 34.8777 21.4892 34.7709C21.964 34.6845 23.1765 34.6649 23.1765 33.6682C23.1765 33.6682 23.047 32.7265 23.1765 32.5617C23.2596 32.4454 23.3181 32.3134 23.3484 32.1737C23.3788 32.0341 23.3804 31.8897 23.3531 31.7494C23.2589 31.4904 23.1922 31.357 23.1451 31.2314C23.4041 31.2628 23.5375 31.0195 23.5963 30.839C23.6552 30.6585 23.4512 30.223 23.5179 30.0542C23.7101 29.8894 24.2006 29.7128 24.1339 29.3204C24.0672 28.928 23.8436 28.4297 23.9063 28.0726C24.1496 27.8607 24.801 27.6174 24.8481 26.609C24.9619 26.609 24.9619 26.5109 24.9619 26.2362C24.9616 26.0664 24.9459 25.8969 24.9148 25.73L23.663 25.471C23.663 25.471 23.5414 25.471 23.5963 25.1296C23.667 24.7372 23.4315 24.5449 23.2785 24.1996C23.1255 23.8543 22.8861 22.1945 22.274 21.0055C22.4152 20.8132 22.8037 19.8283 22.478 19.2829C21.8855 18.3254 20.516 17.1364 19.4448 16.4654C18.3735 15.7944 17.3886 14.5388 14.116 15.4256C13.4521 15.5529 12.7788 15.6251 12.103 15.6414C11.3182 15.6846 8.17897 16.6813 6.70747 19.1965C5.23597 21.7118 5.66761 22.1199 5.60483 22.6183C5.59516 22.863 5.50488 23.0976 5.34804 23.2856C5.1912 23.4737 4.9766 23.6047 4.73763 23.6581C4.10979 23.8739 3.2622 24.7412 4.4551 26.3421C5.64799 27.9431 5.95014 28.9202 5.38901 29.4421C4.82788 29.964 3.32891 30.6546 4.30206 32.5813C5.27521 34.508 6.03647 34.7905 6.31899 35.2221C6.60152 35.6538 6.60152 36.5013 7.40202 36.5013C8.20251 36.5013 8.5282 36.2463 8.66947 36.3797L8.54782 36.4346L8.74795 36.8781C8.6844 36.9382 8.63135 37.0085 8.59099 37.086C8.5056 37.2601 8.4834 37.4585 8.5282 37.6472C8.5282 37.8669 8.28884 38.1691 8.15935 38.4712C8.02986 38.7733 7.09987 39.8564 6.73101 40.6804C6.36216 41.5044 6.33861 42.3049 6.12279 42.5875C5.76064 43.2106 5.53462 43.9033 5.45964 44.6201C3.53688 45.1184 1.9869 45.4049 1.22957 45.3617C-0.00648418 45.295 0.334905 45.4284 0.578192 45.7541C2.05533 47.6992 3.40161 49.7402 4.60813 51.8638C6.07654 54.5981 7.21841 57.4956 8.01023 60.4966C5.67938 60.9635 3.34461 61.4344 2.70107 61.6031C1.35907 61.9485 2.04969 63.4631 3.13271 63.6397C4.21573 63.8163 8.68516 63.9889 8.68516 63.9889C9.2149 67.599 9.17566 68.9293 9.35616 70.6597C9.54844 72.5276 10.3293 76.7498 15.5914 77.2717C20.8535 77.7935 34.5678 76.5575 37.6207 76.0945L37.9385 76.0474C37.9385 76.4712 38.4055 93.9251 38.6174 97.9511C38.8254 101.816 37.1184 102.322 35.7921 102.55L33.991 102.644C27.7126 102.75 5.37724 102.581 4.65522 102.57C3.83118 102.57 2.66183 102.499 2.66183 103.429C2.6526 103.678 2.73615 103.922 2.89632 104.114C3.0565 104.305 3.28193 104.43 3.52903 104.465H52.4652C53.0329 104.462 53.593 104.334 54.1053 104.089C54.6175 103.844 55.0692 103.489 55.4278 103.048C58.7671 103.127 62.0986 103.19 62.2398 103.127C62.4988 102.997 63.2797 102.997 63.0835 102.283C62.8873 101.569 62.1731 101.373 61.0038 100.918C60.4971 100.705 60.0066 100.456 59.5362 100.172L59.3557 100.066C58.5473 99.5835 57.7351 99.0459 57.1661 98.7045C56.9061 98.5449 56.6998 98.3112 56.5736 98.0335C56.5736 97.8373 56.5736 97.3743 56.5736 96.6954C56.9464 96.5816 57.8057 96.303 58.4022 96.1696C59.187 95.9734 62.2987 94.3489 62.2987 94.3489C62.2987 94.3489 61.9769 91.2293 61.6512 89.9305C61.4079 88.9534 61.1254 85.9241 60.9998 84.4761C60.9998 84.4761 60.9998 84.4133 60.9998 84.3388L60.9488 83.6913C60.9488 83.6913 61.922 83.3656 61.7336 83.9503C61.594 84.3564 61.4207 84.7502 61.2157 85.1275C61.2309 85.9769 61.3175 86.8236 61.4746 87.6585C62.2594 88.3766 65.0494 89.0907 66.0226 89.3497C66.9957 89.6087 69.923 90.7153 71.418 90.7153C72.9131 90.7153 76.4878 89.4164 77.0725 89.1457C77.6572 88.8749 78.3046 88.4315 77.72 87.1837C77.1353 85.9358 75.8718 86.3714 74.1295 86.3243ZM23.7023 26.2872C24.0041 26.2915 24.3009 26.3653 24.5695 26.503C24.5695 26.503 24.8285 27.6292 23.922 27.7587C23.922 27.7509 23.357 26.3343 23.7023 26.2793V26.2872ZM22.274 20.8407C22.2583 20.8884 22.2452 20.9368 22.2347 20.9859C22.0369 20.5787 21.7367 20.2298 21.3636 19.9735C21.3636 19.9735 22.6232 19.7812 22.274 20.8407ZM8.37909 62.1917L7.65315 62.2349L8.36732 62.0819C8.39086 62.2153 8.41833 62.3526 8.44188 62.4743L8.37909 62.1917ZM8.49681 62.8C8.49681 62.9059 8.53605 63.0158 8.55175 63.1257V63.161C8.52428 63.0275 8.50073 62.902 8.48504 62.8H8.49681ZM49.7733 98.2807C49.1886 98.2807 49.0591 98.214 48.6707 99.1911C47.9369 101.153 48.4745 102.503 48.6314 102.821C45.4922 102.821 40.7834 102.785 39.0961 102.785C39.6428 102.125 39.9935 101.324 40.1085 100.474C40.3282 99.2029 40.2223 97.7 40.2223 95.8086C40.2223 92.7008 39.8613 76.3691 39.8299 75.7962C41.2896 75.6079 42.7611 75.4509 43.9344 75.4038C44.797 75.5871 45.6778 75.6714 46.5595 75.655C47.0697 76.3299 47.5366 76.9734 47.8035 77.2913C48.0784 77.6117 48.2793 77.9888 48.3919 78.3958C48.5045 78.8027 48.526 79.2295 48.4548 79.6457C48.3881 80.3912 47.9369 80.9798 48.2586 81.8039C48.5804 82.6279 49.4358 82.9301 49.169 83.707C48.9878 84.4421 48.9664 85.2075 49.1062 85.9515C49.169 86.5048 49.4986 89.0358 49.5614 89.8755C49.6242 90.7153 49.2357 92.6223 49.2357 93.7132C49.3222 94.8716 49.4954 96.0219 49.7537 97.1545C49.7615 97.4998 50.0205 97.8255 49.7615 98.2807H49.7733Z" fill="#231F20"/>
<path d="M106.113 70.2084C106.015 68.6153 105.399 66.4689 103.61 65.429C102.992 65.0933 102.354 64.7971 101.699 64.5422C101.699 64.24 101.671 63.9261 101.636 63.6083C101.741 63.6967 101.866 63.7578 102 63.7859C102.134 63.814 102.273 63.8084 102.405 63.7695C102.536 63.7306 102.656 63.6596 102.753 63.563C102.851 63.4664 102.922 63.3471 102.962 63.2159C102.958 61.9262 102.561 60.6684 101.824 59.6097C100.784 58.0401 98.9008 57.8871 97.4371 57.6948C95.9735 57.5025 87.6272 56.1998 86.6501 56.1252C86.1439 56.0938 85.3669 55.98 84.5939 55.9369C84.5575 55.7241 84.5352 55.5091 84.5272 55.2933C84.4958 54.2221 84.0092 53.2136 84.2682 51.8284C84.4487 50.871 84.4605 49.4387 84.5664 48.1987C84.9353 46.3505 85.5121 43.9098 85.5121 43.9098C86.0677 44.5712 86.7137 45.1511 87.431 45.6325C88.7926 46.6056 90.8017 48.132 92.3673 48.752C93.7996 49.3132 96.1069 49.1091 96.6837 48.9129C97.2606 48.7167 98.371 48.8148 99.1519 48.752C99.9016 48.7246 100.635 48.5246 101.294 48.1674C101.848 47.8103 103.182 47.775 103.865 47.257C104.253 44.6484 103.915 41.9833 102.888 39.5542C102.888 39.5542 101.185 40.0879 100.612 40.3037C99.64 40.5763 98.6535 40.7925 97.6569 40.9511C96.6053 41.1709 95.9342 41.2572 95.0592 40.6294C94.2469 40.0447 93.8545 39.8446 93.5956 39.5895C92.9851 39.0745 92.4193 38.5087 91.9043 37.8983C91.4005 37.196 90.8359 36.5395 90.217 35.9363C89.789 35.5456 89.4166 35.098 89.1104 34.6061C88.7962 34.1026 88.5333 33.5689 88.3256 33.0129C88.149 32.6205 87.8037 32.2006 87.5761 31.7768C88.2275 29.3086 87.7056 27.2956 86.9287 26.1263C86.4103 25.3492 85.6238 24.7905 84.7195 24.5567C84.7655 24.462 84.792 24.359 84.7974 24.2538C84.8028 24.1486 84.787 24.0435 84.7509 23.9445C84.8474 23.8099 84.9144 23.6565 84.9475 23.4942C84.9806 23.3319 84.9791 23.1645 84.9431 23.0028C84.9118 22.7752 84.7509 22.5162 84.849 22.3828C85.0525 22.1732 85.2804 21.9888 85.5278 21.8335C85.6462 21.7661 85.7476 21.6724 85.8242 21.5596C85.9007 21.4469 85.9503 21.3181 85.9693 21.1832C85.9882 21.0483 85.976 20.9108 85.9335 20.7813C85.8909 20.6519 85.8193 20.5339 85.724 20.4365C85.206 19.7537 84.5861 19.1337 84.488 18.8434C84.5691 18.503 84.6022 18.153 84.5861 17.8035C84.5055 17.3861 84.4725 16.9609 84.488 16.5361C84.4811 15.2377 84.2045 13.9549 83.6757 12.769C82.8006 10.8502 80.9799 8.84502 78.5745 8.22895C76.1691 7.61289 73.8971 8.02492 73.4419 8.41339C73.0495 8.15441 71.0875 7.73061 69.8672 7.9582C68.6468 8.18579 65.6763 9.29237 65.2565 12.7337C65.0932 14.0491 65.0813 15.3789 65.2211 16.6969C65.2957 17.7682 65.3192 18.9061 65.386 19.5575C65.4478 20.4459 65.5883 21.327 65.8058 22.1905C65.8136 22.2045 65.8228 22.2176 65.8333 22.2298C65.0053 22.5515 63.7379 23.7052 62.5254 24.5606C61.1951 25.5024 59.602 26.1302 58.8211 26.7698C58.0402 27.4094 57.4556 28.0726 56.9376 28.4297C56.3495 28.8043 55.8501 29.3024 55.4739 29.8894C55.2464 30.376 55.1836 32.3262 55.3131 33.5937C55.4426 34.8611 55.572 36.0972 55.6034 36.7132C55.6244 36.9599 55.6677 37.2042 55.7329 37.4431C55.7063 37.4086 55.6851 37.3702 55.6701 37.3293C55.6701 37.3293 55.7369 37.5726 55.8506 37.859C55.9356 38.1335 56.005 38.4126 56.0586 38.6948C56.1172 39.2176 56.1013 39.7461 56.0115 40.2644C51.4958 40.6027 46.9607 40.5935 42.4463 40.237C44.9563 45.8649 46.7009 51.8037 47.6338 57.8949L44.3102 58.0323C44.3102 58.0323 42.2736 57.8596 42.6189 59.6019C42.8348 60.0767 43.3567 60.3357 44.0473 60.4259C44.7379 60.5162 47.7162 60.783 48.0105 60.8183L48.0341 61.0498C48.2303 63.3571 48.4578 68.0659 48.5559 69.2902C48.654 70.5145 49.2034 73.0926 52.582 73.3202H52.6565C53.8208 73.9825 55.0222 74.5773 56.2548 75.1017C57.8794 75.7217 58.7897 75.6236 59.3077 75.0036C59.5246 74.742 59.7226 74.4653 59.9002 74.1756C62.3802 74.4817 65.0014 74.776 67.2695 74.8741L67.0968 98.9281C67.0968 98.9281 67.3126 102.742 65.2329 102.785C63.1532 102.829 44.6987 102.958 44.6987 102.958C44.6987 102.958 43.031 102.625 42.9643 103.923C42.925 104.767 43.647 104.897 44.1415 104.951C44.1415 104.951 96.6484 105.167 99.0774 104.736C99.7935 104.63 100.453 104.286 100.949 103.759L101.145 103.668H102.107C103.57 103.668 105.791 103.613 105.791 103.613C105.791 103.613 106.745 102.138 104.222 101.62C103.653 101.502 102.589 101.228 101.844 101.004C101.844 100.659 101.844 99.9601 101.844 98.9909C101.894 98.9824 101.944 98.9706 101.993 98.9556C102.264 98.8654 102.33 98.6966 102.385 98.4376C102.385 98.3984 102.409 98.2924 102.428 98.1394L102.448 98.0178C102.479 97.853 102.519 97.5194 102.566 97.0956C102.715 95.9577 102.958 94.3057 103.174 92.897C103.307 92.226 103.441 91.551 103.566 90.884C103.606 90.6838 103.641 90.4916 103.676 90.2757C103.814 89.4674 103.927 88.6787 103.986 87.9449C104.116 86.3204 104.179 84.892 104.473 82.2276C104.767 79.5632 105.12 77.3854 105.12 77.3854L105.089 77.4914C105.25 76.53 105.403 75.6157 105.513 75.0467C105.693 74.2345 106.211 71.7977 106.113 70.2084ZM78.2017 100.78C77.9618 101.33 77.7981 101.909 77.7152 102.503C77.6943 102.73 77.6878 102.958 77.6955 103.186L68.066 103.303C68.3834 102.993 68.5925 102.588 68.6625 102.15C68.8805 101.487 69.0008 100.795 69.0196 100.097C69.1059 97.849 69.1059 75.035 69.1059 74.9526H69.2982C70.0516 74.9526 70.8011 74.9055 71.5427 74.8701C72.1251 76.2672 72.6346 77.6935 73.0691 79.1434C73.3948 80.5403 73.5557 82.9104 73.7833 83.5932C74.0109 84.2759 74.7251 89.8323 75.0821 91.0017C75.4392 92.171 75.7963 93.6347 75.7335 94.3802C75.6855 95.3499 75.8185 96.32 76.1259 97.2408C76.4202 97.955 77.3306 98.418 77.5582 99.0262C77.6547 99.3432 77.7989 99.6435 77.9859 99.917C77.9545 99.9641 77.9506 99.9994 77.9859 100.003H78.1193C78.2253 100.011 78.3312 100.396 78.2017 100.78ZM97.3077 60.9792C97.3077 60.9792 99.3638 61.2735 99.7052 63.7809C97.3508 62.9373 94.4628 62.0348 91.9357 61.3677C89.4086 60.7006 87.0582 60.1905 85.4415 59.8726C85.2492 59.7628 85.104 59.6804 85.0491 59.649C84.9996 59.6007 84.9596 59.5434 84.9314 59.4802C89.4047 59.9943 97.3077 60.9792 97.3077 60.9792ZM93.4072 80.093C93.2975 82.202 93.0352 84.3002 92.6224 86.3714C92.2732 87.7997 90.629 93.0421 90.4564 94.7766C90.2837 96.511 90.1856 96.6915 90.1856 96.8524C90.1856 96.9269 90.2994 97.0093 90.5113 97.0996C90.2837 98.7398 89.3969 98.1394 88.9809 100.631C88.8155 101.444 88.8836 102.288 89.1771 103.064H87.6075C87.4368 102.6 87.2073 102.159 86.9248 101.753C86.501 101.232 85.4297 99.9327 85.4925 99.1871C85.5553 98.4416 85.9791 98.5357 86.1753 98.5043C86.3726 98.4534 86.5485 98.3406 86.677 98.1824C86.8055 98.0242 86.88 97.829 86.8894 97.6254C86.8932 96.93 86.8499 96.2352 86.76 95.5457C86.6305 94.961 85.4297 93.0108 85.3944 92.069C85.3823 91.0228 85.2184 89.9839 84.9078 88.9847C84.5507 87.9096 83.7306 84.8567 83.7699 84.0758C83.8411 83.2109 83.8306 82.3411 83.7385 81.4782C83.609 80.5678 83.7071 77.252 83.6404 76.5732C83.5737 75.8943 83.5227 74.5484 83.4128 73.689L89.8795 73.0219C90.8174 73.1553 92.0495 73.3437 92.7401 73.4967C93.5249 73.6694 94.039 73.7126 94.0821 74.7093C94.1253 75.706 93.4072 78.9589 93.4072 80.093ZM98.8145 99.0773C99.2069 99.1243 99.6463 99.1557 100.074 99.1636C100.074 99.6815 100.074 100.094 100.074 100.372C99.5289 100.079 99.0886 99.6241 98.8145 99.0694V99.0773Z" fill="#231F20"/>
<path d="M214.112 34.2568C213.55 32.8677 213.464 32.7814 213.327 32.0908C213.189 31.4002 212.934 31.0509 212.981 30.1288C213.028 29.2066 212.938 29.0889 212.809 27.7469C212.679 26.4049 212.507 25.1453 211.855 24.0191C211.204 22.8929 210.513 22.8066 209.344 22.1984C208.175 21.5902 204.145 19.9029 203.709 19.7302C203.134 19.488 202.603 19.1511 202.139 18.7335C201.88 18.4314 200.711 17.9997 200.017 17.6936C199.322 17.3876 197.807 15.4413 197.505 14.8801L197.431 14.8487C197.631 14.1032 198.4 11.9332 198.879 10.6658C199.432 9.20213 200.083 4.88182 197.482 2.38224C194.88 -0.117347 192.055 -0.0545631 190.073 0.0278407C184.289 0.286824 183.575 5.03093 183.477 5.8118C183.022 6.1375 183.187 6.82028 183.218 7.24014C183.296 7.63657 183.251 8.04732 183.088 8.41734C182.892 8.74303 182.99 8.9706 182.794 9.32769C182.598 9.68477 181.303 10.7246 180.683 11.894C180.063 13.0633 180.879 13.4636 181.205 13.4243C181.326 13.3929 181.455 13.4011 181.571 13.4476C181.688 13.4942 181.786 13.5768 181.852 13.6833C181.95 13.8756 181.593 14.4681 181.397 15.0489C181.362 15.1403 181.345 15.2382 181.349 15.3362C181.353 15.4343 181.377 15.5305 181.42 15.6189C181.462 15.7073 181.523 15.7859 181.597 15.8499C181.672 15.9138 181.759 15.9617 181.852 15.9906C181.236 16.0534 181.334 16.5086 181.754 16.9638C182.042 17.5875 182.376 18.1895 182.751 18.7649C180.428 19.6203 178.105 20.4836 177.446 20.7544C176.622 20.5817 175.711 21.3626 175.409 21.9669C175.107 22.5712 174.412 24.6548 174.067 25.781C173.722 26.9072 173.545 27.4683 173.243 28.5945C172.948 29.9465 172.803 31.327 172.811 32.7108C172.811 33.888 172.505 33.837 172.074 34.92C171.693 35.8822 171.135 36.7646 170.43 37.5216C169.645 38.432 168.86 39.2521 168.566 40.1624C168.372 40.8702 168.016 41.523 167.526 42.0695C167.047 42.5875 166.659 43.1094 166.486 43.0662C166.313 43.023 166.251 43.0662 165.952 43.2153L165.56 42.9249H165.525C164.907 42.1917 164.173 41.5659 163.351 41.0728C161.954 40.2605 161.142 39.9898 160.49 39.3619C159.99 38.8082 159.368 38.3783 158.673 38.1063C158.089 37.9336 157.936 38.1494 157.826 38.3221C157.716 38.4947 157.849 39.1461 158.367 39.6209C158.815 40.0479 159.301 40.4328 159.819 40.7707C160.191 40.9762 160.505 41.2733 160.73 41.6339C160.926 41.9832 161.314 42.4815 160.427 42.7209C159.733 42.9367 159.231 42.9288 159.14 42.7562C159.05 42.5835 159.215 41.8969 158.454 41.5476C157.692 41.1984 158.061 42.5875 158.022 42.9563C157.983 43.3252 157.979 44.0825 158.477 44.212C158.976 44.3415 159.081 44.4945 158.909 44.7967C158.803 44.9456 158.729 45.1149 158.692 45.2939C158.654 45.4729 158.655 45.6577 158.693 45.8365C158.718 45.9309 158.761 46.0193 158.821 46.0968C158.88 46.1742 158.954 46.2391 159.039 46.2876C159.124 46.3361 159.217 46.3674 159.314 46.3795C159.411 46.3917 159.509 46.3845 159.603 46.3584C160.113 46.2965 160.631 46.3488 161.118 46.5115C161.314 46.6253 161.75 46.9039 161.903 46.9706C161.899 47.0189 161.899 47.0675 161.903 47.1158C161.926 47.23 161.973 47.3382 162.04 47.4336C161.977 47.7515 161.966 47.9869 162.04 48.0457C162.213 48.2223 163.771 51.2085 164.163 51.8599C164.555 52.5112 165.682 52.7114 166.2 52.6447C167.149 52.5152 168.668 52.3386 169.88 52.2954C170.798 52.264 171.768 52.1071 172.392 52.0718C172.352 53.0645 172.313 54.0573 172.274 55.0226H171.646C171.607 54.1829 169.645 54.5321 169.052 54.4889C168.46 54.4458 167.706 55.0305 167.361 55.3326C166.755 55.8286 166.19 56.3718 165.67 56.9571C165.195 57.5653 164.956 59.9472 164.956 61.246C164.956 62.5449 165.85 62.6194 165.85 62.6194H165.886V63.7299C165.671 63.8792 165.47 64.0473 165.285 64.2322C164.551 65.017 164.108 66.9241 164.383 67.7049C164.798 69.0591 165.29 70.3888 165.854 71.6878L165.733 104.112C165.733 105.544 167.204 105.63 167.204 105.63C167.204 105.63 168.982 105.63 169.46 105.587C169.939 105.544 212.824 105.674 214.253 105.544C215.681 105.415 215.822 104.849 215.771 104.025C215.72 103.201 214.425 103.241 214.425 103.241C214.425 103.241 209.324 103.327 208.708 103.284C208.092 103.241 208.1 101.616 208.1 101.616L208.351 80.3127H208.386H208.441H208.492C209.008 80.4384 209.546 80.4384 210.062 80.3127C210.972 80.1165 212.369 78.9786 212.985 78.4292C213.319 78.131 213.425 77.9937 213.405 77.8367C213.711 77.2873 213.621 76.7184 213.531 75.8158C213.397 74.5602 213.182 71.6133 212.966 68.7134C212.776 66.6389 212.462 64.5776 212.024 62.541C212.044 61.7091 212.067 60.9478 212.099 60.371C212.099 59.9786 212.15 59.4293 212.185 58.7386C213.208 58.5771 214.221 58.3556 215.218 58.0755C215.401 57.9789 215.561 57.8438 215.686 57.6796C215.812 57.5154 215.901 57.3259 215.946 57.1242C215.992 56.9225 215.993 56.7134 215.95 56.5111C215.907 56.3089 215.82 56.1183 215.697 55.9526C215.171 55.3208 212.978 55.262 212.381 55.262C212.554 52.315 212.773 48.8345 213.013 46.4055H213.087C213.357 46.465 213.636 46.4605 213.903 46.3924C214.17 46.3242 214.418 46.1943 214.626 46.0131C215.394 45.4523 216.026 44.7253 216.474 43.8863C217.039 42.8464 216.996 41.4574 216.431 39.5699C215.866 37.6825 214.677 35.642 214.112 34.2568ZM168.401 62.0858C168.456 60.8183 168.558 59.131 168.825 58.2521C169.546 57.6693 170.377 57.2382 171.269 56.9846C171.58 56.935 171.893 56.9022 172.207 56.8865C172.172 57.8989 172.141 58.8485 172.113 59.7746C171.143 60.2263 170.223 60.7773 169.366 61.4187C169.06 61.6659 168.731 61.8974 168.401 62.1172C168.393 62.1054 168.401 62.0976 168.401 62.0858ZM179.627 96.9426C179.196 97.853 178.501 99.1518 178.026 99.9327C177.505 100.723 176.861 101.425 176.119 102.012C175.617 102.405 174.197 103.017 173.349 103.551C172.172 103.551 171.277 103.551 170.775 103.578C170.088 103.578 168.954 103.558 168.401 103.578C168.238 103.596 168.074 103.566 167.929 103.489C167.784 103.413 167.666 103.295 167.589 103.15C167.589 103.15 167.569 103.115 167.561 103.099V103.068C167.549 103.045 167.539 103.022 167.53 102.997C167.519 102.972 167.51 102.946 167.502 102.919C167.502 102.895 167.502 102.876 167.483 102.856C167.468 102.793 167.457 102.729 167.451 102.664C167.451 102.593 167.451 102.213 167.451 101.761C167.479 98.7594 167.577 87.1169 167.663 77.0401C168.338 78.6921 169.233 80.4265 169.527 81.3173C169.92 82.4435 170.131 84.2642 170.61 85.1746C171.089 86.0849 172.254 89.593 172.6 90.8487C172.945 92.1043 173.467 93.5366 174.075 95.0944C174.62 96.4953 174.781 97.1624 175.029 97.4096C175.029 97.4371 175.06 97.4606 175.115 97.4763C175.417 97.6529 176.112 97.6097 177.077 97.2605C177.324 97.1702 177.74 96.9897 178.254 96.7464H178.285C178.71 96.5899 179.115 96.3859 179.494 96.1382L179.671 96.0401C179.753 96.3378 179.738 96.6542 179.627 96.9426ZM188.492 102.66C188.348 102.916 188.263 103.202 188.245 103.496H184.517C184.703 103.26 184.902 103.035 185.113 102.821C185.592 102.389 186.585 102.605 187.322 102.216C187.708 102.023 188.07 101.786 188.402 101.51L188.378 101.53C188.378 101.53 188.433 101.655 188.488 101.812C188.58 102.087 188.582 102.384 188.492 102.66ZM189.618 76.5379C189.494 77.4485 189.48 78.3706 189.575 79.2847C189.618 80.0184 189.222 82.0079 189.398 83.3931C189.575 84.7782 189.269 85.9476 189.312 87.3799C189.355 88.8121 188.963 91.1037 188.876 92.0573C188.825 92.638 188.806 93.7328 188.794 94.498C188.739 94.392 188.696 94.3057 188.672 94.2547C188.453 93.8231 187.801 92.7557 187.193 92.4536C186.659 92.1868 186.016 92.2535 185.553 91.7708C185.598 91.7265 185.639 91.6793 185.678 91.6296C185.678 91.6296 184.984 90.4524 184.501 89.6676C184.018 88.8828 183.026 87.937 183.026 87.2425C183.026 86.548 182.724 85.0765 182.241 84.4251C182.194 84.3597 182.143 84.293 182.088 84.225L182.025 84.1229C181.66 83.594 181.339 83.0362 181.064 82.4553C181.064 82.4042 181.036 82.3571 181.028 82.3022C180.899 81.3918 180.856 80.5717 179.851 79.8772C179.68 79.7581 179.517 79.627 179.365 79.4848C179.117 79.1718 178.997 78.7761 179.031 78.3782C179.031 78.2448 179.058 78.0957 179.074 77.9191C179.09 77.6273 179.069 77.3346 179.011 77.048C178.988 76.5386 178.861 76.0392 178.639 75.5804L178.529 75.3528C178.319 74.7888 178.065 74.2418 177.771 73.7165C177.713 73.6145 177.662 73.5164 177.611 73.4222C177.509 73.175 177.414 72.9396 177.344 72.7237C181.327 73.303 185.337 73.6749 189.359 73.8382C189.41 74.1835 189.492 74.7132 189.536 75.0154C189.633 75.5166 189.666 76.0283 189.634 76.5379H189.618ZM198.498 103.476C198.197 103.037 197.865 102.62 197.505 102.228C196.767 101.404 196.379 100.149 196.073 99.2382C196.073 99.2382 196.073 99.1989 196.073 99.1793L196.265 99.1518C196.265 99.1518 196.524 98.7202 196.395 97.5508C196.265 96.3815 196.826 95.5574 196.999 94.6039C197.172 93.6504 197.435 90.9193 197.564 89.7068C197.607 89.283 197.686 88.8317 197.78 88.3687V88.3962C197.78 88.3962 198.266 86.3832 198.565 84.7586C198.863 83.1341 199.349 79.9478 199.444 78.8726C199.538 77.7975 199.703 75.9493 199.836 75.2037C199.969 74.4581 200.162 73.6106 200.162 73.6106H200.087C201.739 73.4536 203.375 73.2182 204.969 72.9317H205.063C205.035 73.8028 204.706 75.3685 204.643 76.4005C204.621 76.824 204.668 77.2483 204.784 77.6562C204.902 78.225 205.158 78.7561 205.53 79.2022C205.648 79.3627 205.8 79.4964 205.973 79.5946C206.213 79.7381 206.47 79.8503 206.738 79.9282C206.605 88.2274 206.401 100.8 206.381 101.581C206.377 101.65 206.377 101.719 206.381 101.789C206.338 102.299 206.45 102.811 206.703 103.256C206.752 103.346 206.819 103.425 206.899 103.488L198.498 103.476Z" fill="#231F20"/>
<path d="M155.565 44.8241C155.467 44.6345 155.32 44.4746 155.139 44.3608C154.958 44.247 154.751 44.1834 154.537 44.1767C154.311 44.1587 154.088 44.1058 153.878 44.0197C153.485 43.9059 153.485 43.5802 152.893 43.6509C152.544 43.6979 152.434 44.1492 152.261 44.3219C151.959 44.6319 151.743 44.7457 151.504 44.4396C151.264 44.1335 150.433 44.5377 150.444 45.0792C150.444 45.3892 150.444 45.7306 150.444 45.7306C150.421 46.123 149.946 45.9464 149.338 46.0327C149.117 46.0652 148.905 46.1412 148.714 46.2564C148.388 46.382 147.929 46.5193 147.705 46.3584C147.577 46.2654 147.457 46.1602 147.348 46.0445C147.278 45.9228 147.207 45.7894 147.129 45.6521C146.87 45.1734 146.913 44.8673 146.736 43.745C146.56 42.6228 146.214 41.579 145.951 40.1075C145.688 38.636 145.304 37.1606 145.304 36.4229C145.304 35.6852 145.127 34.9082 145.261 34.1705C145.394 33.4328 145.606 32.9148 145.563 32.3066C145.528 31.7714 145.557 31.234 145.649 30.7056C145.839 29.5146 145.704 28.2943 145.257 27.174C145.048 26.553 144.706 25.9852 144.255 25.5106C143.803 25.036 143.253 24.6662 142.643 24.4272C142.82 24.4278 142.995 24.3911 143.157 24.3194C143.318 24.2477 143.463 24.1427 143.581 24.0113C143.764 23.6745 143.821 23.2836 143.742 22.9086C143.711 22.5986 143.679 21.9315 144.135 21.7864C144.59 21.6412 144.527 21.3155 144.425 21.0016C144.621 20.8407 144.719 20.6602 144.688 20.5307C144.656 20.4012 144.558 19.7027 145.029 19.687C145.5 19.6713 146.297 19.7851 146.458 19.33C146.618 18.8748 146.359 18.451 146.163 18.0115C145.967 17.572 145.092 16.179 144.947 15.8219C144.813 15.4926 144.769 15.134 144.817 14.782C144.864 14.5191 144.994 14.2602 144.915 14.0326C144.806 13.4164 144.768 12.7896 144.802 12.1647C144.817 11.4619 144.683 10.7639 144.409 10.1164C144.166 9.64552 144.217 9.66121 144.217 9.45324C144.217 9.24527 144.331 8.58997 143.432 7.74631C142.534 6.90266 140.913 5.749 137.715 5.3409C134.517 4.93281 131.362 5.7333 130.043 7.9582C128.725 10.1831 128.909 10.9797 128.745 11.1249C128.745 11.1249 128.27 11.0974 127.489 11.0778C126.708 11.0582 125.582 11.8979 125.064 12.6788C124.244 13.907 124.934 14.0639 123.722 14.5858C123.216 14.8017 123.157 14.9978 123.114 15.2137C123.632 14.7153 123.871 14.629 124.067 14.7153C124.263 14.8017 123.745 15.041 123.53 15.1705C123.296 15.308 123.094 15.4929 122.937 15.7133C122.779 15.9336 122.67 16.1845 122.615 16.4497C122.498 16.8421 121.964 16.9481 121.438 17.313C120.912 17.6779 118.75 18.2234 119.119 20.8878C119.17 21.1101 119.16 21.3419 119.091 21.5592C119.022 21.7765 118.896 21.9715 118.727 22.1238C118.448 22.3514 117.73 23.0773 117.549 24.8314C117.432 25.8948 117.498 26.7188 117.428 27.3663C116.834 27.7881 116.377 28.3747 116.113 29.0536C115.631 29.2341 115.144 29.2302 114.905 28.983C115.168 29.2903 115.53 29.4958 115.929 29.5637C115.929 29.65 115.901 29.7285 115.894 29.7952C115.811 30.207 115.778 30.6273 115.795 31.047C115.801 31.9046 115.728 32.7609 115.58 33.6054C115.485 34.3902 115.352 35.4693 115.281 36.0422C109.545 36.2306 103.074 36.2384 96.4462 35.8343C96.4462 35.8343 98.5887 44.8045 99.2401 51.8873C99.3291 52.8762 99.4089 53.8075 99.4795 54.6812C96.7327 54.7165 95.7595 54.8774 95.4692 55.5249C95.3957 55.6742 95.3526 55.8365 95.3423 56.0026C95.3319 56.1686 95.3546 56.3351 95.409 56.4924C95.4633 56.6496 95.5483 56.7945 95.659 56.9187C95.7697 57.043 95.9039 57.144 96.0538 57.2161C96.7013 57.6085 99.4599 58.1343 99.7345 58.1853C99.9464 61.5325 99.9974 63.7378 100.017 65.0759C100.052 67.1242 99.8248 71.1227 102.003 71.5112C103.152 71.7153 106.205 72.1312 110.157 72.4569C110.157 74.258 110.376 100.227 110.157 101.824C110.023 102.801 109.764 103.119 109.596 103.221C109.564 103.241 109.528 103.254 109.491 103.259C109.454 103.264 109.416 103.262 109.38 103.252L96.7719 103.186C96.1245 103.186 95.5398 103.217 95.5045 104.194C95.4896 104.343 95.5097 104.494 95.5631 104.633C95.6166 104.773 95.702 104.899 95.8126 105C95.9231 105.101 96.0557 105.174 96.1997 105.215C96.3438 105.256 96.4954 105.262 96.6424 105.234L148.11 105.395C148.533 105.395 149.734 105.332 150.158 105.002C151.555 103.963 151.488 101.232 151.488 101.232C151.488 101.232 151.351 73.0533 151.268 63.0275C151.975 62.9608 152.712 62.8157 152.838 62.4703C152.999 61.9524 152.771 60.0021 152.446 58.5463C152.384 58.1509 152.229 57.776 151.991 57.4536C151.754 57.1311 151.443 56.8707 151.084 56.6942C151.084 56.6942 147.215 55.1992 146.21 54.8735C145.626 54.6851 145.17 54.4418 144.425 54.2025C145.331 54.4261 146.407 54.5321 147.172 54.2692C148.427 53.8336 152.63 52.5348 153.627 52.0168C154.524 51.5345 155.323 50.8876 155.981 50.1098C156.156 49.9185 156.29 49.6925 156.372 49.4465C156.455 49.2004 156.485 48.9398 156.46 48.6814C156.424 48.4695 156.377 48.2694 156.326 48.0732C156.331 48.0446 156.331 48.0155 156.326 47.9869C156.453 47.7477 156.566 47.5014 156.664 47.2492C156.756 46.9554 156.773 46.6433 156.714 46.3412C156.655 46.039 156.522 45.7564 156.326 45.5187C156.126 45.2322 155.828 45.3264 155.565 44.8241ZM140.026 50.0195C140.846 51.1457 142.192 53.2686 143.012 53.7002C143.265 53.8248 143.528 53.9298 143.797 54.0141C143.365 53.9042 142.847 53.7983 142.196 53.7002C140.752 53.4883 140.038 53.9749 139.693 54.3987V54.3084C139.693 54.2339 139.693 54.1593 139.693 54.0808C139.693 53.61 139.693 53.0684 139.665 52.7898C139.661 52.7318 139.653 52.6741 139.642 52.6172C139.626 51.736 139.756 50.8582 140.026 50.0195ZM126.139 103.296C126.107 102.975 126.136 102.651 126.225 102.342C126.39 102.114 126.908 102.146 127.56 102.342C128.271 102.597 128.952 102.929 129.592 103.331L126.139 103.296ZM128.56 89.0868C127.889 89.6126 127.383 89.9854 127.301 90.676C127.266 91.1791 127.39 91.6805 127.658 92.1083L127.685 92.1514C127.128 93.9643 126.704 94.961 126.249 95.4633L125.382 96.4168L124.989 96.46C124.989 96.46 122.517 98.422 123.851 101.334C124.01 101.871 124.087 102.429 124.079 102.989C124.085 103.085 124.085 103.181 124.079 103.276C117.969 103.217 112.146 103.15 111.605 103.123C111.675 103.011 111.729 102.889 111.766 102.762C111.901 102.394 111.979 102.008 111.997 101.616C111.997 101.436 111.997 101.361 111.997 101.357C112.036 100.823 112.036 100.392 112.036 100.392L111.875 72.5825C115.015 72.8061 118.617 72.9552 122.207 72.9042C125.637 72.8532 128.878 72.7473 131.652 72.606C132.394 72.9238 133.481 73.3908 134.066 73.6184C134.956 73.9716 135.027 74.2973 134.964 74.4856C134.901 74.674 134.686 74.8191 134.521 75.0153C133.893 75.7727 131.629 77.4835 129.635 85.0647C129.239 86.6107 128.87 87.941 128.56 89.0868ZM149.644 100.498C149.644 103.453 148.573 103.292 148.573 103.292C148.573 103.292 142.043 103.39 141.36 103.39H140.634C140.439 103.159 140.201 102.97 139.932 102.833C138.825 102.216 136.487 100.266 135.674 99.5835C134.862 98.9007 133.626 97.5351 133.367 96.8367C133.085 96.2221 133.025 95.5284 133.198 94.8747C134.17 95.3949 135.255 95.6647 136.357 95.6595C138.241 95.6595 141.392 94.1997 140.383 92.9127C139.932 92.1279 138.892 91.8728 137.723 91.4844C136.833 91.1888 136.04 90.6555 135.431 89.9422C137.001 87.2896 138.351 85.72 141.164 81.9961C143.911 78.3664 146.979 74.517 147.482 71.5465L147.513 71.5975C147.513 71.5975 147.631 71.3974 147.772 71.0953H149.385C149.499 82.1138 149.644 98.5358 149.644 100.498ZM147.682 59.4606C148.102 59.8177 148.231 61.2146 148.329 62.1564C148.362 62.3932 148.475 62.6115 148.65 62.774C148.826 62.9364 149.052 63.033 149.291 63.0472C149.291 64.5814 149.33 66.9711 149.357 69.8121L148.18 69.8906H148.161C148.161 69.8357 148.161 69.7807 148.18 69.7219C148.243 68.8154 147.301 67.0261 146.293 66.2805L146.253 66.2531C145.863 65.941 145.436 65.6775 144.982 65.4683C144.025 64.9307 143.044 64.4559 143.044 64.4559L142.31 62.5527C141.788 61.2068 140.575 58.566 140.144 57.7851C139.971 57.4306 139.859 57.0501 139.81 56.6589L142.435 57.4437C144.064 57.9695 147.352 59.1585 147.705 59.4528L147.682 59.4606Z" fill="#231F20"/>
<path d="M114.915 28.979C114.887 28.947 114.861 28.9129 114.837 28.877C114.859 28.9142 114.885 28.9485 114.915 28.979Z" fill="#231F20"/>
<path d="M223.266 45.6874C223.178 45.5526 223.105 45.4093 223.046 45.2597C223.101 45.4107 223.175 45.5544 223.266 45.6874Z" fill="#231F20"/>
<path d="M238.635 43.0112C238.715 42.9299 238.785 42.8389 238.843 42.7405C238.949 42.5404 238.855 42.7052 238.635 43.0112Z" fill="#231F20"/>
<path d="M223.046 45.26C223.045 45.2429 223.045 45.2258 223.046 45.2087V45.26Z" fill="#231F20"/>
<path d="M279.245 57.6831C278.401 57.5771 276.466 57.534 276.466 57.534H276.364C276.788 54.1672 277.361 50.4708 277.832 48.3283C278.57 44.9497 279.609 40.0879 279.692 38.7537C278.286 38.9097 276.872 38.9804 275.458 38.9656C275.415 38.7459 275.368 38.53 275.321 38.3221C274.928 36.7172 273.802 31.9534 273.107 29.8305C272.413 27.7077 271.981 26.8405 270.941 25.8006C269.901 24.7608 268.301 23.9406 267.347 23.4462C266.393 22.9518 265.44 23.1009 264.055 22.7988C262.67 22.4966 261.194 21.8884 260.849 21.8452C260.504 21.8021 260.947 21.0094 260.264 20.3502L260.174 20.2717C261.08 19.2044 261.834 17.1718 262.43 14.0247C263.058 10.7089 263.168 9.31593 260.719 5.81572C258.271 2.31552 254.892 3.12779 254.48 3.43386C249.975 1.74262 246.185 7.04786 245.231 8.80581C244.955 9.3389 244.803 9.92794 244.788 10.5283C244.773 11.1286 244.895 11.7245 245.145 12.2707C245.169 12.4002 245.078 12.357 244.917 13.0045C244.843 13.2988 244.56 13.6245 244.819 14.0875C244.955 14.3636 244.994 14.6774 244.929 14.9782C244.804 15.2207 244.78 15.5029 244.862 15.763C244.972 16.0456 245.078 15.9357 244.69 16.8892C244.301 17.8428 244.647 19.0984 244.949 19.8361C245.238 20.6745 245.484 21.5272 245.687 22.3907C245.241 22.5329 244.807 22.7074 244.388 22.9126C243.21 23.4737 240.833 24.4822 239.491 25.1649C238.149 25.8477 236.979 26.6796 236.72 27.0288C236.461 27.3781 236.371 28.1119 235.853 28.5984C234.716 29.6053 233.665 30.7066 232.714 31.8906C231.285 33.6682 230.418 35.0102 229.465 36.3091C228.511 37.6079 227.428 39.5581 226.69 40.0369C225.953 40.5156 224.336 41.0767 223.963 41.3789C223.591 41.681 223.398 42.8504 223.226 43.6313C223.053 44.4121 222.794 44.7143 223.01 45.2009C223.097 45.3984 223.198 45.5898 223.312 45.7737L223.245 45.6796C223.437 45.9822 223.648 46.2719 223.877 46.5468C224.177 46.8462 224.548 47.0637 224.956 47.1785C225.236 47.2892 225.527 47.3707 225.823 47.4218C226.905 47.6567 228.013 47.7556 229.119 47.7161C229.539 47.6847 230.069 47.618 230.603 47.5356C231.29 47.4766 231.968 47.3451 232.627 47.1432C232.761 47.1079 232.863 47.0804 232.918 47.0608C233.263 46.9313 233.915 45.7188 234.217 45.3303C234.247 45.2927 234.283 45.2596 234.323 45.2322C234.81 45.0895 235.305 44.9768 235.806 44.8948C236.034 44.8595 236.281 44.8202 236.559 44.7653C237.372 44.5965 238.2 43.5606 238.604 42.9995C238.535 43.07 238.463 43.1369 238.388 43.1996C238.831 42.5953 239.228 41.9518 239.416 41.63C239.604 41.3082 239.75 41.9635 239.773 42.8543C238.945 47.9241 238.203 54.54 238.16 56.4039V56.4941C237.78 56.5257 237.403 56.582 237.03 56.6628C237.16 56.5137 237.187 56.3254 236.948 56.0115C236.383 55.2777 234.201 55.4935 233.22 55.7093C232.239 55.9251 228.413 56.7923 226.765 57.53C225.117 58.2677 224.991 61.0381 224.948 61.9485C224.905 62.8588 224.905 63.4631 225.121 63.5534C225.282 63.5806 225.445 63.5924 225.607 63.5887C225.372 71.7035 224.776 101.675 224.776 101.675C224.905 105.991 227.244 105.399 228.586 105.442C229.371 105.469 276.674 105.619 277.8 105.662C278.927 105.705 279.445 105.399 279.37 104.536C279.296 103.672 277.899 103.668 277.899 103.668C277.899 103.668 267.025 103.668 265.899 103.582C265.248 103.366 265.334 100.376 265.334 100.376L265.499 74.1246C266.39 74.0854 266.982 74.054 267.198 74.0344C268.846 73.9049 273.61 73.948 274.736 72.2175C275.862 70.4871 275.56 66.3669 275.819 62.5998C275.886 61.6385 275.999 60.4534 276.145 59.1742L277.228 59.1977C278.012 59.1977 279.135 59.3508 279.582 59.131C279.721 59.0445 279.83 58.9165 279.893 58.7649C279.956 58.6133 279.97 58.4458 279.933 58.286C279.895 58.1262 279.809 57.9821 279.685 57.8739C279.562 57.7658 279.408 57.699 279.245 57.6831ZM227.307 63.5691H227.361C228.186 63.4788 228.056 63.3925 228.099 62.6155C228.127 62.1015 228.135 61.3873 228.178 60.8458C228.249 60.7925 228.324 60.744 228.401 60.7006C228.527 60.6378 228.645 60.5907 228.747 60.5358C229.225 60.2729 234.476 58.9662 236.179 58.6287C236.634 58.5385 237.093 58.4679 237.54 58.409C236.897 60.1081 236.756 61.2696 236.909 62.0701C235.939 62.9569 234.228 63.7613 233.338 64.5618C232.447 65.3623 229.594 67.8227 228.79 68.5486C227.879 69.3727 227.491 69.7611 227.275 70.542C227.248 70.644 227.22 70.7657 227.197 70.903C227.248 67.5362 227.287 64.8522 227.307 63.5808V63.5691ZM236.756 97.6293C236.449 97.9315 234.676 99.1989 233.679 99.9249C232.682 100.651 231.599 101.443 232.074 102.44C232.292 102.846 232.588 103.205 232.945 103.496H227.452C227.418 103.499 227.384 103.499 227.35 103.496C227.244 103.464 227.15 103.404 227.075 103.323C226.888 103.041 226.784 102.712 226.773 102.373V102.244C226.773 101.997 226.773 101.808 226.773 101.808C226.773 101.808 227.016 84.7429 227.165 73.1829C227.215 73.6467 227.295 74.1068 227.405 74.5602C228.015 76.7337 228.997 78.7849 230.308 80.6227C231.486 82.1413 233.644 83.7855 234.421 85.9084C235.185 87.9384 236.056 89.9266 237.03 91.865C236.803 92.0416 236.673 92.124 236.673 92.124C236.673 92.124 236.512 92.4575 236.948 93.5602C237.273 94.412 237.667 95.2361 238.125 96.0244C238.105 96.3305 237.066 97.3272 236.756 97.6293ZM243.564 100.89C243.211 101.695 242.695 102.418 242.049 103.013C241.865 103.172 241.697 103.348 241.547 103.539H240.915C241.021 103.343 241.11 103.138 241.182 102.927C241.441 102.142 241.268 102.189 241.829 101.283C242.08 100.89 242.453 100.357 242.806 99.8582C242.94 99.9641 243.093 99.9288 243.348 99.6776L243.995 99.0302C243.972 99.6721 243.825 100.304 243.564 100.89ZM249.544 74.2855L249.481 74.4935C248.885 76.2004 246.197 78.8766 245.949 79.8379C245.667 80.4958 245.278 81.1019 244.796 81.6312C244.721 81.4939 244.643 81.3565 244.564 81.2388C243.913 80.1558 242.602 77.4678 241.704 76.7772C240.805 76.0866 240.491 75.7374 240.836 75.1291C241.095 74.6818 242.555 74.3443 243.371 73.9519C245.408 74.1089 247.495 74.2149 249.556 74.2816L249.544 74.2855ZM250.125 103.57C250.289 103.217 250.611 102.519 250.799 102.001C251.562 101.999 252.305 101.757 252.922 101.31C253.786 100.702 254.653 100.094 254.696 99.7404C254.739 99.3873 254.092 97.9197 253.829 97.3154C253.566 96.7111 252.652 95.4084 252.53 94.9335C252.408 94.4587 252.357 93.6739 251.796 93.5013C251.333 93.3749 250.932 93.0831 250.67 92.6812C250.504 92.4258 250.434 92.1194 250.474 91.8173C250.513 91.5152 250.659 91.2371 250.886 91.0331C251.361 90.5583 251.671 90.0364 251.102 89.7343C251.02 89.6841 250.943 89.6277 250.87 89.5655C250.967 89.3672 251.08 89.177 251.208 88.9965L251.274 88.9102C251.372 88.7768 251.498 88.6238 251.667 88.4354C252.616 87.3524 252.922 87.1326 253.79 86.0496C254.531 85.1236 255.112 84.7665 256.164 83.5971C256.556 83.1851 256.976 82.7299 257.341 82.2826C257.58 81.9844 257.784 81.745 257.965 81.541C258.449 81.104 258.879 80.6114 259.248 80.0734C259.299 79.991 259.358 79.9046 259.417 79.8144C259.66 79.473 260.103 78.8962 260.594 78.2212L260.798 77.9937C261.705 76.8233 262.486 75.5607 263.129 74.2266H263.721C263.721 75.3685 263.568 97.2722 263.529 99.8856C263.486 102.574 263.874 103.613 263.874 103.613L250.125 103.57Z" fill="#231F20"/>
<path d="M328.864 39.1461C328.821 38.2789 328.562 37.3685 328.518 36.5013C328.518 36.3483 328.518 36.1639 328.495 35.9637C328.52 35.5341 328.503 35.103 328.444 34.6767C328.448 34.5328 328.434 34.389 328.401 34.249C328.401 34.1509 328.401 34.0567 328.401 33.9782C328.401 33.4916 328.236 31.5414 326.709 30.5997C325.183 29.6579 323.916 28.3904 323.072 28.2453C322.228 28.1001 322.193 27.951 321.577 27.5939C320.961 27.2368 319.944 26.5697 318.901 26.3343C317.857 26.0988 317.276 26.0439 317.049 25.8163C316.821 25.5887 316.303 24.7451 316.04 24.6156C315.777 24.4861 315.255 23.3795 314.906 23.0224C314.711 22.8122 314.483 22.6347 314.231 22.4966C314.263 22.0414 314.29 21.7118 314.321 21.1389C314.514 21.3312 315 20.4561 315.295 19.8047C315.589 19.1534 315.652 18.1135 315.781 17.058C315.911 16.0024 315.491 15.9828 315.357 16.0495C315.224 16.1162 315.393 15.3353 315.522 13.1261C315.652 10.9169 314.058 8.28391 311.916 7.10671C309.773 5.92951 308.016 6.97721 307.725 7.27151C307.191 7.12644 306.626 7.14133 306.1 7.31431C305.574 7.48729 305.11 7.81077 304.766 8.24468C304.311 8.79796 303.923 9.61021 302.946 10.7796C301.969 11.9489 302.004 13.0555 301.843 13.7029C301.682 14.3504 301.973 15.3942 302.102 16.1397C302.177 16.5817 302.286 17.0172 302.428 17.4425C302.428 17.4425 302.232 17.9291 302.035 18.3176C301.839 18.706 301.969 18.8394 302.228 19.0003C302.299 19.0331 302.356 19.0916 302.387 19.1643C302.417 19.237 302.419 19.3186 302.392 19.3927C302.282 19.9726 302.27 20.5668 302.357 21.1507C302.541 21.9867 302.682 22.8314 302.781 23.6817C302.906 24.3986 303.208 25.0729 303.66 25.6437L303.683 25.6633C303.551 25.7202 303.411 25.7585 303.267 25.7771C302.62 25.8713 299.077 26.5226 298.037 26.6521C296.997 26.7816 295.015 26.8483 294.333 29.8384C294.203 30.7448 294.234 31.2981 293.913 31.4943C293.24 31.7962 292.665 32.28 292.253 32.8913C291.808 33.4621 291.517 34.1377 291.409 34.8533C291.339 35.3435 291.097 35.7928 290.726 36.1207C290.401 36.4778 290.467 36.7721 290.271 36.9644C290.075 37.1567 289.396 37.4196 289.004 37.9061C288.462 38.5036 287.864 39.0476 287.218 39.5307C286.567 40.0526 286.469 40.7353 286.277 41.1905C286.107 41.483 285.864 41.7253 285.57 41.8929C285.171 41.9933 284.783 42.1353 284.413 42.3167C284.005 42.5276 283.619 42.7801 283.263 43.0701L283.228 43.0937L283.177 43.125L283.09 43.1721C283.049 43.1962 283.005 43.2172 282.961 43.2349C282.545 43.3299 282.12 43.3734 281.693 43.3644C281.336 43.3644 280.909 43.3016 280.622 43.5606C280.555 43.6198 280.481 43.6712 280.402 43.7136C280.198 43.5645 279.853 43.3212 279.618 43.0976C279.268 42.7954 278.794 43.1878 278.44 43.5331C278.213 43.7607 278.154 44.6162 278.177 45.2205C278.13 45.2872 278.079 45.35 278.028 45.4167C277.671 45.8875 277.452 48.4264 277.397 49.1719C277.376 49.2028 277.365 49.2389 277.365 49.2759C277.365 49.3129 277.376 49.349 277.397 49.3799C277.397 49.3799 277.765 49.3799 278.225 49.4034C278.852 49.5251 279.669 49.7644 280.187 49.8822C280.971 50.1265 281.776 50.296 282.592 50.3884C283.177 50.4197 285.386 51.0397 285.904 51.1025C286.901 51.2296 287.905 51.2873 288.91 51.2752C289.172 51.284 289.434 51.2735 289.694 51.2438C290.479 51.1339 291.366 49.9842 291.656 49.5957C291.976 49.2681 292.312 48.9576 292.665 48.6657L292.316 53.8532C292.245 54.5674 292.167 55.2149 292.08 55.6857C291.951 56.3999 291.774 57.1886 291.566 57.942C287.933 58.4482 281.328 59.39 279.661 59.8216C277.306 60.4299 276.8 63.2865 276.843 64.4127C276.841 64.5418 276.868 64.6698 276.922 64.7872C276.976 64.9045 277.056 65.0082 277.155 65.0907C277.255 65.1731 277.371 65.2323 277.497 65.2636C277.622 65.295 277.753 65.2979 277.879 65.2721V65.3035C277.879 65.3035 277.879 65.8175 277.879 66.7239C277.703 66.8534 277.534 66.9868 277.365 67.1163C276.133 68.1248 274.312 70.2555 276.263 75.1095C276.51 75.7334 276.773 76.4201 277.047 77.1382C277.322 77.8563 277.565 78.7353 277.832 79.5515C277.797 88.2196 277.762 97.9628 277.762 99.8032V100.105C276.659 100.027 275.407 100.105 275.388 100.863C275.279 100.92 275.186 101.003 275.117 101.105C275.049 101.207 275.007 101.325 274.995 101.447C274.995 101.581 276.215 103.127 278.385 104.061C278.673 104.634 279.105 105.122 279.638 105.479C280.171 105.835 280.787 106.047 281.427 106.093C282.466 106.16 294.49 106.129 296.958 106.062C299.426 105.995 307.945 105.901 309.436 105.866C310.927 105.83 332.862 106.191 333.741 106.16C334.62 106.129 335.527 106.093 335.46 105.089C335.393 104.084 334.13 104.147 334.13 104.147C334.13 104.147 314.733 104.08 313.14 104.112C312.962 104.097 312.79 104.042 312.636 103.951C312.483 103.86 312.352 103.735 312.253 103.586C312.216 103.534 312.183 103.479 312.155 103.421C311.579 102.475 311.579 100.874 311.579 100.874L311.484 76.6046H311.418C312.941 76.515 314.459 76.3473 315.966 76.1023C321.946 75.1056 322.636 75.4117 323.633 75.3685C323.884 75.3685 324.312 75.3253 324.81 75.2822C325.931 75.2688 327.049 75.1638 328.153 74.9683L328.487 74.9329H328.358C328.722 74.8542 329.072 74.722 329.397 74.5405C331.128 73.5007 331.359 70.3811 331.304 65.79C331.308 64.2574 331.394 62.7261 331.563 61.2029L335.287 61.4148C335.809 61.4148 336.464 61.2617 336.437 60.4181C336.41 59.5744 335.742 59.7 334.867 59.594C334.683 59.5705 333.533 59.5038 331.803 59.4057C332.742 53.4164 334.517 47.5885 337.077 42.093C334.33 42.0538 331.65 41.9596 329.076 41.8301C328.97 41.1238 328.895 39.7583 328.864 39.1461ZM279.653 65.2054C279.65 64.623 279.766 64.0461 279.994 63.5102C280.018 63.467 280.037 63.4239 280.061 63.3846C280.257 63.0165 280.537 62.6994 280.877 62.4588C281.218 62.2183 281.61 62.0609 282.023 61.9995C282.808 61.9171 286.233 61.5639 290.071 61.1754C290.013 61.2601 289.959 61.3479 289.91 61.4383C286.987 62.5763 282.176 64.4127 281.325 64.7502C280.741 64.9852 280.175 65.2605 279.629 65.5742C279.649 65.4173 279.649 65.2917 279.653 65.2054ZM286.83 97.1427C286.602 97.4017 286.539 97.3036 286.045 97.5979C284.876 98.3528 283.621 98.9642 282.306 99.4187C281.391 99.6907 280.459 99.8992 279.516 100.043C279.516 97.2016 279.539 90.6878 279.559 84.0366C279.708 84.3701 279.845 84.6488 279.951 84.8606C280.026 84.9823 280.088 85.1039 280.151 85.2216C280.544 86.03 280.854 86.8305 281.058 87.3642L281.081 87.4269C281.215 87.8507 281.321 88.2353 281.415 88.5649C281.555 88.978 281.743 89.3731 281.976 89.7421C282.015 89.8167 282.054 89.8873 282.098 89.954C282.728 90.9716 283.264 92.0447 283.699 93.1599C284.264 94.5882 285.182 96.974 285.182 96.974C285.681 96.896 286.173 96.7778 286.653 96.6208L287.23 96.4835C287.12 96.7168 286.986 96.9378 286.83 97.1427ZM291.511 83.9189C291.511 83.9189 289.008 79.0139 288.682 78.2958C288.356 77.5777 287.838 76.6242 287.505 75.8276C287.278 75.1028 287.166 74.3466 287.175 73.587H287.407C287.489 73.6812 287.575 73.7675 287.658 73.846C287.74 73.9245 287.921 74.0814 288.05 74.1991C288.512 74.6266 289.015 75.0066 289.553 75.3332L289.777 75.4941C290.385 75.9257 291.076 76.3142 291.425 77.095C291.774 77.8759 291.598 78.3076 292.21 78.6136L292.425 78.7196C292.564 78.8006 292.707 78.874 292.853 78.9393C292.582 79.8262 292.253 81.0426 291.986 82.055C291.855 82.4393 291.753 82.8328 291.68 83.2322L291.511 83.9189ZM293.819 100.294C293.633 100.947 293.335 101.563 292.94 102.114C292.666 102.409 292.361 102.672 292.029 102.899C291.931 102.796 291.868 102.664 291.85 102.523C291.833 102.382 291.861 102.238 291.931 102.114C292.159 101.628 292.516 100.937 292.257 100.231C291.998 99.5246 292.127 99.8385 292.453 99.1911C292.672 98.6345 292.835 98.0574 292.94 97.4684C293.069 97.076 293.395 97.7941 293.654 98.1512C293.913 98.5083 294.046 99.5481 293.819 100.294ZM302.903 104.218C303.362 103.766 303.986 103.119 304.15 102.935C304.409 102.64 304.661 102.35 304.366 101.993C304.072 101.636 304.292 101.679 304.041 101.016C303.326 99.6118 302.439 98.3028 301.4 97.1192C300.662 96.3815 300.222 95.8282 299.708 96.2088C299.548 96.3266 298.104 94.5804 297.935 94.3449L298.327 93.9525C298.219 93.7856 298.121 93.6127 298.033 93.4346C297.97 93.2698 298.292 92.2966 298.818 90.9311C299.343 89.5655 299.791 87.8782 299.956 87.423C300.12 86.9678 300.411 85.6023 300.701 84.9548C300.992 84.3074 302.098 81.2506 302.424 80.4383C302.75 79.626 302.585 79.1041 302.942 78.4763C303.299 77.8485 304.763 77.2089 305.186 76.8832L305.379 76.7262C306.697 76.7694 308.102 76.7811 309.538 76.7262C309.538 77.4443 309.605 99.8778 309.636 101.337C309.671 102.295 309.869 103.24 310.221 104.131L302.903 104.218Z" fill="#231F20"/>
</svg>
