<svg width="94" height="94" viewBox="0 0 94 94" fill="none" xmlns="http://www.w3.org/2000/svg">
<g clip-path="url(#clip0_2685_138)">
<path d="M35.25 11.75C35.25 8.63371 34.0121 5.64505 31.8085 3.4415C29.6049 1.23794 26.6163 0 23.5 0C20.3837 0 17.3951 1.23794 15.1915 3.4415C12.9879 5.64505 11.75 8.63371 11.75 11.75C11.75 14.8663 12.9879 17.855 15.1915 20.0585C17.3951 22.2621 20.3837 23.5 23.5 23.5C26.6163 23.5 29.6049 22.2621 31.8085 20.0585C34.0121 17.855 35.25 14.8663 35.25 11.75ZM23.5 17.625C21.9419 17.625 20.4475 17.006 19.3457 15.9043C18.244 14.8025 17.625 13.3081 17.625 11.75C17.625 10.1919 18.244 8.69752 19.3457 7.59575C20.4475 6.49397 21.9419 5.875 23.5 5.875C25.0581 5.875 26.5525 6.49397 27.6543 7.59575C28.756 8.69752 29.375 10.1919 29.375 11.75C29.375 13.3081 28.756 14.8025 27.6543 15.9043C26.5525 17.006 25.0581 17.625 23.5 17.625ZM82.25 11.75C82.25 8.63371 81.0121 5.64505 78.8085 3.4415C76.6049 1.23794 73.6163 0 70.5 0C67.3837 0 64.3951 1.23794 62.1915 3.4415C59.9879 5.64505 58.75 8.63371 58.75 11.75C58.75 14.8663 59.9879 17.855 62.1915 20.0585C64.3951 22.2621 67.3837 23.5 70.5 23.5C73.6163 23.5 76.6049 22.2621 78.8085 20.0585C81.0121 17.855 82.25 14.8663 82.25 11.75ZM70.5 17.625C68.9419 17.625 67.4475 17.006 66.3457 15.9043C65.244 14.8025 64.625 13.3081 64.625 11.75C64.625 10.1919 65.244 8.69752 66.3457 7.59575C67.4475 6.49397 68.9419 5.875 70.5 5.875C72.0581 5.875 73.5525 6.49397 74.6543 7.59575C75.756 8.69752 76.375 10.1919 76.375 11.75C76.375 13.3081 75.756 14.8025 74.6543 15.9043C73.5525 17.006 72.0581 17.625 70.5 17.625ZM79.3125 23.5H61.6875C59.3557 23.5042 57.0587 24.0651 54.9874 25.136C52.9161 26.2069 51.1304 27.7569 49.7789 29.657C48.8617 29.4884 47.9324 29.3941 47 29.375C46.0676 29.3941 45.1383 29.4884 44.2211 29.657C42.8696 27.7569 41.0839 26.2069 39.0126 25.136C36.9413 24.0651 34.6443 23.5042 32.3125 23.5H14.6875C10.7921 23.5 7.05631 25.0474 4.30187 27.8019C1.54743 30.5563 0 34.2921 0 38.1875C0 40.5247 0.928462 42.7662 2.58113 44.4189C4.23379 46.0715 6.47528 47 8.8125 47H29.375C29.375 51.6744 31.2319 56.1574 34.5372 59.4628C37.8426 62.7681 42.3256 64.625 47 64.625C51.6744 64.625 56.1574 62.7681 59.4628 59.4628C62.7681 56.1574 64.625 51.6744 64.625 47H85.1875C87.5247 47 89.7662 46.0715 91.4189 44.4189C93.0715 42.7662 94 40.5247 94 38.1875C94 34.2921 92.4526 30.5563 89.6981 27.8019C86.9437 25.0474 83.2079 23.5 79.3125 23.5ZM58.75 47C58.75 50.1163 57.5121 53.1049 55.3085 55.3085C53.1049 57.5121 50.1163 58.75 47 58.75C43.8837 58.75 40.8951 57.5121 38.6915 55.3085C36.4879 53.1049 35.25 50.1163 35.25 47C35.25 43.8837 36.4879 40.895 38.6915 38.6915C40.8951 36.4879 43.8837 35.25 47 35.25C50.1163 35.25 53.1049 36.4879 55.3085 38.6915C57.5121 40.895 58.75 43.8837 58.75 47ZM8.8125 41.125C8.03343 41.125 7.28626 40.8155 6.73537 40.2646C6.18448 39.7137 5.875 38.9666 5.875 38.1875C5.875 35.8503 6.80346 33.6088 8.45613 31.9561C10.1088 30.3035 12.3503 29.375 14.6875 29.375H32.3125C34.5407 29.379 36.6836 30.232 38.305 31.7603C34.6557 33.846 31.8719 37.1673 30.456 41.125H8.8125ZM85.1875 41.125H63.544C62.1281 37.1673 59.3443 33.846 55.695 31.7603C57.3164 30.232 59.4593 29.379 61.6875 29.375H79.3125C81.6497 29.375 83.8912 30.3035 85.5439 31.9561C87.1965 33.6088 88.125 35.8503 88.125 38.1875C88.125 38.9666 87.8155 39.7137 87.2646 40.2646C86.7137 40.8155 85.9666 41.125 85.1875 41.125ZM11.75 85.1875C11.75 87.5247 12.6785 89.7662 14.3311 91.4189C15.9838 93.0715 18.2253 94 20.5625 94H73.4375C75.7747 94 78.0162 93.0715 79.6689 91.4189C81.3215 89.7662 82.25 87.5247 82.25 85.1875C82.25 79.734 80.0836 74.5038 76.2274 70.6476C72.3712 66.7914 67.141 64.625 61.6875 64.625H32.3125C26.859 64.625 21.6288 66.7914 17.7726 70.6476C13.9164 74.5038 11.75 79.734 11.75 85.1875ZM61.6875 70.5C65.5829 70.5 69.3187 72.0474 72.0731 74.8019C74.8276 77.5563 76.375 81.2921 76.375 85.1875C76.375 85.9666 76.0655 86.7137 75.5146 87.2646C74.9637 87.8155 74.2166 88.125 73.4375 88.125H20.5625C19.7834 88.125 19.0363 87.8155 18.4854 87.2646C17.9345 86.7137 17.625 85.9666 17.625 85.1875C17.625 83.2587 18.0049 81.3488 18.743 79.5668C19.4811 77.7849 20.563 76.1657 21.9269 74.8019C23.2907 73.438 24.9099 72.3561 26.6918 71.618C28.4738 70.8799 30.3837 70.5 32.3125 70.5H61.6875Z" fill="white"/>
</g>
<defs>
<clipPath id="clip0_2685_138">
<rect width="94" height="94" fill="white"/>
</clipPath>
</defs>
</svg>
