<svg width="85" height="85" viewBox="0 0 85 85" fill="none" xmlns="http://www.w3.org/2000/svg">
<path d="M76.7742 60.1649V35.6452C76.7742 25.8181 68.7787 17.8226 58.9516 17.8226C57.534 17.8226 56.1617 18.0063 54.8387 18.3202V4.1129H41.129H39.7581H34.536C33.0773 1.58758 30.3738 0 27.4194 0C24.4649 0 21.7614 1.58758 20.3027 4.1129H15.0806H13.7097H0V75.4032H32.9032V85H85V71.7894C85 66.481 81.6781 61.8869 76.7742 60.1649ZM58.9516 20.5645C67.2665 20.5645 74.0323 27.3302 74.0323 35.6452V59.4424L67.1774 57.8603V54.4123C69.6945 52.1516 71.2903 48.8832 71.2903 45.2419L71.2821 34.9693L69.3874 35.7521C69.3573 35.7658 66.2438 37.0161 58.9516 37.0161C51.6594 37.0161 48.546 35.7658 48.524 35.7562L46.6129 34.9377V45.2419C46.6129 48.8846 48.2087 52.153 50.7258 54.4123V57.8603L43.871 59.4424V42.5V35.6452C43.871 27.3302 50.6367 20.5645 58.9516 20.5645ZM55.8148 74.4408L48.1018 66.7264L49.2424 61.0177L51.1906 60.568L55.8148 74.4408ZM49.3548 45.2419V38.845C51.1467 39.2631 54.2588 39.7581 58.9516 39.7581C63.6444 39.7581 66.7565 39.2631 68.5484 38.845V45.2419C68.5484 50.5325 64.2422 54.8387 58.9516 54.8387C53.661 54.8387 49.3548 50.5325 49.3548 45.2419ZM53.4677 58.7295V56.2782C55.1225 57.1049 56.9802 57.5806 58.9516 57.5806C60.9231 57.5806 62.7807 57.1049 64.4355 56.2782V58.7295L58.9516 75.1811L53.4677 58.7295ZM66.7127 60.568L68.6608 61.0177L69.8015 66.7264L62.0884 74.4408L66.7127 60.568ZM41.129 6.85484H52.0968V19.1977C51.1357 19.5994 50.2227 20.0943 49.3548 20.6509V9.59677H41.129V6.85484ZM16.4516 6.85484H22.0397L22.3989 6.03363C23.2749 4.03339 25.245 2.74194 27.4194 2.74194C29.5937 2.74194 31.5638 4.03339 32.4398 6.03363L32.799 6.85484H38.3871V12.3387H16.4516V6.85484ZM32.9032 71.7894V72.6613H2.74194V6.85484H13.7097V9.59677H5.48387V69.9194H33.0513C32.9594 70.5308 32.9032 71.1546 32.9032 71.7894ZM8.22581 67.1774V12.3387H13.7097V15.0806H41.129V12.3387H46.6129V22.8143C45.5655 23.8219 44.6483 24.9557 43.871 26.191V17.8226H10.9677V42.5H41.129V45.4942C40.6985 45.3406 40.2406 45.2419 39.7581 45.2419C37.4905 45.2419 35.6452 47.0873 35.6452 49.3548C35.6452 50.1294 35.8727 50.8465 36.247 51.4648L32.9142 56.4647C32.4796 56.3098 32.019 56.2097 31.5323 56.2097C31.0456 56.2097 30.5849 56.3098 30.1517 56.4647L26.8189 51.4648C27.1918 50.8465 27.4194 50.1294 27.4194 49.3548C27.4194 47.0873 25.574 45.2419 23.3065 45.2419C21.0389 45.2419 19.1935 47.0873 19.1935 49.3548C19.1935 50.3872 19.5898 51.3222 20.2204 52.0447L16.6394 56.5209C16.1582 56.3221 15.6331 56.2097 15.0806 56.2097C12.8131 56.2097 10.9677 58.055 10.9677 60.3226C10.9677 62.5902 12.8131 64.4355 15.0806 64.4355C17.3482 64.4355 19.1935 62.5902 19.1935 60.3226C19.1935 59.611 18.9961 58.9516 18.6767 58.3662L22.6484 53.4006C22.8636 53.4362 23.0816 53.4677 23.3065 53.4677C23.7931 53.4677 24.2538 53.3677 24.687 53.2114L28.0198 58.2113C27.6469 58.831 27.4194 59.548 27.4194 60.3226C27.4194 62.5902 29.2647 64.4355 31.5323 64.4355C33.7998 64.4355 35.6452 62.5902 35.6452 60.3226C35.6452 59.548 35.4176 58.831 35.0433 58.2127L38.3761 53.2127C38.8107 53.3677 39.2714 53.4677 39.7581 53.4677C40.2406 53.4677 40.6985 53.369 41.129 53.2155V60.1649C37.7277 61.359 35.094 63.9365 33.7971 67.1774H8.22581ZM41.129 20.5645V35.6452V39.7581H13.7097V20.5645H41.129ZM41.129 49.3548C41.129 50.1116 40.5148 50.7258 39.7581 50.7258C39.0013 50.7258 38.3871 50.1116 38.3871 49.3548C38.3871 48.5981 39.0013 47.9839 39.7581 47.9839C40.5148 47.9839 41.129 48.5981 41.129 49.3548ZM32.9032 60.3226C32.9032 61.0794 32.289 61.6935 31.5323 61.6935C30.7755 61.6935 30.1613 61.0794 30.1613 60.3226C30.1613 59.5658 30.7755 58.9516 31.5323 58.9516C32.289 58.9516 32.9032 59.5658 32.9032 60.3226ZM24.6774 49.3548C24.6774 50.1116 24.0632 50.7258 23.3065 50.7258C22.5497 50.7258 21.9355 50.1116 21.9355 49.3548C21.9355 48.5981 22.5497 47.9839 23.3065 47.9839C24.0632 47.9839 24.6774 48.5981 24.6774 49.3548ZM16.4516 60.3226C16.4516 61.0794 15.8374 61.6935 15.0806 61.6935C14.3239 61.6935 13.7097 61.0794 13.7097 60.3226C13.7097 59.5658 14.3239 58.9516 15.0806 58.9516C15.8374 58.9516 16.4516 59.5658 16.4516 60.3226ZM82.2581 82.2581H76.7742V76.7742H74.0323V82.2581H43.871V76.7742H41.129V82.2581H35.6452V71.7894C35.6452 67.2939 38.7038 63.4484 43.084 62.4394L46.3113 61.6949L45.124 67.6285L58.9516 81.4547L72.7792 67.6285L71.5919 61.6949L74.8192 62.4394C79.1994 63.4484 82.2581 67.2939 82.2581 71.7894V82.2581Z" fill="#F38332"/>
<path d="M27.4199 22.3921L16.4521 37.0162H38.3876L27.4199 22.3921ZM27.4199 26.9629L32.9038 34.2743H21.936L27.4199 26.9629Z" fill="#F38332"/>
</svg>
