<svg width="107" height="107" viewBox="0 0 107 107" fill="none" xmlns="http://www.w3.org/2000/svg">
<path d="M95.6874 66.03V41.5341H85.2262C81.5287 31.9671 73.6206 24.4917 63.84 21.3712L53.5 11.0312L43.1341 21.3971C40.2627 22.3157 37.5532 23.6126 35.0437 25.2361L28.2066 18.3991H18.117V28.4887L24.9514 35.323C23.6749 37.299 22.5984 39.4302 21.7397 41.6851C15.8484 42.5697 11.3126 47.6485 11.3126 53.782C11.3126 59.9087 15.8376 64.9834 21.7179 65.8762C25.7489 76.4666 34.7824 84.3447 45.7579 86.8991L40.1769 95.9694H66.823L61.2421 86.9005C65.0757 86.0118 68.6684 84.4767 71.9658 82.3374L76.7044 87.076C78.0517 88.4233 79.844 89.165 81.7492 89.165C85.6821 89.165 88.8829 85.9642 88.8829 82.0312C88.8829 80.126 88.1413 78.3337 86.794 76.9864L82.0499 72.2424C83.2965 70.3127 84.3526 68.2319 85.2018 66.03H95.6874ZM92.9656 44.2558V63.3082H73.9132V44.2558H92.9656ZM62.4628 23.8426L54.8609 31.4445V24.406L58.9435 20.3234L62.4628 23.8426ZM53.5 14.8798L57.0192 18.3991L53.5 21.9183L49.9807 18.3991L53.5 14.8798ZM48.0565 20.3234L52.1391 24.406V31.4445L44.5372 23.8426L48.0565 20.3234ZM41.6685 24.8224L53.5 36.6539L65.3383 24.8156C72.9334 27.9293 79.0764 33.9608 82.3031 41.5341H71.1915V61.3839L37.0129 27.2053C38.4935 26.2854 40.0463 25.4838 41.6685 24.8224ZM29.0041 23.0451L71.1915 65.2325V66.03H71.9889L72.6694 66.7104L70.511 68.8688L26.8457 25.2035L29.0041 23.0451ZM20.8388 21.1208H27.0798L20.8388 27.3618V21.1208ZM22.7631 29.2861L24.9214 27.1278L68.5867 70.7931L66.4284 72.9514L22.7631 29.2861ZM23.5606 44.2558C26.1476 44.2558 28.4951 45.2969 30.2139 46.9776H16.9072C18.626 45.2969 20.9735 44.2558 23.5606 44.2558ZM27.6432 49.6994V57.8647H19.4779V49.6994H27.6432ZM16.7562 60.4367C15.0755 58.7166 14.0344 56.3704 14.0344 53.782C14.0344 51.1936 15.0755 48.8475 16.7562 47.1287V60.4367ZM16.9072 60.5864H30.2153C28.4951 62.2671 26.149 63.3082 23.5606 63.3082C20.9722 63.3082 18.626 62.2671 16.9072 60.5864ZM61.9511 93.2476H45.0489L53.5 79.5136L61.9511 93.2476ZM59.7247 84.4359L53.5 74.3205L47.2753 84.4359C37.1503 82.3905 28.6897 75.4636 24.6765 65.9728C30.908 65.4067 35.8085 60.1591 35.8085 53.782C35.8085 47.4117 30.9189 42.1669 24.6955 41.5912C25.3297 40.0861 26.0755 38.6504 26.9179 37.2895L70.0021 80.3737C66.8448 82.3388 63.3963 83.6956 59.7247 84.4359ZM30.365 60.4354V47.1287C32.0457 48.8475 33.0867 51.195 33.0867 53.782C33.0867 56.3691 32.0457 58.7166 30.365 60.4354ZM70.511 77.0341L68.3527 74.8757L74.5937 68.6347L76.752 70.7931L70.511 77.0341ZM84.8697 78.9107C85.7026 79.7436 86.1612 80.8527 86.1612 82.0312C86.1612 84.4645 84.1824 86.4432 81.7492 86.4432C80.5707 86.4432 79.4615 85.9846 78.6287 85.1517L72.4353 78.9584L78.6763 72.7173L84.8697 78.9107ZM80.0821 70.2746L75.8375 66.03H82.2799C81.6512 67.5147 80.9136 68.9314 80.0821 70.2746Z" fill="#F38332"/>
<path d="M83.4387 45.7705L74.1779 60.5864H92.6981L83.4387 45.7705ZM83.4387 50.9065L87.7867 57.8647H79.0893L83.4387 50.9065Z" fill="#F38332"/>
<path d="M54.8607 87.8047H52.139V90.5265H54.8607V87.8047Z" fill="#F38332"/>
</svg>
