<svg width="94" height="94" viewBox="0 0 94 94" fill="none" xmlns="http://www.w3.org/2000/svg">
<g clip-path="url(#clip0_2685_131)">
<path d="M85.9647 20.9238H62.55V7.9156C62.55 7.2256 62.2759 6.56387 61.788 6.07597C61.3001 5.58807 60.6383 5.31396 59.9483 5.31396H33.932C33.242 5.31396 32.5802 5.58807 32.0923 6.07597C31.6044 6.56387 31.3303 7.2256 31.3303 7.9156V20.9238H7.91562C7.22562 20.9238 6.56388 21.1979 6.07598 21.6858C5.58808 22.1737 5.31398 22.8354 5.31398 23.5254V85.9647C5.31398 86.6547 5.58808 87.3164 6.07598 87.8043C6.56388 88.2922 7.22562 88.5663 7.91562 88.5663H85.9647C86.6547 88.5663 87.3164 88.2922 87.8043 87.8043C88.2922 87.3164 88.5663 86.6547 88.5663 85.9647V23.5254C88.5663 22.8354 88.2922 22.1737 87.8043 21.6858C87.3164 21.1979 86.6547 20.9238 85.9647 20.9238ZM36.5336 20.9238V10.5172H57.3467V20.9238C57.3467 23.6838 56.2503 26.3307 54.2987 28.2823C52.3471 30.2339 49.7001 31.3303 46.9402 31.3303C44.1802 31.3303 41.5332 30.2339 39.5816 28.2823C37.63 26.3307 36.5336 23.6838 36.5336 20.9238ZM83.3631 83.3631H10.5173V26.1271H32.2877C33.3601 29.1601 35.3433 31.7877 37.9661 33.6505C40.5889 35.5133 43.7232 36.5203 46.9402 36.5336C50.1571 36.5203 53.2914 35.5133 55.9142 33.6505C58.537 31.7877 60.5203 29.1601 61.5926 26.1271H83.3631V83.3631ZM44.3385 46.9401C44.3385 44.1802 43.2421 41.5332 41.2905 39.5816C39.3389 37.63 36.692 36.5336 33.932 36.5336C31.172 36.5336 28.525 37.63 26.5734 39.5816C24.6218 41.5332 23.5254 44.1802 23.5254 46.9401C23.5254 49.7001 24.6218 52.3471 26.5734 54.2987C28.525 56.2503 31.172 57.3467 33.932 57.3467C36.692 57.3467 39.3389 56.2503 41.2905 54.2987C43.2421 52.3471 44.3385 49.7001 44.3385 46.9401ZM33.932 52.1434C32.552 52.1434 31.2285 51.5952 30.2527 50.6194C29.2769 49.6436 28.7287 48.3201 28.7287 46.9401C28.7287 45.5602 29.2769 44.2367 30.2527 43.2609C31.2285 42.2851 32.552 41.7369 33.932 41.7369C35.312 41.7369 36.6354 42.2851 37.6113 43.2609C38.5871 44.2367 39.1353 45.5602 39.1353 46.9401C39.1353 48.3201 38.5871 49.6436 37.6113 50.6194C36.6354 51.5952 35.312 52.1434 33.932 52.1434ZM39.1353 57.3467H28.7287C25.2787 57.3467 21.97 58.7172 19.5305 61.1567C17.091 63.5962 15.7205 66.9049 15.7205 70.3549C15.7205 72.4249 16.5428 74.4101 18.0065 75.8738C19.4702 77.3375 21.4554 78.1598 23.5254 78.1598H44.3385C46.4085 78.1598 48.3937 77.3375 49.8574 75.8738C51.3211 74.4101 52.1434 72.4249 52.1434 70.3549C52.1434 66.9049 50.7729 63.5962 48.3334 61.1567C45.8939 58.7172 42.5852 57.3467 39.1353 57.3467ZM44.3385 72.9565H23.5254C22.8354 72.9565 22.1737 72.6824 21.6858 72.1945C21.1979 71.7066 20.9238 71.0449 20.9238 70.3549C20.9238 68.2849 21.7461 66.2997 23.2098 64.836C24.6735 63.3723 26.6587 62.55 28.7287 62.55H39.1353C41.2052 62.55 43.1904 63.3723 44.6542 64.836C46.1179 66.2997 46.9402 68.2849 46.9402 70.3549C46.9402 71.0449 46.6661 71.7066 46.1782 72.1945C45.6903 72.6824 45.0285 72.9565 44.3385 72.9565ZM75.5582 41.7369C76.2482 41.7369 76.9099 42.011 77.3978 42.4989C77.8857 42.9868 78.1598 43.6485 78.1598 44.3385C78.1598 45.0285 77.8857 45.6902 77.3978 46.1781C76.9099 46.666 76.2482 46.9401 75.5582 46.9401H54.7451C54.0551 46.9401 53.3933 46.666 52.9054 46.1781C52.4175 45.6902 52.1434 45.0285 52.1434 44.3385C52.1434 43.6485 52.4175 42.9868 52.9054 42.4989C53.3933 42.011 54.0551 41.7369 54.7451 41.7369H75.5582ZM78.1598 59.9483C78.1598 60.6383 77.8857 61.3001 77.3978 61.788C76.9099 62.2759 76.2482 62.55 75.5582 62.55H59.9483C59.2583 62.55 58.5966 62.2759 58.1087 61.788C57.6208 61.3001 57.3467 60.6383 57.3467 59.9483C57.3467 59.2583 57.6208 58.5966 58.1087 58.1087C58.5966 57.6208 59.2583 57.3467 59.9483 57.3467H75.5582C76.2482 57.3467 76.9099 57.6208 77.3978 58.1087C77.8857 58.5966 78.1598 59.2583 78.1598 59.9483ZM78.1598 75.5581C78.1598 76.2481 77.8857 76.9099 77.3978 77.3978C76.9099 77.8857 76.2482 78.1598 75.5582 78.1598H59.9483C59.2583 78.1598 58.5966 77.8857 58.1087 77.3978C57.6208 76.9099 57.3467 76.2481 57.3467 75.5581C57.3467 74.8681 57.6208 74.2064 58.1087 73.7185C58.5966 73.2306 59.2583 72.9565 59.9483 72.9565H75.5582C76.2482 72.9565 76.9099 73.2306 77.3978 73.7185C77.8857 74.2064 78.1598 74.8681 78.1598 75.5581Z" fill="white"/>
</g>
<defs>
<clipPath id="clip0_2685_131">
<rect width="83.2524" height="83.2524" fill="white" transform="translate(5.31398 5.31396)"/>
</clipPath>
</defs>
</svg>
