<svg width="52" height="79" viewBox="0 0 52 79" fill="none" xmlns="http://www.w3.org/2000/svg">
<path d="M0.35791 32.511L0.0160373 32.2745L0.446123 32.1872L0.411104 31.7323L1.26699 31.3237L1.53295 30.9536L1.79678 31.465L2.28487 31.4856L3.12793 31.0898L3.4118 30.2778L2.8919 30.1878L3.23538 29.7329L3.45937 30.1904L3.66947 30.1826L3.44093 29.6224L4.35055 28.0137L3.95655 27.8287L3.42009 28.0779L3.16615 27.8723L3.93704 27.2067L4.56947 27.474L4.53178 26.7853L4.84586 26.3099L4.73226 25.8164L3.79697 25.5106L3.782 25.2434L2.99375 25.1149L2.76814 25.3898L2.94108 25.1174L2.64305 24.7294L2.67138 24.1049L2.87587 23.9713L3.09131 24.2719L3.17791 23.9302L2.87078 23.859L2.82695 23.2617L2.33325 23.1828L2.37468 22.6789L2.01356 22.9862L1.83233 22.7683L2.21083 22.6696L2.10204 22.1934L2.53987 22.6845L2.71735 22.0906L3.13728 22.049L3.10253 22.2605L3.41955 22.3857L3.57673 21.7984L4.37701 21.4965L4.43475 20.8491L4.67425 21.2439L5.29385 21.1675L5.55633 22.1071L6.27911 21.8321L6.35395 21.4736L6.90593 21.5001L6.55951 21.1169L6.97302 20.6839L6.99681 20.2182L8.81577 19.5745L9.61446 19.5848L9.47681 18.5887L10.0814 18.3345L10.1181 18.0159L9.65135 17.7815L9.7834 17.6031L10.8496 17.5967L10.8686 17.781L11.5473 17.5147L12.1359 18.3851H12.6991L12.6242 18.7503L13.0033 18.7699L13.7798 18.3772L13.8458 17.4438L14.5052 17.4698L15.0788 17.1932L15.4996 17.3431L15.9273 17.0894L16.2127 17.5813L17.1154 17.341L17.1787 16.8293L17.5701 16.8838L17.5832 17.2721L17.9817 17.4875L18.3249 17.3803L18.2977 16.5053L17.9673 16.4973L18.369 16.191L18.3704 15.8276L17.7844 14.9464L18.18 14.5036L18.1541 13.8871L17.5284 13.4011L17.6115 12.9478L17.2835 12.8609L17.2108 12.4762L17.643 12.3724L17.8727 11.3768L18.3591 11.6045L18.5171 12.1313L19.049 12.0239L19.8068 12.6248L20.0666 12.0126L20.4983 12.4431L20.7916 12.0771L20.8659 12.8167L21.3008 13.1598L22.7324 12.8093L23.0128 13.0904L23.5054 12.669L23.9917 12.9648L24.1379 13.4726L24.098 12.8738L24.9336 12.5731L25.299 13.0858L26.0849 12.8604L26.1851 13.3171L26.5264 13.3032L26.8325 12.635L26.2982 12.5685L26.4278 11.879L25.9694 11.9034L25.9363 11.4794L26.4495 11.1921L26.083 11.182L26.3457 10.8585L26.0432 10.6221L25.9461 10.014L26.9204 9.90533L27.0717 9.43761L27.7745 9.24821L27.7402 8.63349L28.173 8.61371L28.1735 8.10538L28.7488 8.09253L28.7482 8.7661L29.2264 7.99668L29.7918 8.93289L30.1093 9.02515L30.1975 8.48855L30.5394 8.36108L30.4015 7.83889L30.9473 7.77875L31.2421 7.32003L30.6541 6.9641L30.6912 6.48661L31.4119 6.83252L32.7302 6.28746L32.7446 4.91051L33.1731 4.83547L33.0844 4.43791L33.3311 4.16525L32.8007 3.94346L33.1669 3.14167L33.5588 3.09952L33.9771 3.40046L34.0803 3.15453L34.3685 3.52098L34.9627 3.51662L34.8079 3.02217L35.4398 2.77135L35.6779 2.02044L36.0915 2.05461L35.9664 1.64857L36.5421 0.97244L36.486 0.52759L37.3817 0L37.6683 0.274978L37.9879 0.0719483L37.989 0.620886L38.4573 0.762994L37.862 1.67272L38.7623 1.72105L39.0986 2.26509L39.6185 2.04922L39.6102 1.719L40.0795 1.89862L40.6946 2.05461L40.2458 2.95895L40.6342 3.52638L40.6671 4.13801L40.0309 4.67023L40.5706 5.17855L41.1963 5.37617L41.28 5.65449L41.1707 5.92175L40.9357 5.78915L40.8526 6.42854L40.4885 6.36635L40.6222 6.80631L40.3444 6.77881L40.0774 7.4164L39.8018 7.31464L39.6267 7.61043L39.5524 7.8299L40.2659 8.04422L40.2199 8.24236L38.924 8.89176L38.8032 10.1695L39.3846 10.3461L39.5193 10.6411L39.8184 10.2654L40.0619 10.5421L40.5422 10.3869L40.5644 10.7369L41.6534 11.0515L41.6347 11.4324L41.218 11.3355L41.2722 11.0792L41.1292 11.3961L40.7874 11.467L40.7833 11.7659L40.3495 11.6497L40.3423 11.9366L39.6179 11.963L39.9122 12.2321L39.8251 12.6034L39.4899 12.8129L38.9385 12.6227L38.7345 13.5774L38.9721 13.7213L38.1122 14.3736L38.3261 14.501L37.8759 15.0476L39.0665 15.7153L39.4931 16.8368L38.9596 17.976L39.1657 19.4807L38.7754 19.4339L38.6115 20.2283L39.1151 20.2581L39.0948 20.6476L38.5322 20.8265L38.7222 21.1182L39.1451 21.011L39.0847 21.7363L38.2413 21.9557L38.5183 22.5034L38.0983 22.5856L37.9497 22.8929L37.1417 22.8082L37.0879 23.0145L36.4291 23.079L37.0032 23.8307L37.6792 24.0998L38.4774 24.2976L39.4372 24.146L40.5639 24.588L40.5489 25.174L40.2552 25.0481L39.8932 25.4515L39.5153 25.3924L39.3568 25.6006L39.3707 25.8961L39.6257 25.9064L39.3108 26.6542L39.3464 27.1476L39.6102 27.289L39.3934 28.1319L39.6179 28.4583L39.6102 29.3963L36.5876 28.9697L35.3639 29.1676L34.4649 29.6456L33.9579 30.4217L34.4406 30.5219L34.2006 31.5447L35.1487 32.4133L35.0469 32.8039L34.6432 32.4827L34.0381 32.7011L34.0071 34.2431L33.3725 34.1685L33.3549 34.3459L34.0159 34.9883L34.4123 36.2912L34.9704 36.227L35.037 36.6587L35.4136 36.7076L35.602 37.0108L35.1 37.4477L35.5323 37.7612L35.5267 38.2778L35.2297 38.3497L35.4842 38.6041L34.6117 39.9867L34.1728 39.925L34.2409 39.6527L33.705 39.6475L33.4861 39.8685L32.2669 39.6578L31.3413 38.9459L31.0783 39.167L31.1978 39.7966L30.9569 40.3311L31.7005 40.5495L32.1245 40.4005L31.9422 42.2354L31.1486 42.518L31.3541 43.0295L30.9147 44.5508L31.3736 45.4015L31.6965 45.4529L32.1916 46.0799L33.3885 45.9668L33.0451 46.3472L33.0197 46.8689L32.6893 46.707L32.3418 46.9742L32.2953 47.4753L33.1188 48.0741L32.8261 48.326L32.9764 48.6909L34.273 48.6986L34.5713 49.043L34.9167 48.9993L34.9958 48.1486L35.4625 47.5756L36.3879 47.8788L36.9588 47.6501L36.9407 48.2797L37.8644 48.3568L37.8195 48.8065L38.1486 49.2434L38.5188 49.0147L38.0467 48.0613L38.1702 47.722L38.8281 47.8942L38.9716 48.326L39.4538 48.3286L39.5022 49.7112L38.2181 49.5467L38.0673 49.9553L37.7313 50.0144L37.6942 50.3382L38.2186 50.0812L38.2849 50.2534L37.4814 51.1734L38.1448 51.3507L38.055 51.7876L38.6928 51.7927L38.4268 52.1654L38.6559 52.4712L38.2435 52.8078L38.2269 52.6048L37.7385 52.6177L37.8019 51.636L37.3347 51.1528L35.4072 51.5306L35.1027 50.955L33.9728 50.8265L33.7943 50.3151L33.9279 49.4618L33.0207 49.2717L32.9662 49.539L32.4378 49.6186L32.3479 49.9373L32.8505 49.981L33.4075 50.6903L32.898 51.176L34.1134 52.2861L34.1768 52.6074L33.8985 52.6536L33.3316 53.5557L33.612 54.3755L33.8309 54.486L34.0044 54.044L34.3957 54.4166L34.8041 54.1647L35.6314 54.2367L35.5812 53.4837L35.1361 53.1548L35.5844 53.0674L35.5085 52.5791L35.7528 52.3787L35.7734 53.0366L36.0765 52.7924L36.1529 53.0186L36.4119 52.6357L36.6047 53.2678L37.2598 53.0648L37.4116 53.4246L37.8693 53.1985L38.6241 53.3167L38.4402 53.7279L39.0061 53.7536L38.9168 55.1362L39.302 55.0925L39.353 54.7815L39.6423 55.0231L39.7275 54.36L40.1498 54.6736L40.6088 54.3626L40.9063 54.5476L41.0859 54.4577L40.7812 54.2264L41.2295 53.9951L41.4746 53.9746L41.3992 54.2624L41.7683 54.1596L41.9212 54.486L41.9688 53.8281L42.7303 53.5737L42.702 53.309L43.3016 53.0288L43.0541 52.4789L43.1925 52.1808L43.9896 52.2219L44.2748 52.6099L44.9112 52.0009L45.0457 52.6536L44.633 52.8027L44.6573 53.4914L44.9032 53.4889L45.1283 53.016L45.7391 53.1162L45.7778 52.7282L46.6179 53.2524L46.6725 53.9823L46.2862 54.4782L46.5698 54.743L46.5233 55.0385L46.0438 54.9948L45.9775 55.2364L46.2373 55.5987L47.1074 55.4445L47.163 55.7349L47.5508 55.8171L47.4265 56.4982L47.9421 56.1461L49.8341 56.2489L49.4206 58.7905L49.9105 59.0501L49.5582 59.1914L49.8397 59.3764L50.2249 59.2017L50.3585 59.4381L50.7734 59.3302L51.3427 59.9238L51.7466 59.4253L52 59.8519L51.8979 60.5097L51.5761 60.7025L51.9024 61.052L51.2024 61.4734L51.4253 61.7253L51.1233 61.9052L51.1543 62.2341L50.5389 62.4757L50.6127 63.2518L50.2038 63.1901L50.3561 63.9637L49.6895 64.0253L49.3075 63.6502L48.8165 64.5702L48.0972 64.5676L47.8601 65.6469L46.7 65.4465L45.8422 64.6267L45.4731 64.5856L45.3173 65.1587L45.0844 65.1561L44.6688 64.547L44.428 64.9505L44.2473 64.858L44.5397 64.4699L44.3459 64.2155L42.8047 64.7218L42.9741 65.2563L42.1845 66.6517L41.864 66.5413L41.5687 66.8214L41.2893 66.5361L40.5473 66.7237L40.6342 67.14L40.3118 67.8545L40.4099 68.4327L40.7328 68.5149L40.3733 68.8721L40.9512 68.7719L40.8921 69.5531L40.7037 70.1725L39.9948 70.9666L39.1534 71.2158L39.1007 71.8917L42.1252 72.2875L42.6133 72.9865L41.6967 74.071L41.3604 74.8856L39.3175 74.9499L39.2306 75.5872L38.9507 75.4458L38.9911 76.0061L38.5616 77.0084L37.8682 76.6897L37.4809 76.9133L37.0021 76.4687L36.502 76.4224L36.3315 76.6331L34.8899 76.867L34.9653 77.435L34.528 77.2962L34.353 76.7077L33.9563 76.849L34.0643 76.6306L33.7483 76.4147L33.3808 76.4378L33.2279 76.8439L32.5329 76.6383L31.7072 78.2136L31.967 78.6916L31.8091 79L31.568 78.743L30.753 78.5939L28.5932 78.5965L28.3647 77.9155L27.9447 77.602L27.3318 78.0877L27.0081 78.0414L26.6943 77.5686L26.9555 77.3861L26.8253 76.9775L25.9822 77.2345L25.2517 76.407L24.631 76.4481L24.2309 75.726L23.3499 75.8699L23.348 74.5156L22.0318 75.0527L20.6662 74.8548L20.0589 74.3614L19.7723 73.3771L18.8135 73.4799L18.6347 73.0456L18.18 73.1484L17.863 72.5676L17.1876 72.4751L16.0957 70.9383L15.3582 70.9357L15.3841 70.0234L14.737 69.5685L14.7485 69.0623L15.3969 68.9646L15.3039 68.5509L14.4494 69.0109L14.3799 68.6228L13.7565 68.3068L13.7065 67.7851L14.2986 67.5461L13.7049 67.2454L13.0808 67.8005L12.8322 67.0912L12.3417 67.1837L12.1538 66.9987L12.2431 66.5104L11.4941 66.2663L11.4594 66.6235L11.0499 66.6954L11.0712 66.0735L10.5775 66.1378L10.6363 65.981L10.3183 65.9014L10.5946 65.5544L10.4051 65.2126L8.95263 65.6238L8.41777 64.511L6.95805 58.8753L6.67418 55.6141L5.93322 52.9569L5.50769 52.0446L5.05943 51.8338L4.71194 51.176L4.35723 49.3359L4.01857 48.8759L2.99722 45.6816L3.45483 45.3578L3.12285 45.1008L3.02262 45.4631L2.48454 45.4785L2.31106 44.5534L2.02051 44.263L2.19799 44.1114L1.98523 43.2556L1.61449 42.8778L1.26967 43.2196L0 42.2945L0.325305 42.2251L0.412442 41.7497L0.192986 41.7445L0.0221879 41.1817L0.509203 40.899L0.927257 41.0301L0.88957 40.547L1.35012 40.8888L2.02612 40.3671L1.92856 40.0921L2.40034 39.5267L2.12208 38.8843L2.25226 38.342L2.62701 37.8717L2.45059 37.422L1.88045 37.0262L2.85635 36.6202L2.70238 35.767L2.17207 35.5203L2.17019 34.8932L1.86655 34.3613L2.22526 33.9398L1.84276 33.4824L2.00795 32.9787L1.85371 32.4647L1.57894 32.3234L1.36616 32.5264L1.09833 32.1589L0.904539 32.4904L0.35791 32.511Z" fill="#EF7C00"/>
</svg>
