<svg width="45" height="113" viewBox="0 0 45 113" fill="none" xmlns="http://www.w3.org/2000/svg">
<path d="M1.73461 108V98.2H3.45661V103.128L8.10461 98.2H10.2466L6.15861 102.414L10.4286 108H8.32861L4.98261 103.59L3.45661 105.158V108H1.73461ZM14.661 108.168C12.533 108.168 10.867 106.614 10.867 104.332V104.304C10.867 102.176 12.365 100.454 14.479 100.454C16.831 100.454 18.021 102.302 18.021 104.43C18.021 104.584 18.007 104.738 17.993 104.906H12.561C12.743 106.124 13.583 106.782 14.689 106.782C15.529 106.782 16.089 106.474 16.691 105.9L17.685 106.782C16.971 107.622 16.019 108.168 14.661 108.168ZM12.547 103.786H16.341C16.229 102.708 15.585 101.84 14.465 101.84C13.415 101.84 12.701 102.624 12.547 103.786ZM19.7082 108V100.608H21.4162V102.274C21.8782 101.154 22.7322 100.412 24.0342 100.468V102.26H23.9362C22.4382 102.26 21.4162 103.226 21.4162 105.186V108H19.7082ZM27.2779 108.154C25.8919 108.154 24.6459 107.37 24.6459 105.872V105.844C24.6459 104.234 25.9059 103.464 27.7119 103.464C28.5519 103.464 29.1259 103.59 29.6999 103.772V103.59C29.6999 102.526 29.0559 101.98 27.8659 101.98C27.0259 101.98 26.4239 102.162 25.7519 102.442L25.2899 101.112C26.1159 100.762 26.9139 100.51 28.0899 100.51C29.1959 100.51 30.0079 100.79 30.5399 101.336C31.0859 101.882 31.3379 102.652 31.3379 103.618V108H29.6859V107.076C29.1819 107.678 28.4119 108.154 27.2779 108.154ZM27.7539 106.922C28.8739 106.922 29.7279 106.292 29.7279 105.34V104.836C29.2939 104.668 28.7199 104.542 28.0479 104.542C26.9419 104.542 26.3119 104.99 26.3119 105.774V105.802C26.3119 106.516 26.9279 106.922 27.7539 106.922ZM33.4507 108V97.78H35.1587V108H33.4507ZM39.5006 108.154C38.1146 108.154 36.8686 107.37 36.8686 105.872V105.844C36.8686 104.234 38.1286 103.464 39.9346 103.464C40.7746 103.464 41.3486 103.59 41.9226 103.772V103.59C41.9226 102.526 41.2786 101.98 40.0886 101.98C39.2486 101.98 38.6466 102.162 37.9746 102.442L37.5126 101.112C38.3386 100.762 39.1366 100.51 40.3126 100.51C41.4186 100.51 42.2306 100.79 42.7626 101.336C43.3086 101.882 43.5606 102.652 43.5606 103.618V108H41.9086V107.076C41.4046 107.678 40.6346 108.154 39.5006 108.154ZM39.9766 106.922C41.0966 106.922 41.9506 106.292 41.9506 105.34V104.836C41.5166 104.668 40.9426 104.542 40.2706 104.542C39.1646 104.542 38.5346 104.99 38.5346 105.774V105.802C38.5346 106.516 39.1506 106.922 39.9766 106.922Z" fill="black"/>
<path d="M0 0.633139L2.22765 0L2.51831 0.526288L2.09443 1.06055L2.58227 1.18319L2.49208 1.42061L3.24925 1.32565L3.21646 2.2833L3.84449 2.17249L3.89778 1.62243L5.04605 1.9984L4.90954 2.75022L5.19774 3.03518L5.94958 2.89272L6.33124 3.98486L7.28846 3.13014L8.19896 3.5931L7.29093 3.96114L7.36759 4.76446L8.32359 5.25119L8.42976 5.84873L9.74077 5.14038L9.88344 5.77748L8.88891 5.92785L8.87128 6.7074L9.86376 7.40783L9.82399 8.81265L10.955 8.81661L12.6297 11.183L13.6656 11.3255L14.1518 12.2198L14.8487 12.0615L15.1234 12.7303L16.5939 12.572L17.0333 14.0876L17.9647 14.8474L20.0592 15.1521L22.0778 14.325L22.0806 16.4065L23.4318 16.1888L24.0455 17.3008L24.9974 17.2375L26.1178 18.5077L27.4108 18.116L27.6104 18.7452L27.2099 19.0261L27.6912 19.7543L27.7149 20.3834L26.9184 20.3993L26.3863 21.0878L25.4574 21.4083L24.9781 20.9137L24.1738 21.4083L24.4288 23.2326L25.1036 22.9754L25.8661 23.4938L26.094 23.2484L27.4591 23.6877L28.1347 24.5939L29.2219 25.1994L29.7327 25.1123L29.7684 26.1451L28.0999 27.2215L28.213 28.096L28.8333 27.7042L31.2421 28.001L32.5573 27.2056L33.0664 27.5974L32.4544 28.7172L33.3009 29.1209L33.2718 30.403L34.2569 30.4941L32.7278 30.684L31.707 32.5478L34.7033 33.6321L35.1104 34.5699L35.9623 34.7045L36.1263 35.211L35.3789 36.8691L35.6835 37.6645L34.4799 37.7198L34.9202 38.4361L34.5213 41.3881L35.0907 42.3458L34.7406 43.4657L35.0764 43.7704L35.5347 43.5528L35.499 43.9524L36.2673 44.6885L37.4291 44.9655L38.6343 44.2809L38.8717 43.6319L40.8485 42.5793L41.9016 42.6822L41.7655 43.2837L42.4075 44.1859L42.3362 44.7597L42.9396 44.9892L42.5715 46.5167L41.2904 46.9796L42.3632 48.2341L42.5579 49.3896L42.1254 49.5756L41.4921 50.9052L41.9291 51.198L41.6663 51.7956L42.1115 52.2467L41.6815 52.3971L41.6536 53.4021L41.3281 53.509L40.6513 55.4085L41.4351 55.4401L42.4866 56.1168L43.3635 55.63L43.7283 56.1485L44.0149 55.5944L44.1863 56.7856L45 57.3L44.6852 58.0914L43.8964 58.4318L43.4885 60.2164L43.0048 60.2243L42.6973 60.8575V62.2781L42.1603 62.7886L42.4296 63.4138L41.4351 64.3556L41.1904 65.2539L40.302 65.6813L41.1563 66.8012L41.1604 67.3394L41.5925 67.3116L42.273 68.3168L41.7692 69.7572L41.0907 70.4616L40.7136 70.418L42.6674 73.8727L42.3538 74.4939L41.2674 74.6324L41.6766 75.5901L40.3479 76.611L40.7898 77.7507L40.1183 77.5726L39.6653 78L37.5025 76.5002L31.3979 68.7125L29.8754 67.5728L29.3859 65.5665L26.1686 58.6969L24.3796 49.1838L24.6617 49.1126L25.4176 50.4936L26.5724 51.6768L26.5741 53.7741L27.0988 54.1224L26.5105 56.8014L26.9746 57.1298V56.7895L29.085 56.6985L27.5575 56.097L27.8092 55.3135L27.651 54.6368L27.3198 54.6882L27.5178 53.8335L26.9635 53.7187L26.8701 50.9249L26.208 49.9753L25.9165 50.0663L26.1248 50.5926L25.828 50.5095L24.5973 48.0639L24.8642 47.2092L23.8159 46.0339L24.4883 48.9108L24.1427 48.978L21.9232 41.9817L18.5575 34.8351L17.6233 30.9056L15.4542 25.0846L14.5097 23.4305L13.3479 22.9279L12.0135 19.3585L9.57229 16.636L8.68763 16.26L7.09539 13.7077L6.46817 13.3911L5.94875 13.7196L5.59784 12.1525L1.89109 5.10081L0 0.633139Z" fill="#FFBC5C"/>
</svg>
