<svg width="72" height="28" viewBox="0 0 72 28" fill="none" xmlns="http://www.w3.org/2000/svg">
<path d="M1.1707 14.8322L4.72335 13.34L1.71239 9.91581L2.69952 9.66926L3.22396 8.89786L2.96704 7.60641L4.50532 7.02936L4.83401 6.54594L4.41856 6.2068L7.1687 4.07292L8.71089 4.50679L12.1328 3.73486L13.1144 2.80464L13.8752 2.70558L14.651 3.35534L15.8262 2.67758L17.2054 4.15634L16.6771 5.75355L18.3644 4.11061L19.4873 4.68875L18.9456 5.33956L19.3861 5.68462L20.8654 4.34316L22.3458 4.17573L22.1796 5.26366L23.085 5.4424L23.853 4.30817L24.5031 4.66884L25.6193 4.31947L26.4914 5.31265L26.4129 4.5407L27.0608 4.42659L27.657 5.98824L29.148 5.96564L28.4618 7.66457L29.6274 6.9782L30.3387 6.8797L29.6469 7.49283L29.97 7.71247L33.1845 6.71443L32.7858 8.84992L33.0778 10.0552L33.8486 10.2135L35.0943 9.60788L36.4958 7.23606L38.5535 6.82532L39.1709 7.17898L41.1285 6.35646L41.2286 5.92312L40.7003 6.49695L39.905 6.39898L41.2675 5.04405L40.5501 5.11995L42.3409 2.21572L43.7034 2.49241L43.8425 3.98033L43.1973 4.62415L44.5988 5.51722L45.8279 4.25918L46.0948 1.54014L48.2193 0L49.5819 0.543705L49.4484 1.72209L50.6997 3.08402L52.3626 2.01008L53.8586 2.22325L55.794 1.88519L56.8841 1.01582L58.4023 1.45454L59.7593 1.02442L56.3557 4.49926L56.5337 5.35195L58.0241 5.4747L56.923 6.42697L56.2778 7.90895L56.4614 11.5442L58.1075 10.4003L60.6325 10.1677L61.8782 9.43561L63.035 10.0073L63.0127 11.0495L63.8192 11.2707L64.6923 12.8055L66.0382 13.0865L66.3997 14.415L67.1282 14.4942L68.3517 13.5979L68.1404 15.0072L66.2773 16.8089L67.017 16.7007L67.2839 18.1192L68.3739 17.6358L68.513 18.2785L68.8411 18.1047L69.9145 19.1883L70.3705 19.0268L70.9377 20.2095L71.5162 20.28L71.7052 21.4966L71.0379 22.4171L72 23.1885L68.6798 24.2732L67.5843 25.7983L65.2428 25.2244L65.6878 26.2623L64.2696 26.0448L63.7636 27.8654L62.8626 28L60.9606 27.4789L60.9773 26.8103L58.2188 26.3296L54.2034 23.9432L47.3184 24.4999L46.6176 24.2032L46.4007 24.9375L45.5165 24.7432L43.9982 25.6686L43.0583 25.0769L43.3475 24.3034L39.8883 25.3827L38.5758 24.453L36.7072 24.3976L35.0498 23.5734L30.435 23.7489L25.2322 24.8115L23.2635 24.0972L22.1495 24.8551L21.0278 24.4121L16.7778 24.3249L15.2244 25.1092L12.5483 23.8517L7.08472 22.9931L3.61049 21.038L0.304786 21.2264L0.621792 20.8528L0 18.9218L0.807535 16.5877L1.40818 16.2642L1.1707 14.8322Z" fill="#EF7C00"/>
</svg>
