<svg width="33" height="40" viewBox="0 0 33 40" fill="none" xmlns="http://www.w3.org/2000/svg">
<g opacity="0.1">
<path d="M8.17306 25.7348C8.17306 25.0705 7.70597 24.6744 6.88183 24.6744C6.54529 24.6744 6.31738 24.7071 6.19817 24.7385V26.8698C6.33932 26.9012 6.51284 26.9116 6.75202 26.9116C7.63047 26.9116 8.17306 26.4737 8.17306 25.7348Z" fill="black"/>
<path d="M13.275 24.6967C12.9059 24.6967 12.6674 24.7281 12.5263 24.7607V29.481C12.6675 29.5137 12.8954 29.5137 13.1015 29.5137C14.5987 29.5242 15.5751 28.7109 15.5751 26.9875C15.5857 25.489 14.6959 24.6967 13.275 24.6967Z" fill="black"/>
<path d="M22.7538 0H6.47384C4.09549 0 2.15977 1.91156 2.15977 4.25728V20H1.73841C0.778492 20 0 20.7675 0 21.7156V32.1195C0 33.0676 0.778408 33.835 1.73841 33.835H2.15977V35.7427C2.15977 38.091 4.09549 40 6.47384 40H28.6872C31.064 40 33 38.0909 33 35.7427V10.0758L22.7538 0ZM4.56057 23.5931C5.07004 23.5082 5.78615 23.4441 6.79508 23.4441C7.81468 23.4441 8.54139 23.6362 9.02967 24.022C9.49609 24.3855 9.81085 24.9856 9.81085 25.6918C9.81085 26.3978 9.57234 26.998 9.13837 27.4046C8.57392 27.929 7.73919 28.1643 6.76271 28.1643C6.54539 28.1643 6.3506 28.1537 6.19826 28.1329V30.7127H4.56057V23.5931ZM28.6872 37.3928H6.47384C5.55294 37.3928 4.80303 36.6527 4.80303 35.7427V33.835H25.5104C26.4705 33.835 27.2489 33.0676 27.2489 32.1195V21.7156C27.2489 20.7675 26.4705 20 25.5104 20H4.80303V4.25728C4.80303 3.34982 5.55302 2.60979 6.47384 2.60979L21.7654 2.59402V8.17192C21.7654 9.80116 23.105 11.1243 24.7572 11.1243L30.2943 11.1087L30.3566 35.7426C30.3566 36.6527 29.608 37.3928 28.6872 37.3928ZM10.8669 30.68V23.5931C11.4743 23.4977 12.266 23.4441 13.1015 23.4441C14.49 23.4441 15.3904 23.6899 16.0959 24.2142C16.8551 24.7712 17.332 25.6591 17.332 26.9338C17.332 28.3146 16.8226 29.2678 16.117 29.8561C15.3471 30.4876 14.1753 30.7871 12.7436 30.7871C11.8863 30.7871 11.2789 30.7335 10.8669 30.68ZM22.7062 26.4841V27.8112H20.0807V30.7127H18.4212V23.4977H22.8904V24.8352H20.0807V26.4841H22.7062Z" fill="black"/>
</g>
</svg>
