<svg width="18" height="18" viewBox="0 0 18 18" fill="none" xmlns="http://www.w3.org/2000/svg">
<path d="M13.875 15.75C7.45469 15.75 2.25 10.5453 2.25 4.125C2.25 3.83533 2.2606 3.54814 2.28142 3.2638C2.30531 2.93746 2.31726 2.7743 2.40278 2.62577C2.47361 2.50276 2.59912 2.3861 2.72698 2.32444C2.88136 2.25 3.06141 2.25 3.42151 2.25H5.53449C5.83731 2.25 5.98872 2.25 6.11851 2.29984C6.23317 2.34386 6.33526 2.41537 6.41582 2.50808C6.50701 2.61302 6.55875 2.75532 6.66224 3.03991L7.53682 5.44504C7.6572 5.77615 7.71743 5.9417 7.70723 6.09877C7.69823 6.23728 7.6509 6.37056 7.57065 6.48379C7.47965 6.61221 7.32859 6.70285 7.02647 6.88411L6 7.5C6.90142 9.48668 8.51258 11.0999 10.5 12L11.1159 10.9735C11.2972 10.6714 11.3878 10.5203 11.5162 10.4293C11.6294 10.3491 11.7627 10.3018 11.9012 10.2928C12.0583 10.2826 12.2239 10.3428 12.555 10.4632L14.9601 11.3377C15.2447 11.4412 15.387 11.493 15.4919 11.5842C15.5846 11.6647 15.6562 11.7668 15.7001 11.8815C15.75 12.0113 15.75 12.1627 15.75 12.4655V14.5785C15.75 14.9386 15.75 15.1187 15.6755 15.273C15.6139 15.4009 15.4973 15.5264 15.3743 15.5972C15.2257 15.6827 15.0625 15.6947 14.7362 15.7186C14.4518 15.7394 14.1646 15.75 13.875 15.75Z" stroke="#666666" stroke-width="1.5" strokeLinecap="round" stroke-linejoin="round"/>
</svg>
