<svg width="30" height="35" viewBox="0 0 30 35" fill="none" xmlns="http://www.w3.org/2000/svg">
<path d="M16.0128 10.0928H13.6406V21.3606H16.0128V10.0928Z" fill="#FFC600"/>
<path d="M20.5787 3.50958C18.9182 1.90837 16.724 1.13741 14.4111 1.25602C10.1412 1.43393 6.70152 4.99219 6.52361 9.2621C6.405 11.6343 7.35387 13.9471 9.07369 15.6077C10.6749 17.1496 11.6831 19.2252 11.8017 21.4788H12.3947V10.0924H10.6156V11.2785H9.42952V9.49932C9.42952 9.2028 9.72604 8.90628 10.0226 8.90628H12.9878H16.546H19.5113C19.8078 8.90628 20.1043 9.2028 20.1043 9.49932V11.2785H18.9182V10.0924H17.1391V21.3602H17.7321C17.91 19.1659 18.8589 17.031 20.4601 15.4891C22.2393 13.9471 23.1288 11.8122 23.1288 9.49932C23.1288 7.18645 22.2393 5.0515 20.5787 3.50958Z" fill="#FFC600"/>
<path d="M16.0128 10.0928H13.6406V21.3606H16.0128V10.0928Z" fill="#FFC600"/>
<path d="M20.5787 3.50958C18.9182 1.90837 16.724 1.13741 14.4111 1.25602C10.1412 1.43393 6.70152 4.99219 6.52361 9.2621C6.405 11.6343 7.35387 13.9471 9.07369 15.6077C10.6749 17.1496 11.6831 19.2252 11.8017 21.4788H12.3947H17.1391H17.7321C17.91 19.2845 18.8589 17.1496 20.4601 15.6077C22.2393 13.9471 23.1288 11.8122 23.1288 9.49932C23.1288 7.18645 22.2393 5.0515 20.5787 3.50958Z" fill="#FF9900"/>
<path d="M21.9428 9.49915C21.9428 7.54211 21.1718 5.70367 19.7485 4.33967C18.3845 3.09428 16.6647 2.38263 14.8262 2.38263C14.7076 2.38263 14.589 2.38263 14.4704 2.38263C10.7936 2.56054 7.82833 5.58506 7.70973 9.20263C7.65042 11.219 8.42138 13.2353 9.90399 14.6586C11.4459 16.1412 12.5134 18.039 12.8692 20.1739H16.724C17.0798 18.0983 18.1473 16.1412 19.6892 14.6586C21.1718 13.2946 21.9428 11.4562 21.9428 9.49915Z" fill="#FFC600"/>
<path d="M21.35 24.9184L22.5361 24.8591C22.5361 24.2067 22.9512 23.673 23.6036 23.4358C24.1373 23.2579 24.6117 22.902 25.0862 22.5462C26.6874 22.6055 28.5258 23.3765 28.5258 25.5114C28.5258 27.4092 27.0432 28.9511 25.1455 29.0697C24.4931 27.7057 23.0698 26.6975 21.4093 26.6975C19.0964 26.6975 17.258 28.5359 17.258 30.8488H18.4441C18.4441 29.1883 19.7488 27.8836 21.4093 27.8836C23.0698 27.8836 24.3745 29.1883 24.3745 30.8488C24.3745 32.5093 23.0698 33.814 21.4093 33.814H7.71C6.04948 33.814 4.74478 32.5093 4.74478 30.8488V30.2558C4.74478 28.9511 5.81226 27.8836 7.11696 27.8836V26.6975C5.63435 26.6975 4.32965 27.6464 3.79591 28.9511C2.31331 28.5359 1.18652 27.1719 1.18652 25.5114C1.18652 23.3765 2.96565 22.6055 4.56687 22.5462C5.39713 23.2579 6.52391 23.7323 7.71 23.7323H8.89609V22.5462H7.71C5.75296 22.5462 4.15174 20.945 4.15174 18.9879C4.15174 17.0902 5.63435 15.5483 7.47278 15.4297C7.71 15.7262 8.00652 16.082 8.30304 16.3786C9.84496 17.8019 10.6752 19.8775 10.6752 21.9532C10.6752 22.2497 10.9717 22.5462 11.2683 22.5462H11.8613V23.7323C11.8613 24.0288 12.1578 24.3253 12.4543 24.3253H13.0474V25.5114C13.0474 25.8079 13.3439 26.1045 13.6404 26.1045H16.0126C16.3091 26.1045 16.6057 25.8079 16.6057 25.5114V24.3253H17.1987C17.4952 24.3253 17.7917 24.0288 17.7917 23.7323V22.5462H18.3848C18.6813 22.5462 18.9778 22.2497 18.9778 21.9532C18.9778 19.8775 19.8674 17.8019 21.35 16.3786C21.6465 16.082 21.943 15.7855 22.1803 15.489C24.0187 15.6076 25.442 17.1495 25.442 19.0473C25.442 20.5299 24.4931 21.8939 23.1291 22.3683C22.0616 22.7241 21.35 23.7323 21.35 24.9184Z" fill="#D9CDC1"/>
<path d="M7.70924 33.221C6.40455 33.221 5.33707 32.1536 5.33707 30.8489V30.2558C5.33707 29.2477 6.10802 28.4767 7.1162 28.4767H7.70924V26.1045H7.1162C5.57429 26.1045 4.26959 26.9348 3.49863 28.1802C2.49046 27.7057 1.77881 26.6976 1.77881 25.5115C1.77881 23.6137 3.55794 23.1986 4.3882 23.1393C5.33707 23.9103 6.52315 24.3254 7.70924 24.3254H9.48837V21.9532H7.70924C6.04872 21.9532 4.74402 20.6485 4.74402 18.988C4.74402 17.5647 5.8115 16.3193 7.1755 16.0821C7.41272 16.3193 7.64994 16.6158 7.82785 16.7937C9.25115 18.0984 10.0221 19.9962 10.0221 21.9532C10.0221 22.6056 10.5558 23.1393 11.2082 23.1393V23.7324C11.2082 24.3847 11.7419 24.9184 12.3943 24.9184V25.5115C12.3943 26.1638 12.928 26.6976 13.5804 26.6976H15.9525C16.6049 26.6976 17.1386 26.1638 17.1386 25.5115V24.9184C17.791 24.9184 18.3247 24.3847 18.3247 23.7324V23.1393C18.9771 23.1393 19.5108 22.6056 19.5108 21.9532C19.5108 19.9962 20.3411 18.1577 21.7051 16.7937C21.9423 16.5565 22.1795 16.3193 22.3574 16.0821C23.7807 16.3193 24.7889 17.5647 24.7889 18.988C24.7889 20.2334 24.0179 21.3602 22.8318 21.7753C21.6458 22.2497 20.7562 23.4951 20.7562 24.9184V25.5115L23.1284 25.3929V24.7998C23.1284 24.444 23.3656 24.0882 23.7807 23.9103C24.3144 23.7323 24.7889 23.4358 25.2633 23.08C26.0936 23.1393 27.8727 23.4951 27.8727 25.4522C27.8727 26.9348 26.8052 28.1209 25.4412 28.3581C24.5517 26.9941 23.0098 26.1045 21.3492 26.1045C18.7398 26.1045 16.6049 28.2395 16.6049 30.8489V31.4419H18.9771V30.8489C18.9771 29.5442 20.0445 28.4767 21.3492 28.4767C22.6539 28.4767 23.7214 29.5442 23.7214 30.8489C23.7214 32.1536 22.6539 33.221 21.3492 33.221H7.70924Z" fill="#FFF8EF"/>
<path d="M15.4191 24.9183V24.3253H14.233V24.9183H15.4191ZM16.0122 21.36V10.0922H13.64V21.36H16.0122ZM16.6052 23.1392V22.5461H13.047V23.1392H13.64H16.0122H16.6052ZM23.1287 9.49917C23.1287 7.1863 22.2391 5.05135 20.5786 3.50943C18.9181 1.90822 16.7238 1.13726 14.411 1.25587C10.141 1.43378 6.70139 4.99204 6.52348 9.20265C6.46417 11.5748 7.35374 13.8877 9.13287 15.5482C10.7341 17.0901 11.7423 19.1658 11.8609 21.4193H12.4539V10.0922H10.6748V11.2783H9.48869V9.49917C9.48869 9.20265 9.78521 8.90613 10.0817 8.90613H13.047H16.6052H19.5704C19.8669 8.90613 20.1635 9.20265 20.1635 9.49917V11.2783H18.9774V10.0922H17.1983V21.36H17.7913C17.9692 19.1658 18.9181 17.0308 20.5193 15.4889C22.2391 13.947 23.1287 11.812 23.1287 9.49917ZM4.1513 18.9879C4.1513 20.9449 5.75252 22.5461 7.70956 22.5461H8.89565V23.7322H7.70956C6.52348 23.7322 5.39669 23.2578 4.56643 22.5461C2.96522 22.6054 1.18609 23.3764 1.18609 25.5113C1.18609 27.1719 2.31287 28.5359 3.79548 28.951C4.32922 27.6463 5.57461 26.6974 7.11652 26.6974V27.8835C5.81182 27.8835 4.74435 28.951 4.74435 30.2557V30.8487C4.74435 32.5092 6.04904 33.8139 7.70956 33.8139H21.3496C23.0101 33.8139 24.3148 32.5092 24.3148 30.8487C24.3148 29.1882 23.0101 27.8835 21.3496 27.8835C19.689 27.8835 18.3843 29.1882 18.3843 30.8487H17.1983C17.1983 28.5359 19.0367 26.6974 21.3496 26.6974C23.0101 26.6974 24.4334 27.6463 25.0857 29.0696C26.9835 28.951 28.4661 27.4091 28.4661 25.5113C28.4661 23.3764 26.6869 22.6054 25.0264 22.5461C24.6113 22.9019 24.1369 23.2578 23.5438 23.4357C22.8915 23.6729 22.4763 24.2066 22.4763 24.859L21.3496 24.9183C21.3496 23.7322 22.0612 22.724 23.188 22.3089C24.552 21.7752 25.5009 20.4705 25.5009 18.9879C25.5009 17.0901 24.0183 15.5482 22.2391 15.4296C22.0019 15.7261 21.7054 16.082 21.4089 16.3192C19.8669 17.8018 19.0367 19.8181 19.0367 21.8938C19.0367 22.1903 18.7402 22.4868 18.4436 22.4868H17.8506V23.6729C17.8506 23.9694 17.5541 24.2659 17.2576 24.2659H16.6645V25.452C16.6645 25.7486 16.368 26.0451 16.0715 26.0451H13.6993C13.4028 26.0451 13.1063 25.7486 13.1063 25.452V24.2659H12.5132C12.2167 24.2659 11.9202 23.9694 11.9202 23.6729V22.4868H11.3271C11.0306 22.4868 10.7341 22.1903 10.7341 21.8938C10.7341 19.8181 9.84452 17.7425 8.36191 16.3192C8.06539 16.0226 7.76887 15.7261 7.53165 15.3703C5.63391 15.6075 4.1513 17.0901 4.1513 18.9879ZM2.96522 18.9879C2.96522 16.7343 4.56643 14.8366 6.70139 14.3621C5.75252 12.8202 5.27809 10.9818 5.33739 9.14334C5.5153 4.28039 9.48869 0.247695 14.3516 0.0104776C16.961 -0.108131 19.4518 0.781434 21.3496 2.61987C23.2473 4.4583 24.3148 6.88978 24.3148 9.49917C24.3148 11.219 23.8403 12.8795 22.9508 14.3621C25.0857 14.8366 26.6869 16.7343 26.6869 18.9879C26.6869 19.8774 26.4497 20.7077 25.9753 21.4786C28.2289 21.8345 29.6522 23.3764 29.6522 25.5113C29.6522 27.9428 27.8137 29.9592 25.4416 30.1964C25.4416 30.4336 25.5009 30.6115 25.5009 30.8487C25.5009 33.1616 23.6624 35 21.3496 35H7.70956C5.39669 35 3.55826 33.1616 3.55826 30.8487V30.2557C3.55826 30.1964 3.55826 30.1371 3.55826 30.0778C1.54191 29.544 0 27.7056 0 25.5113C0 23.3764 1.4233 21.8345 3.67687 21.4786C3.20243 20.7077 2.96522 19.8774 2.96522 18.9879Z" fill="#42210B"/>
</svg>
