<svg width="40" height="40" viewBox="0 0 40 40" fill="none" xmlns="http://www.w3.org/2000/svg">
<path d="M26.6667 6.66992C30.2917 6.69011 32.2548 6.85086 33.5355 8.13149C35 9.59596 35 11.953 35 16.667V26.667C35 31.381 35 33.7382 33.5355 35.2025C32.071 36.667 29.714 36.667 25 36.667H15C10.2859 36.667 7.92893 36.667 6.46447 35.2025C5 33.7382 5 31.381 5 26.667V16.667C5 11.953 5 9.59596 6.46447 8.13149C7.7451 6.85086 9.70828 6.69011 13.3333 6.66992" stroke="#1C274C" stroke-width="2"/>
<path d="M13.3333 23.3333H26.6666" stroke="#1C274C" stroke-width="2" strokeLinecap="round"/>
<path d="M11.6667 17.5H28.3334" stroke="#1C274C" stroke-width="2" strokeLinecap="round"/>
<path d="M15 29.1667H25" stroke="#1C274C" stroke-width="2" strokeLinecap="round"/>
<path d="M13.3333 5.83325C13.3333 4.45254 14.4525 3.33325 15.8333 3.33325H24.1666C25.5473 3.33325 26.6666 4.45254 26.6666 5.83325V7.49992C26.6666 8.88064 25.5473 9.99992 24.1666 9.99992H15.8333C14.4525 9.99992 13.3333 8.88064 13.3333 7.49992V5.83325Z" stroke="#1C274C" stroke-width="2"/>
</svg>
