<svg width="42" height="41" viewBox="0 0 42 41" fill="none" xmlns="http://www.w3.org/2000/svg">
<path d="M27.0966 1.35547H21.6772V4.74257H27.0966V1.35547Z" fill="#FFC600"/>
<path d="M25.7422 34.5485V38.6131H16.2583V34.5485H21.6777V33.1937H16.2583V31.8389H25.7422V33.1937H23.0325V34.5485H25.7422Z" fill="#CC9966"/>
<path d="M42 27.0968V39.9677C42 40.3065 41.6613 40.6452 41.3226 40.6452H29.129H12.871H0.677419C0.33871 40.6452 0 40.3065 0 39.9677V27.0968C0 27.029 0 26.9613 0 26.8935L2.70968 19.4419C2.84516 19.171 3.11613 18.9677 3.3871 18.9677H12.6L21 10.5L20.3226 0.677419C20.3226 0.33871 20.6613 0 21 0H27.7742C28.1129 0 28.4516 0.33871 28.4516 0.677419V5.41935C28.4516 5.82581 28.1129 6.09677 27.7742 6.09677H21.6774V10.5677L29.4 18.9677H38.6129C38.8839 18.9677 39.1548 19.171 39.2226 19.4419L41.9323 26.8935C42 26.9613 42 27.029 42 27.0968ZM40.6452 39.2903V27.7742H29.8065V39.2903H40.6452ZM40.3742 26.4194L38.1387 20.3226H29.8065V26.4194H40.3742ZM28.4516 39.2903V27.0968V20.3226H13.5484V27.0968V39.2903H14.9032V31.1613C14.9032 30.8226 15.2419 30.4839 15.5806 30.4839H26.4194C26.7581 30.4839 27.0968 30.8226 27.0968 31.1613V39.2903H28.4516ZM27.571 18.9677L21 11.8548L14.429 18.9677H27.571ZM27.0968 4.74194V1.35484H21.6774V4.74194H27.0968ZM25.7419 38.6129V34.5484H23.0323V33.1936H25.7419V31.8387H16.2581V33.1936H21.6774V34.5484H16.2581V38.6129H25.7419ZM12.1935 39.2903V27.7742H1.35484V39.2903H12.1935ZM12.1935 26.4194V20.3226H3.86129L1.62581 26.4194H12.1935Z" fill="#42210B"/>
<path d="M40.6454 27.7744V39.2905H29.8066V27.7744H40.6454ZM39.2905 35.226V29.8067C39.2905 29.468 38.9518 29.1293 38.6131 29.1293H31.8389C31.5002 29.1293 31.1615 29.468 31.1615 29.8067V35.226C31.1615 35.5647 31.5002 35.9034 31.8389 35.9034H38.6131C38.9518 35.9034 39.2905 35.5647 39.2905 35.226Z" fill="#FFF8EF"/>
<path d="M38.1389 20.3223L40.3744 26.419H29.8066V20.3223H38.1389Z" fill="#EE5656"/>
<path d="M39.2902 29.8063V35.2257C39.2902 35.5644 38.9515 35.9031 38.6127 35.9031H31.8386C31.4998 35.9031 31.1611 35.5644 31.1611 35.2257V29.8063C31.1611 29.4676 31.4998 29.1289 31.8386 29.1289H38.6127C38.9515 29.1289 39.2902 29.4676 39.2902 29.8063ZM37.9353 34.5483V30.4837H32.516V34.5483H37.9353Z" fill="#42210B"/>
<path d="M37.9355 30.4844H32.5161V34.5489H37.9355V30.4844Z" fill="#2FB4C2"/>
<path d="M28.4516 27.0965V39.29H27.0967V31.161C27.0967 30.8223 26.758 30.4836 26.4193 30.4836H15.5806C15.2419 30.4836 14.9032 30.8223 14.9032 31.161V39.29H13.5483V27.0965V20.3223H28.4516V27.0965ZM24.387 25.0642C24.387 23.1674 22.8967 21.6771 21 21.6771C19.1032 21.6771 17.6129 23.1674 17.6129 25.0642C17.6129 26.961 19.1032 28.4513 21 28.4513C22.8967 28.4513 24.387 26.961 24.387 25.0642Z" fill="#FFF8EF"/>
<path d="M21.0002 11.8555L27.5711 18.9684H14.4292L21.0002 11.8555Z" fill="#EE5656"/>
<path d="M20.9999 21.6777C22.8967 21.6777 24.387 23.1681 24.387 25.0648C24.387 26.9616 22.8967 28.4519 20.9999 28.4519C19.1031 28.4519 17.6128 26.9616 17.6128 25.0648C17.6128 23.1681 19.1031 21.6777 20.9999 21.6777ZM23.0321 25.0648C23.0321 23.9132 22.1515 23.0326 20.9999 23.0326C19.916 23.0326 18.9676 23.9132 18.9676 25.0648C18.9676 26.2164 19.916 27.0971 20.9999 27.0971C22.1515 27.0971 23.0321 26.2164 23.0321 25.0648Z" fill="#42210B"/>
<path d="M21 27.0967C22.1224 27.0967 23.0323 26.1869 23.0323 25.0645C23.0323 23.9421 22.1224 23.0322 21 23.0322C19.8776 23.0322 18.9678 23.9421 18.9678 25.0645C18.9678 26.1869 19.8776 27.0967 21 27.0967Z" fill="#1D9AAE"/>
<path d="M19.645 25.7422C19.645 26.1487 19.7805 26.4874 19.916 26.8261C20.2547 27.0293 20.5934 27.0971 20.9999 27.0971C22.1515 27.0971 23.0321 26.1487 23.0321 25.0648C23.0321 24.6583 22.8966 24.3196 22.7611 23.9809C22.4224 23.7777 22.0837 23.71 21.6773 23.71C20.5257 23.71 19.645 24.5906 19.645 25.7422Z" fill="#2FB4C2"/>
<path d="M12.1937 27.7744V39.2905H1.35498V27.7744H12.1937ZM10.8389 35.226V29.8067C10.8389 29.468 10.5001 29.1293 10.1614 29.1293H3.38724C2.98079 29.1293 2.70982 29.468 2.70982 29.8067V35.226C2.70982 35.5647 2.98079 35.9034 3.38724 35.9034H10.1614C10.5001 35.9034 10.8389 35.5647 10.8389 35.226Z" fill="#FFF8EF"/>
<path d="M12.1937 20.3223V26.419H1.62598L3.86146 20.3223H12.1937Z" fill="#EE5656"/>
<path d="M10.8385 29.8063V35.2257C10.8385 35.5644 10.4998 35.9031 10.1611 35.9031H3.38689C2.98044 35.9031 2.70947 35.5644 2.70947 35.2257V29.8063C2.70947 29.4676 2.98044 29.1289 3.38689 29.1289H10.1611C10.4998 29.1289 10.8385 29.4676 10.8385 29.8063ZM9.48367 34.5483V30.4837H4.06431V34.5483H9.48367Z" fill="#42210B"/>
<path d="M9.48381 30.4844H4.06445V34.5489H9.48381V30.4844Z" fill="#2FB4C2"/>
<path d="M1.62598 26.42H2.70985L4.20017 22.8974C4.53888 22.1522 5.2163 21.6103 6.0292 21.5425L12.1937 21.0006V20.3232H3.86146L1.62598 26.42Z" fill="#E94545"/>
<path d="M40.3744 26.42H39.2905L37.8002 22.8974C37.4615 22.1522 36.7841 21.6103 35.9712 21.5425L29.8066 21.0006V20.3232H38.1389L40.3744 26.42Z" fill="#E94545"/>
<path d="M14.9712 18.3587L19.7131 14.5651C20.4583 13.9555 21.5422 13.9555 22.2873 14.5651L27.0293 18.3587L21.0002 11.8555L14.9712 18.3587Z" fill="#E94545"/>
<path d="M12.1937 27.7734L3.38724 28.3831C2.57434 28.4509 1.89692 29.0605 1.76143 29.8057L1.35498 32.5154V27.7734H12.1937Z" fill="#D9CDC1"/>
<path d="M29.8066 27.7734L38.6131 28.3831C39.426 28.4509 40.1034 29.0605 40.2389 29.8057L40.7131 32.5154V27.7734H29.8066Z" fill="#D9CDC1"/>
<path d="M13.5483 21.6771C13.5483 21.6771 19.6451 19.6448 28.4516 21.6771V20.3223H13.5483V21.6771Z" fill="#D9CDC1"/>
<path d="M20.526 32.2453L25.7422 31.8389H16.2583V33.1937H18.1551C18.8325 32.6518 19.6454 32.3131 20.526 32.2453Z" fill="#B37D4D"/>
<path d="M17.0035 34.5488H16.2583V38.6133L16.5293 36.1069C16.597 35.565 16.8002 35.023 17.0035 34.5488Z" fill="#B37D4D"/>
<path d="M4.06445 34.5489C4.06445 34.5489 5.41929 31.8392 9.48381 30.4844H4.06445V34.5489Z" fill="#1D9AAE"/>
<path d="M37.9355 34.5489C37.9355 34.5489 36.5806 31.8392 32.5161 30.4844H37.9355V34.5489Z" fill="#1D9AAE"/>
</svg>
