<svg width="30" height="21" viewBox="0 0 30 21" fill="none" xmlns="http://www.w3.org/2000/svg">
<path d="M12.1206 14.8174V6.02768L19.8789 10.423L12.1206 14.8174ZM29.3771 3.26076C29.0267 1.97834 28.037 0.986707 26.7791 0.63579L26.7524 0.629876C23.5923 0.229673 19.9373 0.00098565 16.2279 0.00098565C15.8508 0.00098565 15.4747 0.00295706 15.0996 0.00788567L15.157 0.00690002C14.8383 0.00295713 14.4632 0 14.0862 0C10.3768 0 6.7198 0.228687 3.13015 0.671276L3.55968 0.627904C2.27603 0.985721 1.28633 1.97637 0.942902 3.23316L0.936964 3.25879C0.541082 5.33768 0.31543 7.73002 0.31543 10.1746C0.31543 10.2614 0.31543 10.3481 0.316419 10.4339V10.4201C0.316419 10.493 0.31543 10.5797 0.31543 10.6665C0.31543 13.1111 0.542072 15.5024 0.974572 17.8218L0.936964 17.5813C1.28732 18.8637 2.27702 19.8554 3.53494 20.2063L3.56166 20.2122C6.72178 20.6124 10.3768 20.8411 14.0862 20.8411C14.4623 20.8411 14.8383 20.8391 15.2144 20.8342L15.157 20.8352C15.4757 20.8391 15.8518 20.8421 16.2279 20.8421C19.9383 20.8421 23.5943 20.6134 27.1839 20.1708L26.7544 20.2142C28.039 19.8574 29.0287 18.8657 29.3731 17.6089L29.3791 17.5833C29.774 15.5044 29.9996 13.1121 29.9996 10.6685C29.9996 10.5817 29.9996 10.495 29.9986 10.4092V10.422C29.9986 10.3491 29.9996 10.2623 29.9996 10.1756C29.9996 7.73101 29.773 5.33965 29.3405 3.02025L29.3771 3.26076Z" fill="white"/>
</svg>
